ISO-10303-21;
HEADER;
FILE_DESCRIPTION (( 'STEP AP203' ),
    '1' );
FILE_NAME ('MB_door_front_slider_top_XL_v1.step',
    '2023-01-16T16:13:29',
    ( '' ),
    ( '' ),
    'SwSTEP 2.0',
    'SolidWorks 2023',
    '' );
FILE_SCHEMA (( 'CONFIG_CONTROL_DESIGN' ));
ENDSEC;

DATA;
#1 = DIRECTION ( 'NONE',  ( 0.7071067811865671127, 1.931629838975875095E-17, -0.7071067811865279218 ) ) ;
#2 = FACE_OUTER_BOUND ( 'NONE', #954, .T. ) ;
#3 = APPROVAL_STATUS ( 'not_yet_approved' ) ;
#4 = EDGE_CURVE ( 'NONE', #786, #1357, #393, .T. ) ;
#5 = EDGE_LOOP ( 'NONE', ( #1148, #997, #506, #994 ) ) ;
#6 = DIRECTION ( 'NONE',  ( 4.694622399615541673E-17, 1.000000000000000000, 0.000000000000000000 ) ) ;
#7 = CARTESIAN_POINT ( 'NONE',  ( 9.656854249492319298, 259.0000000000000000, 2.499999999999999556 ) ) ;
#8 = ORIENTED_EDGE ( 'NONE', *, *, #1143, .T. ) ;
#9 = AXIS2_PLACEMENT_3D ( 'NONE', #655, #1091, #445 ) ;
#10 = PLANE ( 'NONE',  #405 ) ;
#11 = ADVANCED_FACE ( 'NONE', ( #293 ), #918, .F. ) ;
#12 = AXIS2_PLACEMENT_3D ( 'NONE', #1015, #700, #161 ) ;
#13 = ORIENTED_EDGE ( 'NONE', *, *, #135, .T. ) ;
#14 = AXIS2_PLACEMENT_3D ( 'NONE', #388, #1046, #499 ) ;
#15 = LOCAL_TIME ( 17, 13, 29.00000000000000000, #474 ) ;
#16 = CARTESIAN_POINT ( 'NONE',  ( 3.001071613439876273E-13, 1.665334536937734811E-13, 3.000000000000000000 ) ) ;
#17 = DATE_AND_TIME ( #886, #651 ) ;
#18 = VERTEX_POINT ( 'NONE', #1029 ) ;
#19 = LINE ( 'NONE', #455, #1194 ) ;
#20 = ORIENTED_EDGE ( 'NONE', *, *, #296, .F. ) ;
#21 = VERTEX_POINT ( 'NONE', #56 ) ;
#22 = LINE ( 'NONE', #1294, #667 ) ;
#23 = APPROVAL_ROLE ( '' ) ;
#24 = EDGE_LOOP ( 'NONE', ( #1398, #1327, #792, #485 ) ) ;
#25 = FACE_OUTER_BOUND ( 'NONE', #1036, .T. ) ;
#26 = ORIENTED_EDGE ( 'NONE', *, *, #962, .T. ) ;
#27 = CARTESIAN_POINT ( 'NONE',  ( 9.656854249492321074, 256.0000000000000000, 0.000000000000000000 ) ) ;
#28 = EDGE_CURVE ( 'NONE', #343, #914, #489, .T. ) ;
#29 = DIRECTION ( 'NONE',  ( 1.000000000000000000, 0.000000000000000000, 0.000000000000000000 ) ) ;
#30 = PERSON_AND_ORGANIZATION_ROLE ( 'creator' ) ;
#31 = VERTEX_POINT ( 'NONE', #1348 ) ;
#32 = DIRECTION ( 'NONE',  ( -0.6123724356957682691, -0.3535533905932604637, -0.7071067811865769936 ) ) ;
#33 = VECTOR ( 'NONE', #504, 1000.000000000000114 ) ;
#34 = ORIENTED_EDGE ( 'NONE', *, *, #867, .T. ) ;
#35 = DIRECTION ( 'NONE',  ( -2.731737115764164561E-17, 1.000000000000000000, 0.000000000000000000 ) ) ;
#36 = AXIS2_PLACEMENT_3D ( 'NONE', #1332, #1127, #1338 ) ;
#37 = ORIENTED_EDGE ( 'NONE', *, *, #342, .F. ) ;
#38 = AXIS2_PLACEMENT_3D ( 'NONE', #486, #1268, #832 ) ;
#39 = AXIS2_PLACEMENT_3D ( 'NONE', #313, #743, #1397 ) ;
#40 = EDGE_CURVE ( 'NONE', #242, #880, #1252, .T. ) ;
#41 = CARTESIAN_POINT ( 'NONE',  ( 13.15685424949229088, 1.665334536937734811E-13, 3.000000000000000000 ) ) ;
#42 = CALENDAR_DATE ( 2023, 16, 1 ) ;
#43 = ORIENTED_EDGE ( 'NONE', *, *, #526, .T. ) ;
#44 = PLANE ( 'NONE',  #878 ) ;
#45 = EDGE_LOOP ( 'NONE', ( #839, #160, #132, #380 ) ) ;
#46 = CARTESIAN_POINT ( 'NONE',  ( -3.000000000000026645, 1.664515015803005350E-13, 3.000000000000000000 ) ) ;
#47 = ORIENTED_EDGE ( 'NONE', *, *, #875, .F. ) ;
#48 = PLANE ( 'NONE',  #36 ) ;
#49 = APPROVAL ( #118, 'UNSPECIFIED' ) ;
#50 = ORIENTED_EDGE ( 'NONE', *, *, #250, .T. ) ;
#51 = CARTESIAN_POINT ( 'NONE',  ( 3.001071613439876273E-13, 1.665334536937734811E-13, 3.000000000000000000 ) ) ;
#52 = EDGE_CURVE ( 'NONE', #102, #18, #62, .T. ) ;
#53 = ORIENTED_EDGE ( 'NONE', *, *, #1199, .F. ) ;
#54 = CARTESIAN_POINT ( 'NONE',  ( 3.001071613439876273E-13, 1.665334536937734811E-13, 0.000000000000000000 ) ) ;
#55 = DIRECTION ( 'NONE',  ( -0.000000000000000000, -0.000000000000000000, -1.000000000000000000 ) ) ;
#56 = CARTESIAN_POINT ( 'NONE',  ( 9.656854249492328179, 241.8660254037844766, 0.000000000000000000 ) ) ;
#57 = PLANE ( 'NONE',  #904 ) ;
#58 = EDGE_LOOP ( 'NONE', ( #873, #1259, #1360, #586 ) ) ;
#59 = EDGE_CURVE ( 'NONE', #1067, #314, #399, .T. ) ;
#60 = PLANE ( 'NONE',  #558 ) ;
#61 = VECTOR ( 'NONE', #1324, 1000.000000000000000 ) ;
#62 = CIRCLE ( 'NONE', #758, 1.399999999999999911 ) ;
#63 = AXIS2_PLACEMENT_3D ( 'NONE', #1214, #277, #155 ) ;
#64 = DIRECTION ( 'NONE',  ( 4.694622399615541673E-17, 1.000000000000000000, 0.000000000000000000 ) ) ;
#65 = VECTOR ( 'NONE', #653, 1000.000000000000000 ) ;
#66 = AXIS2_PLACEMENT_3D ( 'NONE', #980, #1169, #642 ) ;
#67 = ORIENTED_EDGE ( 'NONE', *, *, #509, .T. ) ;
#68 = DIRECTION ( 'NONE',  ( 0.6123724356957808146, -0.3535533905932609078, -0.7071067811865658914 ) ) ;
#69 = VERTEX_POINT ( 'NONE', #615 ) ;
#70 = DIRECTION ( 'NONE',  ( 0.6947465906068851504, -0.1861567878973837686, 0.6947465906068468477 ) ) ;
#71 = ADVANCED_FACE ( 'NONE', ( #1231 ), #264, .T. ) ;
#72 = EDGE_CURVE ( 'NONE', #914, #31, #634, .T. ) ;
#73 = DIRECTION ( 'NONE',  ( -3.097720492815727042E-17, -1.000000000000000000, 0.000000000000000000 ) ) ;
#74 = VERTEX_POINT ( 'NONE', #324 ) ;
#75 = LINE ( 'NONE', #505, #990 ) ;
#76 = ORIENTED_EDGE ( 'NONE', *, *, #604, .T. ) ;
#77 = DIRECTION ( 'NONE',  ( 0.000000000000000000, 0.000000000000000000, 1.000000000000000000 ) ) ;
#78 = CARTESIAN_POINT ( 'NONE',  ( 111.9737018431442124, 64.64804690129827236, 3.000000000000000000 ) ) ;
#79 = EDGE_CURVE ( 'NONE', #1309, #31, #973, .T. ) ;
#80 = DIRECTION ( 'NONE',  ( 5.094272395698594715E-16, -0.8320502943378437211, -0.5547001962252291474 ) ) ;
#81 = DIRECTION ( 'NONE',  ( 2.731737115764164561E-17, -1.000000000000000000, 0.000000000000000000 ) ) ;
#82 = VERTEX_POINT ( 'NONE', #106 ) ;
#83 = DIRECTION ( 'NONE',  ( -0.5000000000000004441, 0.8660254037844382635, 0.000000000000000000 ) ) ;
#84 = CLOSED_SHELL ( 'NONE', ( #495, #411, #237, #1096, #328, #1275, #1291, #335, #1385, #1074, #727, #286, #320, #519, #303, #374, #847, #206, #1326, #551, #1269, #1176, #1353, #1090, #659, #1378, #1335, #921, #464, #829, #984, #1185, #1152, #749, #11, #162, #71, #426, #104, #87, #99, #794, #1115, #1133, #1193, #543, #576, #654, #156, #882 ) ) ;
#85 = LINE ( 'NONE', #639, #626 ) ;
#86 = AXIS2_PLACEMENT_3D ( 'NONE', #1139, #77, #922 ) ;
#87 = ADVANCED_FACE ( 'NONE', ( #1168 ), #198, .T. ) ;
#88 = CARTESIAN_POINT ( 'NONE',  ( 3.156854249492318853, 258.5000000000000568, 2.499999999999999556 ) ) ;
#89 = CIRCLE ( 'NONE', #1346, 1.899999999999957279 ) ;
#90 = CARTESIAN_POINT ( 'NONE',  ( -1.899999999999657074, 1.665334536937734811E-13, 0.000000000000000000 ) ) ;
#91 = VERTEX_POINT ( 'NONE', #734 ) ;
#92 = LINE ( 'NONE', #437, #65 ) ;
#93 = CARTESIAN_POINT ( 'NONE',  ( 3.500000000000000000, 14.00000000000000000, 0.4999999999999744094 ) ) ;
#94 = FACE_OUTER_BOUND ( 'NONE', #147, .T. ) ;
#95 = FACE_OUTER_BOUND ( 'NONE', #448, .T. ) ;
#96 = EDGE_CURVE ( 'NONE', #258, #1319, #876, .T. ) ;
#97 = VERTEX_POINT ( 'NONE', #510 ) ;
#98 = CARTESIAN_POINT ( 'NONE',  ( 9.656854249492317521, 259.0000000000000000, 2.000000000000001776 ) ) ;
#99 = ADVANCED_FACE ( 'NONE', ( #94 ), #753, .T. ) ;
#100 = CARTESIAN_POINT ( 'NONE',  ( 3.656854249492318409, 256.0000000000000000, 0.000000000000000000 ) ) ;
#101 = DIRECTION ( 'NONE',  ( -1.000000000000000000, 0.000000000000000000, 0.000000000000000000 ) ) ;
#102 = VERTEX_POINT ( 'NONE', #1366 ) ;
#103 = CARTESIAN_POINT ( 'NONE',  ( 3.000000000000027534, 14.13397459621556074, 3.000000000000000000 ) ) ;
#104 = ADVANCED_FACE ( 'NONE', ( #629 ), #1076, .T. ) ;
#105 = DIRECTION ( 'NONE',  ( -1.000000000000000000, 0.000000000000000000, 0.000000000000000000 ) ) ;
#106 = CARTESIAN_POINT ( 'NONE',  ( 3.156854249492318853, 255.8486121811340297, 0.4999999999999638067 ) ) ;
#107 = VECTOR ( 'NONE', #503, 1000.000000000000114 ) ;
#108 = VECTOR ( 'NONE', #793, 1000.000000000000114 ) ;
#109 = ORIENTED_EDGE ( 'NONE', *, *, #475, .F. ) ;
#110 = CARTESIAN_POINT ( 'NONE',  ( 9.656854249492319298, 258.5000000000000568, 3.000000000000000000 ) ) ;
#111 = FACE_OUTER_BOUND ( 'NONE', #395, .T. ) ;
#112 = DIRECTION ( 'NONE',  ( 0.7071067811865868746, -0.7071067811865081598, 3.931702298160709219E-14 ) ) ;
#113 = PLANE ( 'NONE',  #39 ) ;
#114 = ORIENTED_EDGE ( 'NONE', *, *, #271, .F. ) ;
#115 = DIRECTION ( 'NONE',  ( -0.6123724356958113457, -0.3535533905932839449, -0.7071067811865279218 ) ) ;
#116 = EDGE_CURVE ( 'NONE', #1122, #462, #353, .T. ) ;
#117 = CARTESIAN_POINT ( 'NONE',  ( 10.15685424949231930, 256.0000000000000000, 0.000000000000000000 ) ) ;
#118 = APPROVAL_STATUS ( 'not_yet_approved' ) ;
#119 = ORIENTED_EDGE ( 'NONE', *, *, #783, .F. ) ;
#120 = PLANE ( 'NONE',  #1039 ) ;
#121 = ORIENTED_EDGE ( 'NONE', *, *, #398, .T. ) ;
#122 = CARTESIAN_POINT ( 'NONE',  ( 18.65685424949231930, 40.25244164303730088, 0.4999999999999744094 ) ) ;
#123 = PERSON_AND_ORGANIZATION ( #870, #992 ) ;
#124 = EDGE_LOOP ( 'NONE', ( #679, #805, #231 ) ) ;
#125 = CARTESIAN_POINT ( 'NONE',  ( 18.65685424949231574, 40.25244164303730088, 0.4999999999999726885 ) ) ;
#126 = EDGE_CURVE ( 'NONE', #1209, #74, #1057, .T. ) ;
#127 = CONICAL_SURFACE ( 'NONE', #1258, 1.899999999999957279, 0.7853981633974485010 ) ;
#128 = ORIENTED_EDGE ( 'NONE', *, *, #1284, .T. ) ;
#129 = ORIENTED_EDGE ( 'NONE', *, *, #1135, .T. ) ;
#130 = AXIS2_PLACEMENT_3D ( 'NONE', #1368, #827, #1142 ) ;
#131 = LINE ( 'NONE', #122, #1190 ) ;
#132 = ORIENTED_EDGE ( 'NONE', *, *, #188, .F. ) ;
#133 = DIRECTION ( 'NONE',  ( -1.000000000000000000, 0.000000000000000000, 0.000000000000000000 ) ) ;
#134 = ORIENTED_EDGE ( 'NONE', *, *, #59, .T. ) ;
#135 = EDGE_CURVE ( 'NONE', #258, #1111, #964, .T. ) ;
#136 = LINE ( 'NONE', #259, #602 ) ;
#137 = LINE ( 'NONE', #7, #1125 ) ;
#138 = CALENDAR_DATE ( 2023, 16, 1 ) ;
#139 = ORIENTED_EDGE ( 'NONE', *, *, #509, .F. ) ;
#140 = FACE_OUTER_BOUND ( 'NONE', #5, .T. ) ;
#141 = ORIENTED_EDGE ( 'NONE', *, *, #956, .T. ) ;
#142 = LINE ( 'NONE', #574, #1278 ) ;
#143 = EDGE_CURVE ( 'NONE', #525, #341, #1162, .T. ) ;
#144 = EDGE_LOOP ( 'NONE', ( #487, #1047, #939, #150 ) ) ;
#145 = CARTESIAN_POINT ( 'NONE',  ( 3.156854249492318853, 258.5000000000000568, 2.499999999999999556 ) ) ;
#146 = PERSON_AND_ORGANIZATION ( #870, #992 ) ;
#147 = EDGE_LOOP ( 'NONE', ( #863, #987, #702, #1155 ) ) ;
#148 = CARTESIAN_POINT ( 'NONE',  ( 1.900000000000257483, 1.667661365856114804E-13, 0.000000000000000000 ) ) ;
#149 = VECTOR ( 'NONE', #742, 1000.000000000000114 ) ;
#150 = ORIENTED_EDGE ( 'NONE', *, *, #1049, .F. ) ;
#151 = LINE ( 'NONE', #977, #515 ) ;
#152 = VECTOR ( 'NONE', #819, 1000.000000000000000 ) ;
#153 = ORIENTED_EDGE ( 'NONE', *, *, #392, .T. ) ;
#154 = VECTOR ( 'NONE', #527, 1000.000000000000000 ) ;
#155 = DIRECTION ( 'NONE',  ( 4.694622399615541673E-17, 1.000000000000000000, 0.000000000000000000 ) ) ;
#156 = ADVANCED_FACE ( 'NONE', ( #1064 ), #308, .T. ) ;
#157 = ORIENTED_EDGE ( 'NONE', *, *, #867, .F. ) ;
#158 = DIRECTION ( 'NONE',  ( 0.000000000000000000, -1.000000000000000000, 0.000000000000000000 ) ) ;
#159 = CARTESIAN_POINT ( 'NONE',  ( 1.400000000000300115, 1.667049042456541002E-13, 0.4999999999999570899 ) ) ;
#160 = ORIENTED_EDGE ( 'NONE', *, *, #765, .T. ) ;
#161 = DIRECTION ( 'NONE',  ( -1.000000000000000000, 0.000000000000000000, 0.000000000000000000 ) ) ;
#162 = ADVANCED_FACE ( 'NONE', ( #318 ), #621, .T. ) ;
#163 = ORIENTED_EDGE ( 'NONE', *, *, #596, .T. ) ;
#164 = CARTESIAN_POINT ( 'NONE',  ( -2.999999999999698908, -1.806303437139192286E-16, 0.000000000000000000 ) ) ;
#165 = ORIENTED_EDGE ( 'NONE', *, *, #526, .F. ) ;
#166 = CARTESIAN_POINT ( 'NONE',  ( 13.08986695138454159, 43.61013679762404394, 0.000000000000000000 ) ) ;
#167 = CARTESIAN_POINT ( 'NONE',  ( 3.656854249492319298, 259.0000000000000000, 2.000000000000001776 ) ) ;
#168 = ORIENTED_EDGE ( 'NONE', *, *, #194, .F. ) ;
#169 = FACE_OUTER_BOUND ( 'NONE', #45, .T. ) ;
#170 = ORIENTED_EDGE ( 'NONE', *, *, #840, .T. ) ;
#171 = DIRECTION ( 'NONE',  ( 0.4999999999999948375, 0.8660254037844415942, 0.000000000000000000 ) ) ;
#172 = EDGE_CURVE ( 'NONE', #1099, #597, #523, .T. ) ;
#173 = VECTOR ( 'NONE', #246, 999.9999999999998863 ) ;
#174 = VECTOR ( 'NONE', #890, 999.9999999999998863 ) ;
#175 = AXIS2_PLACEMENT_3D ( 'NONE', #125, #477, #1317 ) ;
#176 = DIRECTION ( 'NONE',  ( 0.7071067811865082708, -0.7071067811865868746, 0.000000000000000000 ) ) ;
#177 = LOCAL_TIME ( 17, 13, 29.00000000000000000, #578 ) ;
#178 = CARTESIAN_POINT ( 'NONE',  ( 3.001071613439876273E-13, 1.665334536937734811E-13, 2.499999999999987566 ) ) ;
#179 = CARTESIAN_POINT ( 'NONE',  ( -3.000000000000026645, 1.664515015803005350E-13, 3.000000000000000000 ) ) ;
#180 = VERTEX_POINT ( 'NONE', #538 ) ;
#181 = DIRECTION ( 'NONE',  ( -0.4999999999999948375, -0.8660254037844415942, 0.000000000000000000 ) ) ;
#182 = EDGE_CURVE ( 'NONE', #800, #611, #958, .T. ) ;
#183 = CARTESIAN_POINT ( 'NONE',  ( 12.16148031237848670, 255.2416602465297331, 2.504626062886024851 ) ) ;
#184 = EDGE_LOOP ( 'NONE', ( #1339, #920, #1311, #960 ) ) ;
#185 = LINE ( 'NONE', #490, #582 ) ;
#186 = VERTEX_POINT ( 'NONE', #1177 ) ;
#187 = CARTESIAN_POINT ( 'NONE',  ( -4.569142030249181197, 16.16212009061729304, 1.430857969750759295 ) ) ;
#188 = EDGE_CURVE ( 'NONE', #1097, #1111, #204, .T. ) ;
#189 = CARTESIAN_POINT ( 'NONE',  ( 1.900000000000312994, 1.665334536937734811E-13, 3.000000000000000000 ) ) ;
#190 = DIRECTION ( 'NONE',  ( -0.000000000000000000, -0.000000000000000000, 1.000000000000000000 ) ) ;
#191 = DIRECTION ( 'NONE',  ( -1.922962686383706551E-16, 0.7071067811865082708, -0.7071067811865867636 ) ) ;
#192 = ORIENTED_EDGE ( 'NONE', *, *, #561, .F. ) ;
#193 = DIRECTION ( 'NONE',  ( -0.7071067811865273667, -4.329299058870576535E-16, -0.7071067811865676678 ) ) ;
#194 = EDGE_CURVE ( 'NONE', #914, #1120, #866, .T. ) ;
#195 = DIRECTION ( 'NONE',  ( -1.000000000000000000, 0.000000000000000000, 0.000000000000000000 ) ) ;
#196 = AXIS2_PLACEMENT_3D ( 'NONE', #797, #488, #1230 ) ;
#197 = EDGE_CURVE ( 'NONE', #21, #242, #235, .T. ) ;
#198 = PLANE ( 'NONE',  #804 ) ;
#199 = VECTOR ( 'NONE', #307, 1000.000000000000000 ) ;
#200 = DIRECTION ( 'NONE',  ( -1.000000000000000000, 0.000000000000000000, 0.000000000000000000 ) ) ;
#201 = ORIENTED_EDGE ( 'NONE', *, *, #1006, .T. ) ;
#202 = CARTESIAN_POINT ( 'NONE',  ( -1.399999999999699929, 1.665334536937734811E-13, 3.000000000000000000 ) ) ;
#203 = DIRECTION ( 'NONE',  ( 0.000000000000000000, 1.000000000000000000, 0.000000000000000000 ) ) ;
#204 = LINE ( 'NONE', #1396, #899 ) ;
#205 =( NAMED_UNIT ( * ) SI_UNIT ( $, .STERADIAN. ) SOLID_ANGLE_UNIT ( ) );
#206 = ADVANCED_FACE ( 'NONE', ( #766 ), #1196, .F. ) ;
#207 = EDGE_LOOP ( 'NONE', ( #790, #43, #121, #1141 ) ) ;
#208 = PLANE ( 'NONE',  #833 ) ;
#209 = APPLICATION_CONTEXT ( 'configuration controlled 3d designs of mechanical parts and assemblies' ) ;
#210 = LINE ( 'NONE', #78, #218 ) ;
#211 = DIRECTION ( 'NONE',  ( 1.000000000000000000, 0.000000000000000000, 0.000000000000000000 ) ) ;
#212 = DIRECTION ( 'NONE',  ( -0.7071067811865279218, 3.360558608890146323E-14, 0.7071067811865671127 ) ) ;
#213 = VERTEX_POINT ( 'NONE', #879 ) ;
#214 = CC_DESIGN_PERSON_AND_ORGANIZATION_ASSIGNMENT ( #330, #556, ( #276 ) ) ;
#215 = DIRECTION ( 'NONE',  ( -0.000000000000000000, -0.000000000000000000, -1.000000000000000000 ) ) ;
#216 = CARTESIAN_POINT ( 'NONE',  ( 3.656854249492318409, 259.0000000000000000, 2.000000000000009326 ) ) ;
#217 = DIRECTION ( 'NONE',  ( -0.4999999999999948375, -0.8660254037844415942, 0.000000000000000000 ) ) ;
#218 = VECTOR ( 'NONE', #508, 1000.000000000000000 ) ;
#219 = VECTOR ( 'NONE', #869, 1000.000000000000000 ) ;
#220 = EDGE_LOOP ( 'NONE', ( #369, #730, #1031, #451 ) ) ;
#221 = CARTESIAN_POINT ( 'NONE',  ( 3.001071613439876273E-13, 1.665334536937734811E-13, 2.499999999999999556 ) ) ;
#222 = EDGE_CURVE ( 'NONE', #1355, #559, #137, .T. ) ;
#223 = DIRECTION ( 'NONE',  ( -0.000000000000000000, -0.000000000000000000, -1.000000000000000000 ) ) ;
#224 = ORIENTED_EDGE ( 'NONE', *, *, #1108, .F. ) ;
#225 = LINE ( 'NONE', #1293, #496 ) ;
#226 = ORIENTED_EDGE ( 'NONE', *, *, #52, .T. ) ;
#227 = EDGE_CURVE ( 'NONE', #269, #824, #1302, .T. ) ;
#228 = CARTESIAN_POINT ( 'NONE',  ( 9.656854249492328179, 241.8660254037845618, 3.000000000000000000 ) ) ;
#229 = EDGE_CURVE ( 'NONE', #476, #708, #885, .T. ) ;
#230 = PERSON_AND_ORGANIZATION ( #870, #992 ) ;
#231 = ORIENTED_EDGE ( 'NONE', *, *, #707, .T. ) ;
#232 = CARTESIAN_POINT ( 'NONE',  ( 3.001071613439876273E-13, 1.665334536937734811E-13, 3.000000000000000000 ) ) ;
#233 = ORIENTED_EDGE ( 'NONE', *, *, #545, .T. ) ;
#234 = ORIENTED_EDGE ( 'NONE', *, *, #1307, .F. ) ;
#235 = LINE ( 'NONE', #1206, #379 ) ;
#236 = AXIS2_PLACEMENT_3D ( 'NONE', #772, #29, #666 ) ;
#237 = ADVANCED_FACE ( 'NONE', ( #453 ), #1104, .F. ) ;
#238 = EDGE_LOOP ( 'NONE', ( #1172, #1362, #769, #776, #1183, #685, #67, #1241, #201, #401, #670, #153 ) ) ;
#239 = VECTOR ( 'NONE', #73, 1000.000000000000000 ) ;
#240 = CARTESIAN_POINT ( 'NONE',  ( 18.65685424949231574, 227.2775681356645805, 3.000000000000000000 ) ) ;
#241 = VECTOR ( 'NONE', #1140, 1000.000000000000000 ) ;
#242 = VERTEX_POINT ( 'NONE', #337 ) ;
#243 = PLANE ( 'NONE',  #1299 ) ;
#244 = VECTOR ( 'NONE', #928, 1000.000000000000000 ) ;
#245 = ORIENTED_EDGE ( 'NONE', *, *, #229, .T. ) ;
#246 = DIRECTION ( 'NONE',  ( 0.4999999999999948375, 0.8660254037844415942, 0.000000000000000000 ) ) ;
#247 = DATE_AND_TIME ( #684, #1347 ) ;
#248 = ORIENTED_EDGE ( 'NONE', *, *, #1066, .T. ) ;
#249 = DIRECTION ( 'NONE',  ( 0.6947465906068833741, -0.1861567878973974244, -0.6947465906068448493 ) ) ;
#250 = EDGE_CURVE ( 'NONE', #824, #597, #570, .T. ) ;
#251 = ORIENTED_EDGE ( 'NONE', *, *, #392, .F. ) ;
#252 = DIRECTION ( 'NONE',  ( 0.6613355025394692666, -0.6613355025393957698, 0.3539360198705870375 ) ) ;
#253 = ORIENTED_EDGE ( 'NONE', *, *, #366, .T. ) ;
#254 = FACE_OUTER_BOUND ( 'NONE', #1078, .T. ) ;
#255 = PERSON_AND_ORGANIZATION_ROLE ( 'design_supplier' ) ;
#256 = ORIENTED_EDGE ( 'NONE', *, *, #96, .F. ) ;
#257 = PLANE ( 'NONE',  #1062 ) ;
#258 = VERTEX_POINT ( 'NONE', #352 ) ;
#259 = CARTESIAN_POINT ( 'NONE',  ( 18.22384154760010944, 227.0275681356645805, 0.000000000000000000 ) ) ;
#260 = VERTEX_POINT ( 'NONE', #228 ) ;
#261 = EDGE_CURVE ( 'NONE', #18, #520, #676, .T. ) ;
#262 = ADVANCED_BREP_SHAPE_REPRESENTATION ( 'MB_door_front_slider_top_XL_v1', ( #785, #385 ), #834 ) ;
#263 = DIRECTION ( 'NONE',  ( 6.122553444624020051E-16, -1.000000000000000000, 0.000000000000000000 ) ) ;
#264 = PLANE ( 'NONE',  #444 ) ;
#265 = DIRECTION ( 'NONE',  ( 0.6947465906068462926, -0.1861567878973873214, 0.6947465906068847064 ) ) ;
#266 = AXIS2_PLACEMENT_3D ( 'NONE', #419, #729, #1051 ) ;
#267 = CARTESIAN_POINT ( 'NONE',  ( 10.15685424949232996, 242.0000000000000000, 3.000000000000000000 ) ) ;
#268 = VECTOR ( 'NONE', #252, 999.9999999999998863 ) ;
#269 = VERTEX_POINT ( 'NONE', #991 ) ;
#270 = CIRCLE ( 'NONE', #669, 3.499999999999999556 ) ;
#271 = EDGE_CURVE ( 'NONE', #180, #525, #1095, .T. ) ;
#272 = PLANE ( 'NONE',  #311 ) ;
#273 = ORIENTED_EDGE ( 'NONE', *, *, #757, .F. ) ;
#274 = CARTESIAN_POINT ( 'NONE',  ( 10.15685424949231930, 258.7226499018874506, 2.416025147168889387 ) ) ;
#275 = FACE_OUTER_BOUND ( 'NONE', #144, .T. ) ;
#276 = PRODUCT_DEFINITION ( 'UNKNOWN', '', #971, #1384 ) ;
#277 = DIRECTION ( 'NONE',  ( 1.000000000000000000, -4.694622399615541673E-17, 0.000000000000000000 ) ) ;
#278 = DIRECTION ( 'NONE',  ( -6.122553444624020051E-16, 1.000000000000000000, 0.000000000000000000 ) ) ;
#279 = DIRECTION ( 'NONE',  ( 0.5000000000000004441, -0.8660254037844382635, 0.000000000000000000 ) ) ;
#280 = ORIENTED_EDGE ( 'NONE', *, *, #604, .F. ) ;
#281 = CARTESIAN_POINT ( 'NONE',  ( 5.310645111940510255, 13.51483910447619863, 2.310645111940382357 ) ) ;
#282 = PRODUCT_DEFINITION_SHAPE ( 'NONE', 'NONE',  #276 ) ;
#283 = LINE ( 'NONE', #145, #989 ) ;
#284 = DIRECTION ( 'NONE',  ( -2.731737115764164561E-17, 1.000000000000000000, 0.000000000000000000 ) ) ;
#285 = DIRECTION ( 'NONE',  ( 3.097720492815727042E-17, 1.000000000000000000, 0.000000000000000000 ) ) ;
#286 = ADVANCED_FACE ( 'NONE', ( #2 ), #791, .F. ) ;
#287 = CARTESIAN_POINT ( 'NONE',  ( 10.15685424949232107, 255.8486121811340297, 0.4999999999999726885 ) ) ;
#288 = AXIS2_PLACEMENT_3D ( 'NONE', #377, #820, #713 ) ;
#289 = AXIS2_PLACEMENT_3D ( 'NONE', #54, #1312, #1117 ) ;
#290 = VECTOR ( 'NONE', #1266, 1000.000000000000000 ) ;
#291 = FACE_OUTER_BOUND ( 'NONE', #348, .T. ) ;
#292 = CONICAL_SURFACE ( 'NONE', #1394, 3.000000000000027089, 0.7853981633974206344 ) ;
#293 = FACE_OUTER_BOUND ( 'NONE', #24, .T. ) ;
#294 = DIRECTION ( 'NONE',  ( -1.000000000000000000, 0.000000000000000000, 0.000000000000000000 ) ) ;
#295 = EDGE_LOOP ( 'NONE', ( #456, #1071, #333, #966 ) ) ;
#296 = EDGE_CURVE ( 'NONE', #571, #91, #131, .T. ) ;
#297 = CARTESIAN_POINT ( 'NONE',  ( 3.156854249492317965, 240.5243556529821376, 0.4999999999999726885 ) ) ;
#298 = DIRECTION ( 'NONE',  ( 0.000000000000000000, 0.000000000000000000, -1.000000000000000000 ) ) ;
#299 = CARTESIAN_POINT ( 'NONE',  ( -3.499999999999999556, 15.87564434701783966, 3.000000000000000000 ) ) ;
#300 = EDGE_LOOP ( 'NONE', ( #1221, #623, #677, #114 ) ) ;
#301 = DIRECTION ( 'NONE',  ( 3.097720492815727042E-17, 1.000000000000000000, 0.000000000000000000 ) ) ;
#302 = EDGE_CURVE ( 'NONE', #213, #1309, #555, .T. ) ;
#303 = ADVANCED_FACE ( 'NONE', ( #1314 ), #345, .F. ) ;
#304 = DIRECTION ( 'NONE',  ( -0.7071067811865279218, 0.000000000000000000, -0.7071067811865671127 ) ) ;
#305 = CARTESIAN_POINT ( 'NONE',  ( -3.500000000000002220, 15.87564434701783966, 0.4999999999999744094 ) ) ;
#306 = ORIENTED_EDGE ( 'NONE', *, *, #126, .F. ) ;
#307 = DIRECTION ( 'NONE',  ( 0.000000000000000000, -1.000000000000000000, 0.000000000000000000 ) ) ;
#308 = CONICAL_SURFACE ( 'NONE', #779, 3.499999999999999556, 0.7853981633974760346 ) ;
#309 = LINE ( 'NONE', #740, #557 ) ;
#310 = EDGE_CURVE ( 'NONE', #343, #1236, #465, .T. ) ;
#311 = AXIS2_PLACEMENT_3D ( 'NONE', #473, #386, #1134 ) ;
#312 = DIRECTION ( 'NONE',  ( 0.7071067811865108244, 0.3922322702763887947, -0.5883484054145825537 ) ) ;
#313 = CARTESIAN_POINT ( 'NONE',  ( 18.65685424949231574, 40.25244164303730088, 3.000000000000000000 ) ) ;
#314 = VERTEX_POINT ( 'NONE', #1000 ) ;
#315 = DIRECTION ( 'NONE',  ( -0.7071067811865477948, 8.659560562354936556E-17, 0.7071067811865473507 ) ) ;
#316 = DIRECTION ( 'NONE',  ( -0.5000000000000019984, 0.8660254037844374864, 0.000000000000000000 ) ) ;
#317 = EDGE_CURVE ( 'NONE', #260, #367, #22, .T. ) ;
#318 = FACE_OUTER_BOUND ( 'NONE', #795, .T. ) ;
#319 = FACE_OUTER_BOUND ( 'NONE', #350, .T. ) ;
#320 = ADVANCED_FACE ( 'NONE', ( #329 ), #781, .F. ) ;
#321 = ORIENTED_EDGE ( 'NONE', *, *, #271, .T. ) ;
#322 = CARTESIAN_POINT ( 'NONE',  ( 3.001071613439876273E-13, 258.5000000000000568, 3.000000000000000000 ) ) ;
#323 = LINE ( 'NONE', #1337, #268 ) ;
#324 = CARTESIAN_POINT ( 'NONE',  ( 13.15685424949229265, 224.2038475772934873, 3.000000000000000000 ) ) ;
#325 = PERSON_AND_ORGANIZATION ( #870, #992 ) ;
#326 = ORIENTED_EDGE ( 'NONE', *, *, #978, .F. ) ;
#327 = DIRECTION ( 'NONE',  ( -0.000000000000000000, -0.000000000000000000, -1.000000000000000000 ) ) ;
#328 = ADVANCED_FACE ( 'NONE', ( #1034, #254 ), #917, .T. ) ;
#329 = FACE_OUTER_BOUND ( 'NONE', #710, .T. ) ;
#330 = PERSON_AND_ORGANIZATION ( #870, #992 ) ;
#331 = VECTOR ( 'NONE', #1084, 1000.000000000000000 ) ;
#332 = VECTOR ( 'NONE', #249, 1000.000000000000114 ) ;
#333 = ORIENTED_EDGE ( 'NONE', *, *, #812, .F. ) ;
#334 = CARTESIAN_POINT ( 'NONE',  ( 111.9737018431441982, 64.64804690129827236, 3.000000000000000000 ) ) ;
#335 = ADVANCED_FACE ( 'NONE', ( #1359 ), #48, .F. ) ;
#336 = APPROVAL_PERSON_ORGANIZATION ( #146, #49, #23 ) ;
#337 = CARTESIAN_POINT ( 'NONE',  ( 10.15685424949232996, 242.0000000000000000, 0.4999999999999726885 ) ) ;
#338 = APPROVAL_DATE_TIME ( #17, #49 ) ;
#339 = ORIENTED_EDGE ( 'NONE', *, *, #1227, .T. ) ;
#340 = CARTESIAN_POINT ( 'NONE',  ( 18.15685424949231219, 227.1435935394490571, 0.000000000000000000 ) ) ;
#341 = VERTEX_POINT ( 'NONE', #167 ) ;
#342 = EDGE_CURVE ( 'NONE', #566, #911, #803, .T. ) ;
#343 = VERTEX_POINT ( 'NONE', #1244 ) ;
#344 = EDGE_CURVE ( 'NONE', #314, #74, #481, .T. ) ;
#345 = PLANE ( 'NONE',  #236 ) ;
#346 = ORIENTED_EDGE ( 'NONE', *, *, #1082, .F. ) ;
#347 = FACE_OUTER_BOUND ( 'NONE', #674, .T. ) ;
#348 = EDGE_LOOP ( 'NONE', ( #129, #251, #306, #165 ) ) ;
#349 = FACE_OUTER_BOUND ( 'NONE', #1336, .T. ) ;
#350 = EDGE_LOOP ( 'NONE', ( #1129, #360, #224, #999 ) ) ;
#351 = EDGE_CURVE ( 'NONE', #763, #1022, #706, .T. ) ;
#352 = CARTESIAN_POINT ( 'NONE',  ( 2.999999999999999112, 2.395702683850635980E-14, 0.000000000000000000 ) ) ;
#353 = CIRCLE ( 'NONE', #266, 3.000000000000027089 ) ;
#354 = ORIENTED_EDGE ( 'NONE', *, *, #680, .F. ) ;
#355 = VECTOR ( 'NONE', #614, 1000.000000000000000 ) ;
#356 = DIRECTION ( 'NONE',  ( -0.5000000000000019984, 0.8660254037844374864, 0.000000000000000000 ) ) ;
#357 = ORIENTED_EDGE ( 'NONE', *, *, #1082, .T. ) ;
#358 = CARTESIAN_POINT ( 'NONE',  ( 3.656854249492279330, 1.663617781950555452E-13, 3.000000000000000000 ) ) ;
#359 = APPROVAL_PERSON_ORGANIZATION ( #123, #970, #1215 ) ;
#360 = ORIENTED_EDGE ( 'NONE', *, *, #116, .F. ) ;
#361 = CARTESIAN_POINT ( 'NONE',  ( 3.156854249492318853, 258.5000000000000568, 3.000000000000000000 ) ) ;
#362 = PERSON_AND_ORGANIZATION ( #870, #992 ) ;
#363 = CC_DESIGN_PERSON_AND_ORGANIZATION_ASSIGNMENT ( #325, #1188, ( #721 ) ) ;
#364 = ORIENTED_EDGE ( 'NONE', *, *, #52, .F. ) ;
#365 = DIRECTION ( 'NONE',  ( -1.000000000000000000, 0.000000000000000000, 0.000000000000000000 ) ) ;
#366 = EDGE_CURVE ( 'NONE', #911, #571, #1028, .T. ) ;
#367 = VERTEX_POINT ( 'NONE', #1239 ) ;
#368 = DIRECTION ( 'NONE',  ( -0.6123724356957777060, 0.3535533905932591869, -0.7071067811865695552 ) ) ;
#369 = ORIENTED_EDGE ( 'NONE', *, *, #848, .T. ) ;
#370 = LINE ( 'NONE', #910, #738 ) ;
#371 = CARTESIAN_POINT ( 'NONE',  ( -1.899999999999657074, 1.665334536937734811E-13, 0.000000000000000000 ) ) ;
#372 = LINE ( 'NONE', #799, #1017 ) ;
#373 = EDGE_LOOP ( 'NONE', ( #141, #540 ) ) ;
#374 = ADVANCED_FACE ( 'NONE', ( #1250 ), #272, .F. ) ;
#375 = DIRECTION ( 'NONE',  ( 0.4999999999999948375, 0.8660254037844417052, 0.000000000000000000 ) ) ;
#376 = DIRECTION ( 'NONE',  ( -0.4999999999999948375, -0.8660254037844417052, 0.000000000000000000 ) ) ;
#377 = CARTESIAN_POINT ( 'NONE',  ( 9.656854249492319298, 259.0000000000000000, 3.000000000000000000 ) ) ;
#378 = DIRECTION ( 'NONE',  ( -0.000000000000000000, -0.000000000000000000, -1.000000000000000000 ) ) ;
#379 = VECTOR ( 'NONE', #549, 1000.000000000000000 ) ;
#380 = ORIENTED_EDGE ( 'NONE', *, *, #998, .T. ) ;
#381 = LINE ( 'NONE', #493, #782 ) ;
#382 = VECTOR ( 'NONE', #55, 1000.000000000000000 ) ;
#383 = VECTOR ( 'NONE', #1392, 1000.000000000000000 ) ;
#384 = EDGE_CURVE ( 'NONE', #1067, #180, #397, .T. ) ;
#385 = AXIS2_PLACEMENT_3D ( 'NONE', #965, #530, #748 ) ;
#386 = DIRECTION ( 'NONE',  ( 0.8660254037844417052, -0.4999999999999948375, 0.000000000000000000 ) ) ;
#387 = CARTESIAN_POINT ( 'NONE',  ( 10.15685424949232107, 256.0000000000000000, 0.4999999999999726885 ) ) ;
#388 = CARTESIAN_POINT ( 'NONE',  ( 9.656854249492319298, 259.0000000000000000, 2.499999999999999556 ) ) ;
#389 = EDGE_LOOP ( 'NONE', ( #891, #831, #744, #1391 ) ) ;
#390 = DIRECTION ( 'NONE',  ( 1.000000000000000000, 2.731737115764164561E-17, -0.000000000000000000 ) ) ;
#391 = CARTESIAN_POINT ( 'NONE',  ( 3.499999999999999556, 1.942890293093933227E-16, 2.499999999999999556 ) ) ;
#392 = EDGE_CURVE ( 'NONE', #74, #97, #497, .T. ) ;
#393 = LINE ( 'NONE', #371, #33 ) ;
#394 = CYLINDRICAL_SURFACE ( 'NONE', #720, 3.499999999999999556 ) ;
#395 = EDGE_LOOP ( 'NONE', ( #134, #600, #547, #1203 ) ) ;
#396 = CARTESIAN_POINT ( 'NONE',  ( 18.65685424949231574, 227.2775681356645805, 2.500000000000015543 ) ) ;
#397 = LINE ( 'NONE', #683, #1014 ) ;
#398 = EDGE_CURVE ( 'NONE', #1209, #213, #930, .T. ) ;
#399 = LINE ( 'NONE', #826, #855 ) ;
#400 = CARTESIAN_POINT ( 'NONE',  ( 10.15685424949232996, 242.0000000000000000, 3.000000000000000000 ) ) ;
#401 = ORIENTED_EDGE ( 'NONE', *, *, #732, .T. ) ;
#402 = FACE_OUTER_BOUND ( 'NONE', #690, .T. ) ;
#403 = AXIS2_PLACEMENT_3D ( 'NONE', #1271, #837, #101 ) ;
#404 = VECTOR ( 'NONE', #963, 1000.000000000000000 ) ;
#405 = AXIS2_PLACEMENT_3D ( 'NONE', #881, #1114, #1003 ) ;
#406 = DIRECTION ( 'NONE',  ( 0.8660254037844374864, 0.5000000000000019984, -0.000000000000000000 ) ) ;
#407 = DIRECTION ( 'NONE',  ( 0.6947465906068371888, 0.1861567878974552948, 0.6947465906068757135 ) ) ;
#408 = DIRECTION ( 'NONE',  ( -0.000000000000000000, -0.000000000000000000, -1.000000000000000000 ) ) ;
#409 = ORIENTED_EDGE ( 'NONE', *, *, #978, .T. ) ;
#410 = DIRECTION ( 'NONE',  ( -2.731737115764164561E-17, 1.000000000000000000, 0.000000000000000000 ) ) ;
#411 = ADVANCED_FACE ( 'NONE', ( #1354 ), #1037, .F. ) ;
#412 = FACE_OUTER_BOUND ( 'NONE', #1189, .T. ) ;
#413 = DIRECTION ( 'NONE',  ( -0.7071067811865868746, -0.7071067811865081598, 0.000000000000000000 ) ) ;
#414 = LINE ( 'NONE', #1077, #607 ) ;
#415 = EDGE_LOOP ( 'NONE', ( #573, #1375, #579, #354 ) ) ;
#416 = DIRECTION ( 'NONE',  ( 0.5000000000000019984, -0.8660254037844374864, 0.000000000000000000 ) ) ;
#417 = EDGE_CURVE ( 'NONE', #708, #21, #370, .T. ) ;
#418 = DIRECTION ( 'NONE',  ( 0.7071067811865671127, 0.000000000000000000, -0.7071067811865279218 ) ) ;
#419 = CARTESIAN_POINT ( 'NONE',  ( 3.001071613439876273E-13, 1.665334536937734811E-13, 3.000000000000000000 ) ) ;
#420 = CARTESIAN_POINT ( 'NONE',  ( 9.656854249492319298, 259.0000000000000000, 2.499999999999999556 ) ) ;
#421 = VERTEX_POINT ( 'NONE', #691 ) ;
#422 = LINE ( 'NONE', #1208, #1149 ) ;
#423 = VECTOR ( 'NONE', #407, 1000.000000000000114 ) ;
#424 = VECTOR ( 'NONE', #1175, 1000.000000000000000 ) ;
#425 = DIRECTION ( 'NONE',  ( 1.000000000000000000, 0.000000000000000000, 0.000000000000000000 ) ) ;
#426 = ADVANCED_FACE ( 'NONE', ( #924 ), #1345, .F. ) ;
#427 = CIRCLE ( 'NONE', #627, 1.399999999999999911 ) ;
#428 = CARTESIAN_POINT ( 'NONE',  ( 18.65685424949231574, 227.2775681356645805, 0.4999999999999726885 ) ) ;
#429 = VECTOR ( 'NONE', #1263, 1000.000000000000114 ) ;
#430 = DIRECTION ( 'NONE',  ( 0.6123724356958114567, -0.3535533905932786713, -0.7071067811865303643 ) ) ;
#431 = ORIENTED_EDGE ( 'NONE', *, *, #1343, .T. ) ;
#432 = DIRECTION ( 'NONE',  ( -3.906161949405144714E-17, -0.8320502943378436100, -0.5547001962252291474 ) ) ;
#433 = LINE ( 'NONE', #183, #404 ) ;
#434 = EDGE_CURVE ( 'NONE', #911, #1097, #825, .T. ) ;
#435 = DIRECTION ( 'NONE',  ( -0.000000000000000000, -0.000000000000000000, -1.000000000000000000 ) ) ;
#436 = ORIENTED_EDGE ( 'NONE', *, *, #1205, .T. ) ;
#437 = CARTESIAN_POINT ( 'NONE',  ( 3.156854249492317965, 240.5243556529821376, 0.4999999999999726885 ) ) ;
#438 = CARTESIAN_POINT ( 'NONE',  ( 13.15685424949231752, 224.2038475772934873, 0.000000000000000000 ) ) ;
#439 = DIRECTION ( 'NONE',  ( 0.000000000000000000, -1.000000000000000000, 0.000000000000000000 ) ) ;
#440 = CARTESIAN_POINT ( 'NONE',  ( 3.156854249492317965, 240.5243556529821376, 0.4999999999999726885 ) ) ;
#441 = EDGE_CURVE ( 'NONE', #180, #1329, #283, .T. ) ;
#442 = ORIENTED_EDGE ( 'NONE', *, *, #1126, .T. ) ;
#443 = DIRECTION ( 'NONE',  ( -1.000000000000000000, 0.000000000000000000, 0.000000000000000000 ) ) ;
#444 = AXIS2_PLACEMENT_3D ( 'NONE', #692, #312, #80 ) ;
#445 = DIRECTION ( 'NONE',  ( -1.000000000000000000, 0.000000000000000000, 0.000000000000000000 ) ) ;
#446 = AXIS2_PLACEMENT_3D ( 'NONE', #810, #1342, #1145 ) ;
#447 = VECTOR ( 'NONE', #171, 1000.000000000000114 ) ;
#448 = EDGE_LOOP ( 'NONE', ( #725, #1124, #492, #168 ) ) ;
#449 = CARTESIAN_POINT ( 'NONE',  ( 12.65685424949231752, 43.86013679762404394, 3.000000000000000000 ) ) ;
#450 = VECTOR ( 'NONE', #703, 1000.000000000000114 ) ;
#451 = ORIENTED_EDGE ( 'NONE', *, *, #452, .F. ) ;
#452 = EDGE_CURVE ( 'NONE', #1022, #258, #608, .T. ) ;
#453 = FACE_OUTER_BOUND ( 'NONE', #1226, .T. ) ;
#454 = ORIENTED_EDGE ( 'NONE', *, *, #1024, .T. ) ;
#455 = CARTESIAN_POINT ( 'NONE',  ( -10.64999417513161006, 217.8248217675840124, 23.80684842462261130 ) ) ;
#456 = ORIENTED_EDGE ( 'NONE', *, *, #1167, .T. ) ;
#457 = EDGE_CURVE ( 'NONE', #1329, #1355, #858, .T. ) ;
#458 = DIRECTION ( 'NONE',  ( 0.6947465906069050234, 0.1861567878972398282, -0.6947465906068654995 ) ) ;
#459 = CALENDAR_DATE ( 2023, 16, 1 ) ;
#460 = ORIENTED_EDGE ( 'NONE', *, *, #1300, .T. ) ;
#461 = LINE ( 'NONE', #1093, #1260 ) ;
#462 = VERTEX_POINT ( 'NONE', #522 ) ;
#463 = LINE ( 'NONE', #801, #468 ) ;
#464 = ADVANCED_FACE ( 'NONE', ( #291 ), #1180, .F. ) ;
#465 = LINE ( 'NONE', #1086, #716 ) ;
#466 = VECTOR ( 'NONE', #1222, 1000.000000000000114 ) ;
#467 = ORIENTED_EDGE ( 'NONE', *, *, #317, .F. ) ;
#468 = VECTOR ( 'NONE', #1234, 1000.000000000000000 ) ;
#469 = CARTESIAN_POINT ( 'NONE',  ( 3.000000000000027089, 1.664405220789889984E-13, 3.000000000000000000 ) ) ;
#470 = VECTOR ( 'NONE', #711, 1000.000000000000114 ) ;
#471 = ORIENTED_EDGE ( 'NONE', *, *, #680, .T. ) ;
#472 = DIRECTION ( 'NONE',  ( 0.000000000000000000, 0.000000000000000000, 1.000000000000000000 ) ) ;
#473 = CARTESIAN_POINT ( 'NONE',  ( 12.65685424949231752, 43.86013679762404394, 3.000000000000000000 ) ) ;
#474 = COORDINATED_UNIVERSAL_TIME_OFFSET ( 1, 0, .AHEAD. ) ;
#475 = EDGE_CURVE ( 'NONE', #896, #708, #722, .T. ) ;
#476 = VERTEX_POINT ( 'NONE', #100 ) ;
#477 = DIRECTION ( 'NONE',  ( 0.7071067811865279218, 0.000000000000000000, -0.7071067811865671127 ) ) ;
#478 = ORIENTED_EDGE ( 'NONE', *, *, #1108, .T. ) ;
#479 = CARTESIAN_POINT ( 'NONE',  ( 18.65685424949231574, 40.25244164303730088, 0.4999999999999726885 ) ) ;
#480 = ORIENTED_EDGE ( 'NONE', *, *, #892, .F. ) ;
#481 = LINE ( 'NONE', #593, #856 ) ;
#482 = ORIENTED_EDGE ( 'NONE', *, *, #227, .T. ) ;
#483 = PLANE ( 'NONE',  #1282 ) ;
#484 = EDGE_CURVE ( 'NONE', #31, #1236, #1364, .T. ) ;
#485 = ORIENTED_EDGE ( 'NONE', *, *, #545, .F. ) ;
#486 = CARTESIAN_POINT ( 'NONE',  ( -3.499999999999999112, -1.942890293093933227E-16, 0.4999999999999726885 ) ) ;
#487 = ORIENTED_EDGE ( 'NONE', *, *, #613, .T. ) ;
#488 = DIRECTION ( 'NONE',  ( 0.000000000000000000, 0.000000000000000000, 1.000000000000000000 ) ) ;
#489 = LINE ( 'NONE', #925, #1033 ) ;
#490 = CARTESIAN_POINT ( 'NONE',  ( 18.15685424949231574, 40.25244164303730088, 0.000000000000000000 ) ) ;
#491 = VECTOR ( 'NONE', #1276, 1000.000000000000000 ) ;
#492 = ORIENTED_EDGE ( 'NONE', *, *, #1135, .F. ) ;
#493 = CARTESIAN_POINT ( 'NONE',  ( 10.15685424949232818, 242.0000000000000000, 0.4999999999999723554 ) ) ;
#494 = AXIS2_PLACEMENT_3D ( 'NONE', #733, #1166, #195 ) ;
#495 = ADVANCED_FACE ( 'NONE', ( #972 ), #127, .F. ) ;
#496 = VECTOR ( 'NONE', #327, 1000.000000000000000 ) ;
#497 = LINE ( 'NONE', #41, #830 ) ;
#498 = EDGE_LOOP ( 'NONE', ( #905, #442, #1004, #755 ) ) ;
#499 = DIRECTION ( 'NONE',  ( 0.000000000000000000, -0.7071067811865081598, 0.7071067811865868746 ) ) ;
#500 = VERTEX_POINT ( 'NONE', #1154 ) ;
#501 = CARTESIAN_POINT ( 'NONE',  ( -9.066342951089758628, 5.234455543377405817, 3.000000000000000000 ) ) ;
#502 = EDGE_CURVE ( 'NONE', #708, #880, #433, .T. ) ;
#503 = DIRECTION ( 'NONE',  ( -0.4999999999999947820, -0.8660254037844417052, 0.000000000000000000 ) ) ;
#504 = DIRECTION ( 'NONE',  ( -0.7071067811865476838, 0.000000000000000000, -0.7071067811865473507 ) ) ;
#505 = CARTESIAN_POINT ( 'NONE',  ( 1.400000000000300115, 1.667049042456541002E-13, 3.000000000000000000 ) ) ;
#506 = ORIENTED_EDGE ( 'NONE', *, *, #1376, .F. ) ;
#507 = CARTESIAN_POINT ( 'NONE',  ( 12.65685424949231752, 43.86013679762404394, 0.4999999999999726885 ) ) ;
#508 = DIRECTION ( 'NONE',  ( -0.5000000000000004441, 0.8660254037844383745, 0.000000000000000000 ) ) ;
#509 = EDGE_CURVE ( 'NONE', #269, #260, #210, .T. ) ;
#510 = CARTESIAN_POINT ( 'NONE',  ( 13.15685424949229088, 43.72616220140848498, 3.000000000000000000 ) ) ;
#511 = CARTESIAN_POINT ( 'NONE',  ( 3.656854249492305531, 258.7500000000000568, 2.749999999999985789 ) ) ;
#512 = EDGE_LOOP ( 'NONE', ( #53, #1020, #1138, #460 ) ) ;
#513 = DIRECTION ( 'NONE',  ( 4.694622399615541673E-17, 1.000000000000000000, 0.000000000000000000 ) ) ;
#514 = VECTOR ( 'NONE', #660, 1000.000000000000000 ) ;
#515 = VECTOR ( 'NONE', #592, 999.9999999999998863 ) ;
#516 = VECTOR ( 'NONE', #616, 1000.000000000000000 ) ;
#517 = CARTESIAN_POINT ( 'NONE',  ( 3.001071613439876273E-13, 1.665334536937734811E-13, 0.000000000000000000 ) ) ;
#518 = CARTESIAN_POINT ( 'NONE',  ( 18.65685424949231574, 227.2775681356645805, 0.4999999999999726885 ) ) ;
#519 = ADVANCED_FACE ( 'NONE', ( #412 ), #1257, .F. ) ;
#520 = VERTEX_POINT ( 'NONE', #189 ) ;
#521 = LINE ( 'NONE', #745, #537 ) ;
#522 = CARTESIAN_POINT ( 'NONE',  ( 3.000000000000027089, 2.395702683850503451E-14, 3.000000000000000000 ) ) ;
#523 = LINE ( 'NONE', #428, #149 ) ;
#524 = CARTESIAN_POINT ( 'NONE',  ( 3.001071613439876273E-13, 1.665334536937734811E-13, 3.000000000000000000 ) ) ;
#525 = VERTEX_POINT ( 'NONE', #1063 ) ;
#526 = EDGE_CURVE ( 'NONE', #1120, #1209, #85, .T. ) ;
#527 = DIRECTION ( 'NONE',  ( 6.122553444624020051E-16, -1.000000000000000000, 0.000000000000000000 ) ) ;
#528 = CARTESIAN_POINT ( 'NONE',  ( 9.656854249492319298, 256.0000000000000000, 7.480994990149980595E-15 ) ) ;
#529 = CARTESIAN_POINT ( 'NONE',  ( 2.985419147005300644, 258.3285648975130471, 2.359341161729750169 ) ) ;
#530 = DIRECTION ( 'NONE',  ( 0.000000000000000000, 0.000000000000000000, 1.000000000000000000 ) ) ;
#531 = ORIENTED_EDGE ( 'NONE', *, *, #1205, .F. ) ;
#532 = CARTESIAN_POINT ( 'NONE',  ( -3.000000000000027978, 15.74166975080228070, 3.000000000000000000 ) ) ;
#533 = AXIS2_PLACEMENT_3D ( 'NONE', #518, #1387, #843 ) ;
#534 = EDGE_CURVE ( 'NONE', #462, #931, #309, .T. ) ;
#535 = CIRCLE ( 'NONE', #494, 1.900000000000012790 ) ;
#536 = DIRECTION ( 'NONE',  ( -3.097720492815727042E-17, -1.000000000000000000, 0.000000000000000000 ) ) ;
#537 = VECTOR ( 'NONE', #756, 1000.000000000000000 ) ;
#538 = CARTESIAN_POINT ( 'NONE',  ( 3.156854249492318853, 258.5000000000000568, 2.499999999999999556 ) ) ;
#539 = MECHANICAL_CONTEXT ( 'NONE', #209, 'mechanical' ) ;
#540 = ORIENTED_EDGE ( 'NONE', *, *, #701, .T. ) ;
#541 = DIRECTION ( 'NONE',  ( -1.000000000000000000, 0.000000000000000000, 0.000000000000000000 ) ) ;
#542 = CARTESIAN_POINT ( 'NONE',  ( 4.801796911729438122, 256.3466607447252841, -1.144942662237054654 ) ) ;
#543 = ADVANCED_FACE ( 'NONE', ( #952 ), #619, .T. ) ;
#544 = DIRECTION ( 'NONE',  ( -1.000000000000000000, 0.000000000000000000, 0.000000000000000000 ) ) ;
#545 = EDGE_CURVE ( 'NONE', #1355, #896, #1386, .T. ) ;
#546 = PERSON_AND_ORGANIZATION ( #870, #992 ) ;
#547 = ORIENTED_EDGE ( 'NONE', *, *, #1024, .F. ) ;
#548 = LINE ( 'NONE', #1179, #1213 ) ;
#549 = DIRECTION ( 'NONE',  ( 0.6947465906068900354, 0.1861567878973517665, 0.6947465906068506225 ) ) ;
#550 = DATE_AND_TIME ( #138, #951 ) ;
#551 = ADVANCED_FACE ( 'NONE', ( #728 ), #1321, .F. ) ;
#552 = ORIENTED_EDGE ( 'NONE', *, *, #884, .T. ) ;
#553 = DIRECTION ( 'NONE',  ( -0.7071067811865671127, -1.931629839312153865E-17, 0.7071067811865279218 ) ) ;
#554 = ORIENTED_EDGE ( 'NONE', *, *, #645, .T. ) ;
#555 = LINE ( 'NONE', #902, #1297 ) ;
#556 = PERSON_AND_ORGANIZATION_ROLE ( 'creator' ) ;
#557 = VECTOR ( 'NONE', #836, 1000.000000000000000 ) ;
#558 = AXIS2_PLACEMENT_3D ( 'NONE', #624, #193, #726 ) ;
#559 = VERTEX_POINT ( 'NONE', #1270 ) ;
#560 = DIRECTION ( 'NONE',  ( -0.000000000000000000, -0.000000000000000000, -1.000000000000000000 ) ) ;
#561 = EDGE_CURVE ( 'NONE', #520, #500, #535, .T. ) ;
#562 = ORIENTED_EDGE ( 'NONE', *, *, #72, .T. ) ;
#563 = ORIENTED_EDGE ( 'NONE', *, *, #741, .T. ) ;
#564 = DIRECTION ( 'NONE',  ( -0.000000000000000000, -0.000000000000000000, -1.000000000000000000 ) ) ;
#565 = DATE_TIME_ROLE ( 'classification_date' ) ;
#566 = VERTEX_POINT ( 'NONE', #628 ) ;
#567 = LINE ( 'NONE', #1232, #969 ) ;
#568 = ORIENTED_EDGE ( 'NONE', *, *, #72, .F. ) ;
#569 = LINE ( 'NONE', #1110, #780 ) ;
#570 = LINE ( 'NONE', #871, #514 ) ;
#571 = VERTEX_POINT ( 'NONE', #93 ) ;
#572 = PLANE ( 'NONE',  #719 ) ;
#573 = ORIENTED_EDGE ( 'NONE', *, *, #942, .T. ) ;
#574 = CARTESIAN_POINT ( 'NONE',  ( 3.656854249492319298, 259.0000000000000000, 3.000000000000000000 ) ) ;
#575 = ORIENTED_EDGE ( 'NONE', *, *, #901, .F. ) ;
#576 = ADVANCED_FACE ( 'NONE', ( #746 ), #957, .T. ) ;
#577 = CARTESIAN_POINT ( 'NONE',  ( 3.066987298107779925, 14.24999999999999645, 0.000000000000000000 ) ) ;
#578 = COORDINATED_UNIVERSAL_TIME_OFFSET ( 1, 0, .AHEAD. ) ;
#579 = ORIENTED_EDGE ( 'NONE', *, *, #1167, .F. ) ;
#580 = AXIS2_PLACEMENT_3D ( 'NONE', #1075, #1379, #536 ) ;
#581 = FACE_OUTER_BOUND ( 'NONE', #415, .T. ) ;
#582 = VECTOR ( 'NONE', #158, 1000.000000000000000 ) ;
#583 = EDGE_LOOP ( 'NONE', ( #436, #1224, #1178, #1094 ) ) ;
#584 = CARTESIAN_POINT ( 'NONE',  ( 12.65685424949231752, 43.86013679762404394, 0.4999999999999726885 ) ) ;
#585 = AXIS2_PLACEMENT_3D ( 'NONE', #735, #430, #974 ) ;
#586 = ORIENTED_EDGE ( 'NONE', *, *, #773, .T. ) ;
#587 = EDGE_CURVE ( 'NONE', #763, #91, #1274, .T. ) ;
#588 = CARTESIAN_POINT ( 'NONE',  ( 3.500000000000000000, 14.00000000000000000, 3.000000000000000000 ) ) ;
#589 = ORIENTED_EDGE ( 'NONE', *, *, #342, .T. ) ;
#590 = LINE ( 'NONE', #179, #1301 ) ;
#591 = ORIENTED_EDGE ( 'NONE', *, *, #1216, .T. ) ;
#592 = DIRECTION ( 'NONE',  ( -0.5000000000000019984, 0.8660254037844374864, 0.000000000000000000 ) ) ;
#593 = CARTESIAN_POINT ( 'NONE',  ( 106.9507545011946235, 61.74804690129862905, 3.000000000000000000 ) ) ;
#594 = ORIENTED_EDGE ( 'NONE', *, *, #79, .F. ) ;
#595 = FACE_OUTER_BOUND ( 'NONE', #816, .T. ) ;
#596 = EDGE_CURVE ( 'NONE', #341, #1329, #142, .T. ) ;
#597 = VERTEX_POINT ( 'NONE', #675 ) ;
#598 = LINE ( 'NONE', #1243, #760 ) ;
#599 = CARTESIAN_POINT ( 'NONE',  ( 3.500000000000000000, 14.00000000000000000, 2.499999999999997780 ) ) ;
#600 = ORIENTED_EDGE ( 'NONE', *, *, #732, .F. ) ;
#601 = DIRECTION ( 'NONE',  ( 3.932458693654462599E-14, 0.7071067811865081598, -0.7071067811865868746 ) ) ;
#602 = VECTOR ( 'NONE', #908, 1000.000000000000000 ) ;
#603 = ORIENTED_EDGE ( 'NONE', *, *, #771, .T. ) ;
#604 = EDGE_CURVE ( 'NONE', #1319, #421, #796, .T. ) ;
#605 = PLANE ( 'NONE',  #1174 ) ;
#606 = VECTOR ( 'NONE', #1371, 999.9999999999998863 ) ;
#607 = VECTOR ( 'NONE', #212, 1000.000000000000000 ) ;
#608 = LINE ( 'NONE', #1044, #239 ) ;
#609 = DIRECTION ( 'NONE',  ( 0.000000000000000000, 0.000000000000000000, 1.000000000000000000 ) ) ;
#610 = PLANE ( 'NONE',  #14 ) ;
#611 = VERTEX_POINT ( 'NONE', #438 ) ;
#612 = CARTESIAN_POINT ( 'NONE',  ( -1.399999999999699929, 1.665334536937734811E-13, 0.4999999999999570899 ) ) ;
#613 = EDGE_CURVE ( 'NONE', #82, #476, #1123, .T. ) ;
#614 = DIRECTION ( 'NONE',  ( 1.000000000000000000, 0.000000000000000000, 0.000000000000000000 ) ) ;
#615 = CARTESIAN_POINT ( 'NONE',  ( 1.900000000000257483, 1.667661365856114804E-13, 0.000000000000000000 ) ) ;
#616 = DIRECTION ( 'NONE',  ( 0.000000000000000000, 1.000000000000000000, 0.000000000000000000 ) ) ;
#617 = ORIENTED_EDGE ( 'NONE', *, *, #417, .T. ) ;
#618 = LINE ( 'NONE', #1054, #219 ) ;
#619 = PLANE ( 'NONE',  #1147 ) ;
#620 = EDGE_CURVE ( 'NONE', #21, #1099, #136, .T. ) ;
#621 = PLANE ( 'NONE',  #1344 ) ;
#622 = DIRECTION ( 'NONE',  ( 0.000000000000000000, 1.000000000000000000, 0.000000000000000000 ) ) ;
#623 = ORIENTED_EDGE ( 'NONE', *, *, #596, .F. ) ;
#624 = CARTESIAN_POINT ( 'NONE',  ( 9.656854249492475617, 1.724459143187195243E-13, 3.000000000000000000 ) ) ;
#625 = AXIS2_PLACEMENT_3D ( 'NONE', #16, #223, #544 ) ;
#626 = VECTOR ( 'NONE', #203, 1000.000000000000000 ) ;
#627 = AXIS2_PLACEMENT_3D ( 'NONE', #764, #215, #644 ) ;
#628 = CARTESIAN_POINT ( 'NONE',  ( 18.65685424949231574, 40.25244164303730088, 2.499999999999999556 ) ) ;
#629 = FACE_OUTER_BOUND ( 'NONE', #184, .T. ) ;
#630 = DIRECTION ( 'NONE',  ( -0.7071067811865671127, 0.000000000000000000, -0.7071067811865279218 ) ) ;
#631 = EDGE_LOOP ( 'NONE', ( #767, #1331, #798, #431 ) ) ;
#632 = CARTESIAN_POINT ( 'NONE',  ( 3.001071613439876273E-13, 1.665334536937734811E-13, 0.000000000000000000 ) ) ;
#633 = CARTESIAN_POINT ( 'NONE',  ( -3.499999999999999112, -1.942890293093933227E-16, 0.4999999999999726885 ) ) ;
#634 = LINE ( 'NONE', #299, #945 ) ;
#635 = ORIENTED_EDGE ( 'NONE', *, *, #802, .F. ) ;
#636 = DIRECTION ( 'NONE',  ( 0.000000000000000000, 0.000000000000000000, -1.000000000000000000 ) ) ;
#637 = EDGE_CURVE ( 'NONE', #896, #1246, #323, .T. ) ;
#638 = UNCERTAINTY_MEASURE_WITH_UNIT (LENGTH_MEASURE( 1.000000000000000082E-05 ), #1286, 'distance_accuracy_value', 'NONE');
#639 = CARTESIAN_POINT ( 'NONE',  ( 12.65685424949231752, 43.86013679762404394, 2.499999999999999556 ) ) ;
#640 = APPLICATION_CONTEXT ( 'configuration controlled 3d designs of mechanical parts and assemblies' ) ;
#641 = DIRECTION ( 'NONE',  ( 3.906161949405145330E-17, 0.8320502943378437211, 0.5547001962252291474 ) ) ;
#642 = DIRECTION ( 'NONE',  ( 1.000000000000000000, 0.000000000000000000, 0.000000000000000000 ) ) ;
#643 = ORIENTED_EDGE ( 'NONE', *, *, #1227, .F. ) ;
#644 = DIRECTION ( 'NONE',  ( -1.000000000000000000, 0.000000000000000000, 0.000000000000000000 ) ) ;
#645 = EDGE_CURVE ( 'NONE', #611, #186, #151, .T. ) ;
#646 = VECTOR ( 'NONE', #298, 1000.000000000000000 ) ;
#647 = DIRECTION ( 'NONE',  ( -4.694622399615541673E-17, -1.000000000000000000, 0.000000000000000000 ) ) ;
#648 = VECTOR ( 'NONE', #315, 999.9999999999998863 ) ;
#649 = CARTESIAN_POINT ( 'NONE',  ( 3.156854249492318853, 259.0000000000000000, 3.000000000000000000 ) ) ;
#650 = AXIS2_PLACEMENT_3D ( 'NONE', #919, #378, #807 ) ;
#651 = LOCAL_TIME ( 17, 13, 29.00000000000000000, #993 ) ;
#652 = ORIENTED_EDGE ( 'NONE', *, *, #892, .T. ) ;
#653 = DIRECTION ( 'NONE',  ( -4.694622399615541673E-17, -1.000000000000000000, 0.000000000000000000 ) ) ;
#654 = ADVANCED_FACE ( 'NONE', ( #349 ), #1330, .T. ) ;
#655 = CARTESIAN_POINT ( 'NONE',  ( 3.001071613439876273E-13, 1.665334536937734811E-13, 3.000000000000000000 ) ) ;
#656 = ORIENTED_EDGE ( 'NONE', *, *, #28, .F. ) ;
#657 = CARTESIAN_POINT ( 'NONE',  ( 3.656854249492319298, 256.0000000000000000, 0.000000000000000000 ) ) ;
#658 = ORIENTED_EDGE ( 'NONE', *, *, #587, .F. ) ;
#659 = ADVANCED_FACE ( 'NONE', ( #1021 ), #1012, .F. ) ;
#660 = DIRECTION ( 'NONE',  ( -0.000000000000000000, -0.000000000000000000, -1.000000000000000000 ) ) ;
#661 = SECURITY_CLASSIFICATION_LEVEL ( 'unclassified' ) ;
#662 = ORIENTED_EDGE ( 'NONE', *, *, #962, .F. ) ;
#663 = LINE ( 'NONE', #148, #108 ) ;
#664 = EDGE_LOOP ( 'NONE', ( #357, #280, #8, #1322 ) ) ;
#665 = ORIENTED_EDGE ( 'NONE', *, *, #28, .T. ) ;
#666 = DIRECTION ( 'NONE',  ( 0.000000000000000000, 0.000000000000000000, -1.000000000000000000 ) ) ;
#667 = VECTOR ( 'NONE', #458, 1000.000000000000000 ) ;
#668 = CC_DESIGN_PERSON_AND_ORGANIZATION_ASSIGNMENT ( #362, #1001, ( #1085 ) ) ;
#669 = AXIS2_PLACEMENT_3D ( 'NONE', #221, #636, #443 ) ;
#670 = ORIENTED_EDGE ( 'NONE', *, *, #344, .T. ) ;
#671 = CARTESIAN_POINT ( 'NONE',  ( -3.870190528383058659, 2.234455543377407594, 3.000000000000000000 ) ) ;
#672 = EDGE_CURVE ( 'NONE', #931, #1204, #569, .T. ) ;
#673 = CIRCLE ( 'NONE', #650, 1.399999999999999911 ) ;
#674 = EDGE_LOOP ( 'NONE', ( #1144, #37, #531, #1229 ) ) ;
#675 = CARTESIAN_POINT ( 'NONE',  ( 18.65685424949231574, 227.2775681356645805, 0.4999999999999722444 ) ) ;
#676 = LINE ( 'NONE', #983, #1318 ) ;
#677 = ORIENTED_EDGE ( 'NONE', *, *, #143, .F. ) ;
#678 = DIRECTION ( 'NONE',  ( 0.6947465906068793773, 0.1861567878974283718, -0.6947465906068406305 ) ) ;
#679 = ORIENTED_EDGE ( 'NONE', *, *, #222, .F. ) ;
#680 = EDGE_CURVE ( 'NONE', #1370, #213, #1027, .T. ) ;
#681 = DIRECTION ( 'NONE',  ( 0.7071067811865671127, -3.319599333878503632E-17, -0.7071067811865279218 ) ) ;
#682 = ORIENTED_EDGE ( 'NONE', *, *, #707, .F. ) ;
#683 = CARTESIAN_POINT ( 'NONE',  ( 3.156854249492317965, 240.5243556529821376, 2.499999999999999556 ) ) ;
#684 = CALENDAR_DATE ( 2023, 16, 1 ) ;
#685 = ORIENTED_EDGE ( 'NONE', *, *, #1245, .T. ) ;
#686 = DIRECTION ( 'NONE',  ( -0.8660254037844383745, -0.5000000000000005551, 0.000000000000000000 ) ) ;
#687 = ORIENTED_EDGE ( 'NONE', *, *, #59, .F. ) ;
#688 = DIRECTION ( 'NONE',  ( 0.6947465906068851504, -0.1861567878973837409, 0.6947465906068468477 ) ) ;
#689 = EDGE_CURVE ( 'NONE', #931, #911, #697, .T. ) ;
#690 = EDGE_LOOP ( 'NONE', ( #562, #1201, #1060, #665 ) ) ;
#691 = CARTESIAN_POINT ( 'NONE',  ( -2.999999999999999112, 15.74166975080227360, 0.000000000000000000 ) ) ;
#692 = CARTESIAN_POINT ( 'NONE',  ( 10.15685424949232640, 247.4149575941951014, -5.122436391292665370 ) ) ;
#693 = CIRCLE ( 'NONE', #86, 1.399999999999999911 ) ;
#694 = DIRECTION ( 'NONE',  ( -1.000000000000000000, 3.097720492815727042E-17, 0.000000000000000000 ) ) ;
#695 = AXIS2_PLACEMENT_3D ( 'NONE', #940, #390, #410 ) ;
#696 = ORIENTED_EDGE ( 'NONE', *, *, #637, .T. ) ;
#697 = LINE ( 'NONE', #1210, #759 ) ;
#698 = ORIENTED_EDGE ( 'NONE', *, *, #229, .F. ) ;
#699 = CC_DESIGN_PERSON_AND_ORGANIZATION_ASSIGNMENT ( #230, #255, ( #971 ) ) ;
#700 = DIRECTION ( 'NONE',  ( -0.000000000000000000, 0.000000000000000000, -1.000000000000000000 ) ) ;
#701 = EDGE_CURVE ( 'NONE', #69, #1357, #968, .T. ) ;
#702 = ORIENTED_EDGE ( 'NONE', *, *, #172, .F. ) ;
#703 = DIRECTION ( 'NONE',  ( -5.094272395698593729E-16, 0.8320502943378436100, 0.5547001962252291474 ) ) ;
#704 = ORIENTED_EDGE ( 'NONE', *, *, #96, .T. ) ;
#705 = DIRECTION ( 'NONE',  ( -0.7071067811865279218, 3.319599333878319359E-17, -0.7071067811865671127 ) ) ;
#706 = LINE ( 'NONE', #577, #1035 ) ;
#707 = EDGE_CURVE ( 'NONE', #1018, #559, #463, .T. ) ;
#708 = VERTEX_POINT ( 'NONE', #27 ) ;
#709 = CARTESIAN_POINT ( 'NONE',  ( 18.65685424949231574, 227.2775681356645805, 2.500000000000015543 ) ) ;
#710 = EDGE_LOOP ( 'NONE', ( #1382, #1248, #321, #26, #1333 ) ) ;
#711 = DIRECTION ( 'NONE',  ( 0.6947465906068462926, -0.1861567878973873214, 0.6947465906068847064 ) ) ;
#712 = CARTESIAN_POINT ( 'NONE',  ( 3.156854249492318853, 258.5000000000000568, 3.000000000000000000 ) ) ;
#713 = DIRECTION ( 'NONE',  ( 0.000000000000000000, 0.000000000000000000, -1.000000000000000000 ) ) ;
#714 = LINE ( 'NONE', #511, #949 ) ;
#715 = CC_DESIGN_PERSON_AND_ORGANIZATION_ASSIGNMENT ( #762, #30, ( #971 ) ) ;
#716 = VECTOR ( 'NONE', #564, 1000.000000000000000 ) ;
#717 = ORIENTED_EDGE ( 'NONE', *, *, #172, .T. ) ;
#718 = LINE ( 'NONE', #507, #429 ) ;
#719 = AXIS2_PLACEMENT_3D ( 'NONE', #469, #1340, #285 ) ;
#720 = AXIS2_PLACEMENT_3D ( 'NONE', #51, #408, #294 ) ;
#721 = PRODUCT ( 'MB_door_front_slider_top_XL_v1', 'MB_door_front_slider_top_XL_v1', '', ( #539 ) ) ;
#722 = LINE ( 'NONE', #528, #1238 ) ;
#723 = DIRECTION ( 'NONE',  ( 0.6947465906068371888, 0.1861567878974552948, 0.6947465906068756025 ) ) ;
#724 = FACE_OUTER_BOUND ( 'NONE', #58, .T. ) ;
#725 = ORIENTED_EDGE ( 'NONE', *, *, #783, .T. ) ;
#726 = DIRECTION ( 'NONE',  ( -6.122553444624020051E-16, 1.000000000000000000, 0.000000000000000000 ) ) ;
#727 = ADVANCED_FACE ( 'NONE', ( #865 ), #1186, .F. ) ;
#728 = FACE_OUTER_BOUND ( 'NONE', #916, .T. ) ;
#729 = DIRECTION ( 'NONE',  ( 0.000000000000000000, 0.000000000000000000, 1.000000000000000000 ) ) ;
#730 = ORIENTED_EDGE ( 'NONE', *, *, #773, .F. ) ;
#731 = LINE ( 'NONE', #501, #1323 ) ;
#732 = EDGE_CURVE ( 'NONE', #1113, #314, #1132, .T. ) ;
#733 = CARTESIAN_POINT ( 'NONE',  ( 3.001071613439876273E-13, 1.665334536937734811E-13, 3.000000000000000000 ) ) ;
#734 = CARTESIAN_POINT ( 'NONE',  ( 18.65685424949231574, 40.25244164303730088, 0.4999999999999726885 ) ) ;
#735 = CARTESIAN_POINT ( 'NONE',  ( -9.066342951089756852, 5.234455543377404929, 3.000000000000000000 ) ) ;
#736 = VERTEX_POINT ( 'NONE', #159 ) ;
#737 = FACE_OUTER_BOUND ( 'NONE', #1025, .T. ) ;
#738 = VECTOR ( 'NONE', #263, 1000.000000000000000 ) ;
#739 = VECTOR ( 'NONE', #541, 1000.000000000000000 ) ;
#740 = CARTESIAN_POINT ( 'NONE',  ( 3.000000000000027089, 1.664405220789889984E-13, 3.000000000000000000 ) ) ;
#741 = EDGE_CURVE ( 'NONE', #476, #341, #1289, .T. ) ;
#742 = DIRECTION ( 'NONE',  ( 0.6947465906068893693, 0.1861567878973533485, 0.6947465906068508446 ) ) ;
#743 = DIRECTION ( 'NONE',  ( -1.000000000000000000, 0.000000000000000000, 0.000000000000000000 ) ) ;
#744 = ORIENTED_EDGE ( 'NONE', *, *, #4, .T. ) ;
#745 = CARTESIAN_POINT ( 'NONE',  ( 3.156854249492317965, 240.5243556529821376, 0.4999999999999726885 ) ) ;
#746 = FACE_OUTER_BOUND ( 'NONE', #220, .T. ) ;
#747 = DIRECTION ( 'NONE',  ( 0.7071067811865273667, 4.329299058870576535E-16, -0.7071067811865676678 ) ) ;
#748 = DIRECTION ( 'NONE',  ( 1.000000000000000000, 0.000000000000000000, 0.000000000000000000 ) ) ;
#749 = ADVANCED_FACE ( 'NONE', ( #111 ), #243, .F. ) ;
#750 = ORIENTED_EDGE ( 'NONE', *, *, #1284, .F. ) ;
#751 = DIRECTION ( 'NONE',  ( -1.000000000000000000, 0.000000000000000000, 0.000000000000000000 ) ) ;
#752 = DIRECTION ( 'NONE',  ( 2.731737115764164561E-17, -1.000000000000000000, 0.000000000000000000 ) ) ;
#753 = PLANE ( 'NONE',  #533 ) ;
#754 = LINE ( 'NONE', #1065, #811 ) ;
#755 = ORIENTED_EDGE ( 'NONE', *, *, #4, .F. ) ;
#756 = DIRECTION ( 'NONE',  ( 0.6947465906068793773, 0.1861567878974283718, -0.6947465906068406305 ) ) ;
#757 = EDGE_CURVE ( 'NONE', #18, #102, #693, .T. ) ;
#758 = AXIS2_PLACEMENT_3D ( 'NONE', #178, #609, #937 ) ;
#759 = VECTOR ( 'NONE', #1005, 1000.000000000000000 ) ;
#760 = VECTOR ( 'NONE', #301, 1000.000000000000000 ) ;
#761 = CARTESIAN_POINT ( 'NONE',  ( 42.42385660850686691, 233.6459172242711020, -21.26700235901585856 ) ) ;
#762 = PERSON_AND_ORGANIZATION ( #870, #992 ) ;
#763 = VERTEX_POINT ( 'NONE', #1352 ) ;
#764 = CARTESIAN_POINT ( 'NONE',  ( 3.001071613439876273E-13, 1.665334536937734811E-13, 0.4999999999999570899 ) ) ;
#765 = EDGE_CURVE ( 'NONE', #1236, #1111, #1059, .T. ) ;
#766 = FACE_OUTER_BOUND ( 'NONE', #512, .T. ) ;
#767 = ORIENTED_EDGE ( 'NONE', *, *, #250, .F. ) ;
#768 = DIRECTION ( 'NONE',  ( 0.7071067811865279218, 1.931629839312048478E-17, 0.7071067811865671127 ) ) ;
#769 = ORIENTED_EDGE ( 'NONE', *, *, #116, .T. ) ;
#770 = ORIENTED_EDGE ( 'NONE', *, *, #1369, .T. ) ;
#771 = EDGE_CURVE ( 'NONE', #597, #242, #381, .T. ) ;
#772 = CARTESIAN_POINT ( 'NONE',  ( 12.65685424949231752, 43.86013679762404394, 3.000000000000000000 ) ) ;
#773 = EDGE_CURVE ( 'NONE', #1111, #571, #598, .T. ) ;
#774 = ORIENTED_EDGE ( 'NONE', *, *, #40, .T. ) ;
#775 = FACE_BOUND ( 'NONE', #1316, .T. ) ;
#776 = ORIENTED_EDGE ( 'NONE', *, *, #534, .T. ) ;
#777 = DIRECTION ( 'NONE',  ( 0.4999999999999947820, 0.8660254037844415942, 0.000000000000000000 ) ) ;
#778 = ORIENTED_EDGE ( 'NONE', *, *, #296, .T. ) ;
#779 = AXIS2_PLACEMENT_3D ( 'NONE', #1285, #190, #211 ) ;
#780 = VECTOR ( 'NONE', #375, 1000.000000000000000 ) ;
#781 = PLANE ( 'NONE',  #63 ) ;
#782 = VECTOR ( 'NONE', #83, 1000.000000000000227 ) ;
#783 = EDGE_CURVE ( 'NONE', #914, #981, #934, .T. ) ;
#784 = CC_DESIGN_APPROVAL ( #818, ( #276 ) ) ;
#785 = MANIFOLD_SOLID_BREP ( 'Chanfrein2', #84 ) ;
#786 = VERTEX_POINT ( 'NONE', #612 ) ;
#787 = FACE_OUTER_BOUND ( 'NONE', #1101, .T. ) ;
#788 = EDGE_LOOP ( 'NONE', ( #478, #907, #119, #656 ) ) ;
#789 = CARTESIAN_POINT ( 'NONE',  ( 3.656854249492279330, 1.663617781950555452E-13, 3.000000000000000000 ) ) ;
#790 = ORIENTED_EDGE ( 'NONE', *, *, #1160, .F. ) ;
#791 = PLANE ( 'NONE',  #853 ) ;
#792 = ORIENTED_EDGE ( 'NONE', *, *, #637, .F. ) ;
#793 = DIRECTION ( 'NONE',  ( 0.7071067811865476838, 8.659560562354935323E-17, -0.7071067811865473507 ) ) ;
#794 = ADVANCED_FACE ( 'NONE', ( #275 ), #605, .T. ) ;
#795 = EDGE_LOOP ( 'NONE', ( #454, #339, #822 ) ) ;
#796 = LINE ( 'NONE', #1228, #877 ) ;
#797 = CARTESIAN_POINT ( 'NONE',  ( 3.001071613439876273E-13, 1.665334536937734811E-13, 2.499999999999987566 ) ) ;
#798 = ORIENTED_EDGE ( 'NONE', *, *, #913, .T. ) ;
#799 = CARTESIAN_POINT ( 'NONE',  ( -3.499999999999699352, -1.942890292951179232E-16, 2.499999999999999556 ) ) ;
#800 = VERTEX_POINT ( 'NONE', #948 ) ;
#801 = CARTESIAN_POINT ( 'NONE',  ( 9.906854249492319298, 258.5000000000000568, 2.750000000000014211 ) ) ;
#802 = EDGE_CURVE ( 'NONE', #421, #800, #1041, .T. ) ;
#803 = LINE ( 'NONE', #599, #107 ) ;
#804 = AXIS2_PLACEMENT_3D ( 'NONE', #861, #1265, #641 ) ;
#805 = ORIENTED_EDGE ( 'NONE', *, *, #1369, .F. ) ;
#806 = AXIS2_PLACEMENT_3D ( 'NONE', #712, #176, #1118 ) ;
#807 = DIRECTION ( 'NONE',  ( -1.000000000000000000, 0.000000000000000000, 0.000000000000000000 ) ) ;
#808 = VECTOR ( 'NONE', #560, 1000.000000000000000 ) ;
#809 = EDGE_LOOP ( 'NONE', ( #933, #589, #253, #778 ) ) ;
#810 = CARTESIAN_POINT ( 'NONE',  ( 3.001071613439876273E-13, 1.665334536937734811E-13, 0.4999999999999726885 ) ) ;
#811 = VECTOR ( 'NONE', #191, 1000.000000000000114 ) ;
#812 = EDGE_CURVE ( 'NONE', #1309, #800, #718, .T. ) ;
#813 = CARTESIAN_POINT ( 'NONE',  ( 12.65685424949231752, 224.0698729810778786, 3.000000000000000000 ) ) ;
#814 = ORIENTED_EDGE ( 'NONE', *, *, #1143, .F. ) ;
#815 = CARTESIAN_POINT ( 'NONE',  ( 12.65685424949231752, 224.0698729810778786, 2.499999999999984457 ) ) ;
#816 = EDGE_LOOP ( 'NONE', ( #698, #563, #927, #975 ) ) ;
#817 = CARTESIAN_POINT ( 'NONE',  ( 3.156854249492317965, 240.5243556529821376, 3.000000000000000000 ) ) ;
#818 = APPROVAL ( #3, 'UNSPECIFIED' ) ;
#819 = DIRECTION ( 'NONE',  ( -3.097720492815727042E-17, -1.000000000000000000, 0.000000000000000000 ) ) ;
#820 = DIRECTION ( 'NONE',  ( -0.7071067811865082708, -0.7071067811865868746, -0.000000000000000000 ) ) ;
#821 = LINE ( 'NONE', #709, #1128 ) ;
#822 = ORIENTED_EDGE ( 'NONE', *, *, #441, .F. ) ;
#823 = CARTESIAN_POINT ( 'NONE',  ( 12.65685424949231752, 224.0698729810778786, 2.499999999999984457 ) ) ;
#824 = VERTEX_POINT ( 'NONE', #396 ) ;
#825 = LINE ( 'NONE', #391, #152 ) ;
#826 = CARTESIAN_POINT ( 'NONE',  ( -27.46791927290855995, 232.3184723192653394, -28.12477352240257744 ) ) ;
#827 = DIRECTION ( 'NONE',  ( -0.000000000000000000, -0.000000000000000000, -1.000000000000000000 ) ) ;
#828 = VECTOR ( 'NONE', #278, 1000.000000000000000 ) ;
#829 = ADVANCED_FACE ( 'NONE', ( #1358 ), #60, .F. ) ;
#830 = VECTOR ( 'NONE', #1023, 1000.000000000000000 ) ;
#831 = ORIENTED_EDGE ( 'NONE', *, *, #1300, .F. ) ;
#832 = DIRECTION ( 'NONE',  ( -2.731737115764164561E-17, 1.000000000000000000, 0.000000000000000000 ) ) ;
#833 = AXIS2_PLACEMENT_3D ( 'NONE', #1399, #982, #416 ) ;
#834 =( GEOMETRIC_REPRESENTATION_CONTEXT ( 3 ) GLOBAL_UNCERTAINTY_ASSIGNED_CONTEXT ( ( #638 ) ) GLOBAL_UNIT_ASSIGNED_CONTEXT ( ( #1286, #844, #205 ) ) REPRESENTATION_CONTEXT ( 'NONE', 'WORKASPACE' ) );
#835 = CC_DESIGN_APPROVAL ( #970, ( #971 ) ) ;
#836 = DIRECTION ( 'NONE',  ( 3.097720492815727042E-17, 1.000000000000000000, 0.000000000000000000 ) ) ;
#837 = DIRECTION ( 'NONE',  ( -0.000000000000000000, -0.000000000000000000, -1.000000000000000000 ) ) ;
#838 = CARTESIAN_POINT ( 'NONE',  ( 3.499999999999999556, 1.942890293093933227E-16, 3.000000000000000000 ) ) ;
#839 = ORIENTED_EDGE ( 'NONE', *, *, #310, .T. ) ;
#840 = EDGE_CURVE ( 'NONE', #1067, #1370, #1061, .T. ) ;
#841 = LINE ( 'NONE', #1363, #1367 ) ;
#842 = DIRECTION ( 'NONE',  ( 0.000000000000000000, 0.000000000000000000, 1.000000000000000000 ) ) ;
#843 = DIRECTION ( 'NONE',  ( 0.5000000000000004441, -0.8660254037844382635, 0.000000000000000000 ) ) ;
#844 =( NAMED_UNIT ( * ) PLANE_ANGLE_UNIT ( ) SI_UNIT ( $, .RADIAN. ) );
#845 = EDGE_LOOP ( 'NONE', ( #364, #898, #192, #1053 ) ) ;
#846 = PLANE ( 'NONE',  #1081 ) ;
#847 = ADVANCED_FACE ( 'NONE', ( #402 ), #1032, .F. ) ;
#848 = EDGE_CURVE ( 'NONE', #1022, #571, #1249, .T. ) ;
#849 = CARTESIAN_POINT ( 'NONE',  ( 12.65685424949231752, 224.0698729810778786, 3.000000000000000000 ) ) ;
#850 = DIRECTION ( 'NONE',  ( -0.5773502691896149619, 0.5773502691896792438, 0.5773502691895830985 ) ) ;
#851 = FACE_OUTER_BOUND ( 'NONE', #583, .T. ) ;
#852 = ORIENTED_EDGE ( 'NONE', *, *, #1235, .T. ) ;
#853 = AXIS2_PLACEMENT_3D ( 'NONE', #649, #893, #1308 ) ;
#854 = DIRECTION ( 'NONE',  ( -0.000000000000000000, -0.000000000000000000, -1.000000000000000000 ) ) ;
#855 = VECTOR ( 'NONE', #723, 1000.000000000000114 ) ;
#856 = VECTOR ( 'NONE', #935, 999.9999999999998863 ) ;
#857 = VECTOR ( 'NONE', #70, 1000.000000000000114 ) ;
#858 = LINE ( 'NONE', #1055, #355 ) ;
#859 = EDGE_CURVE ( 'NONE', #97, #981, #731, .T. ) ;
#860 = CC_DESIGN_APPROVAL ( #49, ( #1085 ) ) ;
#861 = CARTESIAN_POINT ( 'NONE',  ( 3.156854249492318409, 246.3933576616442735, -5.803503012993212806 ) ) ;
#862 = FACE_OUTER_BOUND ( 'NONE', #631, .T. ) ;
#863 = ORIENTED_EDGE ( 'NONE', *, *, #197, .T. ) ;
#864 = LINE ( 'NONE', #202, #1281 ) ;
#865 = FACE_OUTER_BOUND ( 'NONE', #1296, .T. ) ;
#866 = LINE ( 'NONE', #1112, #173 ) ;
#867 = EDGE_CURVE ( 'NONE', #1209, #1067, #1158, .T. ) ;
#868 = EDGE_LOOP ( 'NONE', ( #568, #1292, #1219, #1164 ) ) ;
#869 = DIRECTION ( 'NONE',  ( 0.000000000000000000, 0.000000000000000000, 1.000000000000000000 ) ) ;
#870 = PERSON ( 'UNSPECIFIED', 'UNSPECIFIED', 'UNSPECIFIED', ('UNSPECIFIED'), ('UNSPECIFIED'), ('UNSPECIFIED') ) ;
#871 = CARTESIAN_POINT ( 'NONE',  ( 18.65685424949231574, 227.2775681356645805, 3.000000000000000000 ) ) ;
#872 = CARTESIAN_POINT ( 'NONE',  ( 18.15685424949234417, 1.665334536937734811E-13, 3.000000000000000000 ) ) ;
#873 = ORIENTED_EDGE ( 'NONE', *, *, #366, .F. ) ;
#874 = CARTESIAN_POINT ( 'NONE',  ( 3.156854249492318853, 258.5000000000000568, 2.499999999999999556 ) ) ;
#875 = EDGE_CURVE ( 'NONE', #260, #1018, #841, .T. ) ;
#876 = CIRCLE ( 'NONE', #403, 2.999999999999999112 ) ;
#877 = VECTOR ( 'NONE', #35, 1000.000000000000000 ) ;
#878 = AXIS2_PLACEMENT_3D ( 'NONE', #671, #906, #1305 ) ;
#879 = CARTESIAN_POINT ( 'NONE',  ( 12.65685424949231752, 224.0698729810778786, 0.4999999999999726885 ) ) ;
#880 = VERTEX_POINT ( 'NONE', #287 ) ;
#881 = CARTESIAN_POINT ( 'NONE',  ( 3.001071613439876273E-13, 258.5000000000000568, 3.000000000000000000 ) ) ;
#882 = ADVANCED_FACE ( 'NONE', ( #1153 ), #1048, .T. ) ;
#883 = ORIENTED_EDGE ( 'NONE', *, *, #351, .T. ) ;
#884 = EDGE_CURVE ( 'NONE', #1246, #559, #618, .T. ) ;
#885 = LINE ( 'NONE', #117, #1256 ) ;
#886 = CALENDAR_DATE ( 2023, 16, 1 ) ;
#887 = EDGE_LOOP ( 'NONE', ( #889, #1341, #687, #157 ) ) ;
#888 = CARTESIAN_POINT ( 'NONE',  ( 3.156854249492317965, 240.5243556529821376, 2.499999999999999556 ) ) ;
#889 = ORIENTED_EDGE ( 'NONE', *, *, #126, .T. ) ;
#890 = DIRECTION ( 'NONE',  ( 0.5000000000000019984, -0.8660254037844374864, 0.000000000000000000 ) ) ;
#891 = ORIENTED_EDGE ( 'NONE', *, *, #1126, .F. ) ;
#892 = EDGE_CURVE ( 'NONE', #500, #520, #1103, .T. ) ;
#893 = DIRECTION ( 'NONE',  ( 0.000000000000000000, -1.000000000000000000, 0.000000000000000000 ) ) ;
#894 = ORIENTED_EDGE ( 'NONE', *, *, #1043, .T. ) ;
#895 = FACE_OUTER_BOUND ( 'NONE', #1306, .T. ) ;
#896 = VERTEX_POINT ( 'NONE', #98 ) ;
#897 = DIRECTION ( 'NONE',  ( -1.000000000000000000, -6.122553444624020051E-16, 0.000000000000000000 ) ) ;
#898 = ORIENTED_EDGE ( 'NONE', *, *, #936, .T. ) ;
#899 = VECTOR ( 'NONE', #435, 1000.000000000000000 ) ;
#900 = VECTOR ( 'NONE', #688, 1000.000000000000114 ) ;
#901 = EDGE_CURVE ( 'NONE', #102, #786, #864, .T. ) ;
#902 = CARTESIAN_POINT ( 'NONE',  ( 12.65685424949231752, 43.86013679762404394, 0.4999999999999726885 ) ) ;
#903 = APPROVAL_ROLE ( '' ) ;
#904 = AXIS2_PLACEMENT_3D ( 'NONE', #1038, #68, #926 ) ;
#905 = ORIENTED_EDGE ( 'NONE', *, *, #1056, .F. ) ;
#906 = DIRECTION ( 'NONE',  ( -0.6123724356958148984, 0.3535533905932806142, -0.7071067811865265895 ) ) ;
#907 = ORIENTED_EDGE ( 'NONE', *, *, #1251, .F. ) ;
#908 = DIRECTION ( 'NONE',  ( 0.5000000000000004441, -0.8660254037844383745, 0.000000000000000000 ) ) ;
#909 = ORIENTED_EDGE ( 'NONE', *, *, #457, .F. ) ;
#910 = CARTESIAN_POINT ( 'NONE',  ( 9.656854249492328179, 242.0000000000000000, 0.000000000000000000 ) ) ;
#911 = VERTEX_POINT ( 'NONE', #1280 ) ;
#912 = CARTESIAN_POINT ( 'NONE',  ( 3.499999999999999556, 1.942890293093933227E-16, 2.499999999999999556 ) ) ;
#913 = EDGE_CURVE ( 'NONE', #566, #91, #225, .T. ) ;
#914 = VERTEX_POINT ( 'NONE', #1184 ) ;
#915 = DIRECTION ( 'NONE',  ( 0.6914377643506750548, 0.2093505100531971030, -0.6914377643506366411 ) ) ;
#916 = EDGE_LOOP ( 'NONE', ( #1287, #273, #1045, #480 ) ) ;
#917 = PLANE ( 'NONE',  #12 ) ;
#918 = PLANE ( 'NONE',  #288 ) ;
#919 = CARTESIAN_POINT ( 'NONE',  ( 3.001071613439876273E-13, 1.665334536937734811E-13, 0.4999999999999570899 ) ) ;
#920 = ORIENTED_EDGE ( 'NONE', *, *, #40, .F. ) ;
#921 = ADVANCED_FACE ( 'NONE', ( #737 ), #846, .F. ) ;
#922 = DIRECTION ( 'NONE',  ( -1.000000000000000000, 0.000000000000000000, 0.000000000000000000 ) ) ;
#923 = ORIENTED_EDGE ( 'NONE', *, *, #182, .T. ) ;
#924 = FACE_OUTER_BOUND ( 'NONE', #300, .T. ) ;
#925 = CARTESIAN_POINT ( 'NONE',  ( -3.499999999999999112, -1.942890293093933227E-16, 2.499999999999999556 ) ) ;
#926 = DIRECTION ( 'NONE',  ( -0.4999999999999947820, -0.8660254037844417052, 0.000000000000000000 ) ) ;
#927 = ORIENTED_EDGE ( 'NONE', *, *, #1066, .F. ) ;
#928 = DIRECTION ( 'NONE',  ( -0.000000000000000000, -0.000000000000000000, -1.000000000000000000 ) ) ;
#929 = PRODUCT_RELATED_PRODUCT_CATEGORY ( 'detail', '', ( #721 ) ) ;
#930 = LINE ( 'NONE', #813, #382 ) ;
#931 = VERTEX_POINT ( 'NONE', #103 ) ;
#932 = LINE ( 'NONE', #1026, #290 ) ;
#933 = ORIENTED_EDGE ( 'NONE', *, *, #913, .F. ) ;
#934 = LINE ( 'NONE', #187, #470 ) ;
#935 = DIRECTION ( 'NONE',  ( 0.5000000000000019984, -0.8660254037844374864, 0.000000000000000000 ) ) ;
#936 = EDGE_CURVE ( 'NONE', #102, #500, #955, .T. ) ;
#937 = DIRECTION ( 'NONE',  ( -1.000000000000000000, 0.000000000000000000, 0.000000000000000000 ) ) ;
#938 = LINE ( 'NONE', #400, #1083 ) ;
#939 = ORIENTED_EDGE ( 'NONE', *, *, #942, .F. ) ;
#940 = CARTESIAN_POINT ( 'NONE',  ( -3.499999999999999112, -1.942890293093933227E-16, 3.000000000000000000 ) ) ;
#941 = DIRECTION ( 'NONE',  ( 0.000000000000000000, -1.000000000000000000, 0.000000000000000000 ) ) ;
#942 = EDGE_CURVE ( 'NONE', #1370, #186, #521, .T. ) ;
#943 = DIRECTION ( 'NONE',  ( 6.122553444624020051E-16, -1.000000000000000000, 0.000000000000000000 ) ) ;
#944 = CARTESIAN_POINT ( 'NONE',  ( -3.499999999999999112, -1.942890293093933227E-16, 0.4999999999999726885 ) ) ;
#945 = VECTOR ( 'NONE', #1070, 1000.000000000000000 ) ;
#946 = AXIS2_PLACEMENT_3D ( 'NONE', #849, #406, #316 ) ;
#947 = ORIENTED_EDGE ( 'NONE', *, *, #502, .F. ) ;
#948 = CARTESIAN_POINT ( 'NONE',  ( 13.15685424949231752, 43.72616220140847787, 0.000000000000000000 ) ) ;
#949 = VECTOR ( 'NONE', #601, 1000.000000000000000 ) ;
#950 = AXIS2_PLACEMENT_3D ( 'NONE', #872, #630, #1058 ) ;
#951 = LOCAL_TIME ( 17, 13, 29.00000000000000000, #1016 ) ;
#952 = FACE_OUTER_BOUND ( 'NONE', #295, .T. ) ;
#953 = CARTESIAN_POINT ( 'NONE',  ( 10.15685424949232996, 242.0000000000000000, 0.4999999999999726885 ) ) ;
#954 = EDGE_LOOP ( 'NONE', ( #248, #163, #1272, #233 ) ) ;
#955 = LINE ( 'NONE', #1298, #648 ) ;
#956 = EDGE_CURVE ( 'NONE', #1357, #69, #89, .T. ) ;
#957 = PLANE ( 'NONE',  #580 ) ;
#958 = LINE ( 'NONE', #1380, #491 ) ;
#959 = CARTESIAN_POINT ( 'NONE',  ( 3.656854249492319298, 259.0000000000000000, 2.499999999999999556 ) ) ;
#960 = ORIENTED_EDGE ( 'NONE', *, *, #417, .F. ) ;
#961 = FACE_OUTER_BOUND ( 'NONE', #887, .T. ) ;
#962 = EDGE_CURVE ( 'NONE', #525, #82, #548, .T. ) ;
#963 = DIRECTION ( 'NONE',  ( 0.6914377643506767201, -0.2093505100531904695, 0.6914377643506370852 ) ) ;
#964 = LINE ( 'NONE', #1187, #1100 ) ;
#965 = CARTESIAN_POINT ( 'NONE',  ( 0.000000000000000000, 0.000000000000000000, 0.000000000000000000 ) ) ;
#966 = ORIENTED_EDGE ( 'NONE', *, *, #302, .F. ) ;
#967 = CARTESIAN_POINT ( 'NONE',  ( 18.65685424949231574, 40.25244164303730088, 2.499999999999999556 ) ) ;
#968 = CIRCLE ( 'NONE', #289, 1.899999999999957279 ) ;
#969 = VECTOR ( 'NONE', #265, 1000.000000000000114 ) ;
#970 = APPROVAL ( #1223, 'UNSPECIFIED' ) ;
#971 = PRODUCT_DEFINITION_FORMATION_WITH_SPECIFIED_SOURCE ( 'ANY', '', #721, .NOT_KNOWN. ) ;
#972 = FACE_OUTER_BOUND ( 'NONE', #498, .T. ) ;
#973 = LINE ( 'NONE', #305, #1237 ) ;
#974 = DIRECTION ( 'NONE',  ( -0.4999999999999947820, -0.8660254037844415942, 0.000000000000000000 ) ) ;
#975 = ORIENTED_EDGE ( 'NONE', *, *, #475, .T. ) ;
#976 = CARTESIAN_POINT ( 'NONE',  ( 2.999999999999999112, 14.13397459621555718, 0.000000000000000000 ) ) ;
#977 = CARTESIAN_POINT ( 'NONE',  ( 3.589866951384550031, 240.7743556529821376, 0.000000000000000000 ) ) ;
#978 = EDGE_CURVE ( 'NONE', #559, #367, #1191, .T. ) ;
#979 = DIRECTION ( 'NONE',  ( 0.7071067811865477948, 0.000000000000000000, 0.7071067811865473507 ) ) ;
#980 = CARTESIAN_POINT ( 'NONE',  ( 3.156854249492318853, 259.0000000000000000, 2.000000000000001776 ) ) ;
#981 = VERTEX_POINT ( 'NONE', #532 ) ;
#982 = DIRECTION ( 'NONE',  ( 0.6123724356957938042, 0.3535533905932752297, -0.7071067811865475727 ) ) ;
#983 = CARTESIAN_POINT ( 'NONE',  ( 1.400000000000300115, 1.665334536937734811E-13, 2.499999999999987566 ) ) ;
#984 = ADVANCED_FACE ( 'NONE', ( #961 ), #208, .F. ) ;
#985 = ORIENTED_EDGE ( 'NONE', *, *, #587, .T. ) ;
#986 = DIRECTION ( 'NONE',  ( -0.000000000000000000, 0.000000000000000000, -1.000000000000000000 ) ) ;
#987 = ORIENTED_EDGE ( 'NONE', *, *, #771, .F. ) ;
#988 = AXIS2_PLACEMENT_3D ( 'NONE', #953, #747, #943 ) ;
#989 = VECTOR ( 'NONE', #1146, 1000.000000000000114 ) ;
#990 = VECTOR ( 'NONE', #1253, 1000.000000000000000 ) ;
#991 = CARTESIAN_POINT ( 'NONE',  ( 18.15685424949234417, 227.1435935394491139, 3.000000000000000000 ) ) ;
#992 = ORGANIZATION ( 'UNSPECIFIED', 'UNSPECIFIED', '' ) ;
#993 = COORDINATED_UNIVERSAL_TIME_OFFSET ( 1, 0, .AHEAD. ) ;
#994 = ORIENTED_EDGE ( 'NONE', *, *, #434, .F. ) ;
#995 = EDGE_CURVE ( 'NONE', #824, #566, #1079, .T. ) ;
#996 = CARTESIAN_POINT ( 'NONE',  ( -2.999999999999726885, -1.806303437139199928E-16, 3.000000000000000000 ) ) ;
#997 = ORIENTED_EDGE ( 'NONE', *, *, #534, .F. ) ;
#998 = EDGE_CURVE ( 'NONE', #1097, #343, #270, .T. ) ;
#999 = ORIENTED_EDGE ( 'NONE', *, *, #998, .F. ) ;
#1000 = CARTESIAN_POINT ( 'NONE',  ( 3.656854249492290876, 240.6583302491977179, 3.000000000000000000 ) ) ;
#1001 = PERSON_AND_ORGANIZATION_ROLE ( 'classification_officer' ) ;
#1002 = ORIENTED_EDGE ( 'NONE', *, *, #802, .T. ) ;
#1003 = DIRECTION ( 'NONE',  ( -1.000000000000000000, 0.000000000000000000, 0.000000000000000000 ) ) ;
#1004 = ORIENTED_EDGE ( 'NONE', *, *, #956, .F. ) ;
#1005 = DIRECTION ( 'NONE',  ( 0.6947465906068480690, -0.1861567878973733603, -0.6947465906068867048 ) ) ;
#1006 = EDGE_CURVE ( 'NONE', #1018, #1113, #1073, .T. ) ;
#1007 = DIRECTION ( 'NONE',  ( 0.4999999999999947820, 0.8660254037844417052, 0.000000000000000000 ) ) ;
#1008 = APPROVAL_DATE_TIME ( #1325, #970 ) ;
#1009 = EDGE_LOOP ( 'NONE', ( #696, #234, #947, #109 ) ) ;
#1010 = CARTESIAN_POINT ( 'NONE',  ( 12.65685424949231752, 43.86013679762404394, 2.499999999999999556 ) ) ;
#1011 = ORIENTED_EDGE ( 'NONE', *, *, #812, .T. ) ;
#1012 = PLANE ( 'NONE',  #1192 ) ;
#1013 = ORIENTED_EDGE ( 'NONE', *, *, #452, .T. ) ;
#1014 = VECTOR ( 'NONE', #64, 1000.000000000000000 ) ;
#1015 = CARTESIAN_POINT ( 'NONE',  ( 3.001071613439876273E-13, 1.665334536937734811E-13, 0.000000000000000000 ) ) ;
#1016 = COORDINATED_UNIVERSAL_TIME_OFFSET ( 1, 0, .AHEAD. ) ;
#1017 = VECTOR ( 'NONE', #768, 1000.000000000000000 ) ;
#1018 = VERTEX_POINT ( 'NONE', #110 ) ;
#1019 = LINE ( 'NONE', #1328, #332 ) ;
#1020 = ORIENTED_EDGE ( 'NONE', *, *, #757, .T. ) ;
#1021 = FACE_OUTER_BOUND ( 'NONE', #788, .T. ) ;
#1022 = VERTEX_POINT ( 'NONE', #976 ) ;
#1023 = DIRECTION ( 'NONE',  ( 0.000000000000000000, -1.000000000000000000, 0.000000000000000000 ) ) ;
#1024 = EDGE_CURVE ( 'NONE', #180, #1113, #1383, .T. ) ;
#1025 = EDGE_LOOP ( 'NONE', ( #482, #1088, #467, #139 ) ) ;
#1026 = CARTESIAN_POINT ( 'NONE',  ( 23.38010190323446835, 38.98685124856495321, -2.223247653742413732 ) ) ;
#1027 = LINE ( 'NONE', #1220, #174 ) ;
#1028 = LINE ( 'NONE', #588, #241 ) ;
#1029 = CARTESIAN_POINT ( 'NONE',  ( 1.400000000000300115, 1.667049042456541002E-13, 2.499999999999987566 ) ) ;
#1030 = PLANE ( 'NONE',  #66 ) ;
#1031 = ORIENTED_EDGE ( 'NONE', *, *, #135, .F. ) ;
#1032 = PLANE ( 'NONE',  #695 ) ;
#1033 = VECTOR ( 'NONE', #284, 1000.000000000000000 ) ;
#1034 = FACE_BOUND ( 'NONE', #373, .T. ) ;
#1035 = VECTOR ( 'NONE', #376, 1000.000000000000000 ) ;
#1036 = EDGE_LOOP ( 'NONE', ( #717, #1313, #658, #1197 ) ) ;
#1037 = CONICAL_SURFACE ( 'NONE', #196, 1.399999999999999911, 0.7853981633974485010 ) ;
#1038 = CARTESIAN_POINT ( 'NONE',  ( 3.500000000000000000, 14.00000000000000000, 0.4999999999999726885 ) ) ;
#1039 = AXIS2_PLACEMENT_3D ( 'NONE', #240, #686, #1334 ) ;
#1040 = ORIENTED_EDGE ( 'NONE', *, *, #317, .T. ) ;
#1041 = LINE ( 'NONE', #166, #447 ) ;
#1042 = VECTOR ( 'NONE', #622, 1000.000000000000000 ) ;
#1043 = EDGE_CURVE ( 'NONE', #186, #476, #1288, .T. ) ;
#1044 = CARTESIAN_POINT ( 'NONE',  ( 2.999999999999999112, 2.097776317734719856E-16, 0.000000000000000000 ) ) ;
#1045 = ORIENTED_EDGE ( 'NONE', *, *, #261, .T. ) ;
#1046 = DIRECTION ( 'NONE',  ( 0.5773502691895830985, 0.5773502691896792438, 0.5773502691896149619 ) ) ;
#1047 = ORIENTED_EDGE ( 'NONE', *, *, #1043, .F. ) ;
#1048 = PLANE ( 'NONE',  #38 ) ;
#1049 = EDGE_CURVE ( 'NONE', #82, #1370, #92, .T. ) ;
#1050 = DIRECTION ( 'NONE',  ( -0.000000000000000000, -0.000000000000000000, -1.000000000000000000 ) ) ;
#1051 = DIRECTION ( 'NONE',  ( -1.000000000000000000, -5.595524044110788964E-14, 0.000000000000000000 ) ) ;
#1052 = FACE_OUTER_BOUND ( 'NONE', #124, .T. ) ;
#1053 = ORIENTED_EDGE ( 'NONE', *, *, #261, .F. ) ;
#1054 = CARTESIAN_POINT ( 'NONE',  ( 10.15685424949231930, 258.5000000000000568, 3.000000000000000000 ) ) ;
#1055 = CARTESIAN_POINT ( 'NONE',  ( 3.156854249492318853, 259.0000000000000000, 2.499999999999999556 ) ) ;
#1056 = EDGE_CURVE ( 'NONE', #736, #786, #427, .T. ) ;
#1057 = LINE ( 'NONE', #1290, #423 ) ;
#1058 = DIRECTION ( 'NONE',  ( 0.000000000000000000, 1.000000000000000000, 0.000000000000000000 ) ) ;
#1059 = CIRCLE ( 'NONE', #446, 3.499999999999999556 ) ;
#1060 = ORIENTED_EDGE ( 'NONE', *, *, #310, .F. ) ;
#1061 = LINE ( 'NONE', #817, #244 ) ;
#1062 = AXIS2_PLACEMENT_3D ( 'NONE', #1225, #32, #356 ) ;
#1063 = CARTESIAN_POINT ( 'NONE',  ( 3.156854249492318853, 258.5000000000000568, 2.267591879243983755 ) ) ;
#1064 = FACE_OUTER_BOUND ( 'NONE', #1207, .T. ) ;
#1065 = CARTESIAN_POINT ( 'NONE',  ( 9.656854249492319298, 259.0000000000000000, 2.499999999999999556 ) ) ;
#1066 = EDGE_CURVE ( 'NONE', #896, #341, #422, .T. ) ;
#1067 = VERTEX_POINT ( 'NONE', #888 ) ;
#1068 = DIRECTION ( 'NONE',  ( 0.000000000000000000, 0.000000000000000000, 1.000000000000000000 ) ) ;
#1069 = DIRECTION ( 'NONE',  ( 0.000000000000000000, 1.000000000000000000, 0.000000000000000000 ) ) ;
#1070 = DIRECTION ( 'NONE',  ( -0.000000000000000000, -0.000000000000000000, -1.000000000000000000 ) ) ;
#1071 = ORIENTED_EDGE ( 'NONE', *, *, #182, .F. ) ;
#1072 = CC_DESIGN_DATE_AND_TIME_ASSIGNMENT ( #1315, #1119, ( #276 ) ) ;
#1073 = LINE ( 'NONE', #322, #739 ) ;
#1074 = ADVANCED_FACE ( 'NONE', ( #895 ), #120, .F. ) ;
#1075 = CARTESIAN_POINT ( 'NONE',  ( 3.499999999999999556, 1.942890293093933227E-16, 0.4999999999999726885 ) ) ;
#1076 = PLANE ( 'NONE',  #988 ) ;
#1077 = CARTESIAN_POINT ( 'NONE',  ( 3.499999999999999556, 1.942890292951398880E-16, 2.499999999999999556 ) ) ;
#1078 = EDGE_LOOP ( 'NONE', ( #554, #894, #245, #617, #1092, #591, #883, #1013, #704, #76, #1002, #923 ) ) ;
#1079 = LINE ( 'NONE', #967, #199 ) ;
#1080 = AXIS2_PLACEMENT_3D ( 'NONE', #267, #897, #1320 ) ;
#1081 = AXIS2_PLACEMENT_3D ( 'NONE', #334, #115, #1173 ) ;
#1082 = EDGE_CURVE ( 'NONE', #31, #421, #1019, .T. ) ;
#1083 = VECTOR ( 'NONE', #1261, 1000.000000000000000 ) ;
#1084 = DIRECTION ( 'NONE',  ( 3.906161949405145330E-17, 0.8320502943378437211, 0.5547001962252291474 ) ) ;
#1085 = SECURITY_CLASSIFICATION ( '', '', #661 ) ;
#1086 = CARTESIAN_POINT ( 'NONE',  ( -3.499999999999999112, -1.942890293093933227E-16, 3.000000000000000000 ) ) ;
#1087 = APPLICATION_PROTOCOL_DEFINITION ( 'international standard', 'config_control_design', 1994, #640 ) ;
#1088 = ORIENTED_EDGE ( 'NONE', *, *, #1235, .F. ) ;
#1089 = DIRECTION ( 'NONE',  ( -1.000000000000000000, 0.000000000000000000, 0.000000000000000000 ) ) ;
#1090 = ADVANCED_FACE ( 'NONE', ( #347 ), #44, .F. ) ;
#1091 = DIRECTION ( 'NONE',  ( -0.000000000000000000, -0.000000000000000000, -1.000000000000000000 ) ) ;
#1092 = ORIENTED_EDGE ( 'NONE', *, *, #620, .T. ) ;
#1093 = CARTESIAN_POINT ( 'NONE',  ( -2.999999999999698908, -1.806303437139192286E-16, 0.000000000000000000 ) ) ;
#1094 = ORIENTED_EDGE ( 'NONE', *, *, #1245, .F. ) ;
#1095 = LINE ( 'NONE', #361, #61 ) ;
#1096 = ADVANCED_FACE ( 'NONE', ( #775, #1107 ), #1098, .F. ) ;
#1097 = VERTEX_POINT ( 'NONE', #912 ) ;
#1098 = PLANE ( 'NONE',  #1212 ) ;
#1099 = VERTEX_POINT ( 'NONE', #340 ) ;
#1100 = VECTOR ( 'NONE', #1373, 1000.000000000000000 ) ;
#1101 = EDGE_LOOP ( 'NONE', ( #770, #909, #643, #1116 ) ) ;
#1102 = AXIS2_PLACEMENT_3D ( 'NONE', #1161, #842, #425 ) ;
#1103 = CIRCLE ( 'NONE', #1240, 1.900000000000012790 ) ;
#1104 = CYLINDRICAL_SURFACE ( 'NONE', #9, 1.399999999999999911 ) ;
#1105 = APPROVAL_DATE_TIME ( #247, #818 ) ;
#1106 = ORIENTED_EDGE ( 'NONE', *, *, #765, .F. ) ;
#1107 = FACE_OUTER_BOUND ( 'NONE', #238, .T. ) ;
#1108 = EDGE_CURVE ( 'NONE', #343, #1122, #372, .T. ) ;
#1109 = ORIENTED_EDGE ( 'NONE', *, *, #561, .T. ) ;
#1110 = CARTESIAN_POINT ( 'NONE',  ( -3.870190528383064876, 2.234455543377411590, 3.000000000000000000 ) ) ;
#1111 = VERTEX_POINT ( 'NONE', #1310 ) ;
#1112 = CARTESIAN_POINT ( 'NONE',  ( 12.65685424949231752, 43.86013679762404394, 2.499999999999996003 ) ) ;
#1113 = VERTEX_POINT ( 'NONE', #1202 ) ;
#1114 = DIRECTION ( 'NONE',  ( -0.000000000000000000, -0.7071067811865868746, -0.7071067811865082708 ) ) ;
#1115 = ADVANCED_FACE ( 'NONE', ( #25 ), #1121, .T. ) ;
#1116 = ORIENTED_EDGE ( 'NONE', *, *, #1006, .F. ) ;
#1117 = DIRECTION ( 'NONE',  ( -1.000000000000000000, 0.000000000000000000, 0.000000000000000000 ) ) ;
#1118 = DIRECTION ( 'NONE',  ( 0.000000000000000000, 0.000000000000000000, -1.000000000000000000 ) ) ;
#1119 = DATE_TIME_ROLE ( 'creation_date' ) ;
#1120 = VERTEX_POINT ( 'NONE', #1010 ) ;
#1121 = PLANE ( 'NONE',  #175 ) ;
#1122 = VERTEX_POINT ( 'NONE', #996 ) ;
#1123 = LINE ( 'NONE', #542, #1211 ) ;
#1124 = ORIENTED_EDGE ( 'NONE', *, *, #859, .F. ) ;
#1125 = VECTOR ( 'NONE', #112, 1000.000000000000000 ) ;
#1126 = EDGE_CURVE ( 'NONE', #736, #69, #663, .T. ) ;
#1127 = DIRECTION ( 'NONE',  ( -0.8660254037844417052, 0.4999999999999947820, 0.000000000000000000 ) ) ;
#1128 = VECTOR ( 'NONE', #279, 1000.000000000000227 ) ;
#1129 = ORIENTED_EDGE ( 'NONE', *, *, #1376, .T. ) ;
#1130 = DIRECTION ( 'NONE',  ( -3.097720492815727042E-17, -1.000000000000000000, 0.000000000000000000 ) ) ;
#1131 = ORIENTED_EDGE ( 'NONE', *, *, #351, .F. ) ;
#1132 = LINE ( 'NONE', #358, #1365 ) ;
#1133 = ADVANCED_FACE ( 'NONE', ( #581 ), #257, .T. ) ;
#1134 = DIRECTION ( 'NONE',  ( 0.4999999999999947820, 0.8660254037844415942, 0.000000000000000000 ) ) ;
#1135 = EDGE_CURVE ( 'NONE', #1120, #97, #567, .T. ) ;
#1136 = ORIENTED_EDGE ( 'NONE', *, *, #143, .T. ) ;
#1137 = CARTESIAN_POINT ( 'NONE',  ( 12.65685424949231752, 43.86013679762404394, 0.4999999999999726885 ) ) ;
#1138 = ORIENTED_EDGE ( 'NONE', *, *, #901, .T. ) ;
#1139 = CARTESIAN_POINT ( 'NONE',  ( 3.001071613439876273E-13, 1.665334536937734811E-13, 2.499999999999987566 ) ) ;
#1140 = DIRECTION ( 'NONE',  ( -0.000000000000000000, -0.000000000000000000, -1.000000000000000000 ) ) ;
#1141 = ORIENTED_EDGE ( 'NONE', *, *, #302, .T. ) ;
#1142 = DIRECTION ( 'NONE',  ( -1.000000000000000000, 0.000000000000000000, 0.000000000000000000 ) ) ;
#1143 = EDGE_CURVE ( 'NONE', #1319, #1236, #461, .T. ) ;
#1144 = ORIENTED_EDGE ( 'NONE', *, *, #689, .T. ) ;
#1145 = DIRECTION ( 'NONE',  ( -1.000000000000000000, -4.796163466380676255E-14, 0.000000000000000000 ) ) ;
#1146 = DIRECTION ( 'NONE',  ( 0.7071067811865867636, 0.7071067811865082708, -1.837086636568477794E-16 ) ) ;
#1147 = AXIS2_PLACEMENT_3D ( 'NONE', #1264, #304, #1069 ) ;
#1148 = ORIENTED_EDGE ( 'NONE', *, *, #689, .F. ) ;
#1149 = VECTOR ( 'NONE', #365, 1000.000000000000000 ) ;
#1150 = CARTESIAN_POINT ( 'NONE',  ( 10.15685424949231930, 258.5000000000000568, 2.267591879243981534 ) ) ;
#1151 = EDGE_LOOP ( 'NONE', ( #985, #20, #1157, #1131 ) ) ;
#1152 = ADVANCED_FACE ( 'NONE', ( #787 ), #10, .F. ) ;
#1153 = FACE_OUTER_BOUND ( 'NONE', #664, .T. ) ;
#1154 = CARTESIAN_POINT ( 'NONE',  ( -1.899999999999712585, 1.667661365856114804E-13, 3.000000000000000000 ) ) ;
#1155 = ORIENTED_EDGE ( 'NONE', *, *, #620, .F. ) ;
#1156 = FACE_OUTER_BOUND ( 'NONE', #1151, .T. ) ;
#1157 = ORIENTED_EDGE ( 'NONE', *, *, #848, .F. ) ;
#1158 = LINE ( 'NONE', #823, #606 ) ;
#1159 = CC_DESIGN_DATE_AND_TIME_ASSIGNMENT ( #550, #565, ( #1085 ) ) ;
#1160 = EDGE_CURVE ( 'NONE', #1120, #1309, #1218, .T. ) ;
#1161 = CARTESIAN_POINT ( 'NONE',  ( 3.001071613439876273E-13, 1.665334536937734811E-13, 2.499999999999987566 ) ) ;
#1162 = LINE ( 'NONE', #529, #1170 ) ;
#1163 = CARTESIAN_POINT ( 'NONE',  ( 18.65685424949231574, 227.2775681356645805, 0.4999999999999726885 ) ) ;
#1164 = ORIENTED_EDGE ( 'NONE', *, *, #79, .T. ) ;
#1165 = DIRECTION ( 'NONE',  ( -4.694622399615541673E-17, -1.000000000000000000, 0.000000000000000000 ) ) ;
#1166 = DIRECTION ( 'NONE',  ( -0.000000000000000000, -0.000000000000000000, -1.000000000000000000 ) ) ;
#1167 = EDGE_CURVE ( 'NONE', #213, #611, #19, .T. ) ;
#1168 = FACE_OUTER_BOUND ( 'NONE', #1254, .T. ) ;
#1169 = DIRECTION ( 'NONE',  ( 0.000000000000000000, 0.5547001962252291474, -0.8320502943378437211 ) ) ;
#1170 = VECTOR ( 'NONE', #1181, 1000.000000000000114 ) ;
#1171 = AXIS2_PLACEMENT_3D ( 'NONE', #1395, #418, #941 ) ;
#1172 = ORIENTED_EDGE ( 'NONE', *, *, #859, .T. ) ;
#1173 = DIRECTION ( 'NONE',  ( -0.5000000000000004441, 0.8660254037844382635, 0.000000000000000000 ) ) ;
#1174 = AXIS2_PLACEMENT_3D ( 'NONE', #297, #705, #513 ) ;
#1175 = DIRECTION ( 'NONE',  ( 2.731737115764164561E-17, -1.000000000000000000, 0.000000000000000000 ) ) ;
#1176 = ADVANCED_FACE ( 'NONE', ( #140 ), #572, .F. ) ;
#1177 = CARTESIAN_POINT ( 'NONE',  ( 3.656854249492317077, 240.6583302491977179, 0.000000000000000000 ) ) ;
#1178 = ORIENTED_EDGE ( 'NONE', *, *, #227, .F. ) ;
#1179 = CARTESIAN_POINT ( 'NONE',  ( 3.156854249492318853, 255.7226499018874222, 0.4160251471688897196 ) ) ;
#1180 = PLANE ( 'NONE',  #1171 ) ;
#1181 = DIRECTION ( 'NONE',  ( 0.6613355025394677122, 0.6613355025393943265, -0.3539360198705922556 ) ) ;
#1182 = APPLICATION_PROTOCOL_DEFINITION ( 'international standard', 'config_control_design', 1994, #209 ) ;
#1183 = ORIENTED_EDGE ( 'NONE', *, *, #672, .T. ) ;
#1184 = CARTESIAN_POINT ( 'NONE',  ( -3.499999999999999556, 15.87564434701783966, 2.499999999999996003 ) ) ;
#1185 = ADVANCED_FACE ( 'NONE', ( #1052 ), #610, .T. ) ;
#1186 = PLANE ( 'NONE',  #1080 ) ;
#1187 = CARTESIAN_POINT ( 'NONE',  ( 2.999999999999999112, 2.395702683850635980E-14, 0.000000000000000000 ) ) ;
#1188 = PERSON_AND_ORGANIZATION_ROLE ( 'design_owner' ) ;
#1189 = EDGE_LOOP ( 'NONE', ( #1262, #34, #170, #471 ) ) ;
#1190 = VECTOR ( 'NONE', #1007, 1000.000000000000114 ) ;
#1191 = LINE ( 'NONE', #1273, #154 ) ;
#1192 = AXIS2_PLACEMENT_3D ( 'NONE', #46, #1, #752 ) ;
#1193 = ADVANCED_FACE ( 'NONE', ( #1156 ), #57, .T. ) ;
#1194 = VECTOR ( 'NONE', #678, 1000.000000000000114 ) ;
#1195 = CONICAL_SURFACE ( 'NONE', #130, 1.899999999999957279, 0.7853981633974485010 ) ;
#1196 = CYLINDRICAL_SURFACE ( 'NONE', #625, 1.399999999999999911 ) ;
#1197 = ORIENTED_EDGE ( 'NONE', *, *, #1216, .F. ) ;
#1198 = CARTESIAN_POINT ( 'NONE',  ( 3.001071613439876273E-13, 1.665334536937734811E-13, 3.000000000000000000 ) ) ;
#1199 = EDGE_CURVE ( 'NONE', #18, #736, #75, .T. ) ;
#1200 = DIRECTION ( 'NONE',  ( 1.000000000000000000, 0.000000000000000000, 0.000000000000000000 ) ) ;
#1201 = ORIENTED_EDGE ( 'NONE', *, *, #484, .T. ) ;
#1202 = CARTESIAN_POINT ( 'NONE',  ( 3.656854249492291764, 258.5000000000000568, 3.000000000000000000 ) ) ;
#1203 = ORIENTED_EDGE ( 'NONE', *, *, #384, .F. ) ;
#1204 = VERTEX_POINT ( 'NONE', #1361 ) ;
#1205 = EDGE_CURVE ( 'NONE', #1204, #566, #932, .T. ) ;
#1206 = CARTESIAN_POINT ( 'NONE',  ( 12.35549474256347047, 242.5891239445646477, 2.698640493070990409 ) ) ;
#1207 = EDGE_LOOP ( 'NONE', ( #13, #1106, #814, #256 ) ) ;
#1208 = CARTESIAN_POINT ( 'NONE',  ( 3.156854249492318853, 259.0000000000000000, 2.000000000000001776 ) ) ;
#1209 = VERTEX_POINT ( 'NONE', #815 ) ;
#1210 = CARTESIAN_POINT ( 'NONE',  ( 4.827972286780451761, 13.64417089818628703, 1.172027713219474743 ) ) ;
#1211 = VECTOR ( 'NONE', #915, 999.9999999999998863 ) ;
#1212 = AXIS2_PLACEMENT_3D ( 'NONE', #232, #986, #133 ) ;
#1213 = VECTOR ( 'NONE', #432, 1000.000000000000114 ) ;
#1214 = CARTESIAN_POINT ( 'NONE',  ( 3.156854249492317965, 240.5243556529821376, 3.000000000000000000 ) ) ;
#1215 = APPROVAL_ROLE ( '' ) ;
#1216 = EDGE_CURVE ( 'NONE', #1099, #763, #185, .T. ) ;
#1217 = ORIENTED_EDGE ( 'NONE', *, *, #613, .F. ) ;
#1218 = LINE ( 'NONE', #449, #808 ) ;
#1219 = ORIENTED_EDGE ( 'NONE', *, *, #1160, .T. ) ;
#1220 = CARTESIAN_POINT ( 'NONE',  ( 12.65685424949231930, 224.0698729810778786, 0.4999999999999726885 ) ) ;
#1221 = ORIENTED_EDGE ( 'NONE', *, *, #441, .T. ) ;
#1222 = DIRECTION ( 'NONE',  ( 0.6947465906068472918, 0.1861567878973803547, -0.6947465906068855945 ) ) ;
#1223 = APPROVAL_STATUS ( 'not_yet_approved' ) ;
#1224 = ORIENTED_EDGE ( 'NONE', *, *, #995, .F. ) ;
#1225 = CARTESIAN_POINT ( 'NONE',  ( 12.65685424949231752, 224.0698729810778786, 0.4999999999999726885 ) ) ;
#1226 = EDGE_LOOP ( 'NONE', ( #226, #1267, #1233, #575 ) ) ;
#1227 = EDGE_CURVE ( 'NONE', #1113, #1329, #714, .T. ) ;
#1228 = CARTESIAN_POINT ( 'NONE',  ( -2.999999999999999112, 15.87564434701783966, 0.000000000000000000 ) ) ;
#1229 = ORIENTED_EDGE ( 'NONE', *, *, #672, .F. ) ;
#1230 = DIRECTION ( 'NONE',  ( 1.000000000000000000, 0.000000000000000000, 0.000000000000000000 ) ) ;
#1231 = FACE_OUTER_BOUND ( 'NONE', #1009, .T. ) ;
#1232 = CARTESIAN_POINT ( 'NONE',  ( 7.408522337646699540, 45.26642309501360728, -2.748331911845903974 ) ) ;
#1233 = ORIENTED_EDGE ( 'NONE', *, *, #1056, .T. ) ;
#1234 = DIRECTION ( 'NONE',  ( 0.7071067811865676678, -1.126022036214403176E-15, -0.7071067811865273667 ) ) ;
#1235 = EDGE_CURVE ( 'NONE', #367, #824, #821, .T. ) ;
#1236 = VERTEX_POINT ( 'NONE', #944 ) ;
#1237 = VECTOR ( 'NONE', #217, 999.9999999999998863 ) ;
#1238 = VECTOR ( 'NONE', #1283, 1000.000000000000000 ) ;
#1239 = CARTESIAN_POINT ( 'NONE',  ( 10.15685424949232996, 242.0000000000000000, 2.500000000000027534 ) ) ;
#1240 = AXIS2_PLACEMENT_3D ( 'NONE', #1198, #854, #1089 ) ;
#1241 = ORIENTED_EDGE ( 'NONE', *, *, #875, .T. ) ;
#1242 = LINE ( 'NONE', #274, #450 ) ;
#1243 = CARTESIAN_POINT ( 'NONE',  ( 3.500000000000000000, 14.00000000000000000, 0.4999999999999726885 ) ) ;
#1244 = CARTESIAN_POINT ( 'NONE',  ( -3.499999999999999112, -1.942890293093933227E-16, 2.499999999999999556 ) ) ;
#1245 = EDGE_CURVE ( 'NONE', #1204, #269, #1247, .T. ) ;
#1246 = VERTEX_POINT ( 'NONE', #1150 ) ;
#1247 = LINE ( 'NONE', #1349, #516 ) ;
#1248 = ORIENTED_EDGE ( 'NONE', *, *, #384, .T. ) ;
#1249 = LINE ( 'NONE', #281, #857 ) ;
#1250 = FACE_OUTER_BOUND ( 'NONE', #868, .T. ) ;
#1251 = EDGE_CURVE ( 'NONE', #981, #1122, #590, .T. ) ;
#1252 = LINE ( 'NONE', #387, #828 ) ;
#1253 = DIRECTION ( 'NONE',  ( -0.000000000000000000, -0.000000000000000000, -1.000000000000000000 ) ) ;
#1254 = EDGE_LOOP ( 'NONE', ( #1136, #1304, #1217, #662 ) ) ;
#1255 = DIRECTION ( 'NONE',  ( -6.122553444624020051E-16, 1.000000000000000000, 0.000000000000000000 ) ) ;
#1256 = VECTOR ( 'NONE', #1200, 1000.000000000000000 ) ;
#1257 = PLANE ( 'NONE',  #946 ) ;
#1258 = AXIS2_PLACEMENT_3D ( 'NONE', #517, #1050, #105 ) ;
#1259 = ORIENTED_EDGE ( 'NONE', *, *, #434, .T. ) ;
#1260 = VECTOR ( 'NONE', #553, 1000.000000000000000 ) ;
#1261 = DIRECTION ( 'NONE',  ( -0.000000000000000000, -0.000000000000000000, -1.000000000000000000 ) ) ;
#1262 = ORIENTED_EDGE ( 'NONE', *, *, #398, .F. ) ;
#1263 = DIRECTION ( 'NONE',  ( 0.6947465906068833741, -0.1861567878973974244, -0.6947465906068448493 ) ) ;
#1264 = CARTESIAN_POINT ( 'NONE',  ( 12.65685424949231752, 43.86013679762404394, 0.4999999999999726885 ) ) ;
#1265 = DIRECTION ( 'NONE',  ( -0.7071067811865133779, 0.3922322702763870739, -0.5883484054145806663 ) ) ;
#1266 = DIRECTION ( 'NONE',  ( 0.6947465906068480690, -0.1861567878973733603, -0.6947465906068867048 ) ) ;
#1267 = ORIENTED_EDGE ( 'NONE', *, *, #1199, .T. ) ;
#1268 = DIRECTION ( 'NONE',  ( -0.7071067811865279218, -1.931629838975767859E-17, -0.7071067811865671127 ) ) ;
#1269 = ADVANCED_FACE ( 'NONE', ( #1356 ), #1195, .F. ) ;
#1270 = CARTESIAN_POINT ( 'NONE',  ( 10.15685424949231930, 258.5000000000000568, 2.500000000000027534 ) ) ;
#1271 = CARTESIAN_POINT ( 'NONE',  ( 3.001071613439876273E-13, 1.665334536937734811E-13, 0.000000000000000000 ) ) ;
#1272 = ORIENTED_EDGE ( 'NONE', *, *, #457, .T. ) ;
#1273 = CARTESIAN_POINT ( 'NONE',  ( 10.15685424949232996, 242.0000000000000000, 2.500000000000027534 ) ) ;
#1274 = LINE ( 'NONE', #479, #900 ) ;
#1275 = ADVANCED_FACE ( 'NONE', ( #169 ), #394, .T. ) ;
#1276 = DIRECTION ( 'NONE',  ( 0.000000000000000000, 1.000000000000000000, 0.000000000000000000 ) ) ;
#1277 = PLANE ( 'NONE',  #585 ) ;
#1278 = VECTOR ( 'NONE', #472, 1000.000000000000000 ) ;
#1279 = ORIENTED_EDGE ( 'NONE', *, *, #1307, .T. ) ;
#1280 = CARTESIAN_POINT ( 'NONE',  ( 3.500000000000000000, 14.00000000000000000, 2.499999999999997780 ) ) ;
#1281 = VECTOR ( 'NONE', #1377, 1000.000000000000000 ) ;
#1282 = AXIS2_PLACEMENT_3D ( 'NONE', #838, #694, #1130 ) ;
#1283 = DIRECTION ( 'NONE',  ( 5.094272395698594715E-16, -0.8320502943378437211, -0.5547001962252291474 ) ) ;
#1284 = EDGE_CURVE ( 'NONE', #367, #242, #938, .T. ) ;
#1285 = CARTESIAN_POINT ( 'NONE',  ( 3.001071613439876273E-13, 1.665334536937734811E-13, 0.4999999999999726885 ) ) ;
#1286 =( LENGTH_UNIT ( ) NAMED_UNIT ( * ) SI_UNIT ( .MILLI., .METRE. ) );
#1287 = ORIENTED_EDGE ( 'NONE', *, *, #936, .F. ) ;
#1288 = LINE ( 'NONE', #657, #1390 ) ;
#1289 = LINE ( 'NONE', #216, #331 ) ;
#1290 = CARTESIAN_POINT ( 'NONE',  ( -15.83983151437980474, 216.4342090436817330, -25.99668576387370322 ) ) ;
#1291 = ADVANCED_FACE ( 'NONE', ( #724 ), #483, .F. ) ;
#1292 = ORIENTED_EDGE ( 'NONE', *, *, #194, .T. ) ;
#1293 = CARTESIAN_POINT ( 'NONE',  ( 18.65685424949231574, 40.25244164303730088, 3.000000000000000000 ) ) ;
#1294 = CARTESIAN_POINT ( 'NONE',  ( 36.12249710160094196, 248.9574730331715955, -23.46564285210709144 ) ) ;
#1295 = SHAPE_DEFINITION_REPRESENTATION ( #282, #262 ) ;
#1296 = EDGE_LOOP ( 'NONE', ( #552, #409, #128, #774, #1279 ) ) ;
#1297 = VECTOR ( 'NONE', #439, 1000.000000000000000 ) ;
#1298 = CARTESIAN_POINT ( 'NONE',  ( -1.399999999999699929, 1.667049042456541002E-13, 2.499999999999987566 ) ) ;
#1299 = AXIS2_PLACEMENT_3D ( 'NONE', #789, #681, #1165 ) ;
#1300 = EDGE_CURVE ( 'NONE', #786, #736, #673, .T. ) ;
#1301 = VECTOR ( 'NONE', #81, 1000.000000000000000 ) ;
#1302 = LINE ( 'NONE', #761, #466 ) ;
#1303 = COORDINATED_UNIVERSAL_TIME_OFFSET ( 1, 0, .AHEAD. ) ;
#1304 = ORIENTED_EDGE ( 'NONE', *, *, #741, .F. ) ;
#1305 = DIRECTION ( 'NONE',  ( 0.4999999999999947820, 0.8660254037844417052, 0.000000000000000000 ) ) ;
#1306 = EDGE_LOOP ( 'NONE', ( #750, #852, #50, #603 ) ) ;
#1307 = EDGE_CURVE ( 'NONE', #880, #1246, #1242, .T. ) ;
#1308 = DIRECTION ( 'NONE',  ( 0.000000000000000000, -0.000000000000000000, -1.000000000000000000 ) ) ;
#1309 = VERTEX_POINT ( 'NONE', #1137 ) ;
#1310 = CARTESIAN_POINT ( 'NONE',  ( 3.499999999999999556, 1.942890293093933227E-16, 0.4999999999999726885 ) ) ;
#1311 = ORIENTED_EDGE ( 'NONE', *, *, #197, .F. ) ;
#1312 = DIRECTION ( 'NONE',  ( 0.000000000000000000, 0.000000000000000000, 1.000000000000000000 ) ) ;
#1313 = ORIENTED_EDGE ( 'NONE', *, *, #1343, .F. ) ;
#1314 = FACE_OUTER_BOUND ( 'NONE', #207, .T. ) ;
#1315 = DATE_AND_TIME ( #42, #177 ) ;
#1316 = EDGE_LOOP ( 'NONE', ( #1109, #652 ) ) ;
#1317 = DIRECTION ( 'NONE',  ( 0.000000000000000000, -1.000000000000000000, 0.000000000000000000 ) ) ;
#1318 = VECTOR ( 'NONE', #979, 999.9999999999998863 ) ;
#1319 = VERTEX_POINT ( 'NONE', #164 ) ;
#1320 = DIRECTION ( 'NONE',  ( 6.122553444624020051E-16, -1.000000000000000000, 0.000000000000000000 ) ) ;
#1321 = CONICAL_SURFACE ( 'NONE', #1102, 1.399999999999999911, 0.7853981633974485010 ) ;
#1322 = ORIENTED_EDGE ( 'NONE', *, *, #484, .F. ) ;
#1323 = VECTOR ( 'NONE', #181, 1000.000000000000114 ) ;
#1324 = DIRECTION ( 'NONE',  ( 0.000000000000000000, 0.000000000000000000, -1.000000000000000000 ) ) ;
#1325 = DATE_AND_TIME ( #459, #15 ) ;
#1326 = ADVANCED_FACE ( 'NONE', ( #595 ), #1030, .T. ) ;
#1327 = ORIENTED_EDGE ( 'NONE', *, *, #884, .F. ) ;
#1328 = CARTESIAN_POINT ( 'NONE',  ( 0.6791898815968755443, 14.75583379322759470, -3.679189881596671707 ) ) ;
#1329 = VERTEX_POINT ( 'NONE', #959 ) ;
#1330 = PLANE ( 'NONE',  #1389 ) ;
#1331 = ORIENTED_EDGE ( 'NONE', *, *, #995, .T. ) ;
#1332 = CARTESIAN_POINT ( 'NONE',  ( 3.500000000000000000, 14.00000000000000000, 3.000000000000000000 ) ) ;
#1333 = ORIENTED_EDGE ( 'NONE', *, *, #1049, .T. ) ;
#1334 = DIRECTION ( 'NONE',  ( 0.5000000000000004441, -0.8660254037844382635, 0.000000000000000000 ) ) ;
#1335 = ADVANCED_FACE ( 'NONE', ( #95 ), #1277, .F. ) ;
#1336 = EDGE_LOOP ( 'NONE', ( #1011, #635, #346, #594 ) ) ;
#1337 = CARTESIAN_POINT ( 'NONE',  ( 13.27527262344585424, 255.3815816260468523, 3.936518745154296894 ) ) ;
#1338 = DIRECTION ( 'NONE',  ( -0.4999999999999947820, -0.8660254037844417052, 0.000000000000000000 ) ) ;
#1339 = ORIENTED_EDGE ( 'NONE', *, *, #502, .T. ) ;
#1340 = DIRECTION ( 'NONE',  ( -0.7071067811865671127, 2.190419166690595276E-17, -0.7071067811865279218 ) ) ;
#1341 = ORIENTED_EDGE ( 'NONE', *, *, #344, .F. ) ;
#1342 = DIRECTION ( 'NONE',  ( -0.000000000000000000, -0.000000000000000000, 1.000000000000000000 ) ) ;
#1343 = EDGE_CURVE ( 'NONE', #91, #597, #1381, .T. ) ;
#1344 = AXIS2_PLACEMENT_3D ( 'NONE', #88, #850, #413 ) ;
#1345 = PLANE ( 'NONE',  #806 ) ;
#1346 = AXIS2_PLACEMENT_3D ( 'NONE', #632, #1068, #751 ) ;
#1347 = LOCAL_TIME ( 17, 13, 29.00000000000000000, #1303 ) ;
#1348 = CARTESIAN_POINT ( 'NONE',  ( -3.499999999999999556, 15.87564434701783966, 0.4999999999999744094 ) ) ;
#1349 = CARTESIAN_POINT ( 'NONE',  ( 18.15685424949234417, 1.665334536937734811E-13, 3.000000000000000000 ) ) ;
#1350 = CC_DESIGN_SECURITY_CLASSIFICATION ( #1085, ( #971 ) ) ;
#1351 = EDGE_LOOP ( 'NONE', ( #1040, #326, #682, #47 ) ) ;
#1352 = CARTESIAN_POINT ( 'NONE',  ( 18.15685424949231574, 40.38641623925285984, 0.000000000000000000 ) ) ;
#1353 = ADVANCED_FACE ( 'NONE', ( #319 ), #292, .T. ) ;
#1354 = FACE_OUTER_BOUND ( 'NONE', #845, .T. ) ;
#1355 = VERTEX_POINT ( 'NONE', #420 ) ;
#1356 = FACE_OUTER_BOUND ( 'NONE', #389, .T. ) ;
#1357 = VERTEX_POINT ( 'NONE', #90 ) ;
#1358 = FACE_OUTER_BOUND ( 'NONE', #1351, .T. ) ;
#1359 = FACE_OUTER_BOUND ( 'NONE', #809, .T. ) ;
#1360 = ORIENTED_EDGE ( 'NONE', *, *, #188, .T. ) ;
#1361 = CARTESIAN_POINT ( 'NONE',  ( 18.15685424949234417, 40.38641623925285984, 3.000000000000000000 ) ) ;
#1362 = ORIENTED_EDGE ( 'NONE', *, *, #1251, .T. ) ;
#1363 = CARTESIAN_POINT ( 'NONE',  ( 9.656854249492475617, 1.724459143187195243E-13, 3.000000000000000000 ) ) ;
#1364 = LINE ( 'NONE', #633, #424 ) ;
#1365 = VECTOR ( 'NONE', #647, 1000.000000000000000 ) ;
#1366 = CARTESIAN_POINT ( 'NONE',  ( -1.399999999999699929, 1.665334536937734811E-13, 2.499999999999987566 ) ) ;
#1367 = VECTOR ( 'NONE', #1255, 1000.000000000000000 ) ;
#1368 = CARTESIAN_POINT ( 'NONE',  ( 3.001071613439876273E-13, 1.665334536937734811E-13, 0.000000000000000000 ) ) ;
#1369 = EDGE_CURVE ( 'NONE', #1018, #1355, #754, .T. ) ;
#1370 = VERTEX_POINT ( 'NONE', #440 ) ;
#1371 = DIRECTION ( 'NONE',  ( -0.5000000000000019984, 0.8660254037844374864, 0.000000000000000000 ) ) ;
#1372 = CARTESIAN_POINT ( 'NONE',  ( 9.656854249492319298, 259.0000000000000000, 3.000000000000000000 ) ) ;
#1373 = DIRECTION ( 'NONE',  ( 0.7071067811865671127, -3.360558608890333756E-14, 0.7071067811865279218 ) ) ;
#1374 = DIRECTION ( 'NONE',  ( 0.000000000000000000, 0.000000000000000000, -1.000000000000000000 ) ) ;
#1375 = ORIENTED_EDGE ( 'NONE', *, *, #645, .F. ) ;
#1376 = EDGE_CURVE ( 'NONE', #1097, #462, #414, .T. ) ;
#1377 = DIRECTION ( 'NONE',  ( -0.000000000000000000, -0.000000000000000000, -1.000000000000000000 ) ) ;
#1378 = ADVANCED_FACE ( 'NONE', ( #851 ), #1388, .F. ) ;
#1379 = DIRECTION ( 'NONE',  ( 0.7071067811865279218, -2.190419166690473866E-17, -0.7071067811865671127 ) ) ;
#1380 = CARTESIAN_POINT ( 'NONE',  ( 13.15685424949231752, 224.0698729810778786, 0.000000000000000000 ) ) ;
#1381 = LINE ( 'NONE', #1163, #1042 ) ;
#1382 = ORIENTED_EDGE ( 'NONE', *, *, #840, .F. ) ;
#1383 = LINE ( 'NONE', #874, #383 ) ;
#1384 = DESIGN_CONTEXT ( 'detailed design', #640, 'design' ) ;
#1385 = ADVANCED_FACE ( 'NONE', ( #862 ), #113, .F. ) ;
#1386 = LINE ( 'NONE', #1372, #646 ) ;
#1387 = DIRECTION ( 'NONE',  ( 0.6123724356957858106, 0.3535533905932692345, -0.7071067811865573427 ) ) ;
#1388 = PLANE ( 'NONE',  #950 ) ;
#1389 = AXIS2_PLACEMENT_3D ( 'NONE', #584, #368, #777 ) ;
#1390 = VECTOR ( 'NONE', #6, 1000.000000000000000 ) ;
#1391 = ORIENTED_EDGE ( 'NONE', *, *, #701, .F. ) ;
#1392 = DIRECTION ( 'NONE',  ( 0.7071067811865279218, -2.775557561562891351E-17, 0.7071067811865671127 ) ) ;
#1393 = APPROVAL_PERSON_ORGANIZATION ( #546, #818, #903 ) ;
#1394 = AXIS2_PLACEMENT_3D ( 'NONE', #524, #1374, #200 ) ;
#1395 = CARTESIAN_POINT ( 'NONE',  ( 13.15685424949229088, 1.665334536937734811E-13, 3.000000000000000000 ) ) ;
#1396 = CARTESIAN_POINT ( 'NONE',  ( 3.499999999999999556, 1.942890293093933227E-16, 3.000000000000000000 ) ) ;
#1397 = DIRECTION ( 'NONE',  ( 0.000000000000000000, 0.000000000000000000, 1.000000000000000000 ) ) ;
#1398 = ORIENTED_EDGE ( 'NONE', *, *, #222, .T. ) ;
#1399 = CARTESIAN_POINT ( 'NONE',  ( 106.9507545011946235, 61.74804690129862195, 3.000000000000000000 ) ) ;
ENDSEC;
END-ISO-10303-21;
