ISO-10303-21;
HEADER;
FILE_DESCRIPTION (( 'STEP AP203' ),
    '1' );
FILE_NAME ('MB_door_front_slider_bottom_L_v1.step',
    '2023-01-16T16:14:01',
    ( '' ),
    ( '' ),
    'SwSTEP 2.0',
    'SolidWorks 2023',
    '' );
FILE_SCHEMA (( 'CONFIG_CONTROL_DESIGN' ));
ENDSEC;

DATA;
#1 = CARTESIAN_POINT ( 'NONE',  ( 15.09774862074721469, -185.0212859225447346, 0.7324081207559713924 ) ) ;
#2 = CARTESIAN_POINT ( 'NONE',  ( -68.39689100303992575, -22.90432793449236115, 3.000000000000000000 ) ) ;
#3 = CARTESIAN_POINT ( 'NONE',  ( 10.54089437125481332, 23.47871407745524763, 0.4999999999999874545 ) ) ;
#4 = VERTEX_POINT ( 'NONE', #1045 ) ;
#5 = DIRECTION ( 'NONE',  ( -0.000000000000000000, -0.000000000000000000, -1.000000000000000000 ) ) ;
#6 = ADVANCED_FACE ( 'NONE', ( #1024 ), #1268, .T. ) ;
#7 = FACE_OUTER_BOUND ( 'NONE', #1132, .T. ) ;
#8 = LINE ( 'NONE', #191, #751 ) ;
#9 = ORIENTED_EDGE ( 'NONE', *, *, #1116, .T. ) ;
#10 = VERTEX_POINT ( 'NONE', #234 ) ;
#11 = DIRECTION ( 'NONE',  ( 1.562464779762060597E-16, -0.8320502943378448313, -0.5547001962252274820 ) ) ;
#12 = DIRECTION ( 'NONE',  ( -1.226821076145407731E-16, 1.000000000000000000, 0.000000000000000000 ) ) ;
#13 = VERTEX_POINT ( 'NONE', #435 ) ;
#14 = VECTOR ( 'NONE', #299, 1000.000000000000000 ) ;
#15 = VECTOR ( 'NONE', #310, 1000.000000000000114 ) ;
#16 = ORIENTED_EDGE ( 'NONE', *, *, #432, .T. ) ;
#17 = FACE_OUTER_BOUND ( 'NONE', #394, .T. ) ;
#18 = DIRECTION ( 'NONE',  ( 0.4999999999999998890, 0.8660254037844385966, -0.000000000000000000 ) ) ;
#19 = DIRECTION ( 'NONE',  ( 0.000000000000000000, 0.000000000000000000, 1.000000000000000000 ) ) ;
#20 = EDGE_CURVE ( 'NONE', #883, #635, #1139, .T. ) ;
#21 = ORIENTED_EDGE ( 'NONE', *, *, #217, .T. ) ;
#22 = APPROVAL_STATUS ( 'not_yet_approved' ) ;
#23 = CARTESIAN_POINT ( 'NONE',  ( 3.440894371254834105, -147.3310221059988407, 0.000000000000000000 ) ) ;
#24 = CARTESIAN_POINT ( 'NONE',  ( 8.507881669362641119, -144.5073015476276623, 3.000000000000000000 ) ) ;
#25 = EDGE_LOOP ( 'NONE', ( #986, #846, #753, #361 ) ) ;
#26 = CC_DESIGN_PERSON_AND_ORGANIZATION_ASSIGNMENT ( #65, #962, ( #627 ) ) ;
#27 = CARTESIAN_POINT ( 'NONE',  ( 8.909805458009282475, 25.22871407745525119, 2.499999999999999556 ) ) ;
#28 = CARTESIAN_POINT ( 'NONE',  ( 21.59774862074721824, -182.5212859225446778, 3.000000000000000000 ) ) ;
#29 = AXIS2_PLACEMENT_3D ( 'NONE', #97, #569, #995 ) ;
#30 = ORIENTED_EDGE ( 'NONE', *, *, #686, .T. ) ;
#31 = AXIS2_PLACEMENT_3D ( 'NONE', #876, #1266, #18 ) ;
#32 = VECTOR ( 'NONE', #40, 1000.000000000000000 ) ;
#33 = ORIENTED_EDGE ( 'NONE', *, *, #1033, .T. ) ;
#34 = EDGE_CURVE ( 'NONE', #615, #169, #762, .T. ) ;
#35 = DIRECTION ( 'NONE',  ( 1.000000000000000000, 0.000000000000000000, 0.000000000000000000 ) ) ;
#36 = ORIENTED_EDGE ( 'NONE', *, *, #252, .T. ) ;
#37 = ORIENTED_EDGE ( 'NONE', *, *, #568, .F. ) ;
#38 = DIRECTION ( 'NONE',  ( 0.5000000000000013323, -0.8660254037844380415, 0.000000000000000000 ) ) ;
#39 = ADVANCED_FACE ( 'NONE', ( #952 ), #346, .F. ) ;
#40 = DIRECTION ( 'NONE',  ( 0.000000000000000000, 0.000000000000000000, -1.000000000000000000 ) ) ;
#41 = DIRECTION ( 'NONE',  ( 1.000000000000000000, 0.000000000000000000, 0.000000000000000000 ) ) ;
#42 = ORIENTED_EDGE ( 'NONE', *, *, #1109, .F. ) ;
#43 = PLANE ( 'NONE',  #1022 ) ;
#44 = LINE ( 'NONE', #1230, #943 ) ;
#45 = DIRECTION ( 'NONE',  ( 0.6947465906068249764, 0.1861567878975348422, -0.6947465906068664987 ) ) ;
#46 = COORDINATED_UNIVERSAL_TIME_OFFSET ( 1, 0, .AHEAD. ) ;
#47 = EDGE_CURVE ( 'NONE', #1096, #584, #144, .T. ) ;
#48 = ORIENTED_EDGE ( 'NONE', *, *, #1051, .F. ) ;
#49 = AXIS2_PLACEMENT_3D ( 'NONE', #563, #79, #868 ) ;
#50 = ORIENTED_EDGE ( 'NONE', *, *, #55, .F. ) ;
#51 = DIRECTION ( 'NONE',  ( -1.877848959846216669E-16, 1.000000000000000000, 0.000000000000000000 ) ) ;
#52 = VECTOR ( 'NONE', #698, 1000.000000000000000 ) ;
#53 = VECTOR ( 'NONE', #523, 1000.000000000000114 ) ;
#54 = CARTESIAN_POINT ( 'NONE',  ( 15.09774862074720936, -168.5212859225447346, 3.000000000000000000 ) ) ;
#55 = EDGE_CURVE ( 'NONE', #546, #400, #930, .T. ) ;
#56 = ORIENTED_EDGE ( 'NONE', *, *, #953, .T. ) ;
#57 = EDGE_LOOP ( 'NONE', ( #33, #919, #237, #477 ) ) ;
#58 = DIRECTION ( 'NONE',  ( 1.000000000000000000, 0.000000000000000000, 0.000000000000000000 ) ) ;
#59 = PLANE ( 'NONE',  #441 ) ;
#60 = DIRECTION ( 'NONE',  ( -1.877848959846216669E-16, 1.000000000000000000, 0.000000000000000000 ) ) ;
#61 = EDGE_CURVE ( 'NONE', #533, #633, #358, .T. ) ;
#62 = ORIENTED_EDGE ( 'NONE', *, *, #265, .T. ) ;
#63 = CARTESIAN_POINT ( 'NONE',  ( 14.97198328450034310, 21.72871407745524408, 2.499999999999999556 ) ) ;
#64 = CARTESIAN_POINT ( 'NONE',  ( 21.59774862074722179, -185.0212859225447346, 0.000000000000000000 ) ) ;
#65 = PERSON_AND_ORGANIZATION ( #1193, #202 ) ;
#66 = CARTESIAN_POINT ( 'NONE',  ( -15.14092490596996576, -152.3100055752328785, -15.58181927722584703 ) ) ;
#67 = ORIENTED_EDGE ( 'NONE', *, *, #1160, .T. ) ;
#68 = LINE ( 'NONE', #855, #985 ) ;
#69 = DIRECTION ( 'NONE',  ( -1.255456808564403043E-16, 1.000000000000000000, 0.000000000000000000 ) ) ;
#70 = EDGE_CURVE ( 'NONE', #1065, #1244, #256, .T. ) ;
#71 = AXIS2_PLACEMENT_3D ( 'NONE', #334, #1128, #715 ) ;
#72 = PLANE ( 'NONE',  #321 ) ;
#73 = VECTOR ( 'NONE', #734, 1000.000000000000000 ) ;
#74 = PLANE ( 'NONE',  #220 ) ;
#75 = ORIENTED_EDGE ( 'NONE', *, *, #193, .F. ) ;
#76 = DIRECTION ( 'NONE',  ( 1.000000000000000000, 0.000000000000000000, 0.000000000000000000 ) ) ;
#77 = EDGE_CURVE ( 'NONE', #565, #825, #1252, .T. ) ;
#78 = CARTESIAN_POINT ( 'NONE',  ( 2.940894371254832329, -147.4649967022143926, 0.4999999999999726885 ) ) ;
#79 = DIRECTION ( 'NONE',  ( -0.8660254037844385966, 0.5000000000000003331, 0.000000000000000000 ) ) ;
#80 = ORIENTED_EDGE ( 'NONE', *, *, #530, .T. ) ;
#81 = CARTESIAN_POINT ( 'NONE',  ( 15.09774862074721469, -185.0212859225447346, 3.000000000000000000 ) ) ;
#82 = CARTESIAN_POINT ( 'NONE',  ( 3.373907073147008884, 14.64025680933535689, 3.000000000000000000 ) ) ;
#83 = DIRECTION ( 'NONE',  ( 0.5000000000000014433, -0.8660254037844378194, 0.000000000000000000 ) ) ;
#84 = ADVANCED_FACE ( 'NONE', ( #628 ), #172, .F. ) ;
#85 = ORIENTED_EDGE ( 'NONE', *, *, #70, .T. ) ;
#86 = DIRECTION ( 'NONE',  ( 1.000000000000000000, 0.000000000000000000, 0.000000000000000000 ) ) ;
#87 = DIRECTION ( 'NONE',  ( 0.000000000000000000, -0.5547001962252273710, 0.8320502943378448313 ) ) ;
#88 = AXIS2_PLACEMENT_3D ( 'NONE', #879, #194, #582 ) ;
#89 = FACE_OUTER_BOUND ( 'NONE', #266, .T. ) ;
#90 = ORIENTED_EDGE ( 'NONE', *, *, #1091, .F. ) ;
#91 = VECTOR ( 'NONE', #560, 999.9999999999997726 ) ;
#92 = FACE_OUTER_BOUND ( 'NONE', #537, .T. ) ;
#93 = EDGE_CURVE ( 'NONE', #517, #842, #571, .T. ) ;
#94 = ORIENTED_EDGE ( 'NONE', *, *, #809, .F. ) ;
#95 = LINE ( 'NONE', #81, #408 ) ;
#96 = LINE ( 'NONE', #776, #607 ) ;
#97 = CARTESIAN_POINT ( 'NONE',  ( 14.97198328450034666, 21.72871407745524408, 0.4999999999999726885 ) ) ;
#98 = ORIENTED_EDGE ( 'NONE', *, *, #185, .T. ) ;
#99 = ORIENTED_EDGE ( 'NONE', *, *, #1178, .F. ) ;
#100 = PLANE ( 'NONE',  #608 ) ;
#101 = LINE ( 'NONE', #291, #921 ) ;
#102 = CC_DESIGN_PERSON_AND_ORGANIZATION_ASSIGNMENT ( #1057, #1147, ( #988 ) ) ;
#103 = EDGE_CURVE ( 'NONE', #1097, #738, #393, .T. ) ;
#104 = DIRECTION ( 'NONE',  ( -0.6123724356958069048, -0.3535533905932821130, 0.7071067811865328068 ) ) ;
#105 = EDGE_LOOP ( 'NONE', ( #937, #863, #543, #42 ) ) ;
#106 = ORIENTED_EDGE ( 'NONE', *, *, #891, .F. ) ;
#107 = DIRECTION ( 'NONE',  ( 0.7071067811865412445, -0.3922322702763702540, 0.5883484054145583508 ) ) ;
#108 = CARTESIAN_POINT ( 'NONE',  ( 8.440894371254859863, -144.3912761438432142, 3.000000000000000000 ) ) ;
#109 = LINE ( 'NONE', #1001, #380 ) ;
#110 = EDGE_CURVE ( 'NONE', #323, #114, #476, .T. ) ;
#111 = CONICAL_SURFACE ( 'NONE', #1019, 3.499999999999999556, 0.7853981633974760346 ) ;
#112 = VECTOR ( 'NONE', #402, 1000.000000000000114 ) ;
#113 = AXIS2_PLACEMENT_3D ( 'NONE', #455, #255, #541 ) ;
#114 = VERTEX_POINT ( 'NONE', #293 ) ;
#115 = APPROVAL_STATUS ( 'not_yet_approved' ) ;
#116 = FACE_OUTER_BOUND ( 'NONE', #138, .T. ) ;
#117 = EDGE_CURVE ( 'NONE', #1096, #650, #787, .T. ) ;
#118 = EDGE_CURVE ( 'NONE', #10, #13, #1262, .T. ) ;
#119 = EDGE_CURVE ( 'NONE', #788, #694, #888, .T. ) ;
#120 = ORIENTED_EDGE ( 'NONE', *, *, #118, .F. ) ;
#121 = DIRECTION ( 'NONE',  ( 1.000000000000000000, 0.000000000000000000, 0.000000000000000000 ) ) ;
#122 = LINE ( 'NONE', #622, #487 ) ;
#123 = ADVANCED_FACE ( 'NONE', ( #771 ), #279, .F. ) ;
#124 = VERTEX_POINT ( 'NONE', #3 ) ;
#125 = ORIENTED_EDGE ( 'NONE', *, *, #1219, .T. ) ;
#126 = CARTESIAN_POINT ( 'NONE',  ( 15.59774862074718804, -185.2712859225447346, 0.2499999999999855949 ) ) ;
#127 = DIRECTION ( 'NONE',  ( 0.6947465906068851504, -0.1861567878973862111, 0.6947465906068461816 ) ) ;
#128 = VECTOR ( 'NONE', #878, 999.9999999999997726 ) ;
#129 = ORIENTED_EDGE ( 'NONE', *, *, #47, .F. ) ;
#130 = ADVANCED_FACE ( 'NONE', ( #963 ), #74, .F. ) ;
#131 = VECTOR ( 'NONE', #757, 1000.000000000000000 ) ;
#132 = ORIENTED_EDGE ( 'NONE', *, *, #974, .T. ) ;
#133 = FACE_BOUND ( 'NONE', #724, .T. ) ;
#134 = LOCAL_TIME ( 17, 14, 1.000000000000000000, #867 ) ;
#135 = CARTESIAN_POINT ( 'NONE',  ( 15.59774862074712232, 23.47871407745524763, 0.000000000000000000 ) ) ;
#136 = CARTESIAN_POINT ( 'NONE',  ( 0.000000000000000000, 0.000000000000000000, 0.000000000000000000 ) ) ;
#137 = VERTEX_POINT ( 'NONE', #370 ) ;
#138 = EDGE_LOOP ( 'NONE', ( #506, #242, #1080, #37 ) ) ;
#139 = CARTESIAN_POINT ( 'NONE',  ( 46.25593245763402450, -160.5724757258306568, -21.65818383688804971 ) ) ;
#140 = CARTESIAN_POINT ( 'NONE',  ( 8.940894371254831441, -144.2573015476276623, 0.4999999999999726885 ) ) ;
#141 = EDGE_CURVE ( 'NONE', #739, #533, #287, .T. ) ;
#142 = CARTESIAN_POINT ( 'NONE',  ( 11.94089437125481190, 23.47871407745524763, 2.499999999999929390 ) ) ;
#143 = PERSON_AND_ORGANIZATION_ROLE ( 'design_owner' ) ;
#144 = LINE ( 'NONE', #66, #463 ) ;
#145 = EDGE_LOOP ( 'NONE', ( #591, #1215, #249, #165 ) ) ;
#146 = LINE ( 'NONE', #651, #131 ) ;
#147 = EDGE_CURVE ( 'NONE', #609, #565, #1069, .T. ) ;
#148 = CARTESIAN_POINT ( 'NONE',  ( 11.94089437125481190, 23.47871407745524763, 0.4999999999999726885 ) ) ;
#149 = APPLICATION_PROTOCOL_DEFINITION ( 'international standard', 'config_control_design', 1994, #1110 ) ;
#150 = ORIENTED_EDGE ( 'NONE', *, *, #816, .F. ) ;
#151 = AXIS2_PLACEMENT_3D ( 'NONE', #1270, #975, #385 ) ;
#152 = ORIENTED_EDGE ( 'NONE', *, *, #440, .F. ) ;
#153 = DIRECTION ( 'NONE',  ( -0.000000000000000000, 0.7071067811865279218, 0.7071067811865671127 ) ) ;
#154 = VECTOR ( 'NONE', #426, 1000.000000000000000 ) ;
#155 = DIRECTION ( 'NONE',  ( 0.6947465906068870378, 0.1861567878973718615, 0.6947465906068481800 ) ) ;
#156 = CONICAL_SURFACE ( 'NONE', #923, 1.899999999999985034, 0.7853981633974469467 ) ;
#157 = DIRECTION ( 'NONE',  ( 1.000000000000000000, 0.000000000000000000, 0.000000000000000000 ) ) ;
#158 = CC_DESIGN_SECURITY_CLASSIFICATION ( #627, ( #988 ) ) ;
#159 = ADVANCED_FACE ( 'NONE', ( #660 ), #970, .F. ) ;
#160 = EDGE_LOOP ( 'NONE', ( #521, #794, #129, #173 ) ) ;
#161 = ORIENTED_EDGE ( 'NONE', *, *, #1033, .F. ) ;
#162 = LINE ( 'NONE', #864, #307 ) ;
#163 = CARTESIAN_POINT ( 'NONE',  ( 8.940894371254831441, -144.2573015476276623, 0.4999999999999726885 ) ) ;
#164 = CARTESIAN_POINT ( 'NONE',  ( 14.53897058260812258, 21.97871407745524408, 0.000000000000000000 ) ) ;
#165 = ORIENTED_EDGE ( 'NONE', *, *, #511, .T. ) ;
#166 = CALENDAR_DATE ( 2023, 16, 1 ) ;
#167 = CARTESIAN_POINT ( 'NONE',  ( 8.940894371254831441, -144.2573015476276623, 3.000000000000000000 ) ) ;
#168 = ADVANCED_FACE ( 'NONE', ( #92 ), #1164, .T. ) ;
#169 = VERTEX_POINT ( 'NONE', #983 ) ;
#170 = DIRECTION ( 'NONE',  ( -1.255456808564403043E-16, 1.000000000000000000, 0.000000000000000000 ) ) ;
#171 = FACE_BOUND ( 'NONE', #1220, .T. ) ;
#172 = PLANE ( 'NONE',  #151 ) ;
#173 = ORIENTED_EDGE ( 'NONE', *, *, #511, .F. ) ;
#174 = FACE_OUTER_BOUND ( 'NONE', #800, .T. ) ;
#175 = UNCERTAINTY_MEASURE_WITH_UNIT (LENGTH_MEASURE( 1.000000000000000082E-05 ), #1003, 'distance_accuracy_value', 'NONE');
#176 = EDGE_CURVE ( 'NONE', #229, #137, #274, .T. ) ;
#177 = CIRCLE ( 'NONE', #1206, 3.499999999999999556 ) ;
#178 = VECTOR ( 'NONE', #708, 1000.000000000000114 ) ;
#179 = CARTESIAN_POINT ( 'NONE',  ( 15.09774862074721291, -182.2439358244320715, 2.583974852831075530 ) ) ;
#180 = LOCAL_TIME ( 17, 14, 1.000000000000000000, #721 ) ;
#181 = CARTESIAN_POINT ( 'NONE',  ( 15.44089437125481190, 23.47871407745524763, 0.4999999999999726885 ) ) ;
#182 = VERTEX_POINT ( 'NONE', #1137 ) ;
#183 = CARTESIAN_POINT ( 'NONE',  ( 2.940894371254832329, -147.4649967022143926, 3.000000000000000000 ) ) ;
#184 = DIRECTION ( 'NONE',  ( 0.000000000000000000, 0.000000000000000000, 1.000000000000000000 ) ) ;
#185 = EDGE_CURVE ( 'NONE', #913, #533, #1130, .T. ) ;
#186 = EDGE_CURVE ( 'NONE', #337, #694, #177, .T. ) ;
#187 = DIRECTION ( 'NONE',  ( -0.000000000000000000, -0.000000000000000000, -1.000000000000000000 ) ) ;
#188 = ORIENTED_EDGE ( 'NONE', *, *, #982, .F. ) ;
#189 = DIRECTION ( 'NONE',  ( -1.000000000000000000, 0.000000000000000000, 0.000000000000000000 ) ) ;
#190 = DIRECTION ( 'NONE',  ( 3.061276722312010025E-16, -1.000000000000000000, 0.000000000000000000 ) ) ;
#191 = CARTESIAN_POINT ( 'NONE',  ( 8.909805458009282475, 25.22871407745525119, 2.499999999999999556 ) ) ;
#192 = ORIENTED_EDGE ( 'NONE', *, *, #1109, .T. ) ;
#193 = EDGE_CURVE ( 'NONE', #650, #901, #851, .T. ) ;
#194 = DIRECTION ( 'NONE',  ( 0.000000000000000000, 0.000000000000000000, -1.000000000000000000 ) ) ;
#195 = ORIENTED_EDGE ( 'NONE', *, *, #117, .T. ) ;
#196 = CARTESIAN_POINT ( 'NONE',  ( 11.94089437125481190, 23.47871407745524763, 3.000000000000000000 ) ) ;
#197 = CARTESIAN_POINT ( 'NONE',  ( 13.84089437125487976, 23.47871407745524763, 3.000000000000000000 ) ) ;
#198 = PRODUCT ( 'MB_door_front_slider_bottom_L_v1', 'MB_door_front_slider_bottom_L_v1', '', ( #944 ) ) ;
#199 = ORIENTED_EDGE ( 'NONE', *, *, #1067, .T. ) ;
#200 = AXIS2_PLACEMENT_3D ( 'NONE', #989, #396, #580 ) ;
#201 = VECTOR ( 'NONE', #987, 1000.000000000000114 ) ;
#202 = ORGANIZATION ( 'UNSPECIFIED', 'UNSPECIFIED', '' ) ;
#203 = PRODUCT_RELATED_PRODUCT_CATEGORY ( 'detail', '', ( #198 ) ) ;
#204 = ORIENTED_EDGE ( 'NONE', *, *, #974, .F. ) ;
#205 = LINE ( 'NONE', #594, #363 ) ;
#206 = DIRECTION ( 'NONE',  ( -3.061276722312010025E-16, 1.000000000000000000, 0.000000000000000000 ) ) ;
#207 = LINE ( 'NONE', #693, #1229 ) ;
#208 = VERTEX_POINT ( 'NONE', #765 ) ;
#209 = VERTEX_POINT ( 'NONE', #357 ) ;
#210 = DIRECTION ( 'NONE',  ( -0.000000000000000000, -0.000000000000000000, -1.000000000000000000 ) ) ;
#211 = EDGE_CURVE ( 'NONE', #288, #706, #935, .T. ) ;
#212 = LINE ( 'NONE', #488, #1249 ) ;
#213 = DIRECTION ( 'NONE',  ( -0.5000000000000002220, -0.8660254037844384856, 0.000000000000000000 ) ) ;
#214 = EDGE_LOOP ( 'NONE', ( #1174, #215, #1238, #132, #613, #505, #1053, #1168, #792, #67, #821 ) ) ;
#215 = ORIENTED_EDGE ( 'NONE', *, *, #661, .T. ) ;
#216 = PERSON_AND_ORGANIZATION ( #1193, #202 ) ;
#217 = EDGE_CURVE ( 'NONE', #807, #620, #470, .T. ) ;
#218 = CARTESIAN_POINT ( 'NONE',  ( 21.59774862074724666, -185.5212859225447346, 0.9999999999999705791 ) ) ;
#219 = ADVANCED_FACE ( 'NONE', ( #253 ), #658, .T. ) ;
#220 = AXIS2_PLACEMENT_3D ( 'NONE', #1166, #1058, #374 ) ;
#221 = AXIS2_PLACEMENT_3D ( 'NONE', #1129, #239, #844 ) ;
#222 = EDGE_LOOP ( 'NONE', ( #424, #16, #954, #9 ) ) ;
#223 = CARTESIAN_POINT ( 'NONE',  ( 9.342818159901501218, 24.97871407745524763, 0.000000000000000000 ) ) ;
#224 = DIRECTION ( 'NONE',  ( -1.000000000000000000, 0.000000000000000000, 0.000000000000000000 ) ) ;
#225 = EDGE_LOOP ( 'NONE', ( #280, #446, #997, #1201 ) ) ;
#226 = LINE ( 'NONE', #341, #692 ) ;
#227 = CARTESIAN_POINT ( 'NONE',  ( 11.94089437125481190, 23.47871407745524763, 2.499999999999929390 ) ) ;
#228 = ADVANCED_FACE ( 'NONE', ( #1034 ), #111, .T. ) ;
#229 = VERTEX_POINT ( 'NONE', #836 ) ;
#230 = ORIENTED_EDGE ( 'NONE', *, *, #118, .T. ) ;
#231 = CARTESIAN_POINT ( 'NONE',  ( 14.53897058260815456, 21.97871407745523342, 3.000000000000000000 ) ) ;
#232 = CARTESIAN_POINT ( 'NONE',  ( 22.09774862074721824, -182.3698981036787075, 2.500000000000003997 ) ) ;
#233 = VECTOR ( 'NONE', #577, 1000.000000000000000 ) ;
#234 = CARTESIAN_POINT ( 'NONE',  ( 2.940894371254811901, 14.89025680933534268, 0.4999999999999726885 ) ) ;
#235 = AXIS2_PLACEMENT_3D ( 'NONE', #1068, #184, #35 ) ;
#236 = VECTOR ( 'NONE', #553, 1000.000000000000000 ) ;
#237 = ORIENTED_EDGE ( 'NONE', *, *, #994, .F. ) ;
#238 = DIRECTION ( 'NONE',  ( 0.6947465906068456265, -0.1861567878973840184, 0.6947465906068862607 ) ) ;
#239 = DIRECTION ( 'NONE',  ( -0.7071067811865667796, -0.3922322702763563762, 0.5883484054145368125 ) ) ;
#240 = LINE ( 'NONE', #632, #339 ) ;
#241 = DIRECTION ( 'NONE',  ( 0.7071067811865264785, 3.439555541888082507E-16, -0.7071067811865686670 ) ) ;
#242 = ORIENTED_EDGE ( 'NONE', *, *, #1263, .F. ) ;
#243 = CARTESIAN_POINT ( 'NONE',  ( 9.342818159901504771, 24.97871407745525474, 0.000000000000000000 ) ) ;
#244 = EDGE_CURVE ( 'NONE', #465, #137, #351, .T. ) ;
#245 = CARTESIAN_POINT ( 'NONE',  ( 2.940894371254811901, 14.89025680933534268, 3.000000000000000000 ) ) ;
#246 = CARTESIAN_POINT ( 'NONE',  ( 11.95321308883333700, -169.3638616788928175, 3.644535531914061099 ) ) ;
#247 = PLANE ( 'NONE',  #113 ) ;
#248 = ORIENTED_EDGE ( 'NONE', *, *, #1263, .T. ) ;
#249 = ORIENTED_EDGE ( 'NONE', *, *, #282, .F. ) ;
#250 = DIRECTION ( 'NONE',  ( -1.000000000000000000, 0.000000000000000000, 0.000000000000000000 ) ) ;
#251 = FACE_OUTER_BOUND ( 'NONE', #1133, .T. ) ;
#252 = EDGE_CURVE ( 'NONE', #298, #124, #1250, .T. ) ;
#253 = FACE_OUTER_BOUND ( 'NONE', #428, .T. ) ;
#254 = CC_DESIGN_PERSON_AND_ORGANIZATION_ASSIGNMENT ( #549, #315, ( #793 ) ) ;
#255 = DIRECTION ( 'NONE',  ( 0.000000000000000000, 1.000000000000000000, 0.000000000000000000 ) ) ;
#256 = LINE ( 'NONE', #462, #486 ) ;
#257 = VECTOR ( 'NONE', #448, 1000.000000000000000 ) ;
#258 = AXIS2_PLACEMENT_3D ( 'NONE', #911, #1104, #224 ) ;
#259 = ORIENTED_EDGE ( 'NONE', *, *, #347, .F. ) ;
#260 = DIRECTION ( 'NONE',  ( 0.7071067811865279218, -0.7071067811865671127, -3.943663288905027369E-14 ) ) ;
#261 = VECTOR ( 'NONE', #250, 1000.000000000000000 ) ;
#262 = LOCAL_TIME ( 17, 14, 1.000000000000000000, #46 ) ;
#263 = DIRECTION ( 'NONE',  ( -0.000000000000000000, -0.000000000000000000, 1.000000000000000000 ) ) ;
#264 = PERSON_AND_ORGANIZATION ( #1193, #202 ) ;
#265 = EDGE_CURVE ( 'NONE', #609, #298, #283, .T. ) ;
#266 = EDGE_LOOP ( 'NONE', ( #786, #366, #450, #106 ) ) ;
#267 = DIRECTION ( 'NONE',  ( 1.877848959846216669E-16, -1.000000000000000000, -0.000000000000000000 ) ) ;
#268 = ORIENTED_EDGE ( 'NONE', *, *, #375, .T. ) ;
#269 = CARTESIAN_POINT ( 'NONE',  ( 8.909805458009282475, 25.22871407745525119, 3.000000000000000000 ) ) ;
#270 = DIRECTION ( 'NONE',  ( 1.000000000000000000, 1.255456808564403043E-16, -0.000000000000000000 ) ) ;
#271 = DIRECTION ( 'NONE',  ( -0.000000000000000000, -0.000000000000000000, 1.000000000000000000 ) ) ;
#272 = MANIFOLD_SOLID_BREP ( 'Chanfrein2', #403 ) ;
#273 = ADVANCED_FACE ( 'NONE', ( #344 ), #1158, .T. ) ;
#274 = LINE ( 'NONE', #1180, #14 ) ;
#275 = ORIENTED_EDGE ( 'NONE', *, *, #427, .F. ) ;
#276 = LINE ( 'NONE', #663, #286 ) ;
#277 = CARTESIAN_POINT ( 'NONE',  ( 15.59774862074718271, -168.3873113263291827, 3.000000000000000000 ) ) ;
#278 = COORDINATED_UNIVERSAL_TIME_OFFSET ( 1, 0, .AHEAD. ) ;
#279 = PLANE ( 'NONE',  #49 ) ;
#280 = ORIENTED_EDGE ( 'NONE', *, *, #1042, .T. ) ;
#281 = CARTESIAN_POINT ( 'NONE',  ( 21.59774862074721824, -167.1796161717424241, 0.000000000000000000 ) ) ;
#282 = EDGE_CURVE ( 'NONE', #405, #807, #760, .T. ) ;
#283 = CIRCLE ( 'NONE', #1004, 1.399999999999998579 ) ;
#284 = VECTOR ( 'NONE', #373, 1000.000000000000000 ) ;
#285 = CARTESIAN_POINT ( 'NONE',  ( 10.04089437125474404, 23.47871407745524763, 3.000000000000000000 ) ) ;
#286 = VECTOR ( 'NONE', #1060, 1000.000000000000000 ) ;
#287 = LINE ( 'NONE', #674, #689 ) ;
#288 = VERTEX_POINT ( 'NONE', #164 ) ;
#289 = DIRECTION ( 'NONE',  ( 0.000000000000000000, 0.000000000000000000, 1.000000000000000000 ) ) ;
#290 = ADVANCED_FACE ( 'NONE', ( #555 ), #59, .T. ) ;
#291 = CARTESIAN_POINT ( 'NONE',  ( 15.09774862074720936, -168.5212859225447346, 0.5000000000000004441 ) ) ;
#292 = CARTESIAN_POINT ( 'NONE',  ( 14.97198328450034488, 21.72871407745524408, 0.4999999999999726885 ) ) ;
#293 = CARTESIAN_POINT ( 'NONE',  ( 15.59774862074718449, -182.5212859225446778, 3.000000000000000000 ) ) ;
#294 = EDGE_LOOP ( 'NONE', ( #451, #916, #1092, #1037 ) ) ;
#295 = LINE ( 'NONE', #301, #775 ) ;
#296 = DIRECTION ( 'NONE',  ( 0.6947465906068825969, -0.1861567878973945378, -0.6947465906068464037 ) ) ;
#297 = EDGE_CURVE ( 'NONE', #1216, #584, #369, .T. ) ;
#298 = VERTEX_POINT ( 'NONE', #857 ) ;
#299 = DIRECTION ( 'NONE',  ( 0.7071067811865279218, 0.7071067811865672237, -1.196099074440367795E-16 ) ) ;
#300 = ORIENTED_EDGE ( 'NONE', *, *, #806, .T. ) ;
#301 = CARTESIAN_POINT ( 'NONE',  ( 8.440894371254810125, 23.47871407745524763, 0.000000000000000000 ) ) ;
#302 = CARTESIAN_POINT ( 'NONE',  ( 15.44089437125481190, 23.47871407745524763, 0.4999999999999726885 ) ) ;
#303 = VECTOR ( 'NONE', #241, 1000.000000000000114 ) ;
#304 = CARTESIAN_POINT ( 'NONE',  ( 21.59774862074723956, -167.1796161717424241, 3.000000000000000000 ) ) ;
#305 = EDGE_LOOP ( 'NONE', ( #746, #204, #639, #48 ) ) ;
#306 = AXIS2_PLACEMENT_3D ( 'NONE', #419, #823, #818 ) ;
#307 = VECTOR ( 'NONE', #559, 999.9999999999998863 ) ;
#308 = EDGE_CURVE ( 'NONE', #694, #687, #542, .T. ) ;
#309 = ORIENTED_EDGE ( 'NONE', *, *, #440, .T. ) ;
#310 = DIRECTION ( 'NONE',  ( 0.6914377643506277593, -0.2093505100532550289, 0.6914377643506663951 ) ) ;
#311 = LINE ( 'NONE', #804, #52 ) ;
#312 = CARTESIAN_POINT ( 'NONE',  ( 13.34089437125481048, 23.47871407745524763, 0.4999999999999874545 ) ) ;
#313 = ORIENTED_EDGE ( 'NONE', *, *, #661, .F. ) ;
#314 = EDGE_LOOP ( 'NONE', ( #1197, #768, #733 ) ) ;
#315 = PERSON_AND_ORGANIZATION_ROLE ( 'creator' ) ;
#316 = LINE ( 'NONE', #325, #796 ) ;
#317 = ORIENTED_EDGE ( 'NONE', *, *, #252, .F. ) ;
#318 = DIRECTION ( 'NONE',  ( 1.255456808564403043E-16, -1.000000000000000000, 0.000000000000000000 ) ) ;
#319 = DIRECTION ( 'NONE',  ( 1.000000000000000000, 0.000000000000000000, 0.000000000000000000 ) ) ;
#320 = AXIS2_PLACEMENT_3D ( 'NONE', #575, #968, #777 ) ;
#321 = AXIS2_PLACEMENT_3D ( 'NONE', #866, #1256, #770 ) ;
#322 = VECTOR ( 'NONE', #238, 1000.000000000000000 ) ;
#323 = VERTEX_POINT ( 'NONE', #277 ) ;
#324 = CARTESIAN_POINT ( 'NONE',  ( 2.312806612726762356, 15.05855241700880676, 1.871912241471913374 ) ) ;
#325 = CARTESIAN_POINT ( 'NONE',  ( 8.940894371254813677, 11.28256165474861916, 0.4999999999999726885 ) ) ;
#326 = ADVANCED_FACE ( 'NONE', ( #171, #961 ), #72, .F. ) ;
#327 = ORIENTED_EDGE ( 'NONE', *, *, #110, .T. ) ;
#328 = EDGE_LOOP ( 'NONE', ( #376, #826, #802, #313 ) ) ;
#329 = CYLINDRICAL_SURFACE ( 'NONE', #1187, 1.399999999999998579 ) ;
#330 = DIRECTION ( 'NONE',  ( 0.000000000000000000, 0.000000000000000000, 1.000000000000000000 ) ) ;
#331 = ADVANCED_FACE ( 'NONE', ( #973 ), #871, .F. ) ;
#332 = ORIENTED_EDGE ( 'NONE', *, *, #265, .F. ) ;
#333 = ORIENTED_EDGE ( 'NONE', *, *, #432, .F. ) ;
#334 = CARTESIAN_POINT ( 'NONE',  ( 11.94089437125481190, 23.47871407745524763, 3.000000000000000000 ) ) ;
#335 = VECTOR ( 'NONE', #540, 1000.000000000000114 ) ;
#336 = ADVANCED_FACE ( 'NONE', ( #1163 ), #590, .T. ) ;
#337 = VERTEX_POINT ( 'NONE', #292 ) ;
#338 = VECTOR ( 'NONE', #1011, 1000.000000000000000 ) ;
#339 = VECTOR ( 'NONE', #625, 1000.000000000000000 ) ;
#340 = ORIENTED_EDGE ( 'NONE', *, *, #356, .F. ) ;
#341 = CARTESIAN_POINT ( 'NONE',  ( 2.940894371254832329, -147.4649967022143926, 0.4999999999999692468 ) ) ;
#342 = LOCAL_TIME ( 17, 14, 1.000000000000000000, #278 ) ;
#343 = DIRECTION ( 'NONE',  ( 0.5000000000000015543, -0.8660254037844378194, 0.000000000000000000 ) ) ;
#344 = FACE_OUTER_BOUND ( 'NONE', #854, .T. ) ;
#345 = DIRECTION ( 'NONE',  ( -1.000000000000000000, -1.226821076145407731E-16, 0.000000000000000000 ) ) ;
#346 = PLANE ( 'NONE',  #981 ) ;
#347 = EDGE_CURVE ( 'NONE', #901, #209, #8, .T. ) ;
#348 = ORIENTED_EDGE ( 'NONE', *, *, #934, .T. ) ;
#349 = LINE ( 'NONE', #362, #261 ) ;
#350 = ADVANCED_FACE ( 'NONE', ( #1061 ), #581, .T. ) ;
#351 = LINE ( 'NONE', #64, #335 ) ;
#352 = ORIENTED_EDGE ( 'NONE', *, *, #1035, .T. ) ;
#353 = VERTEX_POINT ( 'NONE', #990 ) ;
#354 = PLANE ( 'NONE',  #1188 ) ;
#355 = DIRECTION ( 'NONE',  ( -0.000000000000000000, -0.000000000000000000, -1.000000000000000000 ) ) ;
#356 = EDGE_CURVE ( 'NONE', #778, #208, #678, .T. ) ;
#357 = CARTESIAN_POINT ( 'NONE',  ( 9.342818159901478126, 24.97871407745525829, 3.000000000000000000 ) ) ;
#358 = LINE ( 'NONE', #167, #1062 ) ;
#359 = VECTOR ( 'NONE', #1076, 1000.000000000000000 ) ;
#360 = AXIS2_PLACEMENT_3D ( 'NONE', #978, #87, #784 ) ;
#361 = ORIENTED_EDGE ( 'NONE', *, *, #1210, .F. ) ;
#362 = CARTESIAN_POINT ( 'NONE',  ( 11.94089437125481190, -185.0212859225447346, 0.000000000000000000 ) ) ;
#363 = VECTOR ( 'NONE', #11, 1000.000000000000114 ) ;
#364 = CARTESIAN_POINT ( 'NONE',  ( -68.39689100303991154, -22.90432793449234694, 0.000000000000000000 ) ) ;
#365 = CARTESIAN_POINT ( 'NONE',  ( 11.94089437125481190, 23.47871407745524763, 0.4999999999999726885 ) ) ;
#366 = ORIENTED_EDGE ( 'NONE', *, *, #612, .F. ) ;
#367 = ORIENTED_EDGE ( 'NONE', *, *, #1178, .T. ) ;
#368 = FACE_OUTER_BOUND ( 'NONE', #820, .T. ) ;
#369 = LINE ( 'NONE', #951, #1101 ) ;
#370 = CARTESIAN_POINT ( 'NONE',  ( 22.09774862074721824, -185.0212859225447346, 0.4999999999999726885 ) ) ;
#371 = ORIENTED_EDGE ( 'NONE', *, *, #1105, .T. ) ;
#372 = DIRECTION ( 'NONE',  ( 0.000000000000000000, 0.000000000000000000, 1.000000000000000000 ) ) ;
#373 = DIRECTION ( 'NONE',  ( -0.000000000000000000, -0.000000000000000000, -1.000000000000000000 ) ) ;
#374 = DIRECTION ( 'NONE',  ( -0.5000000000000014433, 0.8660254037844378194, 0.000000000000000000 ) ) ;
#375 = EDGE_CURVE ( 'NONE', #209, #1216, #898, .T. ) ;
#376 = ORIENTED_EDGE ( 'NONE', *, *, #629, .T. ) ;
#377 = FACE_OUTER_BOUND ( 'NONE', #1185, .T. ) ;
#378 = VECTOR ( 'NONE', #780, 1000.000000000000114 ) ;
#379 = DIRECTION ( 'NONE',  ( -0.5000000000000012212, 0.8660254037844379305, 0.000000000000000000 ) ) ;
#380 = VECTOR ( 'NONE', #431, 999.9999999999997726 ) ;
#381 = LINE ( 'NONE', #1184, #1121 ) ;
#382 = AXIS2_PLACEMENT_3D ( 'NONE', #136, #1098, #514 ) ;
#383 = ORIENTED_EDGE ( 'NONE', *, *, #1067, .F. ) ;
#384 = DATE_AND_TIME ( #166, #342 ) ;
#385 = DIRECTION ( 'NONE',  ( 1.877848959846216669E-16, -1.000000000000000000, 0.000000000000000000 ) ) ;
#386 = EDGE_LOOP ( 'NONE', ( #300, #1025, #259, #75 ) ) ;
#387 = PLANE ( 'NONE',  #567 ) ;
#388 = ADVANCED_FACE ( 'NONE', ( #89 ), #498, .F. ) ;
#389 = PLANE ( 'NONE',  #752 ) ;
#390 = EDGE_CURVE ( 'NONE', #584, #323, #397, .T. ) ;
#391 = CARTESIAN_POINT ( 'NONE',  ( 22.09774862074721469, -167.0456415755268722, 3.000000000000000000 ) ) ;
#392 = ORIENTED_EDGE ( 'NONE', *, *, #873, .F. ) ;
#393 = LINE ( 'NONE', #680, #1118 ) ;
#394 = EDGE_LOOP ( 'NONE', ( #1002, #1031, #718, #938 ) ) ;
#395 = DIRECTION ( 'NONE',  ( -0.000000000000000000, -0.000000000000000000, -1.000000000000000000 ) ) ;
#396 = DIRECTION ( 'NONE',  ( -0.000000000000000000, -0.000000000000000000, -1.000000000000000000 ) ) ;
#397 = LINE ( 'NONE', #490, #128 ) ;
#398 = ADVANCED_FACE ( 'NONE', ( #791 ), #1089, .T. ) ;
#399 = EDGE_LOOP ( 'NONE', ( #1106, #925, #832, #971 ) ) ;
#400 = VERTEX_POINT ( 'NONE', #304 ) ;
#401 = LINE ( 'NONE', #573, #201 ) ;
#402 = DIRECTION ( 'NONE',  ( 0.5000000000000002220, 0.8660254037844384856, 0.000000000000000000 ) ) ;
#403 = CLOSED_SHELL ( 'NONE', ( #228, #969, #1155, #815, #824, #326, #84, #159, #1242, #123, #459, #1043, #618, #695, #716, #1257, #1082, #749, #881, #443, #39, #6, #840, #331, #388, #945, #1196, #130, #219, #917, #999, #1027, #336, #606, #1073, #398, #1136, #350, #273, #948, #290, #672, #550, #168, #496 ) ) ;
#404 = DIRECTION ( 'NONE',  ( 0.6123724356957762627, -0.3535533905932682908, 0.7071067811865661135 ) ) ;
#405 = VERTEX_POINT ( 'NONE', #480 ) ;
#406 = VECTOR ( 'NONE', #719, 1000.000000000000000 ) ;
#407 = EDGE_CURVE ( 'NONE', #739, #615, #381, .T. ) ;
#408 = VECTOR ( 'NONE', #495, 1000.000000000000000 ) ;
#409 = ORIENTED_EDGE ( 'NONE', *, *, #1035, .F. ) ;
#410 = DIRECTION ( 'NONE',  ( 0.7071067811865685560, 2.164649529435414239E-16, 0.7071067811865264785 ) ) ;
#411 = CARTESIAN_POINT ( 'NONE',  ( 8.909805458009282475, 25.22871407745525119, 0.4999999999999726885 ) ) ;
#412 = LINE ( 'NONE', #24, #154 ) ;
#413 = ORIENTED_EDGE ( 'NONE', *, *, #297, .T. ) ;
#414 = CARTESIAN_POINT ( 'NONE',  ( 8.940894371254813677, 11.28256165474861916, 3.000000000000000000 ) ) ;
#415 = FACE_OUTER_BOUND ( 'NONE', #1161, .T. ) ;
#416 = EDGE_LOOP ( 'NONE', ( #472, #1264, #409, #98 ) ) ;
#417 = EDGE_CURVE ( 'NONE', #13, #812, #887, .T. ) ;
#418 = CARTESIAN_POINT ( 'NONE',  ( 11.94089437125481190, 23.47871407745524763, 3.000000000000000000 ) ) ;
#419 = CARTESIAN_POINT ( 'NONE',  ( 8.440894371254838546, 23.47871407745524763, 3.000000000000000000 ) ) ;
#420 = AXIS2_PLACEMENT_3D ( 'NONE', #841, #1233, #41 ) ;
#421 = AXIS2_PLACEMENT_3D ( 'NONE', #245, #270, #69 ) ;
#422 = VECTOR ( 'NONE', #210, 1000.000000000000000 ) ;
#423 = ORIENTED_EDGE ( 'NONE', *, *, #356, .T. ) ;
#424 = ORIENTED_EDGE ( 'NONE', *, *, #707, .F. ) ;
#425 = DIRECTION ( 'NONE',  ( -0.000000000000000000, -0.000000000000000000, -1.000000000000000000 ) ) ;
#426 = DIRECTION ( 'NONE',  ( -0.5000000000000015543, 0.8660254037844378194, 0.000000000000000000 ) ) ;
#427 = EDGE_CURVE ( 'NONE', #1065, #484, #596, .T. ) ;
#428 = EDGE_LOOP ( 'NONE', ( #161, #1221, #681 ) ) ;
#429 = ORIENTED_EDGE ( 'NONE', *, *, #711, .F. ) ;
#430 = LINE ( 'NONE', #827, #73 ) ;
#431 = DIRECTION ( 'NONE',  ( -0.5000000000000013323, 0.8660254037844380415, 0.000000000000000000 ) ) ;
#432 = EDGE_CURVE ( 'NONE', #517, #546, #1194, .T. ) ;
#433 = CARTESIAN_POINT ( 'NONE',  ( 22.09774862074721824, -182.5212859225446778, 3.000000000000000000 ) ) ;
#434 = ORIENTED_EDGE ( 'NONE', *, *, #809, .T. ) ;
#435 = CARTESIAN_POINT ( 'NONE',  ( 2.940894371254832329, -147.4649967022143926, 0.4999999999999692468 ) ) ;
#436 = ORIENTED_EDGE ( 'NONE', *, *, #308, .F. ) ;
#437 = LINE ( 'NONE', #631, #406 ) ;
#438 = DIRECTION ( 'NONE',  ( 0.4999999999999999445, 0.8660254037844387076, 0.000000000000000000 ) ) ;
#439 = CARTESIAN_POINT ( 'NONE',  ( 22.09774862074721824, -185.0212859225447346, 3.000000000000000000 ) ) ;
#440 = EDGE_CURVE ( 'NONE', #609, #730, #207, .T. ) ;
#441 = AXIS2_PLACEMENT_3D ( 'NONE', #845, #454, #548 ) ;
#442 = VERTEX_POINT ( 'NONE', #285 ) ;
#443 = ADVANCED_FACE ( 'NONE', ( #673 ), #1208, .F. ) ;
#444 = VECTOR ( 'NONE', #915, 1000.000000000000114 ) ;
#445 = AXIS2_PLACEMENT_3D ( 'NONE', #747, #1047, #1141 ) ;
#446 = ORIENTED_EDGE ( 'NONE', *, *, #686, .F. ) ;
#447 = DIRECTION ( 'NONE',  ( -0.7071067811865682229, -8.877420228227365653E-17, 0.7071067811865268116 ) ) ;
#448 = DIRECTION ( 'NONE',  ( -0.000000000000000000, -0.000000000000000000, -1.000000000000000000 ) ) ;
#449 =( NAMED_UNIT ( * ) SI_UNIT ( $, .STERADIAN. ) SOLID_ANGLE_UNIT ( ) );
#450 = ORIENTED_EDGE ( 'NONE', *, *, #217, .F. ) ;
#451 = ORIENTED_EDGE ( 'NONE', *, *, #722, .F. ) ;
#452 = DIRECTION ( 'NONE',  ( -0.6123724356957773729, 0.3535533905932640164, 0.7071067811865672237 ) ) ;
#453 = LINE ( 'NONE', #1152, #526 ) ;
#454 = DIRECTION ( 'NONE',  ( 0.6123724356958110127, 0.3535533905932846110, 0.7071067811865279218 ) ) ;
#455 = CARTESIAN_POINT ( 'NONE',  ( 15.09774862074721469, -185.5212859225447346, 3.000000000000000000 ) ) ;
#456 = DIRECTION ( 'NONE',  ( 0.6947465906068430730, 0.1861567878974031420, 0.6947465906068837072 ) ) ;
#457 = ORIENTED_EDGE ( 'NONE', *, *, #141, .F. ) ;
#458 = PLANE ( 'NONE',  #445 ) ;
#459 = ADVANCED_FACE ( 'NONE', ( #699 ), #710, .T. ) ;
#460 = DIRECTION ( 'NONE',  ( 1.255456808564403043E-16, -1.000000000000000000, 0.000000000000000000 ) ) ;
#461 = APPROVAL_DATE_TIME ( #492, #1075 ) ;
#462 = CARTESIAN_POINT ( 'NONE',  ( 22.09774862074721824, -182.5212859225446778, 2.499999999999999556 ) ) ;
#463 = VECTOR ( 'NONE', #456, 1000.000000000000000 ) ;
#464 = AXIS2_PLACEMENT_3D ( 'NONE', #418, #425, #121 ) ;
#465 = VERTEX_POINT ( 'NONE', #927 ) ;
#466 = DIRECTION ( 'NONE',  ( -0.7071067811865276997, -8.674935022449712846E-17, 0.7071067811865673347 ) ) ;
#467 = AXIS2_PLACEMENT_3D ( 'NONE', #1246, #372, #76 ) ;
#468 = LINE ( 'NONE', #140, #817 ) ;
#469 = LOCAL_TIME ( 17, 14, 1.000000000000000000, #852 ) ;
#470 = LINE ( 'NONE', #246, #903 ) ;
#471 = CARTESIAN_POINT ( 'NONE',  ( 13.34089437125481048, 23.47871407745524763, 3.000000000000000000 ) ) ;
#472 = ORIENTED_EDGE ( 'NONE', *, *, #61, .T. ) ;
#473 = LINE ( 'NONE', #1032, #545 ) ;
#474 = CARTESIAN_POINT ( 'NONE',  ( 15.59774862074712409, 23.47871407745524763, 3.000000000000000000 ) ) ;
#475 = EDGE_CURVE ( 'NONE', #124, #353, #122, .T. ) ;
#476 = LINE ( 'NONE', #493, #605 ) ;
#477 = ORIENTED_EDGE ( 'NONE', *, *, #1126, .F. ) ;
#478 = CARTESIAN_POINT ( 'NONE',  ( 11.94089437125481190, 23.47871407745524763, 0.000000000000000000 ) ) ;
#479 = LINE ( 'NONE', #1016, #882 ) ;
#480 = CARTESIAN_POINT ( 'NONE',  ( 15.09774862074720936, -168.5212859225447346, 2.499999999999999556 ) ) ;
#481 = APPROVAL_DATE_TIME ( #957, #1008 ) ;
#482 = DIRECTION ( 'NONE',  ( 3.061276722312010025E-16, -1.000000000000000000, 0.000000000000000000 ) ) ;
#483 = EDGE_CURVE ( 'NONE', #400, #739, #412, .T. ) ;
#484 = VERTEX_POINT ( 'NONE', #1095 ) ;
#485 = CARTESIAN_POINT ( 'NONE',  ( 11.94089437125481190, 23.47871407745524763, 0.000000000000000000 ) ) ;
#486 = VECTOR ( 'NONE', #267, 1000.000000000000000 ) ;
#487 = VECTOR ( 'NONE', #519, 1000.000000000000000 ) ;
#488 = CARTESIAN_POINT ( 'NONE',  ( 8.940894371254813677, 11.28256165474861916, 0.4999999999999726885 ) ) ;
#489 = VECTOR ( 'NONE', #799, 1000.000000000000114 ) ;
#490 = CARTESIAN_POINT ( 'NONE',  ( 15.53076132263941034, -168.2712859225447630, 3.000000000000000000 ) ) ;
#491 = ORIENTED_EDGE ( 'NONE', *, *, #1013, .F. ) ;
#492 = DATE_AND_TIME ( #570, #134 ) ;
#493 = CARTESIAN_POINT ( 'NONE',  ( 15.59774862074718627, -182.5212859225446778, 3.000000000000000000 ) ) ;
#494 = EDGE_LOOP ( 'NONE', ( #1189, #909, #1085, #56 ) ) ;
#495 = DIRECTION ( 'NONE',  ( 0.000000000000000000, 0.000000000000000000, 1.000000000000000000 ) ) ;
#496 = ADVANCED_FACE ( 'NONE', ( #611 ), #1012, .T. ) ;
#497 = DIRECTION ( 'NONE',  ( -0.4999999999999999445, -0.8660254037844387076, 0.000000000000000000 ) ) ;
#498 = PLANE ( 'NONE',  #1248 ) ;
#499 = VERTEX_POINT ( 'NONE', #602 ) ;
#500 = EDGE_LOOP ( 'NONE', ( #1112, #996, #1119, #959 ) ) ;
#501 = DIRECTION ( 'NONE',  ( -0.7071067811865671127, 0.7071067811865279218, 0.000000000000000000 ) ) ;
#502 = EDGE_CURVE ( 'NONE', #635, #620, #1007, .T. ) ;
#503 = CARTESIAN_POINT ( 'NONE',  ( 15.59774862074718804, -185.5212859225447346, 0.4999999999999726885 ) ) ;
#504 = DIRECTION ( 'NONE',  ( -3.061276722312010025E-16, 1.000000000000000000, 0.000000000000000000 ) ) ;
#505 = ORIENTED_EDGE ( 'NONE', *, *, #612, .T. ) ;
#506 = ORIENTED_EDGE ( 'NONE', *, *, #520, .T. ) ;
#507 = DIRECTION ( 'NONE',  ( -3.061276722312010025E-16, 1.000000000000000000, 0.000000000000000000 ) ) ;
#508 = AXIS2_PLACEMENT_3D ( 'NONE', #1258, #666, #83 ) ;
#509 = CARTESIAN_POINT ( 'NONE',  ( 22.09774862074721469, -167.0456415755268722, 0.4999999999999726885 ) ) ;
#510 = VECTOR ( 'NONE', #1021, 1000.000000000000000 ) ;
#511 = EDGE_CURVE ( 'NONE', #405, #1096, #109, .T. ) ;
#512 = VECTOR ( 'NONE', #645, 1000.000000000000000 ) ;
#513 = EDGE_LOOP ( 'NONE', ( #714, #527, #874, #830 ) ) ;
#514 = DIRECTION ( 'NONE',  ( 1.000000000000000000, 0.000000000000000000, 0.000000000000000000 ) ) ;
#515 = LINE ( 'NONE', #324, #322 ) ;
#516 = EDGE_CURVE ( 'NONE', #298, #609, #904, .T. ) ;
#517 = VERTEX_POINT ( 'NONE', #218 ) ;
#518 = LINE ( 'NONE', #126, #53 ) ;
#519 = DIRECTION ( 'NONE',  ( -0.7071067811865465735, 0.000000000000000000, -0.7071067811865484609 ) ) ;
#520 = EDGE_CURVE ( 'NONE', #1015, #484, #1205, .T. ) ;
#521 = ORIENTED_EDGE ( 'NONE', *, *, #801, .T. ) ;
#522 = ORIENTED_EDGE ( 'NONE', *, *, #147, .F. ) ;
#523 = DIRECTION ( 'NONE',  ( -2.279799648044517307E-15, 0.7071067811865670016, -0.7071067811865279218 ) ) ;
#524 = DIRECTION ( 'NONE',  ( 0.000000000000000000, 0.000000000000000000, -1.000000000000000000 ) ) ;
#525 = VECTOR ( 'NONE', #979, 1000.000000000000114 ) ;
#526 = VECTOR ( 'NONE', #355, 1000.000000000000000 ) ;
#527 = ORIENTED_EDGE ( 'NONE', *, *, #119, .T. ) ;
#528 = ORIENTED_EDGE ( 'NONE', *, *, #873, .T. ) ;
#529 = DIRECTION ( 'NONE',  ( -1.000000000000000000, 0.000000000000000000, 0.000000000000000000 ) ) ;
#530 = EDGE_CURVE ( 'NONE', #124, #565, #1144, .T. ) ;
#531 = PERSON_AND_ORGANIZATION ( #1193, #202 ) ;
#532 = DIRECTION ( 'NONE',  ( 0.6123724356957774839, -0.3535533905932639054, 0.7071067811865672237 ) ) ;
#533 = VERTEX_POINT ( 'NONE', #828 ) ;
#534 = CARTESIAN_POINT ( 'NONE',  ( 13.84089437125479805, 23.47871407745524763, 0.000000000000000000 ) ) ;
#535 = DIRECTION ( 'NONE',  ( -0.5000000000000002220, -0.8660254037844385966, 0.000000000000000000 ) ) ;
#536 = ORIENTED_EDGE ( 'NONE', *, *, #110, .F. ) ;
#537 = EDGE_LOOP ( 'NONE', ( #723, #1259, #491, #1100 ) ) ;
#538 = PLANE ( 'NONE',  #839 ) ;
#539 = PLANE ( 'NONE',  #421 ) ;
#540 = DIRECTION ( 'NONE',  ( 0.7071067811865638930, -1.634518283426115698E-15, 0.7071067811865312525 ) ) ;
#541 = DIRECTION ( 'NONE',  ( 0.000000000000000000, -0.000000000000000000, 1.000000000000000000 ) ) ;
#542 = CIRCLE ( 'NONE', #813, 3.499999999999999556 ) ;
#543 = ORIENTED_EDGE ( 'NONE', *, *, #475, .T. ) ;
#544 = VECTOR ( 'NONE', #892, 1000.000000000000114 ) ;
#545 = VECTOR ( 'NONE', #950, 1000.000000000000114 ) ;
#546 = VERTEX_POINT ( 'NONE', #28 ) ;
#547 = LINE ( 'NONE', #63, #862 ) ;
#548 = DIRECTION ( 'NONE',  ( 0.5000000000000014433, -0.8660254037844378194, 0.000000000000000000 ) ) ;
#549 = PERSON_AND_ORGANIZATION ( #1193, #202 ) ;
#550 = ADVANCED_FACE ( 'NONE', ( #1218 ), #805, .T. ) ;
#551 = ORIENTED_EDGE ( 'NONE', *, *, #147, .T. ) ;
#552 = ORIENTED_EDGE ( 'NONE', *, *, #483, .T. ) ;
#553 = DIRECTION ( 'NONE',  ( -0.000000000000000000, -0.000000000000000000, -1.000000000000000000 ) ) ;
#554 = CARTESIAN_POINT ( 'NONE',  ( 15.59774862074718627, -185.0212859225447346, 0.000000000000000000 ) ) ;
#555 = FACE_OUTER_BOUND ( 'NONE', #889, .T. ) ;
#556 = APPROVAL_STATUS ( 'not_yet_approved' ) ;
#557 = CARTESIAN_POINT ( 'NONE',  ( 14.53897058260815278, 21.97871407745522987, 3.000000000000000000 ) ) ;
#558 = ORIENTED_EDGE ( 'NONE', *, *, #953, .F. ) ;
#559 = DIRECTION ( 'NONE',  ( 0.6947465906068479580, -0.1861567878973758583, -0.6947465906068861496 ) ) ;
#560 = DIRECTION ( 'NONE',  ( -0.5000000000000013323, 0.8660254037844380415, 0.000000000000000000 ) ) ;
#561 = DIRECTION ( 'NONE',  ( 1.877848959846216669E-16, -1.000000000000000000, 0.000000000000000000 ) ) ;
#562 = SECURITY_CLASSIFICATION_LEVEL ( 'unclassified' ) ;
#563 = CARTESIAN_POINT ( 'NONE',  ( 14.97198328450034666, 21.72871407745524408, 3.000000000000000000 ) ) ;
#564 = AXIS2_PLACEMENT_3D ( 'NONE', #705, #524, #922 ) ;
#565 = VERTEX_POINT ( 'NONE', #312 ) ;
#566 = CARTESIAN_POINT ( 'NONE',  ( 2.940894371254811901, 14.89025680933534268, 3.000000000000000000 ) ) ;
#567 = AXIS2_PLACEMENT_3D ( 'NONE', #902, #107, #1190 ) ;
#568 = EDGE_CURVE ( 'NONE', #1015, #465, #1017, .T. ) ;
#569 = DIRECTION ( 'NONE',  ( -0.6123724356957782611, 0.3535533905932646270, 0.7071067811865662245 ) ) ;
#570 = CALENDAR_DATE ( 2023, 16, 1 ) ;
#571 = LINE ( 'NONE', #767, #378 ) ;
#572 = ORIENTED_EDGE ( 'NONE', *, *, #417, .F. ) ;
#573 = CARTESIAN_POINT ( 'NONE',  ( 15.59774862074718627, -185.5212859225447346, 0.9999999999999683586 ) ) ;
#574 = EDGE_CURVE ( 'NONE', #706, #499, #316, .T. ) ;
#575 = CARTESIAN_POINT ( 'NONE',  ( 21.59774862074722179, -185.0212859225447346, 0.000000000000000000 ) ) ;
#576 = EDGE_CURVE ( 'NONE', #901, #992, #772, .T. ) ;
#577 = DIRECTION ( 'NONE',  ( 0.7071067811865671127, 0.000000000000000000, 0.7071067811865279218 ) ) ;
#578 = ORIENTED_EDGE ( 'NONE', *, *, #1225, .T. ) ;
#579 = CARTESIAN_POINT ( 'NONE',  ( 15.09774862074720936, -168.5212859225447346, 2.499999999999999556 ) ) ;
#580 = DIRECTION ( 'NONE',  ( 1.000000000000000000, 0.000000000000000000, 0.000000000000000000 ) ) ;
#581 = PLANE ( 'NONE',  #858 ) ;
#582 = DIRECTION ( 'NONE',  ( -1.000000000000000000, 0.000000000000000000, 0.000000000000000000 ) ) ;
#583 = EDGE_CURVE ( 'NONE', #353, #825, #587, .T. ) ;
#584 = VERTEX_POINT ( 'NONE', #1055 ) ;
#585 = CARTESIAN_POINT ( 'NONE',  ( 22.09774862074721469, -167.0456415755268722, 2.499999999999999556 ) ) ;
#586 = AXIS2_PLACEMENT_3D ( 'NONE', #643, #942, #561 ) ;
#587 = CIRCLE ( 'NONE', #1165, 1.899999999999985034 ) ;
#588 = CARTESIAN_POINT ( 'NONE',  ( 20.21192265788064901, -182.9408802622369876, 4.385825962866661598 ) ) ;
#589 = CONICAL_SURFACE ( 'NONE', #467, 1.399999999999998579, 0.7853981633974469467 ) ;
#590 = PLANE ( 'NONE',  #320 ) ;
#591 = ORIENTED_EDGE ( 'NONE', *, *, #1091, .T. ) ;
#592 = EDGE_CURVE ( 'NONE', #229, #517, #1048, .T. ) ;
#593 = ORIENTED_EDGE ( 'NONE', *, *, #934, .F. ) ;
#594 = CARTESIAN_POINT ( 'NONE',  ( 22.09774862074721824, -185.2439358244321284, 0.5839748528310640951 ) ) ;
#595 = LINE ( 'NONE', #897, #544 ) ;
#596 = LINE ( 'NONE', #391, #284 ) ;
#597 = ORIENTED_EDGE ( 'NONE', *, *, #390, .T. ) ;
#598 = ORIENTED_EDGE ( 'NONE', *, *, #703, .T. ) ;
#599 = DIRECTION ( 'NONE',  ( 1.000000000000000000, -1.156482317317871725E-15, 0.000000000000000000 ) ) ;
#600 = DIRECTION ( 'NONE',  ( -1.226821076145407731E-16, 1.000000000000000000, 0.000000000000000000 ) ) ;
#601 = EDGE_CURVE ( 'NONE', #992, #337, #453, .T. ) ;
#602 = CARTESIAN_POINT ( 'NONE',  ( 8.940894371254813677, 11.28256165474861916, 0.4999999999999726885 ) ) ;
#603 = ORIENTED_EDGE ( 'NONE', *, *, #741, .F. ) ;
#604 = CARTESIAN_POINT ( 'NONE',  ( 14.94089437125481190, 23.47871407745524763, 0.000000000000000000 ) ) ;
#605 = VECTOR ( 'NONE', #482, 1000.000000000000000 ) ;
#606 = ADVANCED_FACE ( 'NONE', ( #834 ), #748, .T. ) ;
#607 = VECTOR ( 'NONE', #497, 999.9999999999998863 ) ;
#608 = AXIS2_PLACEMENT_3D ( 'NONE', #688, #501, #884 ) ;
#609 = VERTEX_POINT ( 'NONE', #742 ) ;
#610 = FACE_OUTER_BOUND ( 'NONE', #756, .T. ) ;
#611 = FACE_OUTER_BOUND ( 'NONE', #500, .T. ) ;
#612 = EDGE_CURVE ( 'NONE', #620, #812, #1142, .T. ) ;
#613 = ORIENTED_EDGE ( 'NONE', *, *, #502, .T. ) ;
#614 = PRODUCT_DEFINITION_SHAPE ( 'NONE', 'NONE',  #793 ) ;
#615 = VERTEX_POINT ( 'NONE', #1135 ) ;
#616 = DIRECTION ( 'NONE',  ( 0.6947465906068442942, 0.1861567878974000889, 0.6947465906068832631 ) ) ;
#617 = DIRECTION ( 'NONE',  ( -0.000000000000000000, -0.000000000000000000, -1.000000000000000000 ) ) ;
#618 = ADVANCED_FACE ( 'NONE', ( #251 ), #539, .F. ) ;
#619 = ORIENTED_EDGE ( 'NONE', *, *, #297, .F. ) ;
#620 = VERTEX_POINT ( 'NONE', #652 ) ;
#621 = DIRECTION ( 'NONE',  ( 0.7071067811865290320, 8.877420228226873848E-17, 0.7071067811865660024 ) ) ;
#622 = CARTESIAN_POINT ( 'NONE',  ( 10.04089437125482753, 23.47871407745524763, 0.000000000000000000 ) ) ;
#623 = VECTOR ( 'NONE', #653, 1000.000000000000000 ) ;
#624 = VECTOR ( 'NONE', #1028, 1000.000000000000000 ) ;
#625 = DIRECTION ( 'NONE',  ( -1.877848959846216669E-16, 1.000000000000000000, 0.000000000000000000 ) ) ;
#626 = CIRCLE ( 'NONE', #1006, 1.899999999999985034 ) ;
#627 = SECURITY_CLASSIFICATION ( '', '', #562 ) ;
#628 = FACE_OUTER_BOUND ( 'NONE', #763, .T. ) ;
#629 = EDGE_CURVE ( 'NONE', #4, #633, #468, .T. ) ;
#630 = ORIENTED_EDGE ( 'NONE', *, *, #502, .F. ) ;
#631 = CARTESIAN_POINT ( 'NONE',  ( 10.54089437125481332, 23.47871407745524763, 2.499999999999929390 ) ) ;
#632 = CARTESIAN_POINT ( 'NONE',  ( 22.09774862074721469, -167.0456415755268722, 0.4999999999999726885 ) ) ;
#633 = VERTEX_POINT ( 'NONE', #163 ) ;
#634 = EDGE_LOOP ( 'NONE', ( #1240, #536, #931, #99 ) ) ;
#635 = VERTEX_POINT ( 'NONE', #554 ) ;
#636 = CARTESIAN_POINT ( 'NONE',  ( 8.940894371254813677, 11.28256165474861916, 2.499999999999999556 ) ) ;
#637 = DIRECTION ( 'NONE',  ( -0.7071067811865267005, 0.000000000000000000, 0.7071067811865684449 ) ) ;
#638 = FACE_OUTER_BOUND ( 'NONE', #399, .T. ) ;
#639 = ORIENTED_EDGE ( 'NONE', *, *, #856, .F. ) ;
#640 = ORIENTED_EDGE ( 'NONE', *, *, #186, .T. ) ;
#641 = CARTESIAN_POINT ( 'NONE',  ( 14.97198328450034488, 21.72871407745524408, 2.499999999999999556 ) ) ;
#642 = EDGE_CURVE ( 'NONE', #484, #633, #1223, .T. ) ;
#643 = CARTESIAN_POINT ( 'NONE',  ( 21.59774862074720403, 23.47871407745525119, 3.000000000000000000 ) ) ;
#644 = VECTOR ( 'NONE', #535, 999.9999999999998863 ) ;
#645 = DIRECTION ( 'NONE',  ( 1.000000000000000000, 0.000000000000000000, 0.000000000000000000 ) ) ;
#646 = AXIS2_PLACEMENT_3D ( 'NONE', #227, #19, #811 ) ;
#647 = CARTESIAN_POINT ( 'NONE',  ( 15.09774862074721469, -185.0212859225447346, 0.5000000000000004441 ) ) ;
#648 = VECTOR ( 'NONE', #1260, 1000.000000000000000 ) ;
#649 = AXIS2_PLACEMENT_3D ( 'NONE', #1038, #153, #58 ) ;
#650 = VERTEX_POINT ( 'NONE', #759 ) ;
#651 = CARTESIAN_POINT ( 'NONE',  ( 14.53897058260812258, 21.97871407745524408, 0.000000000000000000 ) ) ;
#652 = CARTESIAN_POINT ( 'NONE',  ( 15.59774862074718094, -168.3873113263291259, 0.000000000000000000 ) ) ;
#653 = DIRECTION ( 'NONE',  ( -0.000000000000000000, -0.000000000000000000, -1.000000000000000000 ) ) ;
#654 = CARTESIAN_POINT ( 'NONE',  ( 13.84089437125479805, 23.47871407745524763, 0.000000000000000000 ) ) ;
#655 = CC_DESIGN_PERSON_AND_ORGANIZATION_ASSIGNMENT ( #264, #980, ( #988 ) ) ;
#656 = ORIENTED_EDGE ( 'NONE', *, *, #711, .T. ) ;
#657 = FACE_OUTER_BOUND ( 'NONE', #305, .T. ) ;
#658 = PLANE ( 'NONE',  #667 ) ;
#659 = CALENDAR_DATE ( 2023, 16, 1 ) ;
#660 = FACE_OUTER_BOUND ( 'NONE', #494, .T. ) ;
#661 = EDGE_CURVE ( 'NONE', #4, #1015, #44, .T. ) ;
#662 = ORIENTED_EDGE ( 'NONE', *, *, #741, .T. ) ;
#663 = CARTESIAN_POINT ( 'NONE',  ( 15.09774862074721469, -185.5212859225447346, 0.4999999999999726885 ) ) ;
#664 = DIRECTION ( 'NONE',  ( 0.7071067811865465735, 0.000000000000000000, 0.7071067811865484609 ) ) ;
#665 = DATE_TIME_ROLE ( 'classification_date' ) ;
#666 = DIRECTION ( 'NONE',  ( -0.8660254037844378194, -0.5000000000000014433, 0.000000000000000000 ) ) ;
#667 = AXIS2_PLACEMENT_3D ( 'NONE', #750, #1146, #637 ) ;
#668 = VECTOR ( 'NONE', #720, 1000.000000000000000 ) ;
#669 = ORIENTED_EDGE ( 'NONE', *, *, #407, .T. ) ;
#670 = FACE_OUTER_BOUND ( 'NONE', #696, .T. ) ;
#671 = VECTOR ( 'NONE', #960, 999.9999999999998863 ) ;
#672 = ADVANCED_FACE ( 'NONE', ( #735 ), #940, .T. ) ;
#673 = FACE_OUTER_BOUND ( 'NONE', #1009, .T. ) ;
#674 = CARTESIAN_POINT ( 'NONE',  ( 30.15182131666007592, -138.5738508018908135, -18.71092694540640977 ) ) ;
#675 = ORIENTED_EDGE ( 'NONE', *, *, #1126, .T. ) ;
#676 = CARTESIAN_POINT ( 'NONE',  ( 16.80584554318089374, -182.8870682386766191, 4.208096922433773202 ) ) ;
#677 = CARTESIAN_POINT ( 'NONE',  ( 2.940894371254832329, -147.4649967022143926, 3.000000000000000000 ) ) ;
#678 = LINE ( 'NONE', #179, #918 ) ;
#679 = CC_DESIGN_DATE_AND_TIME_ASSIGNMENT ( #838, #1232, ( #793 ) ) ;
#680 = CARTESIAN_POINT ( 'NONE',  ( 15.59774862074718804, -185.5212859225447346, 3.000000000000000000 ) ) ;
#681 = ORIENTED_EDGE ( 'NONE', *, *, #899, .F. ) ;
#682 = DIRECTION ( 'NONE',  ( 1.226821076145407731E-16, -1.000000000000000000, 0.000000000000000000 ) ) ;
#683 = CARTESIAN_POINT ( 'NONE',  ( 8.440894371254811901, 11.41653625096417812, 0.000000000000000000 ) ) ;
#684 = DIRECTION ( 'NONE',  ( 0.5000000000000012212, -0.8660254037844379305, 0.000000000000000000 ) ) ;
#685 = ORIENTED_EDGE ( 'NONE', *, *, #1116, .F. ) ;
#686 = EDGE_CURVE ( 'NONE', #499, #337, #797, .T. ) ;
#687 = VERTEX_POINT ( 'NONE', #411 ) ;
#688 = CARTESIAN_POINT ( 'NONE',  ( 22.09774862074721824, -185.0212859225447346, 3.000000000000000000 ) ) ;
#689 = VECTOR ( 'NONE', #1159, 1000.000000000000000 ) ;
#690 = CIRCLE ( 'NONE', #464, 1.900000000000068301 ) ;
#691 = FACE_OUTER_BOUND ( 'NONE', #145, .T. ) ;
#692 = VECTOR ( 'NONE', #38, 999.9999999999997726 ) ;
#693 = CARTESIAN_POINT ( 'NONE',  ( 13.34089437125481048, 23.47871407745524763, 2.499999999999929390 ) ) ;
#694 = VERTEX_POINT ( 'NONE', #302 ) ;
#695 = ADVANCED_FACE ( 'NONE', ( #691 ), #790, .F. ) ;
#696 = EDGE_LOOP ( 'NONE', ( #21, #630, #1239, #1046 ) ) ;
#697 = LINE ( 'NONE', #579, #729 ) ;
#698 = DIRECTION ( 'NONE',  ( -1.000000000000000000, 0.000000000000000000, 0.000000000000000000 ) ) ;
#699 = FACE_OUTER_BOUND ( 'NONE', #924, .T. ) ;
#700 = ORIENTED_EDGE ( 'NONE', *, *, #55, .T. ) ;
#701 = EDGE_LOOP ( 'NONE', ( #1036, #619, #1271, #1070 ) ) ;
#702 = PERSON_AND_ORGANIZATION ( #1193, #202 ) ;
#703 = EDGE_CURVE ( 'NONE', #687, #10, #96, .T. ) ;
#704 = CARTESIAN_POINT ( 'NONE',  ( 15.09774862074720936, -168.5212859225447346, 3.000000000000000000 ) ) ;
#705 = CARTESIAN_POINT ( 'NONE',  ( 11.94089437125481190, 23.47871407745524763, 2.499999999999999556 ) ) ;
#706 = VERTEX_POINT ( 'NONE', #683 ) ;
#707 = EDGE_CURVE ( 'NONE', #517, #1097, #311, .T. ) ;
#708 = DIRECTION ( 'NONE',  ( -0.5000000000000002220, -0.8660254037844384856, 0.000000000000000000 ) ) ;
#709 = VECTOR ( 'NONE', #731, 999.9999999999998863 ) ;
#710 = CYLINDRICAL_SURFACE ( 'NONE', #258, 3.499999999999999556 ) ;
#711 = EDGE_CURVE ( 'NONE', #546, #1244, #1072, .T. ) ;
#712 = VECTOR ( 'NONE', #877, 1000.000000000000000 ) ;
#713 = AXIS2_PLACEMENT_3D ( 'NONE', #485, #395, #599 ) ;
#714 = ORIENTED_EDGE ( 'NONE', *, *, #1160, .F. ) ;
#715 = DIRECTION ( 'NONE',  ( 1.000000000000000000, 0.000000000000000000, -0.000000000000000000 ) ) ;
#716 = ADVANCED_FACE ( 'NONE', ( #7 ), #389, .F. ) ;
#717 = ORIENTED_EDGE ( 'NONE', *, *, #722, .T. ) ;
#718 = ORIENTED_EDGE ( 'NONE', *, *, #93, .F. ) ;
#719 = DIRECTION ( 'NONE',  ( -0.7071067811865465735, 8.659560562354921765E-17, 0.7071067811865484609 ) ) ;
#720 = DIRECTION ( 'NONE',  ( -3.061276722312010025E-16, 1.000000000000000000, 0.000000000000000000 ) ) ;
#721 = COORDINATED_UNIVERSAL_TIME_OFFSET ( 1, 0, .AHEAD. ) ;
#722 = EDGE_CURVE ( 'NONE', #565, #124, #1102, .T. ) ;
#723 = ORIENTED_EDGE ( 'NONE', *, *, #347, .T. ) ;
#724 = EDGE_LOOP ( 'NONE', ( #199, #434 ) ) ;
#725 = FACE_OUTER_BOUND ( 'NONE', #1090, .T. ) ;
#726 = DIRECTION ( 'NONE',  ( 1.000000000000000000, 0.000000000000000000, 0.000000000000000000 ) ) ;
#727 = AXIS2_PLACEMENT_3D ( 'NONE', #677, #1183, #379 ) ;
#728 = LINE ( 'NONE', #439, #32 ) ;
#729 = VECTOR ( 'NONE', #507, 1000.000000000000000 ) ;
#730 = VERTEX_POINT ( 'NONE', #197 ) ;
#731 = DIRECTION ( 'NONE',  ( 0.5000000000000002220, 0.8660254037844385966, 0.000000000000000000 ) ) ;
#732 = EDGE_CURVE ( 'NONE', #807, #883, #101, .T. ) ;
#733 = ORIENTED_EDGE ( 'NONE', *, *, #176, .F. ) ;
#734 = DIRECTION ( 'NONE',  ( -1.255456808564403043E-16, 1.000000000000000000, 0.000000000000000000 ) ) ;
#735 = FACE_OUTER_BOUND ( 'NONE', #386, .T. ) ;
#736 = DIRECTION ( 'NONE',  ( -0.000000000000000000, -0.000000000000000000, 1.000000000000000000 ) ) ;
#737 =( NAMED_UNIT ( * ) PLANE_ANGLE_UNIT ( ) SI_UNIT ( $, .RADIAN. ) );
#738 = VERTEX_POINT ( 'NONE', #503 ) ;
#739 = VERTEX_POINT ( 'NONE', #108 ) ;
#740 = CARTESIAN_POINT ( 'NONE',  ( 3.440894371254782147, 23.47871407745524763, 3.000000000000000000 ) ) ;
#741 = EDGE_CURVE ( 'NONE', #861, #687, #595, .T. ) ;
#742 = CARTESIAN_POINT ( 'NONE',  ( 13.34089437125481048, 23.47871407745524763, 2.499999999999929390 ) ) ;
#743 = CARTESIAN_POINT ( 'NONE',  ( 8.940894371254831441, -144.2573015476276623, 2.499999999999999556 ) ) ;
#744 = CALENDAR_DATE ( 2023, 16, 1 ) ;
#745 = ORIENTED_EDGE ( 'NONE', *, *, #282, .T. ) ;
#746 = ORIENTED_EDGE ( 'NONE', *, *, #899, .T. ) ;
#747 = CARTESIAN_POINT ( 'NONE',  ( 15.59774862074718804, -185.5212859225447346, 3.000000000000000000 ) ) ;
#748 = PLANE ( 'NONE',  #221 ) ;
#749 = ADVANCED_FACE ( 'NONE', ( #1192 ), #1094, .T. ) ;
#750 = CARTESIAN_POINT ( 'NONE',  ( 15.09774862074721469, -185.0212859225447346, 0.5000000000000004441 ) ) ;
#751 = VECTOR ( 'NONE', #404, 1000.000000000000000 ) ;
#752 = AXIS2_PLACEMENT_3D ( 'NONE', #704, #1088, #206 ) ;
#753 = ORIENTED_EDGE ( 'NONE', *, *, #629, .F. ) ;
#754 = CARTESIAN_POINT ( 'NONE',  ( 8.909805458009282475, 25.22871407745525119, 0.4999999999999726885 ) ) ;
#755 = AXIS2_PLACEMENT_3D ( 'NONE', #977, #782, #1169 ) ;
#756 = EDGE_LOOP ( 'NONE', ( #894, #781, #572, #120 ) ) ;
#757 = DIRECTION ( 'NONE',  ( 0.6123724356958115678, -0.3535533905932836118, 0.7071067811865279218 ) ) ;
#758 = DESIGN_CONTEXT ( 'detailed design', #1010, 'design' ) ;
#759 = CARTESIAN_POINT ( 'NONE',  ( 2.940894371254811901, 14.89025680933534268, 2.499999999999999556 ) ) ;
#760 = LINE ( 'NONE', #54, #257 ) ;
#761 = EDGE_CURVE ( 'NONE', #633, #499, #212, .T. ) ;
#762 = LINE ( 'NONE', #557, #709 ) ;
#763 = EDGE_LOOP ( 'NONE', ( #578, #248, #275, #85, #371 ) ) ;
#764 = DIRECTION ( 'NONE',  ( 0.8660254037844387076, -0.4999999999999999445, 0.000000000000000000 ) ) ;
#765 = CARTESIAN_POINT ( 'NONE',  ( 15.09774862074721291, -182.3698981036786790, 2.500000000000003997 ) ) ;
#766 = EDGE_CURVE ( 'NONE', #10, #182, #886, .T. ) ;
#767 = CARTESIAN_POINT ( 'NONE',  ( 21.56697235653050271, -185.5520621867614750, 1.016470956755674449 ) ) ;
#768 = ORIENTED_EDGE ( 'NONE', *, *, #244, .T. ) ;
#769 = DIRECTION ( 'NONE',  ( -0.7071067811865311414, -1.327839733551333906E-16, 0.7071067811865638930 ) ) ;
#770 = DIRECTION ( 'NONE',  ( 1.000000000000000000, 0.000000000000000000, -0.000000000000000000 ) ) ;
#771 = FACE_OUTER_BOUND ( 'NONE', #966, .T. ) ;
#772 = CIRCLE ( 'NONE', #564, 3.499999999999999556 ) ;
#773 = ORIENTED_EDGE ( 'NONE', *, *, #816, .T. ) ;
#774 = DIRECTION ( 'NONE',  ( -1.000000000000000000, 0.000000000000000000, 0.000000000000000000 ) ) ;
#775 = VECTOR ( 'NONE', #682, 1000.000000000000000 ) ;
#776 = CARTESIAN_POINT ( 'NONE',  ( 8.909805458009282475, 25.22871407745525119, 0.4999999999999726885 ) ) ;
#777 = DIRECTION ( 'NONE',  ( -0.7071067811865647812, 0.000000000000000000, -0.7071067811865302533 ) ) ;
#778 = VERTEX_POINT ( 'NONE', #1 ) ;
#779 = APPROVAL_ROLE ( '' ) ;
#780 = DIRECTION ( 'NONE',  ( 0.6613355025394219711, 0.6613355025394584974, -0.3539360198705580607 ) ) ;
#781 = ORIENTED_EDGE ( 'NONE', *, *, #908, .F. ) ;
#782 = DIRECTION ( 'NONE',  ( -0.000000000000000000, -0.000000000000000000, -1.000000000000000000 ) ) ;
#783 = EDGE_CURVE ( 'NONE', #901, #687, #1000, .T. ) ;
#784 = DIRECTION ( 'NONE',  ( -1.000000000000000000, 0.000000000000000000, 0.000000000000000000 ) ) ;
#785 = CARTESIAN_POINT ( 'NONE',  ( 21.59774862074721824, -182.5212859225446778, 3.000000000000005773 ) ) ;
#786 = ORIENTED_EDGE ( 'NONE', *, *, #417, .T. ) ;
#787 = LINE ( 'NONE', #1064, #1143 ) ;
#788 = VERTEX_POINT ( 'NONE', #604 ) ;
#789 = CARTESIAN_POINT ( 'NONE',  ( 11.94089437125481190, 23.47871407745524763, 0.000000000000000000 ) ) ;
#790 = PLANE ( 'NONE',  #727 ) ;
#791 = FACE_OUTER_BOUND ( 'NONE', #634, .T. ) ;
#792 = ORIENTED_EDGE ( 'NONE', *, *, #1145, .T. ) ;
#793 = PRODUCT_DEFINITION ( 'UNKNOWN', '', #988, #758 ) ;
#794 = ORIENTED_EDGE ( 'NONE', *, *, #390, .F. ) ;
#795 = CARTESIAN_POINT ( 'NONE',  ( 11.94089437125481190, 23.47871407745524763, 3.000000000000000000 ) ) ;
#796 = VECTOR ( 'NONE', #127, 1000.000000000000114 ) ;
#797 = LINE ( 'NONE', #1171, #112 ) ;
#798 = AXIS2_PLACEMENT_3D ( 'NONE', #843, #769, #51 ) ;
#799 = DIRECTION ( 'NONE',  ( 0.6947465906068827080, 0.1861567878973944545, -0.6947465906068464037 ) ) ;
#800 = EDGE_LOOP ( 'NONE', ( #1234, #773, #383, #152 ) ) ;
#801 = EDGE_CURVE ( 'NONE', #405, #323, #479, .T. ) ;
#802 = ORIENTED_EDGE ( 'NONE', *, *, #520, .F. ) ;
#803 = DIRECTION ( 'NONE',  ( 3.061276722312010025E-16, -1.000000000000000000, 0.000000000000000000 ) ) ;
#804 = CARTESIAN_POINT ( 'NONE',  ( 15.09774862074721469, -185.5212859225447346, 0.9999999999999705791 ) ) ;
#805 = PLANE ( 'NONE',  #306 ) ;
#806 = EDGE_CURVE ( 'NONE', #650, #1216, #515, .T. ) ;
#807 = VERTEX_POINT ( 'NONE', #920 ) ;
#808 = APPROVAL_ROLE ( '' ) ;
#809 = EDGE_CURVE ( 'NONE', #442, #730, #690, .T. ) ;
#810 = CARTESIAN_POINT ( 'NONE',  ( 11.94089437125481190, 23.47871407745524763, 3.000000000000000000 ) ) ;
#811 = DIRECTION ( 'NONE',  ( 1.000000000000000000, 0.000000000000000000, 0.000000000000000000 ) ) ;
#812 = VERTEX_POINT ( 'NONE', #23 ) ;
#813 = AXIS2_PLACEMENT_3D ( 'NONE', #365, #271, #1056 ) ;
#814 = CARTESIAN_POINT ( 'NONE',  ( 22.09774862074721824, -185.0212859225447346, 0.7324081207559899331 ) ) ;
#815 = ADVANCED_FACE ( 'NONE', ( #725 ), #329, .F. ) ;
#816 = EDGE_CURVE ( 'NONE', #298, #442, #437, .T. ) ;
#817 = VECTOR ( 'NONE', #155, 1000.000000000000000 ) ;
#818 = DIRECTION ( 'NONE',  ( 1.226821076145407731E-16, -1.000000000000000000, 0.000000000000000000 ) ) ;
#819 = AXIS2_PLACEMENT_3D ( 'NONE', #1107, #914, #1228 ) ;
#820 = EDGE_LOOP ( 'NONE', ( #869, #598, #593, #1020 ) ) ;
#821 = ORIENTED_EDGE ( 'NONE', *, *, #211, .T. ) ;
#822 = PLANE ( 'NONE',  #71 ) ;
#823 = DIRECTION ( 'NONE',  ( 0.7071067811865670016, 8.674935022450194791E-17, 0.7071067811865280328 ) ) ;
#824 = ADVANCED_FACE ( 'NONE', ( #133, #415 ), #822, .T. ) ;
#825 = VERTEX_POINT ( 'NONE', #534 ) ;
#826 = ORIENTED_EDGE ( 'NONE', *, *, #642, .F. ) ;
#827 = CARTESIAN_POINT ( 'NONE',  ( 3.440894371254809680, 23.47871407745524763, 0.000000000000000000 ) ) ;
#828 = CARTESIAN_POINT ( 'NONE',  ( 8.940894371254831441, -144.2573015476276623, 2.499999999999984457 ) ) ;
#829 = PLANE ( 'NONE',  #1209 ) ;
#830 = ORIENTED_EDGE ( 'NONE', *, *, #1042, .F. ) ;
#831 = ORIENTED_EDGE ( 'NONE', *, *, #1145, .F. ) ;
#832 = ORIENTED_EDGE ( 'NONE', *, *, #707, .T. ) ;
#833 = LINE ( 'NONE', #139, #510 ) ;
#834 = FACE_OUTER_BOUND ( 'NONE', #1156, .T. ) ;
#835 = VECTOR ( 'NONE', #958, 1000.000000000000000 ) ;
#836 = CARTESIAN_POINT ( 'NONE',  ( 21.59774862074724666, -185.5212859225447346, 0.4999999999999726885 ) ) ;
#837 = VECTOR ( 'NONE', #1213, 1000.000000000000000 ) ;
#838 = DATE_AND_TIME ( #929, #262 ) ;
#839 = AXIS2_PLACEMENT_3D ( 'NONE', #1235, #466, #939 ) ;
#840 = ADVANCED_FACE ( 'NONE', ( #610 ), #43, .F. ) ;
#841 = CARTESIAN_POINT ( 'NONE',  ( 11.94089437125481190, 23.47871407745524763, 0.4999999999999726885 ) ) ;
#842 = VERTEX_POINT ( 'NONE', #814 ) ;
#843 = CARTESIAN_POINT ( 'NONE',  ( 22.09774862074721469, -167.0456415755268722, 0.4999999999999726885 ) ) ;
#844 = DIRECTION ( 'NONE',  ( 2.547136197849300316E-16, -0.8320502943378448313, -0.5547001962252273710 ) ) ;
#845 = CARTESIAN_POINT ( 'NONE',  ( -63.37394366109018762, -20.00432793449236613, 3.000000000000000000 ) ) ;
#846 = ORIENTED_EDGE ( 'NONE', *, *, #761, .F. ) ;
#847 = ORIENTED_EDGE ( 'NONE', *, *, #119, .F. ) ;
#848 = ORIENTED_EDGE ( 'NONE', *, *, #576, .T. ) ;
#849 = FACE_OUTER_BOUND ( 'NONE', #57, .T. ) ;
#850 = EDGE_CURVE ( 'NONE', #992, #913, #1026, .T. ) ;
#851 = LINE ( 'NONE', #1029, #941 ) ;
#852 = COORDINATED_UNIVERSAL_TIME_OFFSET ( 1, 0, .AHEAD. ) ;
#853 = ORIENTED_EDGE ( 'NONE', *, *, #70, .F. ) ;
#854 = EDGE_LOOP ( 'NONE', ( #656, #853, #392, #50 ) ) ;
#855 = CARTESIAN_POINT ( 'NONE',  ( 15.09774862074721469, -185.0212859225447346, 0.5000000000000004441 ) ) ;
#856 = EDGE_CURVE ( 'NONE', #229, #465, #926, .T. ) ;
#857 = CARTESIAN_POINT ( 'NONE',  ( 10.54089437125481332, 23.47871407745524763, 2.499999999999929390 ) ) ;
#858 = AXIS2_PLACEMENT_3D ( 'NONE', #2, #104, #1172 ) ;
#859 = SHAPE_DEFINITION_REPRESENTATION ( #614, #1253 ) ;
#860 = AXIS2_PLACEMENT_3D ( 'NONE', #906, #617, #319 ) ;
#861 = VERTEX_POINT ( 'NONE', #243 ) ;
#862 = VECTOR ( 'NONE', #452, 1000.000000000000114 ) ;
#863 = ORIENTED_EDGE ( 'NONE', *, *, #530, .F. ) ;
#864 = CARTESIAN_POINT ( 'NONE',  ( 10.01824464044442209, 10.99388652015381851, 1.422649730810332080 ) ) ;
#865 = EDGE_CURVE ( 'NONE', #182, #861, #1217, .T. ) ;
#866 = CARTESIAN_POINT ( 'NONE',  ( 11.94089437125481190, 23.47871407745524763, 0.000000000000000000 ) ) ;
#867 = COORDINATED_UNIVERSAL_TIME_OFFSET ( 1, 0, .AHEAD. ) ;
#868 = DIRECTION ( 'NONE',  ( -0.5000000000000002220, -0.8660254037844384856, 0.000000000000000000 ) ) ;
#869 = ORIENTED_EDGE ( 'NONE', *, *, #783, .T. ) ;
#870 = CARTESIAN_POINT ( 'NONE',  ( 8.940894371254813677, 11.28256165474861916, 3.000000000000000000 ) ) ;
#871 = PLANE ( 'NONE',  #29 ) ;
#872 = CARTESIAN_POINT ( 'NONE',  ( 2.940894371254811901, 14.89025680933534268, 0.4999999999999726885 ) ) ;
#873 = EDGE_CURVE ( 'NONE', #400, #1065, #833, .T. ) ;
#874 = ORIENTED_EDGE ( 'NONE', *, *, #186, .F. ) ;
#875 = DIRECTION ( 'NONE',  ( 1.000000000000000000, 0.000000000000000000, 0.000000000000000000 ) ) ;
#876 = CARTESIAN_POINT ( 'NONE',  ( 9.342818159901476349, 24.97871407745525829, 3.000000000000000000 ) ) ;
#877 = DIRECTION ( 'NONE',  ( -0.000000000000000000, -0.000000000000000000, -1.000000000000000000 ) ) ;
#878 = DIRECTION ( 'NONE',  ( 0.5000000000000013323, -0.8660254037844380415, 0.000000000000000000 ) ) ;
#879 = CARTESIAN_POINT ( 'NONE',  ( 11.94089437125481190, 23.47871407745524763, 3.000000000000000000 ) ) ;
#880 = VECTOR ( 'NONE', #1153, 1000.000000000000000 ) ;
#881 = ADVANCED_FACE ( 'NONE', ( #932 ), #1123, .F. ) ;
#882 = VECTOR ( 'NONE', #616, 1000.000000000000000 ) ;
#883 = VERTEX_POINT ( 'NONE', #1211 ) ;
#884 = DIRECTION ( 'NONE',  ( 0.000000000000000000, 0.000000000000000000, -1.000000000000000000 ) ) ;
#885 = AXIS2_PLACEMENT_3D ( 'NONE', #196, #1198, #86 ) ;
#886 = LINE ( 'NONE', #1176, #1269 ) ;
#887 = LINE ( 'NONE', #1261, #489 ) ;
#888 = LINE ( 'NONE', #181, #233 ) ;
#889 = EDGE_LOOP ( 'NONE', ( #528, #558, #457, #936 ) ) ;
#890 = FACE_OUTER_BOUND ( 'NONE', #1181, .T. ) ;
#891 = EDGE_CURVE ( 'NONE', #13, #807, #226, .T. ) ;
#892 = DIRECTION ( 'NONE',  ( -0.6123724356958141213, 0.3535533905932787269, 0.7071067811865280328 ) ) ;
#893 = DIRECTION ( 'NONE',  ( 0.6123724356957771509, 0.3535533905932649046, 0.7071067811865670016 ) ) ;
#894 = ORIENTED_EDGE ( 'NONE', *, *, #766, .T. ) ;
#895 = ORIENTED_EDGE ( 'NONE', *, *, #583, .T. ) ;
#896 = LINE ( 'NONE', #183, #422 ) ;
#897 = CARTESIAN_POINT ( 'NONE',  ( 9.342818159901504771, 24.97871407745525474, 0.000000000000000000 ) ) ;
#898 = LINE ( 'NONE', #82, #525 ) ;
#899 = EDGE_CURVE ( 'NONE', #738, #635, #518, .T. ) ;
#900 = EDGE_LOOP ( 'NONE', ( #847, #831, #662, #436 ) ) ;
#901 = VERTEX_POINT ( 'NONE', #27 ) ;
#902 = CARTESIAN_POINT ( 'NONE',  ( 22.09774862074721469, -171.5300281995735645, 9.726579936070068655 ) ) ;
#903 = VECTOR ( 'NONE', #45, 999.9999999999998863 ) ;
#904 = CIRCLE ( 'NONE', #646, 1.399999999999998579 ) ;
#905 = AXIS2_PLACEMENT_3D ( 'NONE', #1182, #410, #803 ) ;
#906 = CARTESIAN_POINT ( 'NONE',  ( 11.94089437125481190, 23.47871407745524763, 0.4999999999999874545 ) ) ;
#907 = APPROVAL_PERSON_ORGANIZATION ( #702, #1008, #1202 ) ;
#908 = EDGE_CURVE ( 'NONE', #812, #182, #430, .T. ) ;
#909 = ORIENTED_EDGE ( 'NONE', *, *, #642, .T. ) ;
#910 = PLANE ( 'NONE',  #798 ) ;
#911 = CARTESIAN_POINT ( 'NONE',  ( 11.94089437125481190, 23.47871407745524763, 3.000000000000000000 ) ) ;
#912 = CC_DESIGN_PERSON_AND_ORGANIZATION_ASSIGNMENT ( #216, #143, ( #198 ) ) ;
#913 = VERTEX_POINT ( 'NONE', #636 ) ;
#914 = DIRECTION ( 'NONE',  ( -0.000000000000000000, -0.000000000000000000, -1.000000000000000000 ) ) ;
#915 = DIRECTION ( 'NONE',  ( 0.6947465906068819308, 0.1861567878973838519, 0.6947465906068498454 ) ) ;
#916 = ORIENTED_EDGE ( 'NONE', *, *, #77, .T. ) ;
#917 = ADVANCED_FACE ( 'NONE', ( #116 ), #910, .F. ) ;
#918 = VECTOR ( 'NONE', #1074, 1000.000000000000114 ) ;
#919 = ORIENTED_EDGE ( 'NONE', *, *, #103, .F. ) ;
#920 = CARTESIAN_POINT ( 'NONE',  ( 15.09774862074720936, -168.5212859225447346, 0.5000000000000004441 ) ) ;
#921 = VECTOR ( 'NONE', #190, 1000.000000000000000 ) ;
#922 = DIRECTION ( 'NONE',  ( 1.000000000000000000, 0.000000000000000000, 0.000000000000000000 ) ) ;
#923 = AXIS2_PLACEMENT_3D ( 'NONE', #789, #1265, #189 ) ;
#924 = EDGE_LOOP ( 'NONE', ( #1052, #848, #1226, #640, #1077 ) ) ;
#925 = ORIENTED_EDGE ( 'NONE', *, *, #592, .T. ) ;
#926 = LINE ( 'NONE', #1222, #338 ) ;
#927 = CARTESIAN_POINT ( 'NONE',  ( 21.59774862074722179, -185.0212859225447346, 0.000000000000000000 ) ) ;
#928 = APPROVAL ( #22, 'UNSPECIFIED' ) ;
#929 = CALENDAR_DATE ( 2023, 16, 1 ) ;
#930 = LINE ( 'NONE', #1030, #1186 ) ;
#931 = ORIENTED_EDGE ( 'NONE', *, *, #801, .F. ) ;
#932 = FACE_OUTER_BOUND ( 'NONE', #105, .T. ) ;
#933 = CARTESIAN_POINT ( 'NONE',  ( 8.940894371254831441, -144.2573015476276623, 0.4999999999999726885 ) ) ;
#934 = EDGE_CURVE ( 'NONE', #650, #10, #955, .T. ) ;
#935 = LINE ( 'NONE', #1243, #644 ) ;
#936 = ORIENTED_EDGE ( 'NONE', *, *, #483, .F. ) ;
#937 = ORIENTED_EDGE ( 'NONE', *, *, #77, .F. ) ;
#938 = ORIENTED_EDGE ( 'NONE', *, *, #592, .F. ) ;
#939 = DIRECTION ( 'NONE',  ( -1.226821076145407731E-16, 1.000000000000000000, 0.000000000000000000 ) ) ;
#940 = PLANE ( 'NONE',  #31 ) ;
#941 = VECTOR ( 'NONE', #438, 999.9999999999998863 ) ;
#942 = DIRECTION ( 'NONE',  ( 0.7071067811865654473, 1.327839733551398248E-16, 0.7071067811865296981 ) ) ;
#943 = VECTOR ( 'NONE', #343, 1000.000000000000000 ) ;
#944 = MECHANICAL_CONTEXT ( 'NONE', #1110, 'mechanical' ) ;
#945 = ADVANCED_FACE ( 'NONE', ( #1241 ), #538, .F. ) ;
#946 =( GEOMETRIC_REPRESENTATION_CONTEXT ( 3 ) GLOBAL_UNCERTAINTY_ASSIGNED_CONTEXT ( ( #175 ) ) GLOBAL_UNIT_ASSIGNED_CONTEXT ( ( #1003, #737, #449 ) ) REPRESENTATION_CONTEXT ( 'NONE', 'WORKASPACE' ) );
#947 = ORIENTED_EDGE ( 'NONE', *, *, #1203, .T. ) ;
#948 = ADVANCED_FACE ( 'NONE', ( #967 ), #354, .T. ) ;
#949 = ORIENTED_EDGE ( 'NONE', *, *, #703, .F. ) ;
#950 = DIRECTION ( 'NONE',  ( 0.6613355025394084263, -0.6613355025394452857, 0.3539360198706080207 ) ) ;
#951 = CARTESIAN_POINT ( 'NONE',  ( 3.440894371254803463, -147.4649967022143926, 3.000000000000000000 ) ) ;
#952 = FACE_OUTER_BOUND ( 'NONE', #1150, .T. ) ;
#953 = EDGE_CURVE ( 'NONE', #533, #1065, #1162, .T. ) ;
#954 = ORIENTED_EDGE ( 'NONE', *, *, #1219, .F. ) ;
#955 = LINE ( 'NONE', #566, #236 ) ;
#956 = CARTESIAN_POINT ( 'NONE',  ( 11.94089437125481190, 23.47871407745524763, 0.4999999999999726885 ) ) ;
#957 = DATE_AND_TIME ( #659, #180 ) ;
#958 = DIRECTION ( 'NONE',  ( 0.7071067811865465735, 8.659560562354921765E-17, -0.7071067811865484609 ) ) ;
#959 = ORIENTED_EDGE ( 'NONE', *, *, #34, .F. ) ;
#960 = DIRECTION ( 'NONE',  ( 0.5000000000000014433, -0.8660254037844378194, -0.000000000000000000 ) ) ;
#961 = FACE_OUTER_BOUND ( 'NONE', #214, .T. ) ;
#962 = PERSON_AND_ORGANIZATION_ROLE ( 'classification_officer' ) ;
#963 = FACE_OUTER_BOUND ( 'NONE', #328, .T. ) ;
#964 = CIRCLE ( 'NONE', #1044, 1.900000000000068301 ) ;
#965 = CC_DESIGN_APPROVAL ( #928, ( #793 ) ) ;
#966 = EDGE_LOOP ( 'NONE', ( #991, #1245, #352, #30 ) ) ;
#967 = FACE_OUTER_BOUND ( 'NONE', #701, .T. ) ;
#968 = DIRECTION ( 'NONE',  ( 0.5773502691896270633, -0.5773502691895951999, -0.5773502691896552630 ) ) ;
#969 = ADVANCED_FACE ( 'NONE', ( #174 ), #589, .F. ) ;
#970 = PLANE ( 'NONE',  #508 ) ;
#971 = ORIENTED_EDGE ( 'NONE', *, *, #103, .T. ) ;
#972 = CARTESIAN_POINT ( 'NONE',  ( 15.59774862074718804, -185.5212859225447346, 0.9999999999999705791 ) ) ;
#973 = FACE_OUTER_BOUND ( 'NONE', #225, .T. ) ;
#974 = EDGE_CURVE ( 'NONE', #465, #635, #349, .T. ) ;
#975 = DIRECTION ( 'NONE',  ( -1.000000000000000000, -1.877848959846216669E-16, 0.000000000000000000 ) ) ;
#976 = ORIENTED_EDGE ( 'NONE', *, *, #185, .F. ) ;
#977 = CARTESIAN_POINT ( 'NONE',  ( 11.94089437125481190, 23.47871407745524763, 0.000000000000000000 ) ) ;
#978 = CARTESIAN_POINT ( 'NONE',  ( 11.94089437125481190, -182.5212859225446778, 3.000000000000000000 ) ) ;
#979 = DIRECTION ( 'NONE',  ( -0.4999999999999999445, -0.8660254037844385966, 0.000000000000000000 ) ) ;
#980 = PERSON_AND_ORGANIZATION_ROLE ( 'design_supplier' ) ;
#981 = AXIS2_PLACEMENT_3D ( 'NONE', #754, #532, #1125 ) ;
#982 = EDGE_CURVE ( 'NONE', #615, #913, #162, .T. ) ;
#983 = CARTESIAN_POINT ( 'NONE',  ( 14.53897058260814745, 21.97871407745522987, 3.000000000000000000 ) ) ;
#984 = VECTOR ( 'NONE', #1247, 999.9999999999998863 ) ;
#985 = VECTOR ( 'NONE', #260, 1000.000000000000000 ) ;
#986 = ORIENTED_EDGE ( 'NONE', *, *, #574, .T. ) ;
#987 = DIRECTION ( 'NONE',  ( 2.547136197849300809E-16, -0.8320502943378448313, -0.5547001962252273710 ) ) ;
#988 = PRODUCT_DEFINITION_FORMATION_WITH_SPECIFIED_SOURCE ( 'ANY', '', #198, .NOT_KNOWN. ) ;
#989 = CARTESIAN_POINT ( 'NONE',  ( 11.94089437125481190, 23.47871407745524763, 0.4999999999999874545 ) ) ;
#990 = CARTESIAN_POINT ( 'NONE',  ( 10.04089437125482753, 23.47871407745524763, 0.000000000000000000 ) ) ;
#991 = ORIENTED_EDGE ( 'NONE', *, *, #601, .F. ) ;
#992 = VERTEX_POINT ( 'NONE', #641 ) ;
#993 = DIRECTION ( 'NONE',  ( 1.000000000000000000, 0.000000000000000000, 0.000000000000000000 ) ) ;
#994 = EDGE_CURVE ( 'NONE', #778, #1097, #473, .T. ) ;
#995 = DIRECTION ( 'NONE',  ( 0.5000000000000002220, 0.8660254037844384856, -0.000000000000000000 ) ) ;
#996 = ORIENTED_EDGE ( 'NONE', *, *, #850, .F. ) ;
#997 = ORIENTED_EDGE ( 'NONE', *, *, #574, .F. ) ;
#998 = LINE ( 'NONE', #676, #15 ) ;
#999 = ADVANCED_FACE ( 'NONE', ( #657 ), #1054, .F. ) ;
#1000 = LINE ( 'NONE', #1199, #712 ) ;
#1001 = CARTESIAN_POINT ( 'NONE',  ( 2.940894371254841211, -147.4649967022144210, 2.500000000000013323 ) ) ;
#1002 = ORIENTED_EDGE ( 'NONE', *, *, #176, .T. ) ;
#1003 =( LENGTH_UNIT ( ) NAMED_UNIT ( * ) SI_UNIT ( .MILLI., .METRE. ) );
#1004 = AXIS2_PLACEMENT_3D ( 'NONE', #142, #1231, #1049 ) ;
#1005 = AXIS2_PLACEMENT_3D ( 'NONE', #231, #1108, #213 ) ;
#1006 = AXIS2_PLACEMENT_3D ( 'NONE', #478, #289, #875 ) ;
#1007 = LINE ( 'NONE', #135, #668 ) ;
#1008 = APPROVAL ( #115, 'UNSPECIFIED' ) ;
#1009 = EDGE_LOOP ( 'NONE', ( #150, #332, #309, #94 ) ) ;
#1010 = APPLICATION_CONTEXT ( 'configuration controlled 3d designs of mechanical parts and assemblies' ) ;
#1011 = DIRECTION ( 'NONE',  ( -3.422873581762735892E-14, 0.7071067811865671127, -0.7071067811865279218 ) ) ;
#1012 = PLANE ( 'NONE',  #1005 ) ;
#1013 = EDGE_CURVE ( 'NONE', #992, #169, #547, .T. ) ;
#1014 = ORIENTED_EDGE ( 'NONE', *, *, #516, .T. ) ;
#1015 = VERTEX_POINT ( 'NONE', #281 ) ;
#1016 = CARTESIAN_POINT ( 'NONE',  ( -6.128606188394044807, -174.2088705519112466, -18.72635480914245676 ) ) ;
#1017 = LINE ( 'NONE', #1200, #837 ) ;
#1018 = ORIENTED_EDGE ( 'NONE', *, *, #994, .T. ) ;
#1019 = AXIS2_PLACEMENT_3D ( 'NONE', #148, #263, #157 ) ;
#1020 = ORIENTED_EDGE ( 'NONE', *, *, #193, .T. ) ;
#1021 = DIRECTION ( 'NONE',  ( 0.6947465906068495123, 0.1861567878973750534, -0.6947465906068848174 ) ) ;
#1022 = AXIS2_PLACEMENT_3D ( 'NONE', #1120, #621, #318 ) ;
#1023 = AXIS2_PLACEMENT_3D ( 'NONE', #269, #764, #1157 ) ;
#1024 = FACE_OUTER_BOUND ( 'NONE', #900, .T. ) ;
#1025 = ORIENTED_EDGE ( 'NONE', *, *, #375, .F. ) ;
#1026 = LINE ( 'NONE', #1204, #178 ) ;
#1027 = ADVANCED_FACE ( 'NONE', ( #849 ), #458, .F. ) ;
#1028 = DIRECTION ( 'NONE',  ( 0.000000000000000000, 0.000000000000000000, 1.000000000000000000 ) ) ;
#1029 = CARTESIAN_POINT ( 'NONE',  ( 8.909805458009282475, 25.22871407745525119, 2.499999999999999556 ) ) ;
#1030 = CARTESIAN_POINT ( 'NONE',  ( 21.59774862074723956, -167.0456415755268722, 3.000000000000000000 ) ) ;
#1031 = ORIENTED_EDGE ( 'NONE', *, *, #1225, .F. ) ;
#1032 = CARTESIAN_POINT ( 'NONE',  ( 16.06588953188304814, -185.9894268336806249, 1.250541412323669110 ) ) ;
#1033 = EDGE_CURVE ( 'NONE', #883, #738, #68, .T. ) ;
#1034 = FACE_OUTER_BOUND ( 'NONE', #513, .T. ) ;
#1035 = EDGE_CURVE ( 'NONE', #913, #499, #1255, .T. ) ;
#1036 = ORIENTED_EDGE ( 'NONE', *, *, #47, .T. ) ;
#1037 = ORIENTED_EDGE ( 'NONE', *, *, #475, .F. ) ;
#1038 = CARTESIAN_POINT ( 'NONE',  ( 15.09774862074721469, -185.5212859225447346, 0.4999999999999726885 ) ) ;
#1039 = VECTOR ( 'NONE', #1177, 1000.000000000000114 ) ;
#1040 = CARTESIAN_POINT ( 'NONE',  ( 10.54089437125481332, 23.47871407745524763, 3.000000000000000000 ) ) ;
#1041 = VECTOR ( 'NONE', #1079, 1000.000000000000114 ) ;
#1042 = EDGE_CURVE ( 'NONE', #288, #337, #146, .T. ) ;
#1043 = ADVANCED_FACE ( 'NONE', ( #368 ), #1151, .F. ) ;
#1044 = AXIS2_PLACEMENT_3D ( 'NONE', #795, #5, #993 ) ;
#1045 = CARTESIAN_POINT ( 'NONE',  ( 8.440894371254831441, -144.3912761438432142, 0.000000000000000000 ) ) ;
#1046 = ORIENTED_EDGE ( 'NONE', *, *, #732, .F. ) ;
#1047 = DIRECTION ( 'NONE',  ( 0.7071067811865671127, 0.7071067811865279218, 0.000000000000000000 ) ) ;
#1048 = LINE ( 'NONE', #1122, #624 ) ;
#1049 = DIRECTION ( 'NONE',  ( 1.000000000000000000, 0.000000000000000000, 0.000000000000000000 ) ) ;
#1050 = PERSON_AND_ORGANIZATION ( #1193, #202 ) ;
#1051 = EDGE_CURVE ( 'NONE', #738, #229, #276, .T. ) ;
#1052 = ORIENTED_EDGE ( 'NONE', *, *, #783, .F. ) ;
#1053 = ORIENTED_EDGE ( 'NONE', *, *, #908, .T. ) ;
#1054 = PLANE ( 'NONE',  #649 ) ;
#1055 = CARTESIAN_POINT ( 'NONE',  ( 3.440894371254799022, -147.3310221059988407, 3.000000000000000000 ) ) ;
#1056 = DIRECTION ( 'NONE',  ( 1.000000000000000000, 0.000000000000000000, 0.000000000000000000 ) ) ;
#1057 = PERSON_AND_ORGANIZATION ( #1193, #202 ) ;
#1058 = DIRECTION ( 'NONE',  ( -0.6123724356957812587, -0.3535533905932674581, 0.7071067811865622277 ) ) ;
#1059 = ORIENTED_EDGE ( 'NONE', *, *, #407, .F. ) ;
#1060 = DIRECTION ( 'NONE',  ( 1.000000000000000000, 0.000000000000000000, 0.000000000000000000 ) ) ;
#1061 = FACE_OUTER_BOUND ( 'NONE', #160, .T. ) ;
#1062 = VECTOR ( 'NONE', #1149, 1000.000000000000000 ) ;
#1063 = VECTOR ( 'NONE', #1113, 1000.000000000000114 ) ;
#1064 = CARTESIAN_POINT ( 'NONE',  ( 2.940894371254811901, 14.89025680933534268, 2.499999999999999556 ) ) ;
#1065 = VERTEX_POINT ( 'NONE', #585 ) ;
#1066 = CARTESIAN_POINT ( 'NONE',  ( 11.94089437125481190, 23.47871407745524763, 3.000000000000000000 ) ) ;
#1067 = EDGE_CURVE ( 'NONE', #730, #442, #964, .T. ) ;
#1068 = CARTESIAN_POINT ( 'NONE',  ( 11.94089437125481190, 23.47871407745524763, 2.499999999999929390 ) ) ;
#1069 = LINE ( 'NONE', #471, #1081 ) ;
#1070 = ORIENTED_EDGE ( 'NONE', *, *, #117, .F. ) ;
#1071 = FACE_OUTER_BOUND ( 'NONE', #294, .T. ) ;
#1072 = LINE ( 'NONE', #588, #1041 ) ;
#1073 = ADVANCED_FACE ( 'NONE', ( #17 ), #100, .F. ) ;
#1074 = DIRECTION ( 'NONE',  ( -2.547136197849300809E-16, 0.8320502943378448313, 0.5547001962252274820 ) ) ;
#1075 = APPROVAL ( #556, 'UNSPECIFIED' ) ;
#1076 = DIRECTION ( 'NONE',  ( 1.255456808564403043E-16, -1.000000000000000000, 0.000000000000000000 ) ) ;
#1077 = ORIENTED_EDGE ( 'NONE', *, *, #308, .T. ) ;
#1078 = CARTESIAN_POINT ( 'NONE',  ( 3.440894371254783035, 14.75628221311978372, 3.000000000000000000 ) ) ;
#1079 = DIRECTION ( 'NONE',  ( 0.6914377643506417481, 0.2093505100531743157, -0.6914377643506767201 ) ) ;
#1080 = ORIENTED_EDGE ( 'NONE', *, *, #244, .F. ) ;
#1081 = VECTOR ( 'NONE', #187, 1000.000000000000000 ) ;
#1082 = ADVANCED_FACE ( 'NONE', ( #377 ), #1093, .F. ) ;
#1083 = AXIS2_PLACEMENT_3D ( 'NONE', #474, #1267, #504 ) ;
#1084 = CIRCLE ( 'NONE', #885, 3.000000000000027089 ) ;
#1085 = ORIENTED_EDGE ( 'NONE', *, *, #61, .F. ) ;
#1086 = CARTESIAN_POINT ( 'NONE',  ( 2.940894371254832329, -147.4649967022143926, 2.500000000000013323 ) ) ;
#1087 = APPROVAL_PERSON_ORGANIZATION ( #531, #928, #808 ) ;
#1088 = DIRECTION ( 'NONE',  ( 1.000000000000000000, 3.061276722312010025E-16, -0.000000000000000000 ) ) ;
#1089 = PLANE ( 'NONE',  #1083 ) ;
#1090 = EDGE_LOOP ( 'NONE', ( #1014, #551, #717, #317 ) ) ;
#1091 = EDGE_CURVE ( 'NONE', #1096, #13, #896, .T. ) ;
#1092 = ORIENTED_EDGE ( 'NONE', *, *, #583, .F. ) ;
#1093 = CYLINDRICAL_SURFACE ( 'NONE', #1251, 1.399999999999998579 ) ;
#1094 = PLANE ( 'NONE',  #360 ) ;
#1095 = CARTESIAN_POINT ( 'NONE',  ( 22.09774862074721469, -167.0456415755268722, 0.4999999999999726885 ) ) ;
#1096 = VERTEX_POINT ( 'NONE', #1086 ) ;
#1097 = VERTEX_POINT ( 'NONE', #972 ) ;
#1098 = DIRECTION ( 'NONE',  ( 0.000000000000000000, 0.000000000000000000, 1.000000000000000000 ) ) ;
#1099 = CC_DESIGN_DATE_AND_TIME_ASSIGNMENT ( #384, #665, ( #627 ) ) ;
#1100 = ORIENTED_EDGE ( 'NONE', *, *, #576, .F. ) ;
#1101 = VECTOR ( 'NONE', #460, 1000.000000000000000 ) ;
#1102 = CIRCLE ( 'NONE', #200, 1.399999999999998579 ) ;
#1103 = DIRECTION ( 'NONE',  ( -0.000000000000000000, -0.000000000000000000, -1.000000000000000000 ) ) ;
#1104 = DIRECTION ( 'NONE',  ( -0.000000000000000000, -0.000000000000000000, -1.000000000000000000 ) ) ;
#1105 = EDGE_CURVE ( 'NONE', #1244, #842, #205, .T. ) ;
#1106 = ORIENTED_EDGE ( 'NONE', *, *, #1051, .T. ) ;
#1107 = CARTESIAN_POINT ( 'NONE',  ( 11.94089437125481190, 23.47871407745524763, 0.000000000000000000 ) ) ;
#1108 = DIRECTION ( 'NONE',  ( 0.6123724356958123449, -0.3535533905932842780, 0.7071067811865269226 ) ) ;
#1109 = EDGE_CURVE ( 'NONE', #825, #353, #626, .T. ) ;
#1110 = APPLICATION_CONTEXT ( 'configuration controlled 3d designs of mechanical parts and assemblies' ) ;
#1111 = ORIENTED_EDGE ( 'NONE', *, *, #1170, .F. ) ;
#1112 = ORIENTED_EDGE ( 'NONE', *, *, #982, .T. ) ;
#1113 = DIRECTION ( 'NONE',  ( 0.4999999999999999445, 0.8660254037844385966, 0.000000000000000000 ) ) ;
#1114 = CARTESIAN_POINT ( 'NONE',  ( 11.94089437125481190, 23.47871407745524763, 0.000000000000000000 ) ) ;
#1115 = FACE_OUTER_BOUND ( 'NONE', #416, .T. ) ;
#1116 = EDGE_CURVE ( 'NONE', #114, #1097, #401, .T. ) ;
#1117 = ORIENTED_EDGE ( 'NONE', *, *, #1105, .F. ) ;
#1118 = VECTOR ( 'NONE', #1173, 1000.000000000000000 ) ;
#1119 = ORIENTED_EDGE ( 'NONE', *, *, #1013, .T. ) ;
#1120 = CARTESIAN_POINT ( 'NONE',  ( 2.940894371254811901, 14.89025680933534268, 0.4999999999999726885 ) ) ;
#1121 = VECTOR ( 'NONE', #12, 1000.000000000000000 ) ;
#1122 = CARTESIAN_POINT ( 'NONE',  ( 21.59774862074724666, -185.5212859225447346, 3.000000000000000000 ) ) ;
#1123 = CONICAL_SURFACE ( 'NONE', #819, 1.899999999999985034, 0.7853981633974469467 ) ;
#1124 = LINE ( 'NONE', #433, #512 ) ;
#1125 = DIRECTION ( 'NONE',  ( -0.4999999999999998890, -0.8660254037844385966, 0.000000000000000000 ) ) ;
#1126 = EDGE_CURVE ( 'NONE', #883, #778, #95, .T. ) ;
#1127 = ORIENTED_EDGE ( 'NONE', *, *, #34, .T. ) ;
#1128 = DIRECTION ( 'NONE',  ( 0.000000000000000000, 0.000000000000000000, 1.000000000000000000 ) ) ;
#1129 = CARTESIAN_POINT ( 'NONE',  ( 15.09774862074721113, -172.5516281321243923, 9.045513314369509672 ) ) ;
#1130 = LINE ( 'NONE', #743, #880 ) ;
#1131 = APPROVAL_DATE_TIME ( #1138, #928 ) ;
#1132 = EDGE_LOOP ( 'NONE', ( #745, #1227, #675, #423, #367 ) ) ;
#1133 = EDGE_LOOP ( 'NONE', ( #348, #230, #90, #195 ) ) ;
#1134 = CARTESIAN_POINT ( 'NONE',  ( 22.09774862074721824, -167.0456415755268722, 2.499999999999984457 ) ) ;
#1135 = CARTESIAN_POINT ( 'NONE',  ( 8.440894371254840323, 11.41653625096416924, 3.000000000000000000 ) ) ;
#1136 = ADVANCED_FACE ( 'NONE', ( #890 ), #387, .T. ) ;
#1137 = CARTESIAN_POINT ( 'NONE',  ( 3.440894371254810569, 14.75628221311977839, 0.000000000000000000 ) ) ;
#1138 = DATE_AND_TIME ( #744, #469 ) ;
#1139 = LINE ( 'NONE', #647, #303 ) ;
#1140 = EDGE_LOOP ( 'NONE', ( #1179, #976, #188, #1059 ) ) ;
#1141 = DIRECTION ( 'NONE',  ( -0.000000000000000000, 0.000000000000000000, -1.000000000000000000 ) ) ;
#1142 = LINE ( 'NONE', #364, #91 ) ;
#1143 = VECTOR ( 'NONE', #1154, 1000.000000000000000 ) ;
#1144 = CIRCLE ( 'NONE', #860, 1.399999999999998579 ) ;
#1145 = EDGE_CURVE ( 'NONE', #861, #788, #1167, .T. ) ;
#1146 = DIRECTION ( 'NONE',  ( -0.5773502691896585937, -0.5773502691895944228, -0.5773502691896245098 ) ) ;
#1147 = PERSON_AND_ORGANIZATION_ROLE ( 'creator' ) ;
#1148 = CC_DESIGN_APPROVAL ( #1008, ( #988 ) ) ;
#1149 = DIRECTION ( 'NONE',  ( -0.000000000000000000, -0.000000000000000000, -1.000000000000000000 ) ) ;
#1150 = EDGE_LOOP ( 'NONE', ( #1195, #949, #603, #1254 ) ) ;
#1151 = PLANE ( 'NONE',  #1023 ) ;
#1152 = CARTESIAN_POINT ( 'NONE',  ( 14.97198328450034488, 21.72871407745524408, 3.000000000000000000 ) ) ;
#1153 = DIRECTION ( 'NONE',  ( 1.226821076145407731E-16, -1.000000000000000000, -0.000000000000000000 ) ) ;
#1154 = DIRECTION ( 'NONE',  ( -1.255456808564403043E-16, 1.000000000000000000, 0.000000000000000000 ) ) ;
#1155 = ADVANCED_FACE ( 'NONE', ( #1071 ), #156, .F. ) ;
#1156 = EDGE_LOOP ( 'NONE', ( #1018, #685, #1111, #340 ) ) ;
#1157 = DIRECTION ( 'NONE',  ( 0.4999999999999998890, 0.8660254037844385966, 0.000000000000000000 ) ) ;
#1158 = PLANE ( 'NONE',  #586 ) ;
#1159 = DIRECTION ( 'NONE',  ( 0.6947465906068474029, 0.1861567878973803547, -0.6947465906068855945 ) ) ;
#1160 = EDGE_CURVE ( 'NONE', #788, #288, #1212, .T. ) ;
#1161 = EDGE_LOOP ( 'NONE', ( #125, #700, #552, #669, #1127, #947, #268, #413, #597, #327 ) ) ;
#1162 = LINE ( 'NONE', #1134, #671 ) ;
#1163 = FACE_OUTER_BOUND ( 'NONE', #314, .T. ) ;
#1164 = CONICAL_SURFACE ( 'NONE', #88, 3.000000000000027089, 0.7853981633974206344 ) ;
#1165 = AXIS2_PLACEMENT_3D ( 'NONE', #1114, #330, #726 ) ;
#1166 = CARTESIAN_POINT ( 'NONE',  ( 8.940894371254831441, -144.2573015476276623, 0.4999999999999726885 ) ) ;
#1167 = CIRCLE ( 'NONE', #713, 2.999999999999999112 ) ;
#1168 = ORIENTED_EDGE ( 'NONE', *, *, #865, .T. ) ;
#1169 = DIRECTION ( 'NONE',  ( 1.000000000000000000, 0.000000000000000000, 0.000000000000000000 ) ) ;
#1170 = EDGE_CURVE ( 'NONE', #208, #114, #998, .T. ) ;
#1171 = CARTESIAN_POINT ( 'NONE',  ( 14.97198328450034666, 21.72871407745524408, 0.4999999999999726885 ) ) ;
#1172 = DIRECTION ( 'NONE',  ( -0.5000000000000012212, 0.8660254037844379305, 0.000000000000000000 ) ) ;
#1173 = DIRECTION ( 'NONE',  ( 0.000000000000000000, 0.000000000000000000, -1.000000000000000000 ) ) ;
#1174 = ORIENTED_EDGE ( 'NONE', *, *, #1210, .T. ) ;
#1175 = PLANE ( 'NONE',  #905 ) ;
#1176 = CARTESIAN_POINT ( 'NONE',  ( 2.940894371254811901, 14.89025680933534268, 0.4999999999999726885 ) ) ;
#1177 = DIRECTION ( 'NONE',  ( -1.562464779762060351E-16, 0.8320502943378448313, 0.5547001962252273710 ) ) ;
#1178 = EDGE_CURVE ( 'NONE', #208, #405, #697, .T. ) ;
#1179 = ORIENTED_EDGE ( 'NONE', *, *, #141, .T. ) ;
#1180 = CARTESIAN_POINT ( 'NONE',  ( 21.84774862074723600, -185.2712859225447346, 0.4999999999999726885 ) ) ;
#1181 = EDGE_LOOP ( 'NONE', ( #1207, #1117, #429, #333 ) ) ;
#1182 = CARTESIAN_POINT ( 'NONE',  ( 15.09774862074720936, -168.5212859225447346, 0.5000000000000004441 ) ) ;
#1183 = DIRECTION ( 'NONE',  ( 0.8660254037844379305, 0.5000000000000012212, -0.000000000000000000 ) ) ;
#1184 = CARTESIAN_POINT ( 'NONE',  ( 8.440894371254840323, 11.28256165474861916, 3.000000000000000000 ) ) ;
#1185 = EDGE_LOOP ( 'NONE', ( #522, #62, #36, #80 ) ) ;
#1186 = VECTOR ( 'NONE', #60, 1000.000000000000000 ) ;
#1187 = AXIS2_PLACEMENT_3D ( 'NONE', #810, #1103, #529 ) ;
#1188 = AXIS2_PLACEMENT_3D ( 'NONE', #740, #447, #170 ) ;
#1189 = ORIENTED_EDGE ( 'NONE', *, *, #427, .T. ) ;
#1190 = DIRECTION ( 'NONE',  ( -1.562464779762060351E-16, 0.8320502943378448313, 0.5547001962252273710 ) ) ;
#1191 = CC_DESIGN_APPROVAL ( #1075, ( #627 ) ) ;
#1192 = FACE_OUTER_BOUND ( 'NONE', #222, .T. ) ;
#1193 = PERSON ( 'UNSPECIFIED', 'UNSPECIFIED', 'UNSPECIFIED', ('UNSPECIFIED'), ('UNSPECIFIED'), ('UNSPECIFIED') ) ;
#1194 = LINE ( 'NONE', #785, #1039 ) ;
#1195 = ORIENTED_EDGE ( 'NONE', *, *, #766, .F. ) ;
#1196 = ADVANCED_FACE ( 'NONE', ( #670 ), #1175, .F. ) ;
#1197 = ORIENTED_EDGE ( 'NONE', *, *, #856, .T. ) ;
#1198 = DIRECTION ( 'NONE',  ( 0.000000000000000000, 0.000000000000000000, 1.000000000000000000 ) ) ;
#1199 = CARTESIAN_POINT ( 'NONE',  ( 8.909805458009282475, 25.22871407745525119, 3.000000000000000000 ) ) ;
#1200 = CARTESIAN_POINT ( 'NONE',  ( 21.59774862074718271, 23.47871407745525119, 0.000000000000000000 ) ) ;
#1201 = ORIENTED_EDGE ( 'NONE', *, *, #211, .F. ) ;
#1202 = APPROVAL_ROLE ( '' ) ;
#1203 = EDGE_CURVE ( 'NONE', #169, #209, #1084, .T. ) ;
#1204 = CARTESIAN_POINT ( 'NONE',  ( 8.940894371254813677, 11.28256165474861916, 2.499999999999999112 ) ) ;
#1205 = LINE ( 'NONE', #509, #444 ) ;
#1206 = AXIS2_PLACEMENT_3D ( 'NONE', #956, #736, #1236 ) ;
#1207 = ORIENTED_EDGE ( 'NONE', *, *, #93, .T. ) ;
#1208 = CONICAL_SURFACE ( 'NONE', #235, 1.399999999999998579, 0.7853981633974469467 ) ;
#1209 = AXIS2_PLACEMENT_3D ( 'NONE', #414, #345, #1224 ) ;
#1210 = EDGE_CURVE ( 'NONE', #706, #4, #295, .T. ) ;
#1211 = CARTESIAN_POINT ( 'NONE',  ( 15.09774862074721469, -185.0212859225447346, 0.5000000000000004441 ) ) ;
#1212 = CIRCLE ( 'NONE', #755, 2.999999999999999112 ) ;
#1213 = DIRECTION ( 'NONE',  ( 1.877848959846216669E-16, -1.000000000000000000, 0.000000000000000000 ) ) ;
#1214 = APPROVAL_PERSON_ORGANIZATION ( #1050, #1075, #779 ) ;
#1215 = ORIENTED_EDGE ( 'NONE', *, *, #891, .T. ) ;
#1216 = VERTEX_POINT ( 'NONE', #1078 ) ;
#1217 = LINE ( 'NONE', #223, #1063 ) ;
#1218 = FACE_OUTER_BOUND ( 'NONE', #1140, .T. ) ;
#1219 = EDGE_CURVE ( 'NONE', #114, #546, #1124, .T. ) ;
#1220 = EDGE_LOOP ( 'NONE', ( #895, #192 ) ) ;
#1221 = ORIENTED_EDGE ( 'NONE', *, *, #20, .T. ) ;
#1222 = CARTESIAN_POINT ( 'NONE',  ( 21.59774862074722179, -185.0212859225447346, 0.000000000000000000 ) ) ;
#1223 = LINE ( 'NONE', #933, #984 ) ;
#1224 = DIRECTION ( 'NONE',  ( 1.226821076145407731E-16, -1.000000000000000000, 0.000000000000000000 ) ) ;
#1225 = EDGE_CURVE ( 'NONE', #842, #137, #728, .T. ) ;
#1226 = ORIENTED_EDGE ( 'NONE', *, *, #601, .T. ) ;
#1227 = ORIENTED_EDGE ( 'NONE', *, *, #732, .T. ) ;
#1228 = DIRECTION ( 'NONE',  ( -1.000000000000000000, 0.000000000000000000, 0.000000000000000000 ) ) ;
#1229 = VECTOR ( 'NONE', #664, 1000.000000000000000 ) ;
#1230 = CARTESIAN_POINT ( 'NONE',  ( -63.37394366109020893, -20.00432793449238744, 0.000000000000000000 ) ) ;
#1231 = DIRECTION ( 'NONE',  ( 0.000000000000000000, 0.000000000000000000, 1.000000000000000000 ) ) ;
#1232 = DATE_TIME_ROLE ( 'creation_date' ) ;
#1233 = DIRECTION ( 'NONE',  ( -0.000000000000000000, -0.000000000000000000, 1.000000000000000000 ) ) ;
#1234 = ORIENTED_EDGE ( 'NONE', *, *, #516, .F. ) ;
#1235 = CARTESIAN_POINT ( 'NONE',  ( 8.940894371254813677, 11.28256165474861916, 0.4999999999999726885 ) ) ;
#1236 = DIRECTION ( 'NONE',  ( 1.000000000000000000, 0.000000000000000000, 0.000000000000000000 ) ) ;
#1237 = APPLICATION_PROTOCOL_DEFINITION ( 'international standard', 'config_control_design', 1994, #1010 ) ;
#1238 = ORIENTED_EDGE ( 'NONE', *, *, #568, .T. ) ;
#1239 = ORIENTED_EDGE ( 'NONE', *, *, #20, .F. ) ;
#1240 = ORIENTED_EDGE ( 'NONE', *, *, #1170, .T. ) ;
#1241 = FACE_OUTER_BOUND ( 'NONE', #25, .T. ) ;
#1242 = ADVANCED_FACE ( 'NONE', ( #1115 ), #829, .F. ) ;
#1243 = CARTESIAN_POINT ( 'NONE',  ( 14.53897058260812969, 21.97871407745524763, 0.000000000000000000 ) ) ;
#1244 = VERTEX_POINT ( 'NONE', #232 ) ;
#1245 = ORIENTED_EDGE ( 'NONE', *, *, #850, .T. ) ;
#1246 = CARTESIAN_POINT ( 'NONE',  ( 11.94089437125481190, 23.47871407745524763, 2.499999999999929390 ) ) ;
#1247 = DIRECTION ( 'NONE',  ( -0.5000000000000014433, 0.8660254037844378194, 0.000000000000000000 ) ) ;
#1248 = AXIS2_PLACEMENT_3D ( 'NONE', #78, #893, #684 ) ;
#1249 = VECTOR ( 'NONE', #600, 1000.000000000000000 ) ;
#1250 = LINE ( 'NONE', #1040, #623 ) ;
#1251 = AXIS2_PLACEMENT_3D ( 'NONE', #1066, #1272, #774 ) ;
#1252 = LINE ( 'NONE', #654, #835 ) ;
#1253 = ADVANCED_BREP_SHAPE_REPRESENTATION ( 'MB_door_front_slider_bottom_L_v1', ( #272, #382 ), #946 ) ;
#1254 = ORIENTED_EDGE ( 'NONE', *, *, #865, .F. ) ;
#1255 = LINE ( 'NONE', #870, #648 ) ;
#1256 = DIRECTION ( 'NONE',  ( 0.000000000000000000, 0.000000000000000000, 1.000000000000000000 ) ) ;
#1257 = ADVANCED_FACE ( 'NONE', ( #638 ), #247, .F. ) ;
#1258 = CARTESIAN_POINT ( 'NONE',  ( 8.940894371254831441, -144.2573015476276623, 3.000000000000000000 ) ) ;
#1259 = ORIENTED_EDGE ( 'NONE', *, *, #1203, .F. ) ;
#1260 = DIRECTION ( 'NONE',  ( -0.000000000000000000, -0.000000000000000000, -1.000000000000000000 ) ) ;
#1261 = CARTESIAN_POINT ( 'NONE',  ( 2.940894371254832329, -147.4649967022143926, 0.4999999999999726885 ) ) ;
#1262 = LINE ( 'NONE', #872, #359 ) ;
#1263 = EDGE_CURVE ( 'NONE', #137, #484, #240, .T. ) ;
#1264 = ORIENTED_EDGE ( 'NONE', *, *, #761, .T. ) ;
#1265 = DIRECTION ( 'NONE',  ( -0.000000000000000000, -0.000000000000000000, -1.000000000000000000 ) ) ;
#1266 = DIRECTION ( 'NONE',  ( -0.6123724356958116788, 0.3535533905932836118, 0.7071067811865278108 ) ) ;
#1267 = DIRECTION ( 'NONE',  ( -0.7071067811865673347, -2.164649529435410541E-16, 0.7071067811865276997 ) ) ;
#1268 = CONICAL_SURFACE ( 'NONE', #420, 3.499999999999999556, 0.7853981633974760346 ) ;
#1269 = VECTOR ( 'NONE', #296, 1000.000000000000114 ) ;
#1270 = CARTESIAN_POINT ( 'NONE',  ( 22.09774862074721469, -167.0456415755268722, 3.000000000000000000 ) ) ;
#1271 = ORIENTED_EDGE ( 'NONE', *, *, #806, .F. ) ;
#1272 = DIRECTION ( 'NONE',  ( -0.000000000000000000, -0.000000000000000000, -1.000000000000000000 ) ) ;
ENDSEC;
END-ISO-10303-21;
