ISO-10303-21;
HEADER;
FILE_DESCRIPTION (( 'STEP AP203' ),
    '1' );
FILE_NAME ('MB_door_front_slider_top_L_v1.step',
    '2023-01-16T16:13:08',
    ( '' ),
    ( '' ),
    'SwSTEP 2.0',
    'SolidWorks 2023',
    '' );
FILE_SCHEMA (( 'CONFIG_CONTROL_DESIGN' ));
ENDSEC;

DATA;
#1 = ORIENTED_EDGE ( 'NONE', *, *, #62, .T. ) ;
#2 = LINE ( 'NONE', #1190, #689 ) ;
#3 = VERTEX_POINT ( 'NONE', #460 ) ;
#4 = CARTESIAN_POINT ( 'NONE',  ( 3.001071613439876273E-13, 1.665334536937734811E-13, 3.000000000000000000 ) ) ;
#5 = EDGE_CURVE ( 'NONE', #9, #1073, #1037, .T. ) ;
#6 = CARTESIAN_POINT ( 'NONE',  ( 2.999999999999971578, 2.395702683850767877E-14, 0.000000000000000000 ) ) ;
#7 = ORIENTED_EDGE ( 'NONE', *, *, #23, .F. ) ;
#8 = SECURITY_CLASSIFICATION_LEVEL ( 'unclassified' ) ;
#9 = VERTEX_POINT ( 'NONE', #133 ) ;
#10 = DIRECTION ( 'NONE',  ( 0.6947465906068648334, -0.1861567878973922618, 0.6947465906068648334 ) ) ;
#11 = ORIENTED_EDGE ( 'NONE', *, *, #274, .F. ) ;
#12 = FACE_OUTER_BOUND ( 'NONE', #1128, .T. ) ;
#13 = CARTESIAN_POINT ( 'NONE',  ( 12.65685424949232285, 174.0698729810778502, 3.000000000000000000 ) ) ;
#14 = COORDINATED_UNIVERSAL_TIME_OFFSET ( 1, 0, .AHEAD. ) ;
#15 = ORIENTED_EDGE ( 'NONE', *, *, #948, .T. ) ;
#16 = CARTESIAN_POINT ( 'NONE',  ( 3.001071613439876273E-13, 1.665334536937734811E-13, 0.4999999999999570899 ) ) ;
#17 = EDGE_LOOP ( 'NONE', ( #643, #688, #790, #1208 ) ) ;
#18 = LINE ( 'NONE', #429, #520 ) ;
#19 = ADVANCED_FACE ( 'NONE', ( #58 ), #281, .F. ) ;
#20 = CARTESIAN_POINT ( 'NONE',  ( -3.499999999999999112, -1.942890293093933227E-16, 3.000000000000000000 ) ) ;
#21 = ORIENTED_EDGE ( 'NONE', *, *, #1247, .T. ) ;
#22 = VECTOR ( 'NONE', #315, 1000.000000000000000 ) ;
#23 = EDGE_CURVE ( 'NONE', #1197, #1079, #383, .T. ) ;
#24 = CC_DESIGN_APPROVAL ( #1186, ( #1273 ) ) ;
#25 = VERTEX_POINT ( 'NONE', #528 ) ;
#26 = CARTESIAN_POINT ( 'NONE',  ( 3.656854249492352160, 209.0000000000000000, 2.499999999999972022 ) ) ;
#27 = CONICAL_SURFACE ( 'NONE', #844, 1.399999999999999911, 0.7853981633974485010 ) ;
#28 = VERTEX_POINT ( 'NONE', #1395 ) ;
#29 = DIRECTION ( 'NONE',  ( 0.000000000000000000, -1.000000000000000000, 0.000000000000000000 ) ) ;
#30 = DIRECTION ( 'NONE',  ( 0.7071067811865475727, -2.190419166690534571E-17, -0.7071067811865475727 ) ) ;
#31 = ORIENTED_EDGE ( 'NONE', *, *, #950, .T. ) ;
#32 = EDGE_CURVE ( 'NONE', #558, #986, #1187, .T. ) ;
#33 = APPROVAL ( #543, 'UNSPECIFIED' ) ;
#34 = CARTESIAN_POINT ( 'NONE',  ( 3.066987298107755056, 14.25000000000001066, 0.000000000000000000 ) ) ;
#35 = CARTESIAN_POINT ( 'NONE',  ( -3.499999999999997780, 15.87564434701785032, 3.000000000000000000 ) ) ;
#36 = DIRECTION ( 'NONE',  ( 4.694622399615547836E-17, 1.000000000000000000, 0.000000000000000000 ) ) ;
#37 = ORIENTED_EDGE ( 'NONE', *, *, #1095, .T. ) ;
#38 = EDGE_CURVE ( 'NONE', #25, #708, #867, .T. ) ;
#39 = DIRECTION ( 'NONE',  ( 1.000000000000000000, 0.000000000000000000, 0.000000000000000000 ) ) ;
#40 = ORIENTED_EDGE ( 'NONE', *, *, #1069, .T. ) ;
#41 = CARTESIAN_POINT ( 'NONE',  ( 3.001071613439876273E-13, 208.4999999999999716, 3.000000000000000000 ) ) ;
#42 = CARTESIAN_POINT ( 'NONE',  ( 3.156854249492323294, 190.5243556529821376, 0.5000000000000281997 ) ) ;
#43 = ORIENTED_EDGE ( 'NONE', *, *, #437, .T. ) ;
#44 = VECTOR ( 'NONE', #1384, 1000.000000000000114 ) ;
#45 = DIRECTION ( 'NONE',  ( 0.000000000000000000, 0.000000000000000000, 1.000000000000000000 ) ) ;
#46 = EDGE_CURVE ( 'NONE', #53, #531, #422, .T. ) ;
#47 = VECTOR ( 'NONE', #1155, 1000.000000000000114 ) ;
#48 = VERTEX_POINT ( 'NONE', #620 ) ;
#49 = LINE ( 'NONE', #922, #1396 ) ;
#50 = VECTOR ( 'NONE', #1302, 1000.000000000000114 ) ;
#51 = EDGE_CURVE ( 'NONE', #1361, #335, #1070, .T. ) ;
#52 = DIRECTION ( 'NONE',  ( 0.6123724356957942483, 0.3535533905932742305, -0.7071067811865476838 ) ) ;
#53 = VERTEX_POINT ( 'NONE', #1377 ) ;
#54 = ORIENTED_EDGE ( 'NONE', *, *, #329, .F. ) ;
#55 = LINE ( 'NONE', #682, #249 ) ;
#56 = DIRECTION ( 'NONE',  ( 0.000000000000000000, -1.000000000000000000, 0.000000000000000000 ) ) ;
#57 = LINE ( 'NONE', #61, #313 ) ;
#58 = FACE_OUTER_BOUND ( 'NONE', #1033, .T. ) ;
#59 = DIRECTION ( 'NONE',  ( -0.8660254037844418162, 0.4999999999999946709, 0.000000000000000000 ) ) ;
#60 = PLANE ( 'NONE',  #314 ) ;
#61 = CARTESIAN_POINT ( 'NONE',  ( 18.65685424949232285, 177.2775681356645805, 0.5000000000000281997 ) ) ;
#62 = EDGE_CURVE ( 'NONE', #170, #3, #972, .T. ) ;
#63 = ORIENTED_EDGE ( 'NONE', *, *, #51, .T. ) ;
#64 = EDGE_CURVE ( 'NONE', #1285, #102, #1283, .T. ) ;
#65 = CARTESIAN_POINT ( 'NONE',  ( 3.001071613439876273E-13, 1.665334536937734811E-13, 3.000000000000000000 ) ) ;
#66 = AXIS2_PLACEMENT_3D ( 'NONE', #464, #1100, #1116 ) ;
#67 = ORIENTED_EDGE ( 'NONE', *, *, #1325, .T. ) ;
#68 = CARTESIAN_POINT ( 'NONE',  ( 3.500000000000000000, 14.00000000000000000, 2.499999999999972022 ) ) ;
#69 = AXIS2_PLACEMENT_3D ( 'NONE', #888, #547, #652 ) ;
#70 = FACE_OUTER_BOUND ( 'NONE', #216, .T. ) ;
#71 = VECTOR ( 'NONE', #1139, 999.9999999999998863 ) ;
#72 = VERTEX_POINT ( 'NONE', #1057 ) ;
#73 = PLANE ( 'NONE',  #159 ) ;
#74 = ORIENTED_EDGE ( 'NONE', *, *, #194, .F. ) ;
#75 = DIRECTION ( 'NONE',  ( 0.000000000000000000, 0.000000000000000000, 1.000000000000000000 ) ) ;
#76 = CARTESIAN_POINT ( 'NONE',  ( 90.32306674853322193, 52.14804690129831499, 3.000000000000000000 ) ) ;
#77 = DIRECTION ( 'NONE',  ( 0.000000000000000000, 1.000000000000000000, 0.000000000000000000 ) ) ;
#78 = PLANE ( 'NONE',  #1046 ) ;
#79 = ADVANCED_FACE ( 'NONE', ( #93 ), #300, .F. ) ;
#80 = CARTESIAN_POINT ( 'NONE',  ( -3.499999999999999112, -1.942890293093933227E-16, 0.5000000000000281997 ) ) ;
#81 = DIRECTION ( 'NONE',  ( 3.097720492815727042E-17, 1.000000000000000000, 0.000000000000000000 ) ) ;
#82 = EDGE_CURVE ( 'NONE', #558, #1285, #106, .T. ) ;
#83 = DIRECTION ( 'NONE',  ( -1.000000000000000000, 0.000000000000000000, 0.000000000000000000 ) ) ;
#84 = FACE_OUTER_BOUND ( 'NONE', #364, .T. ) ;
#85 = ORIENTED_EDGE ( 'NONE', *, *, #1225, .T. ) ;
#86 = LINE ( 'NONE', #850, #1356 ) ;
#87 = EDGE_CURVE ( 'NONE', #1335, #155, #847, .T. ) ;
#88 = AXIS2_PLACEMENT_3D ( 'NONE', #280, #916, #154 ) ;
#89 = PLANE ( 'NONE',  #1110 ) ;
#90 = CIRCLE ( 'NONE', #1158, 1.399999999999999911 ) ;
#91 = AXIS2_PLACEMENT_3D ( 'NONE', #16, #1097, #111 ) ;
#92 = APPLICATION_CONTEXT ( 'configuration controlled 3d designs of mechanical parts and assemblies' ) ;
#93 = FACE_OUTER_BOUND ( 'NONE', #575, .T. ) ;
#94 = LOCAL_TIME ( 17, 13, 8.000000000000000000, #642 ) ;
#95 = APPROVAL_PERSON_ORGANIZATION ( #1389, #33, #424 ) ;
#96 = DIRECTION ( 'NONE',  ( -0.000000000000000000, -0.000000000000000000, -1.000000000000000000 ) ) ;
#97 = ORIENTED_EDGE ( 'NONE', *, *, #423, .T. ) ;
#98 = DIRECTION ( 'NONE',  ( -3.097720492815727042E-17, -1.000000000000000000, 0.000000000000000000 ) ) ;
#99 = CARTESIAN_POINT ( 'NONE',  ( 12.65685424949232285, 43.86013679762406525, 0.5000000000000281997 ) ) ;
#100 = CARTESIAN_POINT ( 'NONE',  ( 3.156854249492324183, 205.7226499018873369, 0.4160251471689495051 ) ) ;
#101 = APPROVAL_STATUS ( 'not_yet_approved' ) ;
#102 = VERTEX_POINT ( 'NONE', #740 ) ;
#103 = DIRECTION ( 'NONE',  ( -1.000000000000000000, 0.000000000000000000, 0.000000000000000000 ) ) ;
#104 = ORIENTED_EDGE ( 'NONE', *, *, #824, .F. ) ;
#105 = LINE ( 'NONE', #845, #269 ) ;
#106 = LINE ( 'NONE', #100, #661 ) ;
#107 = EDGE_CURVE ( 'NONE', #237, #242, #856, .T. ) ;
#108 = PERSON_AND_ORGANIZATION ( #920, #273 ) ;
#109 = ADVANCED_FACE ( 'NONE', ( #1290 ), #196, .F. ) ;
#110 = ORIENTED_EDGE ( 'NONE', *, *, #630, .F. ) ;
#111 = DIRECTION ( 'NONE',  ( -1.000000000000000000, 0.000000000000000000, 0.000000000000000000 ) ) ;
#112 = VERTEX_POINT ( 'NONE', #944 ) ;
#113 = PLANE ( 'NONE',  #954 ) ;
#114 = VECTOR ( 'NONE', #403, 1000.000000000000000 ) ;
#115 = DIRECTION ( 'NONE',  ( -1.000000000000000000, 0.000000000000000000, 0.000000000000000000 ) ) ;
#116 = ORIENTED_EDGE ( 'NONE', *, *, #1129, .F. ) ;
#117 = CALENDAR_DATE ( 2023, 16, 1 ) ;
#118 =( GEOMETRIC_REPRESENTATION_CONTEXT ( 3 ) GLOBAL_UNCERTAINTY_ASSIGNED_CONTEXT ( ( #498 ) ) GLOBAL_UNIT_ASSIGNED_CONTEXT ( ( #1370, #727, #185 ) ) REPRESENTATION_CONTEXT ( 'NONE', 'WORKASPACE' ) );
#119 = ORIENTED_EDGE ( 'NONE', *, *, #765, .F. ) ;
#120 = DIRECTION ( 'NONE',  ( -4.694622399615547836E-17, -1.000000000000000000, 0.000000000000000000 ) ) ;
#121 = ORIENTED_EDGE ( 'NONE', *, *, #996, .F. ) ;
#122 = DIRECTION ( 'NONE',  ( -0.000000000000000000, -0.000000000000000000, -1.000000000000000000 ) ) ;
#123 = CARTESIAN_POINT ( 'NONE',  ( 3.499999999999999556, 1.942890293093933227E-16, 0.5000000000000281997 ) ) ;
#124 = ORIENTED_EDGE ( 'NONE', *, *, #230, .T. ) ;
#125 = ORIENTED_EDGE ( 'NONE', *, *, #784, .F. ) ;
#126 = CARTESIAN_POINT ( 'NONE',  ( 2.999999999999972022, 14.13397459621556429, 3.000000000000000000 ) ) ;
#127 = EDGE_CURVE ( 'NONE', #502, #1010, #1159, .T. ) ;
#128 = ORIENTED_EDGE ( 'NONE', *, *, #1176, .F. ) ;
#129 = DIRECTION ( 'NONE',  ( 0.000000000000000000, -1.000000000000000000, 0.000000000000000000 ) ) ;
#130 = EDGE_CURVE ( 'NONE', #335, #28, #542, .T. ) ;
#131 = PLANE ( 'NONE',  #1375 ) ;
#132 = PERSON_AND_ORGANIZATION_ROLE ( 'design_owner' ) ;
#133 = CARTESIAN_POINT ( 'NONE',  ( 2.999999999999971578, 2.395702683850767562E-14, 3.000000000000000000 ) ) ;
#134 = CARTESIAN_POINT ( 'NONE',  ( 3.001071613439876273E-13, 1.665334536937734811E-13, 0.000000000000000000 ) ) ;
#135 = DIRECTION ( 'NONE',  ( 0.7071067811865475727, 0.000000000000000000, -0.7071067811865475727 ) ) ;
#136 = EDGE_CURVE ( 'NONE', #773, #1197, #1271, .T. ) ;
#137 = FACE_OUTER_BOUND ( 'NONE', #1181, .T. ) ;
#138 = EDGE_LOOP ( 'NONE', ( #31, #388, #662, #104 ) ) ;
#139 = VECTOR ( 'NONE', #825, 1000.000000000000000 ) ;
#140 = AXIS2_PLACEMENT_3D ( 'NONE', #308, #406, #414 ) ;
#141 = PLANE ( 'NONE',  #1003 ) ;
#142 = ORIENTED_EDGE ( 'NONE', *, *, #804, .T. ) ;
#143 = DIRECTION ( 'NONE',  ( -1.000000000000000000, 0.000000000000000000, 0.000000000000000000 ) ) ;
#144 = DIRECTION ( 'NONE',  ( 0.6947465906068663877, -0.1861567878973810763, 0.6947465906068662767 ) ) ;
#145 = ORIENTED_EDGE ( 'NONE', *, *, #277, .T. ) ;
#146 = DIRECTION ( 'NONE',  ( 0.000000000000000000, 1.000000000000000000, 0.000000000000000000 ) ) ;
#147 = DIRECTION ( 'NONE',  ( -0.8660254037844380415, -0.5000000000000009992, 0.000000000000000000 ) ) ;
#148 = CARTESIAN_POINT ( 'NONE',  ( 85.30011940658349090, 49.24804690129827378, 3.000000000000000000 ) ) ;
#149 = ORIENTED_EDGE ( 'NONE', *, *, #1071, .T. ) ;
#150 = EDGE_CURVE ( 'NONE', #773, #170, #1164, .T. ) ;
#151 = FACE_OUTER_BOUND ( 'NONE', #931, .T. ) ;
#152 = CC_DESIGN_PERSON_AND_ORGANIZATION_ASSIGNMENT ( #213, #132, ( #753 ) ) ;
#153 = FACE_OUTER_BOUND ( 'NONE', #1296, .T. ) ;
#154 = DIRECTION ( 'NONE',  ( 0.7071067811865474617, 0.000000000000000000, -0.7071067811865474617 ) ) ;
#155 = VERTEX_POINT ( 'NONE', #625 ) ;
#156 = ORIENTED_EDGE ( 'NONE', *, *, #1157, .T. ) ;
#157 = DIRECTION ( 'NONE',  ( 0.000000000000000000, 0.000000000000000000, -1.000000000000000000 ) ) ;
#158 = DIRECTION ( 'NONE',  ( 0.4999999999999947820, 0.8660254037844417052, 0.000000000000000000 ) ) ;
#159 = AXIS2_PLACEMENT_3D ( 'NONE', #735, #955, #721 ) ;
#160 = CARTESIAN_POINT ( 'NONE',  ( -3.870190528383105288, 2.234455543377433795, 3.000000000000000000 ) ) ;
#161 = EDGE_LOOP ( 'NONE', ( #600, #559, #1371, #681, #1066, #1212, #720, #496, #208, #149, #21, #1096 ) ) ;
#162 = LINE ( 'NONE', #250, #431 ) ;
#163 = ORIENTED_EDGE ( 'NONE', *, *, #696, .T. ) ;
#164 = FACE_OUTER_BOUND ( 'NONE', #1106, .T. ) ;
#165 = ADVANCED_FACE ( 'NONE', ( #416 ), #305, .F. ) ;
#166 = CARTESIAN_POINT ( 'NONE',  ( 13.15685424949235127, 1.665334536937734811E-13, 3.000000000000000000 ) ) ;
#167 = ADVANCED_FACE ( 'NONE', ( #672 ), #241, .T. ) ;
#168 = ORIENTED_EDGE ( 'NONE', *, *, #286, .F. ) ;
#169 = LINE ( 'NONE', #606, #433 ) ;
#170 = VERTEX_POINT ( 'NONE', #447 ) ;
#171 = DIRECTION ( 'NONE',  ( 0.7071067811865474617, 0.7071067811865474617, 0.000000000000000000 ) ) ;
#172 = EDGE_CURVE ( 'NONE', #155, #1318, #557, .T. ) ;
#173 = PLANE ( 'NONE',  #523 ) ;
#174 = VERTEX_POINT ( 'NONE', #880 ) ;
#175 = CARTESIAN_POINT ( 'NONE',  ( 18.65685424949232285, 177.2775681356645805, 0.5000000000000281997 ) ) ;
#176 = VECTOR ( 'NONE', #891, 1000.000000000000000 ) ;
#177 = VERTEX_POINT ( 'NONE', #440 ) ;
#178 = LINE ( 'NONE', #298, #665 ) ;
#179 = VECTOR ( 'NONE', #555, 1000.000000000000000 ) ;
#180 = VECTOR ( 'NONE', #628, 1000.000000000000114 ) ;
#181 = LINE ( 'NONE', #732, #570 ) ;
#182 = VECTOR ( 'NONE', #1017, 1000.000000000000000 ) ;
#183 = DIRECTION ( 'NONE',  ( 0.6947465906068664987, -0.1861567878973811041, -0.6947465906068661656 ) ) ;
#184 = EDGE_CURVE ( 'NONE', #112, #611, #764, .T. ) ;
#185 =( NAMED_UNIT ( * ) SI_UNIT ( $, .STERADIAN. ) SOLID_ANGLE_UNIT ( ) );
#186 = ORIENTED_EDGE ( 'NONE', *, *, #807, .T. ) ;
#187 = CARTESIAN_POINT ( 'NONE',  ( -2.999999999999971134, 1.667793100341922939E-13, 3.000000000000000000 ) ) ;
#188 = DIRECTION ( 'NONE',  ( 0.4999999999999946709, 0.8660254037844418162, 0.000000000000000000 ) ) ;
#189 = DIRECTION ( 'NONE',  ( 0.000000000000000000, -1.000000000000000000, 0.000000000000000000 ) ) ;
#190 = ADVANCED_FACE ( 'NONE', ( #233 ), #357, .F. ) ;
#191 = DIRECTION ( 'NONE',  ( 0.6947465906068654995, 0.1861567878973863777, 0.6947465906068658326 ) ) ;
#192 = VERTEX_POINT ( 'NONE', #1313 ) ;
#193 = DIRECTION ( 'NONE',  ( 8.195211347292487827E-17, 1.000000000000000000, 0.000000000000000000 ) ) ;
#194 = EDGE_CURVE ( 'NONE', #492, #1223, #330, .T. ) ;
#195 = CARTESIAN_POINT ( 'NONE',  ( 3.001071613439876273E-13, 1.665334536937734811E-13, 0.000000000000000000 ) ) ;
#196 = PLANE ( 'NONE',  #1249 ) ;
#197 = DIRECTION ( 'NONE',  ( 3.906161949405150877E-17, 0.8320502943378437211, 0.5547001962252291474 ) ) ;
#198 = ORIENTED_EDGE ( 'NONE', *, *, #1013, .T. ) ;
#199 = FACE_OUTER_BOUND ( 'NONE', #161, .T. ) ;
#200 = VECTOR ( 'NONE', #712, 1000.000000000000114 ) ;
#201 = DIRECTION ( 'NONE',  ( -0.5000000000000009992, 0.8660254037844380415, 0.000000000000000000 ) ) ;
#202 = AXIS2_PLACEMENT_3D ( 'NONE', #1322, #777, #245 ) ;
#203 = AXIS2_PLACEMENT_3D ( 'NONE', #1221, #1248, #913 ) ;
#204 = DIRECTION ( 'NONE',  ( 0.000000000000000000, -0.000000000000000000, -1.000000000000000000 ) ) ;
#205 = VECTOR ( 'NONE', #473, 1000.000000000000000 ) ;
#206 = ORIENTED_EDGE ( 'NONE', *, *, #417, .F. ) ;
#207 = LINE ( 'NONE', #885, #1113 ) ;
#208 = ORIENTED_EDGE ( 'NONE', *, *, #824, .T. ) ;
#209 = FACE_OUTER_BOUND ( 'NONE', #849, .T. ) ;
#210 = EDGE_CURVE ( 'NONE', #585, #673, #666, .T. ) ;
#211 = CARTESIAN_POINT ( 'NONE',  ( 3.656854249492342390, 1.663617781950555452E-13, 3.000000000000000000 ) ) ;
#212 = ADVANCED_FACE ( 'NONE', ( #137 ), #218, .F. ) ;
#213 = PERSON_AND_ORGANIZATION ( #920, #273 ) ;
#214 = VERTEX_POINT ( 'NONE', #679 ) ;
#215 = DIRECTION ( 'NONE',  ( -0.7071067811865474617, 3.360558608890240355E-14, 0.7071067811865474617 ) ) ;
#216 = EDGE_LOOP ( 'NONE', ( #872, #1098, #785, #1234 ) ) ;
#217 = CARTESIAN_POINT ( 'NONE',  ( 18.65685424949232285, 40.25244164303732219, 0.5000000000000281997 ) ) ;
#218 = PLANE ( 'NONE',  #404 ) ;
#219 = ORIENTED_EDGE ( 'NONE', *, *, #466, .F. ) ;
#220 = PERSON_AND_ORGANIZATION_ROLE ( 'creator' ) ;
#221 = EDGE_LOOP ( 'NONE', ( #186, #142, #168, #37 ) ) ;
#222 = CARTESIAN_POINT ( 'NONE',  ( 3.001071613439876273E-13, 1.665334536937734811E-13, 0.5000000000000281997 ) ) ;
#223 = LINE ( 'NONE', #770, #455 ) ;
#224 = VECTOR ( 'NONE', #1105, 1000.000000000000114 ) ;
#225 = DIRECTION ( 'NONE',  ( 0.000000000000000000, -0.8320502943378437211, -0.5547001962252291474 ) ) ;
#226 = VECTOR ( 'NONE', #81, 1000.000000000000000 ) ;
#227 = PERSON_AND_ORGANIZATION_ROLE ( 'creator' ) ;
#228 = ORIENTED_EDGE ( 'NONE', *, *, #966, .T. ) ;
#229 = PLANE ( 'NONE',  #1317 ) ;
#230 = EDGE_CURVE ( 'NONE', #177, #278, #1108, .T. ) ;
#231 = VERTEX_POINT ( 'NONE', #1226 ) ;
#232 = CARTESIAN_POINT ( 'NONE',  ( 3.001071613439876273E-13, 1.665334536937734811E-13, 2.499999999999987566 ) ) ;
#233 = FACE_OUTER_BOUND ( 'NONE', #1117, .T. ) ;
#234 = EDGE_LOOP ( 'NONE', ( #853, #428, #261, #1120 ) ) ;
#235 = ADVANCED_FACE ( 'NONE', ( #571 ), #131, .T. ) ;
#236 = APPLICATION_CONTEXT ( 'configuration controlled 3d designs of mechanical parts and assemblies' ) ;
#237 = VERTEX_POINT ( 'NONE', #340 ) ;
#238 = CARTESIAN_POINT ( 'NONE',  ( 7.408522337646453515, 45.26642309501372097, -2.748331911845897757 ) ) ;
#239 = ORIENTED_EDGE ( 'NONE', *, *, #719, .T. ) ;
#240 = CARTESIAN_POINT ( 'NONE',  ( 18.65685424949232285, 40.25244164303732219, 3.000000000000000000 ) ) ;
#241 = PLANE ( 'NONE',  #951 ) ;
#242 = VERTEX_POINT ( 'NONE', #780 ) ;
#243 = EDGE_LOOP ( 'NONE', ( #1253, #1161, #121, #320 ) ) ;
#244 = CARTESIAN_POINT ( 'NONE',  ( 9.656854249492294429, 209.0000000000000000, 3.000000000000000000 ) ) ;
#245 = DIRECTION ( 'NONE',  ( 1.000000000000000000, 0.000000000000000000, 0.000000000000000000 ) ) ;
#246 = CARTESIAN_POINT ( 'NONE',  ( 12.65685424949232285, 43.86013679762406525, 0.5000000000000281997 ) ) ;
#247 = EDGE_LOOP ( 'NONE', ( #572, #1199, #1205, #124 ) ) ;
#248 = CIRCLE ( 'NONE', #706, 2.999999999999971578 ) ;
#249 = VECTOR ( 'NONE', #270, 1000.000000000000000 ) ;
#250 = CARTESIAN_POINT ( 'NONE',  ( 10.15685424949232285, 206.0000000000000000, 0.5000000000000281997 ) ) ;
#251 = VECTOR ( 'NONE', #1279, 1000.000000000000000 ) ;
#252 = LINE ( 'NONE', #693, #430 ) ;
#253 = EDGE_CURVE ( 'NONE', #327, #48, #989, .T. ) ;
#254 = PLANE ( 'NONE',  #88 ) ;
#255 = ORIENTED_EDGE ( 'NONE', *, *, #678, .F. ) ;
#256 = ADVANCED_FACE ( 'NONE', ( #687 ), #1211, .T. ) ;
#257 = CARTESIAN_POINT ( 'NONE',  ( 3.001071613439876273E-13, 1.665334536937734811E-13, 2.499999999999987566 ) ) ;
#258 = ORIENTED_EDGE ( 'NONE', *, *, #136, .T. ) ;
#259 = DIRECTION ( 'NONE',  ( -0.5773502691896257311, 0.5773502691896257311, 0.5773502691896257311 ) ) ;
#260 = CARTESIAN_POINT ( 'NONE',  ( 10.15685424949232285, 192.0000000000000000, 2.499999999999972022 ) ) ;
#261 = ORIENTED_EDGE ( 'NONE', *, *, #1133, .T. ) ;
#262 = DIRECTION ( 'NONE',  ( 0.6947465906068657215, 0.1861567878973862389, -0.6947465906068657215 ) ) ;
#263 = ORIENTED_EDGE ( 'NONE', *, *, #741, .F. ) ;
#264 = DIRECTION ( 'NONE',  ( -0.000000000000000000, -0.000000000000000000, -1.000000000000000000 ) ) ;
#265 = FACE_OUTER_BOUND ( 'NONE', #921, .T. ) ;
#266 = ORIENTED_EDGE ( 'NONE', *, *, #1240, .T. ) ;
#267 = VECTOR ( 'NONE', #183, 1000.000000000000000 ) ;
#268 = EDGE_CURVE ( 'NONE', #1227, #615, #816, .T. ) ;
#269 = VECTOR ( 'NONE', #304, 1000.000000000000000 ) ;
#270 = DIRECTION ( 'NONE',  ( 0.000000000000000000, 0.000000000000000000, -1.000000000000000000 ) ) ;
#271 = VECTOR ( 'NONE', #1049, 1000.000000000000000 ) ;
#272 = CARTESIAN_POINT ( 'NONE',  ( -2.999999999999671374, -2.352650860291993336E-16, 3.000000000000000000 ) ) ;
#273 = ORGANIZATION ( 'UNSPECIFIED', 'UNSPECIFIED', '' ) ;
#274 = EDGE_CURVE ( 'NONE', #1197, #1380, #1004, .T. ) ;
#275 = DIRECTION ( 'NONE',  ( -1.000000000000000000, 0.000000000000000000, 0.000000000000000000 ) ) ;
#276 = CARTESIAN_POINT ( 'NONE',  ( 3.156854249492323294, 190.5243556529821376, 2.499999999999972022 ) ) ;
#277 = EDGE_CURVE ( 'NONE', #396, #327, #897, .T. ) ;
#278 = VERTEX_POINT ( 'NONE', #1218 ) ;
#279 = LINE ( 'NONE', #41, #1023 ) ;
#280 = CARTESIAN_POINT ( 'NONE',  ( 9.656854249492294429, 209.0000000000000000, 2.499999999999972022 ) ) ;
#281 = PLANE ( 'NONE',  #339 ) ;
#282 = CYLINDRICAL_SURFACE ( 'NONE', #481, 1.399999999999999911 ) ;
#283 = ORIENTED_EDGE ( 'NONE', *, *, #789, .F. ) ;
#284 = PLANE ( 'NONE',  #1340 ) ;
#285 = FACE_OUTER_BOUND ( 'NONE', #247, .T. ) ;
#286 = EDGE_CURVE ( 'NONE', #278, #715, #997, .T. ) ;
#287 = ORIENTED_EDGE ( 'NONE', *, *, #51, .F. ) ;
#288 = ORIENTED_EDGE ( 'NONE', *, *, #655, .T. ) ;
#289 = DIRECTION ( 'NONE',  ( -0.000000000000000000, 0.000000000000000000, -1.000000000000000000 ) ) ;
#290 = VECTOR ( 'NONE', #562, 1000.000000000000114 ) ;
#291 = VECTOR ( 'NONE', #650, 999.9999999999998863 ) ;
#292 = PLANE ( 'NONE',  #1135 ) ;
#293 = CC_DESIGN_APPROVAL ( #33, ( #617 ) ) ;
#294 = EDGE_CURVE ( 'NONE', #1123, #396, #604, .T. ) ;
#295 = CARTESIAN_POINT ( 'NONE',  ( 12.16148031237914573, 205.2416602465291646, 2.504626062886850413 ) ) ;
#296 = ADVANCED_FACE ( 'NONE', ( #370 ), #254, .T. ) ;
#297 = ORIENTED_EDGE ( 'NONE', *, *, #1133, .F. ) ;
#298 = CARTESIAN_POINT ( 'NONE',  ( 10.15685424949232996, 192.0000000000000000, 0.5000000000000278666 ) ) ;
#299 = DIRECTION ( 'NONE',  ( 0.000000000000000000, 0.000000000000000000, 1.000000000000000000 ) ) ;
#300 = PLANE ( 'NONE',  #906 ) ;
#301 = DIRECTION ( 'NONE',  ( -0.7071067811865477948, 8.659560562354936556E-17, 0.7071067811865473507 ) ) ;
#302 = ORIENTED_EDGE ( 'NONE', *, *, #400, .F. ) ;
#303 = DIRECTION ( 'NONE',  ( 0.000000000000000000, 0.7071067811865474617, -0.7071067811865474617 ) ) ;
#304 = DIRECTION ( 'NONE',  ( -0.000000000000000000, -0.000000000000000000, -1.000000000000000000 ) ) ;
#305 = PLANE ( 'NONE',  #1289 ) ;
#306 = EDGE_CURVE ( 'NONE', #214, #72, #382, .T. ) ;
#307 = EDGE_LOOP ( 'NONE', ( #377, #670, #833, #1243 ) ) ;
#308 = CARTESIAN_POINT ( 'NONE',  ( 12.65685424949232285, 174.0698729810778502, 0.5000000000000281997 ) ) ;
#309 = VECTOR ( 'NONE', #1201, 1000.000000000000114 ) ;
#310 = ORIENTED_EDGE ( 'NONE', *, *, #384, .F. ) ;
#311 = DIRECTION ( 'NONE',  ( 0.000000000000000000, 1.000000000000000000, 0.000000000000000000 ) ) ;
#312 = ADVANCED_FACE ( 'NONE', ( #265 ), #581, .F. ) ;
#313 = VECTOR ( 'NONE', #495, 1000.000000000000000 ) ;
#314 = AXIS2_PLACEMENT_3D ( 'NONE', #494, #580, #928 ) ;
#315 = DIRECTION ( 'NONE',  ( 0.5000000000000009992, -0.8660254037844380415, 0.000000000000000000 ) ) ;
#316 = CC_DESIGN_APPROVAL ( #448, ( #1204 ) ) ;
#317 = CALENDAR_DATE ( 2023, 16, 1 ) ;
#318 = ORIENTED_EDGE ( 'NONE', *, *, #1028, .F. ) ;
#319 = LINE ( 'NONE', #1103, #50 ) ;
#320 = ORIENTED_EDGE ( 'NONE', *, *, #277, .F. ) ;
#321 = CYLINDRICAL_SURFACE ( 'NONE', #778, 1.399999999999999911 ) ;
#322 = DIRECTION ( 'NONE',  ( -3.097720492815727042E-17, -1.000000000000000000, 0.000000000000000000 ) ) ;
#323 = ORIENTED_EDGE ( 'NONE', *, *, #1176, .T. ) ;
#324 = DATE_TIME_ROLE ( 'creation_date' ) ;
#325 = VERTEX_POINT ( 'NONE', #1021 ) ;
#326 = LINE ( 'NONE', #669, #754 ) ;
#327 = VERTEX_POINT ( 'NONE', #705 ) ;
#328 = LINE ( 'NONE', #1217, #290 ) ;
#329 = EDGE_CURVE ( 'NONE', #492, #1361, #1149, .T. ) ;
#330 = LINE ( 'NONE', #793, #749 ) ;
#331 = APPLICATION_PROTOCOL_DEFINITION ( 'international standard', 'config_control_design', 1994, #236 ) ;
#332 = ADVANCED_FACE ( 'NONE', ( #476 ), #1015, .F. ) ;
#333 = VERTEX_POINT ( 'NONE', #1238 ) ;
#334 = CARTESIAN_POINT ( 'NONE',  ( 9.656854249492294429, 191.8660254037844197, 3.000000000000000000 ) ) ;
#335 = VERTEX_POINT ( 'NONE', #260 ) ;
#336 = DIRECTION ( 'NONE',  ( -0.4999999999999948375, -0.8660254037844417052, 0.000000000000000000 ) ) ;
#337 = VECTOR ( 'NONE', #1347, 1000.000000000000000 ) ;
#338 = LOCAL_TIME ( 17, 13, 8.000000000000000000, #344 ) ;
#339 = AXIS2_PLACEMENT_3D ( 'NONE', #894, #1326, #1031 ) ;
#340 = CARTESIAN_POINT ( 'NONE',  ( 12.65685424949232285, 43.86013679762406525, 2.499999999999972022 ) ) ;
#341 = EDGE_CURVE ( 'NONE', #112, #214, #248, .T. ) ;
#342 = AXIS2_PLACEMENT_3D ( 'NONE', #716, #147, #374 ) ;
#343 = AXIS2_PLACEMENT_3D ( 'NONE', #426, #451, #752 ) ;
#344 = COORDINATED_UNIVERSAL_TIME_OFFSET ( 1, 0, .AHEAD. ) ;
#345 = VECTOR ( 'NONE', #791, 1000.000000000000114 ) ;
#346 = CC_DESIGN_PERSON_AND_ORGANIZATION_ASSIGNMENT ( #550, #220, ( #617 ) ) ;
#347 = EDGE_LOOP ( 'NONE', ( #163, #938, #40, #983 ) ) ;
#348 = LINE ( 'NONE', #768, #1320 ) ;
#349 = ORIENTED_EDGE ( 'NONE', *, *, #511, .F. ) ;
#350 = PLANE ( 'NONE',  #1251 ) ;
#351 = CARTESIAN_POINT ( 'NONE',  ( 3.001071613439876273E-13, 1.665334536937734811E-13, 2.499999999999972022 ) ) ;
#352 = ORIENTED_EDGE ( 'NONE', *, *, #150, .F. ) ;
#353 = EDGE_LOOP ( 'NONE', ( #761, #1342 ) ) ;
#354 = DIRECTION ( 'NONE',  ( 0.7071067811865477948, 0.000000000000000000, 0.7071067811865473507 ) ) ;
#355 = VERTEX_POINT ( 'NONE', #810 ) ;
#356 = DIRECTION ( 'NONE',  ( 0.000000000000000000, 0.000000000000000000, 1.000000000000000000 ) ) ;
#357 = PLANE ( 'NONE',  #1394 ) ;
#358 = ORIENTED_EDGE ( 'NONE', *, *, #1378, .T. ) ;
#359 = DIRECTION ( 'NONE',  ( 0.6123724356957972459, -0.3535533905932702337, -0.7071067811865470176 ) ) ;
#360 = ADVANCED_FACE ( 'NONE', ( #491 ), #699, .F. ) ;
#361 = DIRECTION ( 'NONE',  ( 0.000000000000000000, 0.000000000000000000, 1.000000000000000000 ) ) ;
#362 = EDGE_CURVE ( 'NONE', #788, #9, #1042, .T. ) ;
#363 = DIRECTION ( 'NONE',  ( -0.000000000000000000, -0.000000000000000000, -1.000000000000000000 ) ) ;
#364 = EDGE_LOOP ( 'NONE', ( #1001, #1344, #806, #7 ) ) ;
#365 = AXIS2_PLACEMENT_3D ( 'NONE', #195, #1175, #1076 ) ;
#366 = VECTOR ( 'NONE', #264, 1000.000000000000000 ) ;
#367 = DIRECTION ( 'NONE',  ( 0.000000000000000000, 0.000000000000000000, 1.000000000000000000 ) ) ;
#368 = VECTOR ( 'NONE', #714, 999.9999999999998863 ) ;
#369 = DIRECTION ( 'NONE',  ( -1.000000000000000000, 0.000000000000000000, 0.000000000000000000 ) ) ;
#370 = FACE_OUTER_BOUND ( 'NONE', #918, .T. ) ;
#371 = ORIENTED_EDGE ( 'NONE', *, *, #306, .T. ) ;
#372 = LINE ( 'NONE', #34, #71 ) ;
#373 = EDGE_LOOP ( 'NONE', ( #713, #1145, #1259, #622 ) ) ;
#374 = DIRECTION ( 'NONE',  ( 0.5000000000000009992, -0.8660254037844380415, 0.000000000000000000 ) ) ;
#375 = CARTESIAN_POINT ( 'NONE',  ( 3.001071613439876273E-13, 1.665334536937734811E-13, 0.000000000000000000 ) ) ;
#376 = EDGE_CURVE ( 'NONE', #863, #355, #923, .T. ) ;
#377 = ORIENTED_EDGE ( 'NONE', *, *, #534, .F. ) ;
#378 = ADVANCED_FACE ( 'NONE', ( #718 ), #173, .F. ) ;
#379 = CARTESIAN_POINT ( 'NONE',  ( 3.500000000000000000, 14.00000000000000000, 3.000000000000000000 ) ) ;
#380 = ORIENTED_EDGE ( 'NONE', *, *, #675, .T. ) ;
#381 = DIRECTION ( 'NONE',  ( 4.694622399615547836E-17, 1.000000000000000000, 0.000000000000000000 ) ) ;
#382 = LINE ( 'NONE', #694, #337 ) ;
#383 = LINE ( 'NONE', #819, #884 ) ;
#384 = EDGE_CURVE ( 'NONE', #102, #986, #599, .T. ) ;
#385 = AXIS2_PLACEMENT_3D ( 'NONE', #799, #909, #1136 ) ;
#386 = AXIS2_PLACEMENT_3D ( 'NONE', #1132, #803, #158 ) ;
#387 = DIRECTION ( 'NONE',  ( -1.000000000000000000, 0.000000000000000000, 0.000000000000000000 ) ) ;
#388 = ORIENTED_EDGE ( 'NONE', *, *, #1240, .F. ) ;
#389 = LINE ( 'NONE', #598, #1043 ) ;
#390 = CARTESIAN_POINT ( 'NONE',  ( 13.15685424949235127, 174.0698729810778502, 0.000000000000000000 ) ) ;
#391 = EDGE_LOOP ( 'NONE', ( #1024, #302, #452, #545 ) ) ;
#392 = DIRECTION ( 'NONE',  ( 0.5000000000000009992, -0.8660254037844380415, 0.000000000000000000 ) ) ;
#393 = ORIENTED_EDGE ( 'NONE', *, *, #1193, .T. ) ;
#394 = CARTESIAN_POINT ( 'NONE',  ( 0.6791898815966603831, 14.75583379322766753, -3.679189881596627743 ) ) ;
#395 = DIRECTION ( 'NONE',  ( -1.000000000000000000, 0.000000000000000000, 0.000000000000000000 ) ) ;
#396 = VERTEX_POINT ( 'NONE', #42 ) ;
#397 = CARTESIAN_POINT ( 'NONE',  ( 3.156854249492324183, 205.8486121811339444, 0.5000000000000223155 ) ) ;
#398 = ORIENTED_EDGE ( 'NONE', *, *, #82, .F. ) ;
#399 = DIRECTION ( 'NONE',  ( 0.6947465906068657215, 0.1861567878973860168, 0.6947465906068657215 ) ) ;
#400 = EDGE_CURVE ( 'NONE', #1088, #668, #1036, .T. ) ;
#401 = CARTESIAN_POINT ( 'NONE',  ( 3.656854249492352160, 209.0000000000000000, 3.000000000000000000 ) ) ;
#402 = EDGE_CURVE ( 'NONE', #602, #962, #57, .T. ) ;
#403 = DIRECTION ( 'NONE',  ( 0.000000000000000000, -1.000000000000000000, 0.000000000000000000 ) ) ;
#404 = AXIS2_PLACEMENT_3D ( 'NONE', #13, #1094, #653 ) ;
#405 = EDGE_LOOP ( 'NONE', ( #794, #597, #435, #1220 ) ) ;
#406 = DIRECTION ( 'NONE',  ( -0.6123724356957942483, -0.3535533905932742305, -0.7071067811865476838 ) ) ;
#407 = VECTOR ( 'NONE', #1368, 1000.000000000000114 ) ;
#408 = VECTOR ( 'NONE', #443, 1000.000000000000000 ) ;
#409 = CARTESIAN_POINT ( 'NONE',  ( 18.65685424949232285, 40.25244164303732219, 2.499999999999972022 ) ) ;
#410 = VECTOR ( 'NONE', #96, 1000.000000000000000 ) ;
#411 = DIRECTION ( 'NONE',  ( -3.906161949405150877E-17, -0.8320502943378436100, -0.5547001962252291474 ) ) ;
#412 = LINE ( 'NONE', #934, #368 ) ;
#413 = ORIENTED_EDGE ( 'NONE', *, *, #184, .F. ) ;
#414 = DIRECTION ( 'NONE',  ( -0.5000000000000006661, 0.8660254037844382635, 0.000000000000000000 ) ) ;
#415 = FACE_OUTER_BOUND ( 'NONE', #1081, .T. ) ;
#416 = FACE_OUTER_BOUND ( 'NONE', #462, .T. ) ;
#417 = EDGE_CURVE ( 'NONE', #946, #25, #505, .T. ) ;
#418 = ADVANCED_FACE ( 'NONE', ( #70 ), #478, .F. ) ;
#419 = ORIENTED_EDGE ( 'NONE', *, *, #511, .T. ) ;
#420 = DIRECTION ( 'NONE',  ( 0.7071067811865475727, -5.794889516927461042E-17, -0.7071067811865475727 ) ) ;
#421 = CARTESIAN_POINT ( 'NONE',  ( 3.500000000000000000, 14.00000000000000000, 0.5000000000000281997 ) ) ;
#422 = LINE ( 'NONE', #535, #267 ) ;
#423 = EDGE_CURVE ( 'NONE', #1287, #237, #181, .T. ) ;
#424 = APPROVAL_ROLE ( '' ) ;
#425 = ORIENTED_EDGE ( 'NONE', *, *, #717, .T. ) ;
#426 = CARTESIAN_POINT ( 'NONE',  ( 3.001071613439876273E-13, 1.665334536937734811E-13, 0.5000000000000281997 ) ) ;
#427 = AXIS2_PLACEMENT_3D ( 'NONE', #351, #901, #1083 ) ;
#428 = ORIENTED_EDGE ( 'NONE', *, *, #1172, .F. ) ;
#429 = CARTESIAN_POINT ( 'NONE',  ( 10.15685424949232285, 208.4999999999999716, 3.000000000000000000 ) ) ;
#430 = VECTOR ( 'NONE', #381, 1000.000000000000000 ) ;
#431 = VECTOR ( 'NONE', #146, 1000.000000000000000 ) ;
#432 = DIRECTION ( 'NONE',  ( 0.000000000000000000, 0.000000000000000000, 1.000000000000000000 ) ) ;
#433 = VECTOR ( 'NONE', #191, 1000.000000000000114 ) ;
#434 = APPROVAL_ROLE ( '' ) ;
#435 = ORIENTED_EDGE ( 'NONE', *, *, #1383, .F. ) ;
#436 = DIRECTION ( 'NONE',  ( 0.7071067811865475727, 0.000000000000000000, -0.7071067811865475727 ) ) ;
#437 = EDGE_CURVE ( 'NONE', #986, #1059, #1387, .T. ) ;
#438 = EDGE_LOOP ( 'NONE', ( #658, #1173, #538, #1022 ) ) ;
#439 = FACE_OUTER_BOUND ( 'NONE', #347, .T. ) ;
#440 = CARTESIAN_POINT ( 'NONE',  ( 3.499999999999999556, 1.942890293093933227E-16, 2.499999999999972022 ) ) ;
#441 = SHAPE_DEFINITION_REPRESENTATION ( #1397, #618 ) ;
#442 = ORIENTED_EDGE ( 'NONE', *, *, #988, .F. ) ;
#443 = DIRECTION ( 'NONE',  ( -4.694622399615547836E-17, -1.000000000000000000, 0.000000000000000000 ) ) ;
#444 = ORIENTED_EDGE ( 'NONE', *, *, #573, .F. ) ;
#445 = PLANE ( 'NONE',  #499 ) ;
#446 = EDGE_CURVE ( 'NONE', #1125, #1059, #629, .T. ) ;
#447 = CARTESIAN_POINT ( 'NONE',  ( 10.15685424949232285, 205.8486121811339444, 0.5000000000000281997 ) ) ;
#448 = APPROVAL ( #101, 'UNSPECIFIED' ) ;
#449 = CALENDAR_DATE ( 2023, 16, 1 ) ;
#450 = ORIENTED_EDGE ( 'NONE', *, *, #150, .T. ) ;
#451 = DIRECTION ( 'NONE',  ( -0.000000000000000000, -0.000000000000000000, 1.000000000000000000 ) ) ;
#452 = ORIENTED_EDGE ( 'NONE', *, *, #846, .F. ) ;
#453 = DIRECTION ( 'NONE',  ( 0.000000000000000000, 0.000000000000000000, 1.000000000000000000 ) ) ;
#454 = VECTOR ( 'NONE', #952, 1000.000000000000000 ) ;
#455 = VECTOR ( 'NONE', #1002, 1000.000000000000114 ) ;
#456 = DIRECTION ( 'NONE',  ( -0.000000000000000000, -0.000000000000000000, -1.000000000000000000 ) ) ;
#457 = ORIENTED_EDGE ( 'NONE', *, *, #1325, .F. ) ;
#458 = VECTOR ( 'NONE', #354, 999.9999999999998863 ) ;
#459 = AXIS2_PLACEMENT_3D ( 'NONE', #801, #367, #903 ) ;
#460 = CARTESIAN_POINT ( 'NONE',  ( 10.15685424949232285, 208.4999999999999716, 2.267591879244024611 ) ) ;
#461 = DIRECTION ( 'NONE',  ( 1.000000000000000000, 0.000000000000000000, 0.000000000000000000 ) ) ;
#462 = EDGE_LOOP ( 'NONE', ( #425, #43, #266, #554 ) ) ;
#463 = DIRECTION ( 'NONE',  ( 0.6947465906068664987, -0.1861567878973811041, 0.6947465906068661656 ) ) ;
#464 = CARTESIAN_POINT ( 'NONE',  ( 3.156854249492323294, 190.5243556529821376, 0.5000000000000281997 ) ) ;
#465 = ORIENTED_EDGE ( 'NONE', *, *, #1052, .T. ) ;
#466 = EDGE_CURVE ( 'NONE', #1073, #53, #1262, .T. ) ;
#467 = LINE ( 'NONE', #594, #1209 ) ;
#468 = EDGE_CURVE ( 'NONE', #898, #177, #1163, .T. ) ;
#469 = ORIENTED_EDGE ( 'NONE', *, *, #573, .T. ) ;
#470 = LINE ( 'NONE', #1142, #818 ) ;
#471 = DIRECTION ( 'NONE',  ( 1.000000000000000000, -4.694622399615547836E-17, 0.000000000000000000 ) ) ;
#472 = ORIENTED_EDGE ( 'NONE', *, *, #1263, .F. ) ;
#473 = DIRECTION ( 'NONE',  ( -0.000000000000000000, -0.000000000000000000, -1.000000000000000000 ) ) ;
#474 = ORIENTED_EDGE ( 'NONE', *, *, #127, .F. ) ;
#475 = CARTESIAN_POINT ( 'NONE',  ( -3.499999999999999112, -1.942890293093933227E-16, 0.5000000000000281997 ) ) ;
#476 = FACE_OUTER_BOUND ( 'NONE', #373, .T. ) ;
#477 = ORIENTED_EDGE ( 'NONE', *, *, #253, .F. ) ;
#478 = CONICAL_SURFACE ( 'NONE', #750, 1.899999999999957279, 0.7853981633974485010 ) ;
#479 = CIRCLE ( 'NONE', #343, 3.499999999999999556 ) ;
#480 = CARTESIAN_POINT ( 'NONE',  ( 13.27527262344574588, 205.3815816260465397, 3.936518745154501620 ) ) ;
#481 = AXIS2_PLACEMENT_3D ( 'NONE', #65, #621, #387 ) ;
#482 = CARTESIAN_POINT ( 'NONE',  ( -3.499999999999999112, -1.942890293093933227E-16, 0.5000000000000281997 ) ) ;
#483 = EDGE_CURVE ( 'NONE', #611, #673, #1373, .T. ) ;
#484 = CARTESIAN_POINT ( 'NONE',  ( 3.156854249492323294, 190.5243556529821376, 3.000000000000000000 ) ) ;
#485 = ORIENTED_EDGE ( 'NONE', *, *, #341, .T. ) ;
#486 = ADVANCED_FACE ( 'NONE', ( #1050 ), #646, .T. ) ;
#487 = EDGE_LOOP ( 'NONE', ( #813, #419, #323, #645 ) ) ;
#488 = CARTESIAN_POINT ( 'NONE',  ( 85.30011940658350511, 49.24804690129828799, 3.000000000000000000 ) ) ;
#489 = DIRECTION ( 'NONE',  ( 0.7071067811865474617, 0.000000000000000000, 0.7071067811865474617 ) ) ;
#490 = EDGE_CURVE ( 'NONE', #177, #611, #640, .T. ) ;
#491 = FACE_OUTER_BOUND ( 'NONE', #515, .T. ) ;
#492 = VERTEX_POINT ( 'NONE', #937 ) ;
#493 = EDGE_LOOP ( 'NONE', ( #1150, #1075, #283, #591 ) ) ;
#494 = CARTESIAN_POINT ( 'NONE',  ( 12.65685424949232285, 43.86013679762406525, 3.000000000000000000 ) ) ;
#495 = DIRECTION ( 'NONE',  ( 0.000000000000000000, 1.000000000000000000, 0.000000000000000000 ) ) ;
#496 = ORIENTED_EDGE ( 'NONE', *, *, #741, .T. ) ;
#497 = AXIS2_PLACEMENT_3D ( 'NONE', #1041, #929, #805 ) ;
#498 = UNCERTAINTY_MEASURE_WITH_UNIT (LENGTH_MEASURE( 1.000000000000000082E-05 ), #1370, 'distance_accuracy_value', 'NONE');
#499 = AXIS2_PLACEMENT_3D ( 'NONE', #987, #865, #1200 ) ;
#500 = CARTESIAN_POINT ( 'NONE',  ( -3.499999999999997780, 15.87564434701785032, 2.499999999999973355 ) ) ;
#501 = AXIS2_PLACEMENT_3D ( 'NONE', #80, #936, #193 ) ;
#502 = VERTEX_POINT ( 'NONE', #1268 ) ;
#503 = PLANE ( 'NONE',  #1090 ) ;
#504 = VECTOR ( 'NONE', #808, 1000.000000000000114 ) ;
#505 = LINE ( 'NONE', #390, #139 ) ;
#506 = ORIENTED_EDGE ( 'NONE', *, *, #1284, .T. ) ;
#507 = ADVANCED_FACE ( 'NONE', ( #285 ), #1056, .T. ) ;
#508 = CARTESIAN_POINT ( 'NONE',  ( 1.900000000000257483, 1.667661365856114804E-13, 0.000000000000000000 ) ) ;
#509 = ORIENTED_EDGE ( 'NONE', *, *, #64, .F. ) ;
#510 = CARTESIAN_POINT ( 'NONE',  ( 3.156854249492323294, 190.5243556529821376, 0.5000000000000281997 ) ) ;
#511 = EDGE_CURVE ( 'NONE', #531, #898, #1364, .T. ) ;
#512 = DIRECTION ( 'NONE',  ( -0.6123724356957940262, -0.3535533905932744525, -0.7071067811865475727 ) ) ;
#513 = CARTESIAN_POINT ( 'NONE',  ( 12.65685424949232285, 43.86013679762406525, 2.499999999999972022 ) ) ;
#514 = CARTESIAN_POINT ( 'NONE',  ( 10.15685424949232285, 208.4999999999999716, 2.499999999999972022 ) ) ;
#515 = EDGE_LOOP ( 'NONE', ( #1348, #998, #1303, #680 ) ) ;
#516 = DIRECTION ( 'NONE',  ( 0.000000000000000000, 1.000000000000000000, 0.000000000000000000 ) ) ;
#517 = LINE ( 'NONE', #724, #47 ) ;
#518 = DIRECTION ( 'NONE',  ( 0.000000000000000000, 0.8320502943378436100, 0.5547001962252291474 ) ) ;
#519 = FACE_OUTER_BOUND ( 'NONE', #1239, .T. ) ;
#520 = VECTOR ( 'NONE', #453, 1000.000000000000000 ) ;
#521 = EDGE_LOOP ( 'NONE', ( #695, #1266, #924, #258, #1294, #751, #935, #506, #485, #371, #1274, #969 ) ) ;
#522 = CARTESIAN_POINT ( 'NONE',  ( 13.08986695138457002, 43.61013679762405104, 0.000000000000000000 ) ) ;
#523 = AXIS2_PLACEMENT_3D ( 'NONE', #160, #588, #1144 ) ;
#524 = CIRCLE ( 'NONE', #91, 1.399999999999999911 ) ;
#525 = DIRECTION ( 'NONE',  ( -0.000000000000000000, -0.000000000000000000, -1.000000000000000000 ) ) ;
#526 = EDGE_CURVE ( 'NONE', #1079, #962, #517, .T. ) ;
#527 = APPROVAL_PERSON_ORGANIZATION ( #1196, #448, #766 ) ;
#528 = CARTESIAN_POINT ( 'NONE',  ( 13.15685424949235127, 174.2038475772934021, 0.000000000000000000 ) ) ;
#529 = ADVANCED_FACE ( 'NONE', ( #209 ), #292, .F. ) ;
#530 = PLANE ( 'NONE',  #1398 ) ;
#531 = VERTEX_POINT ( 'NONE', #409 ) ;
#532 = FACE_OUTER_BOUND ( 'NONE', #1191, .T. ) ;
#533 = DIRECTION ( 'NONE',  ( 0.4999999999999947820, 0.8660254037844417052, 0.000000000000000000 ) ) ;
#534 = EDGE_CURVE ( 'NONE', #237, #48, #105, .T. ) ;
#535 = CARTESIAN_POINT ( 'NONE',  ( 23.38010190323477744, 38.98685124856487505, -2.223247653742482122 ) ) ;
#536 = CC_DESIGN_PERSON_AND_ORGANIZATION_ASSIGNMENT ( #108, #967, ( #617 ) ) ;
#537 = PERSON_AND_ORGANIZATION ( #920, #273 ) ;
#538 = ORIENTED_EDGE ( 'NONE', *, *, #612, .F. ) ;
#539 = CARTESIAN_POINT ( 'NONE',  ( 3.156854249492323294, 190.5243556529821376, 2.499999999999972022 ) ) ;
#540 = ORIENTED_EDGE ( 'NONE', *, *, #948, .F. ) ;
#541 = DIRECTION ( 'NONE',  ( -0.000000000000000000, -0.000000000000000000, -1.000000000000000000 ) ) ;
#542 = LINE ( 'NONE', #837, #22 ) ;
#543 = APPROVAL_STATUS ( 'not_yet_approved' ) ;
#544 = EDGE_CURVE ( 'NONE', #1223, #773, #1068, .T. ) ;
#545 = ORIENTED_EDGE ( 'NONE', *, *, #107, .F. ) ;
#546 = CARTESIAN_POINT ( 'NONE',  ( -1.899999999999657074, 1.665334536937734811E-13, 0.000000000000000000 ) ) ;
#547 = DIRECTION ( 'NONE',  ( 0.000000000000000000, 0.000000000000000000, -1.000000000000000000 ) ) ;
#548 = CARTESIAN_POINT ( 'NONE',  ( 12.35549474256289848, 192.5891239445646193, 2.698640493070603608 ) ) ;
#549 = ORIENTED_EDGE ( 'NONE', *, *, #1284, .F. ) ;
#550 = PERSON_AND_ORGANIZATION ( #920, #273 ) ;
#551 = ADVANCED_FACE ( 'NONE', ( #415 ), #613, .F. ) ;
#552 = EDGE_LOOP ( 'NONE', ( #782, #255, #472, #74 ) ) ;
#553 = CARTESIAN_POINT ( 'NONE',  ( 13.15685424949234772, 174.2038475772934305, 3.000000000000000000 ) ) ;
#554 = ORIENTED_EDGE ( 'NONE', *, *, #194, .T. ) ;
#555 = DIRECTION ( 'NONE',  ( 0.6947465906068648334, -0.1861567878973922618, -0.6947465906068648334 ) ) ;
#556 = ADVANCED_FACE ( 'NONE', ( #619 ), #89, .F. ) ;
#557 = LINE ( 'NONE', #771, #309 ) ;
#558 = VERTEX_POINT ( 'NONE', #959 ) ;
#559 = ORIENTED_EDGE ( 'NONE', *, *, #882, .T. ) ;
#560 = LINE ( 'NONE', #984, #1207 ) ;
#561 = ORIENTED_EDGE ( 'NONE', *, *, #988, .T. ) ;
#562 = DIRECTION ( 'NONE',  ( 0.6947465906068657215, 0.1861567878973862389, -0.6947465906068657215 ) ) ;
#563 = CARTESIAN_POINT ( 'NONE',  ( 12.65685424949231752, 174.0698729810778502, 0.5000000000000281997 ) ) ;
#564 = ORIENTED_EDGE ( 'NONE', *, *, #87, .F. ) ;
#565 = DIRECTION ( 'NONE',  ( 0.7071067811865475727, -0.7071067811865475727, 0.000000000000000000 ) ) ;
#566 = ORIENTED_EDGE ( 'NONE', *, *, #468, .F. ) ;
#567 = CARTESIAN_POINT ( 'NONE',  ( 3.001071613439876273E-13, 1.665334536937734811E-13, 2.499999999999987566 ) ) ;
#568 = VECTOR ( 'NONE', #1102, 1000.000000000000000 ) ;
#569 = EDGE_CURVE ( 'NONE', #48, #946, #1282, .T. ) ;
#570 = VECTOR ( 'NONE', #533, 1000.000000000000114 ) ;
#571 = FACE_OUTER_BOUND ( 'NONE', #802, .T. ) ;
#572 = ORIENTED_EDGE ( 'NONE', *, *, #286, .T. ) ;
#573 = EDGE_CURVE ( 'NONE', #860, #1361, #223, .T. ) ;
#574 = CARTESIAN_POINT ( 'NONE',  ( -3.499999999999998668, 15.87564434701785387, 0.5000000000000281997 ) ) ;
#575 = EDGE_LOOP ( 'NONE', ( #767, #649, #957, #1280 ) ) ;
#576 = CARTESIAN_POINT ( 'NONE',  ( 3.156854249492324183, 209.0000000000000000, 2.000000000000001776 ) ) ;
#577 = DIRECTION ( 'NONE',  ( 0.000000000000000000, -1.000000000000000000, 0.000000000000000000 ) ) ;
#578 = ORIENTED_EDGE ( 'NONE', *, *, #882, .F. ) ;
#579 = LINE ( 'NONE', #710, #1092 ) ;
#580 = DIRECTION ( 'NONE',  ( 1.000000000000000000, 0.000000000000000000, 0.000000000000000000 ) ) ;
#581 = PLANE ( 'NONE',  #497 ) ;
#582 = ORIENTED_EDGE ( 'NONE', *, *, #1129, .T. ) ;
#583 = ADVANCED_FACE ( 'NONE', ( #1210 ), #445, .F. ) ;
#584 = DIRECTION ( 'NONE',  ( -0.4999999999999946709, -0.8660254037844418162, 0.000000000000000000 ) ) ;
#585 = VERTEX_POINT ( 'NONE', #1297 ) ;
#586 = DIRECTION ( 'NONE',  ( -0.000000000000000000, -0.000000000000000000, -1.000000000000000000 ) ) ;
#587 = ADVANCED_FACE ( 'NONE', ( #12 ), #350, .T. ) ;
#588 = DIRECTION ( 'NONE',  ( -0.6123724356957972459, 0.3535533905932702337, -0.7071067811865470176 ) ) ;
#589 = ORIENTED_EDGE ( 'NONE', *, *, #612, .T. ) ;
#590 = CLOSED_SHELL ( 'NONE', ( #418, #596, #626, #893, #1118, #507, #907, #1278, #684, #701, #109, #165, #190, #212, #821, #312, #1305, #1359, #637, #1261, #551, #583, #610, #378, #968, #332, #19, #556, #657, #529, #360, #296, #858, #79, #1202, #736, #167, #1030, #587, #1399, #1346, #256, #985, #904, #1160, #486, #235, #734, #1086, #940 ) ) ;
#591 = ORIENTED_EDGE ( 'NONE', *, *, #230, .F. ) ;
#592 = VECTOR ( 'NONE', #188, 999.9999999999998863 ) ;
#593 = VECTOR ( 'NONE', #10, 1000.000000000000000 ) ;
#594 = CARTESIAN_POINT ( 'NONE',  ( 10.15685424949232285, 206.0000000000000000, 0.000000000000000000 ) ) ;
#595 = AXIS2_PLACEMENT_3D ( 'NONE', #667, #648, #1315 ) ;
#596 = ADVANCED_FACE ( 'NONE', ( #663 ), #1291, .F. ) ;
#597 = ORIENTED_EDGE ( 'NONE', *, *, #1035, .F. ) ;
#598 = CARTESIAN_POINT ( 'NONE',  ( 10.15685424949232285, 192.0000000000000000, 3.000000000000000000 ) ) ;
#599 = LINE ( 'NONE', #1029, #886 ) ;
#600 = ORIENTED_EDGE ( 'NONE', *, *, #630, .T. ) ;
#601 = CARTESIAN_POINT ( 'NONE',  ( 18.65685424949232285, 40.25244164303732219, 2.499999999999972022 ) ) ;
#602 = VERTEX_POINT ( 'NONE', #217 ) ;
#603 = DIRECTION ( 'NONE',  ( -1.000000000000000000, 0.000000000000000000, 0.000000000000000000 ) ) ;
#604 = LINE ( 'NONE', #484, #953 ) ;
#605 = ORIENTED_EDGE ( 'NONE', *, *, #1328, .F. ) ;
#606 = CARTESIAN_POINT ( 'NONE',  ( -21.00132958739651201, 184.0511898032850979, -21.65818383688888105 ) ) ;
#607 = ORIENTED_EDGE ( 'NONE', *, *, #807, .F. ) ;
#608 = CARTESIAN_POINT ( 'NONE',  ( 3.156854249492324183, 208.4999999999999716, 2.499999999999972022 ) ) ;
#609 = CARTESIAN_POINT ( 'NONE',  ( -1.399999999999699929, 1.665334536937734811E-13, 3.000000000000000000 ) ) ;
#610 = ADVANCED_FACE ( 'NONE', ( #878 ), #1020, .T. ) ;
#611 = VERTEX_POINT ( 'NONE', #1393 ) ;
#612 = EDGE_CURVE ( 'NONE', #231, #602, #1312, .T. ) ;
#613 = CONICAL_SURFACE ( 'NONE', #365, 1.899999999999957279, 0.7853981633974485010 ) ;
#614 = CARTESIAN_POINT ( 'NONE',  ( -1.399999999999699929, 1.667049042456541002E-13, 2.499999999999987566 ) ) ;
#615 = VERTEX_POINT ( 'NONE', #1082 ) ;
#616 = CARTESIAN_POINT ( 'NONE',  ( 3.001071613439876273E-13, 1.665334536937734811E-13, 3.000000000000000000 ) ) ;
#617 = PRODUCT_DEFINITION_FORMATION_WITH_SPECIFIED_SOURCE ( 'ANY', '', #753, .NOT_KNOWN. ) ;
#618 = ADVANCED_BREP_SHAPE_REPRESENTATION ( 'MB_door_front_slider_top_L_v1', ( #747, #595 ), #118 ) ;
#619 = FACE_OUTER_BOUND ( 'NONE', #887, .T. ) ;
#620 = CARTESIAN_POINT ( 'NONE',  ( 12.65685424949232285, 43.86013679762406525, 0.5000000000000281997 ) ) ;
#621 = DIRECTION ( 'NONE',  ( -0.000000000000000000, -0.000000000000000000, -1.000000000000000000 ) ) ;
#622 = ORIENTED_EDGE ( 'NONE', *, *, #836, .F. ) ;
#623 = CARTESIAN_POINT ( 'NONE',  ( 3.499999999999999556, 1.942890293093933227E-16, 3.000000000000000000 ) ) ;
#624 = DIRECTION ( 'NONE',  ( -0.000000000000000000, -0.000000000000000000, -1.000000000000000000 ) ) ;
#625 = CARTESIAN_POINT ( 'NONE',  ( 1.400000000000300115, 1.667049042456541002E-13, 0.4999999999999570899 ) ) ;
#626 = ADVANCED_FACE ( 'NONE', ( #439 ), #321, .F. ) ;
#627 = ORIENTED_EDGE ( 'NONE', *, *, #1157, .F. ) ;
#628 = DIRECTION ( 'NONE',  ( 0.6947465906068647223, -0.1861567878973922618, -0.6947465906068647223 ) ) ;
#629 = LINE ( 'NONE', #830, #407 ) ;
#630 = EDGE_CURVE ( 'NONE', #668, #192, #873, .T. ) ;
#631 = CARTESIAN_POINT ( 'NONE',  ( 10.15685424949232285, 192.0000000000000000, 3.000000000000000000 ) ) ;
#632 = DIRECTION ( 'NONE',  ( -3.097720492815727042E-17, -1.000000000000000000, 0.000000000000000000 ) ) ;
#633 = VECTOR ( 'NONE', #1369, 1000.000000000000000 ) ;
#634 = VECTOR ( 'NONE', #746, 1000.000000000000000 ) ;
#635 = ORIENTED_EDGE ( 'NONE', *, *, #32, .F. ) ;
#636 = DIRECTION ( 'NONE',  ( -1.000000000000000000, 3.097720492815727042E-17, 0.000000000000000000 ) ) ;
#637 = ADVANCED_FACE ( 'NONE', ( #1093 ), #896, .T. ) ;
#638 = AXIS2_PLACEMENT_3D ( 'NONE', #222, #659, #461 ) ;
#639 = VECTOR ( 'NONE', #1006, 1000.000000000000000 ) ;
#640 = LINE ( 'NONE', #1288, #664 ) ;
#641 = DIRECTION ( 'NONE',  ( -0.5000000000000007772, 0.8660254037844382635, 0.000000000000000000 ) ) ;
#642 = COORDINATED_UNIVERSAL_TIME_OFFSET ( 1, 0, .AHEAD. ) ;
#643 = ORIENTED_EDGE ( 'NONE', *, *, #1222, .F. ) ;
#644 = CARTESIAN_POINT ( 'NONE',  ( 18.65685424949232285, 40.25244164303732219, 0.5000000000000281997 ) ) ;
#645 = ORIENTED_EDGE ( 'NONE', *, *, #1028, .T. ) ;
#646 = PLANE ( 'NONE',  #1355 ) ;
#647 = CARTESIAN_POINT ( 'NONE',  ( 10.15685424949232285, 192.0000000000000000, 2.499999999999972022 ) ) ;
#648 = DIRECTION ( 'NONE',  ( 0.000000000000000000, 0.000000000000000000, 1.000000000000000000 ) ) ;
#649 = ORIENTED_EDGE ( 'NONE', *, *, #1071, .F. ) ;
#650 = DIRECTION ( 'NONE',  ( 0.7071067811865473507, -3.845925372767127633E-16, 0.7071067811865477948 ) ) ;
#651 = ORIENTED_EDGE ( 'NONE', *, *, #696, .F. ) ;
#652 = DIRECTION ( 'NONE',  ( -1.000000000000000000, 0.000000000000000000, 0.000000000000000000 ) ) ;
#653 = DIRECTION ( 'NONE',  ( -0.5000000000000006661, 0.8660254037844382635, 0.000000000000000000 ) ) ;
#654 = ORIENTED_EDGE ( 'NONE', *, *, #1183, .F. ) ;
#655 = EDGE_CURVE ( 'NONE', #28, #962, #1304, .T. ) ;
#656 = DATE_AND_TIME ( #982, #338 ) ;
#657 = ADVANCED_FACE ( 'NONE', ( #671 ), #113, .F. ) ;
#658 = ORIENTED_EDGE ( 'NONE', *, *, #526, .T. ) ;
#659 = DIRECTION ( 'NONE',  ( -0.000000000000000000, -0.000000000000000000, 1.000000000000000000 ) ) ;
#660 = APPROVAL_PERSON_ORGANIZATION ( #1188, #1186, #434 ) ;
#661 = VECTOR ( 'NONE', #411, 1000.000000000000114 ) ;
#662 = ORIENTED_EDGE ( 'NONE', *, *, #446, .F. ) ;
#663 = FACE_OUTER_BOUND ( 'NONE', #769, .T. ) ;
#664 = VECTOR ( 'NONE', #624, 1000.000000000000000 ) ;
#665 = VECTOR ( 'NONE', #1367, 1000.000000000000000 ) ;
#666 = LINE ( 'NONE', #1194, #685 ) ;
#667 = CARTESIAN_POINT ( 'NONE',  ( 0.000000000000000000, 0.000000000000000000, 0.000000000000000000 ) ) ;
#668 = VERTEX_POINT ( 'NONE', #995 ) ;
#669 = CARTESIAN_POINT ( 'NONE',  ( 18.65685424949232640, 40.25244164303732219, 0.5000000000000289768 ) ) ;
#670 = ORIENTED_EDGE ( 'NONE', *, *, #107, .T. ) ;
#671 = FACE_OUTER_BOUND ( 'NONE', #391, .T. ) ;
#672 = FACE_OUTER_BOUND ( 'NONE', #978, .T. ) ;
#673 = VERTEX_POINT ( 'NONE', #1099 ) ;
#674 = CARTESIAN_POINT ( 'NONE',  ( 3.656854249492352160, 209.0000000000000000, 2.000000000000001776 ) ) ;
#675 = EDGE_CURVE ( 'NONE', #502, #28, #328, .T. ) ;
#676 = ORIENTED_EDGE ( 'NONE', *, *, #1095, .F. ) ;
#677 = DIRECTION ( 'NONE',  ( -1.000000000000000000, 0.000000000000000000, 0.000000000000000000 ) ) ;
#678 = EDGE_CURVE ( 'NONE', #3, #1361, #18, .T. ) ;
#679 = CARTESIAN_POINT ( 'NONE',  ( -2.999999999999671374, -2.352650860291993336E-16, 0.000000000000000000 ) ) ;
#680 = ORIENTED_EDGE ( 'NONE', *, *, #763, .F. ) ;
#681 = ORIENTED_EDGE ( 'NONE', *, *, #5, .T. ) ;
#682 = CARTESIAN_POINT ( 'NONE',  ( 3.156854249492324183, 208.4999999999999716, 3.000000000000000000 ) ) ;
#683 = CARTESIAN_POINT ( 'NONE',  ( 18.65685424949232285, 40.25244164303732219, 0.5000000000000281997 ) ) ;
#684 = ADVANCED_FACE ( 'NONE', ( #1329 ), #786, .F. ) ;
#685 = VECTOR ( 'NONE', #144, 999.9999999999998863 ) ;
#686 = VECTOR ( 'NONE', #603, 1000.000000000000000 ) ;
#687 = FACE_OUTER_BOUND ( 'NONE', #1365, .T. ) ;
#688 = ORIENTED_EDGE ( 'NONE', *, *, #384, .T. ) ;
#689 = VECTOR ( 'NONE', #215, 1000.000000000000114 ) ;
#690 = AXIS2_PLACEMENT_3D ( 'NONE', #244, #1130, #157 ) ;
#691 = CARTESIAN_POINT ( 'NONE',  ( 9.656854249492294429, 191.8660254037844481, 0.000000000000000000 ) ) ;
#692 = ORIENTED_EDGE ( 'NONE', *, *, #932, .F. ) ;
#693 = CARTESIAN_POINT ( 'NONE',  ( 3.656854249492351716, 206.0000000000000000, 0.000000000000000000 ) ) ;
#694 = CARTESIAN_POINT ( 'NONE',  ( -2.999999999999969802, 15.87564434701785032, 0.000000000000000000 ) ) ;
#695 = ORIENTED_EDGE ( 'NONE', *, *, #38, .T. ) ;
#696 = EDGE_CURVE ( 'NONE', #863, #1335, #90, .T. ) ;
#697 = LINE ( 'NONE', #1343, #205 ) ;
#698 = CARTESIAN_POINT ( 'NONE',  ( 9.656854249492294429, 1.665334536937734811E-13, 3.000000000000000000 ) ) ;
#699 = PLANE ( 'NONE',  #1177 ) ;
#700 = ORIENTED_EDGE ( 'NONE', *, *, #789, .T. ) ;
#701 = ADVANCED_FACE ( 'NONE', ( #1345 ), #1333, .F. ) ;
#702 = CARTESIAN_POINT ( 'NONE',  ( 3.156854249492324183, 209.0000000000000000, 2.499999999999972022 ) ) ;
#703 = EDGE_CURVE ( 'NONE', #1079, #231, #470, .T. ) ;
#704 = LINE ( 'NONE', #576, #686 ) ;
#705 = CARTESIAN_POINT ( 'NONE',  ( 12.65685424949232285, 174.0698729810778502, 0.5000000000000281997 ) ) ;
#706 = AXIS2_PLACEMENT_3D ( 'NONE', #375, #1256, #275 ) ;
#707 = AXIS2_PLACEMENT_3D ( 'NONE', #240, #677, #1104 ) ;
#708 = VERTEX_POINT ( 'NONE', #905 ) ;
#709 = VECTOR ( 'NONE', #399, 1000.000000000000114 ) ;
#710 = CARTESIAN_POINT ( 'NONE',  ( 30.52226615808372046, 197.4568956744342643, -17.86541190859142958 ) ) ;
#711 = FACE_OUTER_BOUND ( 'NONE', #307, .T. ) ;
#712 = DIRECTION ( 'NONE',  ( 0.7071067811865474617, -0.7071067811865474617, 0.000000000000000000 ) ) ;
#713 = ORIENTED_EDGE ( 'NONE', *, *, #46, .T. ) ;
#714 = DIRECTION ( 'NONE',  ( 0.6947465906068663877, -0.1861567878973810763, -0.6947465906068662767 ) ) ;
#715 = VERTEX_POINT ( 'NONE', #475 ) ;
#716 = CARTESIAN_POINT ( 'NONE',  ( 18.65685424949232285, 177.2775681356645805, 3.000000000000000000 ) ) ;
#717 = EDGE_CURVE ( 'NONE', #1223, #986, #704, .T. ) ;
#718 = FACE_OUTER_BOUND ( 'NONE', #776, .T. ) ;
#719 = EDGE_CURVE ( 'NONE', #1318, #325, #1000, .T. ) ;
#720 = ORIENTED_EDGE ( 'NONE', *, *, #127, .T. ) ;
#721 = DIRECTION ( 'NONE',  ( 8.195211347292487827E-17, 1.000000000000000000, 0.000000000000000000 ) ) ;
#722 = ORIENTED_EDGE ( 'NONE', *, *, #172, .F. ) ;
#723 = DIRECTION ( 'NONE',  ( -0.000000000000000000, -0.7071067811865475727, -0.7071067811865475727 ) ) ;
#724 = CARTESIAN_POINT ( 'NONE',  ( 18.65685424949232285, 177.2775681356645805, 0.5000000000000281997 ) ) ;
#725 = CARTESIAN_POINT ( 'NONE',  ( 4.801796911728903439, 206.3466607447252557, -1.144942662236551500 ) ) ;
#726 = AXIS2_PLACEMENT_3D ( 'NONE', #851, #525, #756 ) ;
#727 =( NAMED_UNIT ( * ) PLANE_ANGLE_UNIT ( ) SI_UNIT ( $, .RADIAN. ) );
#728 = CIRCLE ( 'NONE', #911, 1.899999999999957279 ) ;
#729 = ORIENTED_EDGE ( 'NONE', *, *, #306, .F. ) ;
#730 = PLANE ( 'NONE',  #140 ) ;
#731 = VECTOR ( 'NONE', #632, 1000.000000000000000 ) ;
#732 = CARTESIAN_POINT ( 'NONE',  ( 12.65685424949232285, 43.86013679762406525, 2.499999999999973355 ) ) ;
#733 = DIRECTION ( 'NONE',  ( 0.6613355025394257458, 0.6613355025394257458, -0.3539360198706117400 ) ) ;
#734 = ADVANCED_FACE ( 'NONE', ( #153 ), #1014, .T. ) ;
#735 = CARTESIAN_POINT ( 'NONE',  ( -3.499999999999999112, -1.942890293093933227E-16, 3.000000000000000000 ) ) ;
#736 = ADVANCED_FACE ( 'NONE', ( #164 ), #900, .T. ) ;
#737 = ORIENTED_EDGE ( 'NONE', *, *, #925, .T. ) ;
#738 = LINE ( 'NONE', #394, #180 ) ;
#739 = CARTESIAN_POINT ( 'NONE',  ( 3.500000000000000000, 14.00000000000000000, 2.499999999999972022 ) ) ;
#740 = CARTESIAN_POINT ( 'NONE',  ( 3.656854249492353048, 206.0000000000000000, 0.000000000000000000 ) ) ;
#741 = EDGE_CURVE ( 'NONE', #1010, #860, #796, .T. ) ;
#742 = CARTESIAN_POINT ( 'NONE',  ( 10.15685424949232285, 192.0000000000000000, 0.5000000000000281997 ) ) ;
#743 = ORIENTED_EDGE ( 'NONE', *, *, #82, .T. ) ;
#744 = CARTESIAN_POINT ( 'NONE',  ( 18.65685424949232285, 177.2775681356645805, 0.5000000000000277556 ) ) ;
#745 = CC_DESIGN_DATE_AND_TIME_ASSIGNMENT ( #961, #324, ( #1204 ) ) ;
#746 = DIRECTION ( 'NONE',  ( 0.000000000000000000, -0.8320502943378437211, -0.5547001962252291474 ) ) ;
#747 = MANIFOLD_SOLID_BREP ( 'Chanfrein2', #590 ) ;
#748 = DIRECTION ( 'NONE',  ( 0.000000000000000000, -1.000000000000000000, 0.000000000000000000 ) ) ;
#749 = VECTOR ( 'NONE', #874, 1000.000000000000000 ) ;
#750 = AXIS2_PLACEMENT_3D ( 'NONE', #1334, #363, #395 ) ;
#751 = ORIENTED_EDGE ( 'NONE', *, *, #703, .T. ) ;
#752 = DIRECTION ( 'NONE',  ( -1.000000000000000000, -4.796163466380676255E-14, 0.000000000000000000 ) ) ;
#753 = PRODUCT ( 'MB_door_front_slider_top_L_v1', 'MB_door_front_slider_top_L_v1', '', ( #869 ) ) ;
#754 = VECTOR ( 'NONE', #999, 999.9999999999998863 ) ;
#755 = ORIENTED_EDGE ( 'NONE', *, *, #64, .T. ) ;
#756 = DIRECTION ( 'NONE',  ( -1.000000000000000000, 0.000000000000000000, 0.000000000000000000 ) ) ;
#757 = ORIENTED_EDGE ( 'NONE', *, *, #294, .F. ) ;
#758 = APPLICATION_PROTOCOL_DEFINITION ( 'international standard', 'config_control_design', 1994, #92 ) ;
#759 = ORIENTED_EDGE ( 'NONE', *, *, #950, .F. ) ;
#760 = DIRECTION ( 'NONE',  ( 0.000000000000000000, -1.000000000000000000, 0.000000000000000000 ) ) ;
#761 = ORIENTED_EDGE ( 'NONE', *, *, #1140, .T. ) ;
#762 = CARTESIAN_POINT ( 'NONE',  ( 10.15685424949232285, 192.0000000000000000, 0.5000000000000281997 ) ) ;
#763 = EDGE_CURVE ( 'NONE', #242, #1123, #1034, .T. ) ;
#764 = LINE ( 'NONE', #6, #224 ) ;
#765 = EDGE_CURVE ( 'NONE', #335, #1380, #389, .T. ) ;
#766 = APPROVAL_ROLE ( '' ) ;
#767 = ORIENTED_EDGE ( 'NONE', *, *, #1374, .T. ) ;
#768 = CARTESIAN_POINT ( 'NONE',  ( 3.656854249492342390, 1.663617781950555452E-13, 3.000000000000000000 ) ) ;
#769 = EDGE_LOOP ( 'NONE', ( #651, #358, #826, #297 ) ) ;
#770 = CARTESIAN_POINT ( 'NONE',  ( 9.906854249492308639, 208.4999999999999716, 2.749999999999985789 ) ) ;
#771 = CARTESIAN_POINT ( 'NONE',  ( 1.900000000000257483, 1.667661365856114804E-13, 0.000000000000000000 ) ) ;
#772 = DATE_AND_TIME ( #449, #912 ) ;
#773 = VERTEX_POINT ( 'NONE', #1250 ) ;
#774 = PLANE ( 'NONE',  #841 ) ;
#775 = VECTOR ( 'NONE', #981, 1000.000000000000114 ) ;
#776 = EDGE_LOOP ( 'NONE', ( #67, #349, #1141, #219 ) ) ;
#777 = DIRECTION ( 'NONE',  ( 0.000000000000000000, 0.5547001962252291474, -0.8320502943378437211 ) ) ;
#778 = AXIS2_PLACEMENT_3D ( 'NONE', #4, #541, #1192 ) ;
#779 = VECTOR ( 'NONE', #1381, 1000.000000000000000 ) ;
#780 = CARTESIAN_POINT ( 'NONE',  ( 12.65685424949232285, 174.0698729810778502, 2.499999999999963141 ) ) ;
#781 = EDGE_CURVE ( 'NONE', #708, #102, #252, .T. ) ;
#782 = ORIENTED_EDGE ( 'NONE', *, *, #329, .T. ) ;
#783 = DIRECTION ( 'NONE',  ( 0.000000000000000000, 0.000000000000000000, -1.000000000000000000 ) ) ;
#784 = EDGE_CURVE ( 'NONE', #355, #155, #1230, .T. ) ;
#785 = ORIENTED_EDGE ( 'NONE', *, *, #925, .F. ) ;
#786 = PLANE ( 'NONE',  #707 ) ;
#787 = DIRECTION ( 'NONE',  ( -0.000000000000000000, -0.000000000000000000, -1.000000000000000000 ) ) ;
#788 = VERTEX_POINT ( 'NONE', #272 ) ;
#789 = EDGE_CURVE ( 'NONE', #278, #788, #49, .T. ) ;
#790 = ORIENTED_EDGE ( 'NONE', *, *, #717, .F. ) ;
#791 = DIRECTION ( 'NONE',  ( -0.4999999999999947820, -0.8660254037844417052, 0.000000000000000000 ) ) ;
#792 = CARTESIAN_POINT ( 'NONE',  ( -9.066342951089714219, 5.234455543377380060, 3.000000000000000000 ) ) ;
#793 = CARTESIAN_POINT ( 'NONE',  ( 9.656854249492294429, 209.0000000000000000, 3.000000000000000000 ) ) ;
#794 = ORIENTED_EDGE ( 'NONE', *, *, #184, .T. ) ;
#795 = LINE ( 'NONE', #601, #639 ) ;
#796 = LINE ( 'NONE', #698, #859 ) ;
#797 = VECTOR ( 'NONE', #1351, 1000.000000000000000 ) ;
#798 = VECTOR ( 'NONE', #1008, 1000.000000000000000 ) ;
#799 = CARTESIAN_POINT ( 'NONE',  ( 18.15685424949229443, 1.665334536937734811E-13, 3.000000000000000000 ) ) ;
#800 = ORIENTED_EDGE ( 'NONE', *, *, #210, .F. ) ;
#801 = CARTESIAN_POINT ( 'NONE',  ( 3.001071613439876273E-13, 1.665334536937734811E-13, 2.499999999999987566 ) ) ;
#802 = EDGE_LOOP ( 'NONE', ( #1137, #1007, #413, #549 ) ) ;
#803 = DIRECTION ( 'NONE',  ( -0.6123724356957946924, 0.3535533905932689569, -0.7071067811865499042 ) ) ;
#804 = EDGE_CURVE ( 'NONE', #333, #715, #1244, .T. ) ;
#805 = DIRECTION ( 'NONE',  ( 0.4999999999999947820, 0.8660254037844417052, 0.000000000000000000 ) ) ;
#806 = ORIENTED_EDGE ( 'NONE', *, *, #526, .F. ) ;
#807 = EDGE_CURVE ( 'NONE', #1287, #333, #1121, .T. ) ;
#808 = DIRECTION ( 'NONE',  ( 0.6613355025394263009, -0.6613355025394263009, 0.3539360198706103522 ) ) ;
#809 = DIRECTION ( 'NONE',  ( -0.000000000000000000, -0.000000000000000000, -1.000000000000000000 ) ) ;
#810 = CARTESIAN_POINT ( 'NONE',  ( -1.399999999999699929, 1.665334536937734811E-13, 0.4999999999999570899 ) ) ;
#811 = ORIENTED_EDGE ( 'NONE', *, *, #804, .F. ) ;
#812 = CARTESIAN_POINT ( 'NONE',  ( 1.400000000000300115, 1.665334536937734811E-13, 2.499999999999987566 ) ) ;
#813 = ORIENTED_EDGE ( 'NONE', *, *, #1363, .F. ) ;
#814 = DIRECTION ( 'NONE',  ( 0.000000000000000000, 1.000000000000000000, 0.000000000000000000 ) ) ;
#815 = DIRECTION ( 'NONE',  ( -1.000000000000000000, -5.595524044110788964E-14, 0.000000000000000000 ) ) ;
#816 = CIRCLE ( 'NONE', #1314, 1.900000000000012790 ) ;
#817 = CC_DESIGN_SECURITY_CLASSIFICATION ( #1273, ( #617 ) ) ;
#818 = VECTOR ( 'NONE', #56, 1000.000000000000000 ) ;
#819 = CARTESIAN_POINT ( 'NONE',  ( 18.22384154760008457, 177.0275681356645521, 0.000000000000000000 ) ) ;
#820 = CIRCLE ( 'NONE', #203, 1.900000000000012790 ) ;
#821 = ADVANCED_FACE ( 'NONE', ( #711 ), #60, .F. ) ;
#822 = DIRECTION ( 'NONE',  ( -0.4999999999999946709, -0.8660254037844418162, 0.000000000000000000 ) ) ;
#823 = LINE ( 'NONE', #1255, #1232 ) ;
#824 = EDGE_CURVE ( 'NONE', #860, #1125, #279, .T. ) ;
#825 = DIRECTION ( 'NONE',  ( 0.000000000000000000, 1.000000000000000000, 0.000000000000000000 ) ) ;
#826 = ORIENTED_EDGE ( 'NONE', *, *, #1140, .F. ) ;
#827 = FACE_OUTER_BOUND ( 'NONE', #221, .T. ) ;
#828 = EDGE_LOOP ( 'NONE', ( #15, #729, #1331, #811 ) ) ;
#829 = CARTESIAN_POINT ( 'NONE',  ( -1.399999999999699929, 1.665334536937734811E-13, 2.499999999999987566 ) ) ;
#830 = CARTESIAN_POINT ( 'NONE',  ( 3.656854249492352160, 208.7499999999999716, 2.749999999999985789 ) ) ;
#831 = ORIENTED_EDGE ( 'NONE', *, *, #1011, .T. ) ;
#832 = CARTESIAN_POINT ( 'NONE',  ( -2.999999999999671374, -2.352650860291993336E-16, 0.000000000000000000 ) ) ;
#833 = ORIENTED_EDGE ( 'NONE', *, *, #1328, .T. ) ;
#834 = FACE_OUTER_BOUND ( 'NONE', #138, .T. ) ;
#835 = CARTESIAN_POINT ( 'NONE',  ( -3.870190528383104400, 2.234455543377433351, 3.000000000000000000 ) ) ;
#836 = EDGE_CURVE ( 'NONE', #53, #502, #823, .T. ) ;
#837 = CARTESIAN_POINT ( 'NONE',  ( 18.65685424949232285, 177.2775681356645805, 2.499999999999958700 ) ) ;
#838 = VECTOR ( 'NONE', #189, 1000.000000000000000 ) ;
#839 = VECTOR ( 'NONE', #336, 1000.000000000000000 ) ;
#840 = FACE_OUTER_BOUND ( 'NONE', #1309, .T. ) ;
#841 = AXIS2_PLACEMENT_3D ( 'NONE', #976, #565, #783 ) ;
#842 = ORIENTED_EDGE ( 'NONE', *, *, #678, .T. ) ;
#843 = FACE_BOUND ( 'NONE', #353, .T. ) ;
#844 = AXIS2_PLACEMENT_3D ( 'NONE', #257, #45, #899 ) ;
#845 = CARTESIAN_POINT ( 'NONE',  ( 12.65685424949232285, 43.86013679762406525, 3.000000000000000000 ) ) ;
#846 = EDGE_CURVE ( 'NONE', #242, #1088, #1281, .T. ) ;
#847 = LINE ( 'NONE', #965, #1269 ) ;
#848 = LINE ( 'NONE', #939, #1138 ) ;
#849 = EDGE_LOOP ( 'NONE', ( #1307, #287, #444, #263 ) ) ;
#850 = CARTESIAN_POINT ( 'NONE',  ( 9.656854249492294429, 209.0000000000000000, 2.499999999999972022 ) ) ;
#851 = CARTESIAN_POINT ( 'NONE',  ( 3.001071613439876273E-13, 1.665334536937734811E-13, 3.000000000000000000 ) ) ;
#852 = CARTESIAN_POINT ( 'NONE',  ( 3.156854249492324183, 209.0000000000000000, 3.000000000000000000 ) ) ;
#853 = ORIENTED_EDGE ( 'NONE', *, *, #1378, .F. ) ;
#854 = DIRECTION ( 'NONE',  ( -8.195211347292487827E-17, -1.000000000000000000, 0.000000000000000000 ) ) ;
#855 = CARTESIAN_POINT ( 'NONE',  ( 3.499999999999999556, 1.942890293093933227E-16, 2.499999999999972022 ) ) ;
#856 = LINE ( 'NONE', #513, #1156 ) ;
#857 = PERSON_AND_ORGANIZATION ( #920, #273 ) ;
#858 = ADVANCED_FACE ( 'NONE', ( #834 ), #284, .F. ) ;
#859 = VECTOR ( 'NONE', #814, 1000.000000000000000 ) ;
#860 = VERTEX_POINT ( 'NONE', #1162 ) ;
#861 = LINE ( 'NONE', #238, #593 ) ;
#862 = CONICAL_SURFACE ( 'NONE', #638, 3.499999999999999556, 0.7853981633974482790 ) ;
#863 = VERTEX_POINT ( 'NONE', #829 ) ;
#864 = VECTOR ( 'NONE', #919, 999.9999999999998863 ) ;
#865 = DIRECTION ( 'NONE',  ( -0.7071067811865475727, 2.190419166690534571E-17, -0.7071067811865475727 ) ) ;
#866 = EDGE_CURVE ( 'NONE', #962, #1380, #178, .T. ) ;
#867 = LINE ( 'NONE', #1063, #1336 ) ;
#868 = EDGE_LOOP ( 'NONE', ( #842, #63, #1039, #582, #1 ) ) ;
#869 = MECHANICAL_CONTEXT ( 'NONE', #92, 'mechanical' ) ;
#870 = ORIENTED_EDGE ( 'NONE', *, *, #966, .F. ) ;
#871 = FACE_OUTER_BOUND ( 'NONE', #438, .T. ) ;
#872 = ORIENTED_EDGE ( 'NONE', *, *, #1069, .F. ) ;
#873 = LINE ( 'NONE', #792, #839 ) ;
#874 = DIRECTION ( 'NONE',  ( 0.000000000000000000, 0.000000000000000000, -1.000000000000000000 ) ) ;
#875 = ORIENTED_EDGE ( 'NONE', *, *, #1115, .F. ) ;
#876 = FACE_OUTER_BOUND ( 'NONE', #405, .T. ) ;
#877 = ORIENTED_EDGE ( 'NONE', *, *, #136, .F. ) ;
#878 = FACE_OUTER_BOUND ( 'NONE', #493, .T. ) ;
#879 = EDGE_CURVE ( 'NONE', #72, #946, #1286, .T. ) ;
#880 = CARTESIAN_POINT ( 'NONE',  ( 3.656854249492351272, 190.6583302491977463, 3.000000000000000000 ) ) ;
#881 = APPROVAL_STATUS ( 'not_yet_approved' ) ;
#882 = EDGE_CURVE ( 'NONE', #192, #788, #1267, .T. ) ;
#883 = ORIENTED_EDGE ( 'NONE', *, *, #32, .T. ) ;
#884 = VECTOR ( 'NONE', #1388, 1000.000000000000000 ) ;
#885 = CARTESIAN_POINT ( 'NONE',  ( -4.569142030249212283, 16.16212009061732147, 1.430857969750758629 ) ) ;
#886 = VECTOR ( 'NONE', #1357, 1000.000000000000000 ) ;
#887 = EDGE_LOOP ( 'NONE', ( #380, #1167, #654, #474 ) ) ;
#888 = CARTESIAN_POINT ( 'NONE',  ( 3.001071613439876273E-13, 1.665334536937734811E-13, 3.000000000000000000 ) ) ;
#889 = VECTOR ( 'NONE', #1275, 1000.000000000000114 ) ;
#890 = LOCAL_TIME ( 17, 13, 8.000000000000000000, #1293 ) ;
#891 = DIRECTION ( 'NONE',  ( 0.5000000000000006661, -0.8660254037844382635, 0.000000000000000000 ) ) ;
#892 = ORIENTED_EDGE ( 'NONE', *, *, #655, .F. ) ;
#893 = ADVANCED_FACE ( 'NONE', ( #843, #199 ), #1260, .F. ) ;
#894 = CARTESIAN_POINT ( 'NONE',  ( -9.066342951089715996, 5.234455543377380060, 3.000000000000000000 ) ) ;
#895 = LINE ( 'NONE', #1391, #408 ) ;
#896 = PLANE ( 'NONE',  #202 ) ;
#897 = LINE ( 'NONE', #563, #176 ) ;
#898 = VERTEX_POINT ( 'NONE', #68 ) ;
#899 = DIRECTION ( 'NONE',  ( 1.000000000000000000, 0.000000000000000000, 0.000000000000000000 ) ) ;
#900 = PLANE ( 'NONE',  #1179 ) ;
#901 = DIRECTION ( 'NONE',  ( 0.000000000000000000, 0.000000000000000000, -1.000000000000000000 ) ) ;
#902 = ORIENTED_EDGE ( 'NONE', *, *, #437, .F. ) ;
#903 = DIRECTION ( 'NONE',  ( -1.000000000000000000, 0.000000000000000000, 0.000000000000000000 ) ) ;
#904 = ADVANCED_FACE ( 'NONE', ( #1060 ), #730, .T. ) ;
#905 = CARTESIAN_POINT ( 'NONE',  ( 3.656854249492346387, 190.6583302491977463, 0.000000000000000000 ) ) ;
#906 = AXIS2_PLACEMENT_3D ( 'NONE', #211, #1077, #1051 ) ;
#907 = ADVANCED_FACE ( 'NONE', ( #532 ), #503, .F. ) ;
#908 = AXIS2_PLACEMENT_3D ( 'NONE', #915, #361, #143 ) ;
#909 = DIRECTION ( 'NONE',  ( -0.7071067811865475727, 0.000000000000000000, -0.7071067811865475727 ) ) ;
#910 = ORIENTED_EDGE ( 'NONE', *, *, #423, .F. ) ;
#911 = AXIS2_PLACEMENT_3D ( 'NONE', #1154, #75, #1054 ) ;
#912 = LOCAL_TIME ( 17, 13, 8.000000000000000000, #1085 ) ;
#913 = DIRECTION ( 'NONE',  ( -1.000000000000000000, 0.000000000000000000, 0.000000000000000000 ) ) ;
#914 = EDGE_LOOP ( 'NONE', ( #892, #85, #1392, #1264 ) ) ;
#915 = CARTESIAN_POINT ( 'NONE',  ( 3.001071613439876273E-13, 1.665334536937734811E-13, 0.000000000000000000 ) ) ;
#916 = DIRECTION ( 'NONE',  ( 0.5773502691896257311, 0.5773502691896257311, 0.5773502691896257311 ) ) ;
#917 = PRODUCT_RELATED_PRODUCT_CATEGORY ( 'detail', '', ( #753 ) ) ;
#918 = EDGE_LOOP ( 'NONE', ( #54, #759, #469 ) ) ;
#919 = DIRECTION ( 'NONE',  ( 0.5000000000000007772, -0.8660254037844382635, 0.000000000000000000 ) ) ;
#920 = PERSON ( 'UNSPECIFIED', 'UNSPECIFIED', 'UNSPECIFIED', ('UNSPECIFIED'), ('UNSPECIFIED'), ('UNSPECIFIED') ) ;
#921 = EDGE_LOOP ( 'NONE', ( #607, #97, #1195, #393 ) ) ;
#922 = CARTESIAN_POINT ( 'NONE',  ( -3.499999999999699352, -1.942890292951179232E-16, 2.499999999999972022 ) ) ;
#923 = LINE ( 'NONE', #609, #797 ) ;
#924 = ORIENTED_EDGE ( 'NONE', *, *, #1222, .T. ) ;
#925 = EDGE_CURVE ( 'NONE', #325, #1318, #728, .T. ) ;
#926 = CARTESIAN_POINT ( 'NONE',  ( 3.500000000000000000, 14.00000000000000000, 0.5000000000000281997 ) ) ;
#927 = ORIENTED_EDGE ( 'NONE', *, *, #468, .T. ) ;
#928 = DIRECTION ( 'NONE',  ( 0.000000000000000000, 0.000000000000000000, -1.000000000000000000 ) ) ;
#929 = DIRECTION ( 'NONE',  ( 0.8660254037844417052, -0.4999999999999947820, 0.000000000000000000 ) ) ;
#930 = VECTOR ( 'NONE', #1185, 999.9999999999998863 ) ;
#931 = EDGE_LOOP ( 'NONE', ( #589, #318, #800, #1385 ) ) ;
#932 = EDGE_CURVE ( 'NONE', #396, #708, #1386, .T. ) ;
#933 = VECTOR ( 'NONE', #301, 999.9999999999998863 ) ;
#934 = CARTESIAN_POINT ( 'NONE',  ( 4.827972286780521927, 13.64417089818625861, 1.172027713219450762 ) ) ;
#935 = ORIENTED_EDGE ( 'NONE', *, *, #1241, .T. ) ;
#936 = DIRECTION ( 'NONE',  ( -0.7071067811865475727, 5.794889516927461042E-17, -0.7071067811865475727 ) ) ;
#937 = CARTESIAN_POINT ( 'NONE',  ( 9.656854249492294429, 209.0000000000000000, 2.499999999999972022 ) ) ;
#938 = ORIENTED_EDGE ( 'NONE', *, *, #87, .T. ) ;
#939 = CARTESIAN_POINT ( 'NONE',  ( 12.65685424949232285, 174.0698729810778502, 3.000000000000000000 ) ) ;
#940 = ADVANCED_FACE ( 'NONE', ( #1148 ), #1168, .T. ) ;
#941 = ORIENTED_EDGE ( 'NONE', *, *, #866, .T. ) ;
#942 = CARTESIAN_POINT ( 'NONE',  ( -9.373241828868410508, 168.1669265277010084, -19.53009607836076356 ) ) ;
#943 = DIRECTION ( 'NONE',  ( -0.7071067811865475727, 0.000000000000000000, -0.7071067811865475727 ) ) ;
#944 = CARTESIAN_POINT ( 'NONE',  ( 2.999999999999971578, 2.395702683850767877E-14, 0.000000000000000000 ) ) ;
#945 = CARTESIAN_POINT ( 'NONE',  ( 3.156854249492323738, 196.3933576616442167, -5.803503012993130206 ) ) ;
#946 = VERTEX_POINT ( 'NONE', #958 ) ;
#947 = CARTESIAN_POINT ( 'NONE',  ( 3.001071613439876273E-13, 208.4999999999999716, 3.000000000000000000 ) ) ;
#948 = EDGE_CURVE ( 'NONE', #333, #72, #738, .T. ) ;
#949 = DIRECTION ( 'NONE',  ( 0.000000000000000000, 1.000000000000000000, 0.000000000000000000 ) ) ;
#950 = EDGE_CURVE ( 'NONE', #860, #492, #86, .T. ) ;
#951 = AXIS2_PLACEMENT_3D ( 'NONE', #1323, #1330, #225 ) ;
#952 = DIRECTION ( 'NONE',  ( 0.6914377643506443016, 0.2093505100532725705, -0.6914377643506445237 ) ) ;
#953 = VECTOR ( 'NONE', #1341, 1000.000000000000000 ) ;
#954 = AXIS2_PLACEMENT_3D ( 'NONE', #1112, #971, #29 ) ;
#955 = DIRECTION ( 'NONE',  ( 1.000000000000000000, -8.195211347292487827E-17, 0.000000000000000000 ) ) ;
#956 = AXIS2_PLACEMENT_3D ( 'NONE', #644, #436, #760 ) ;
#957 = ORIENTED_EDGE ( 'NONE', *, *, #1011, .F. ) ;
#958 = CARTESIAN_POINT ( 'NONE',  ( 13.15685424949235127, 43.72616220140849208, 0.000000000000000000 ) ) ;
#959 = CARTESIAN_POINT ( 'NONE',  ( 3.156854249492324183, 208.4999999999999716, 2.267591879244025499 ) ) ;
#960 = CARTESIAN_POINT ( 'NONE',  ( 90.32306674853322193, 52.14804690129831499, 3.000000000000000000 ) ) ;
#961 = DATE_AND_TIME ( #117, #1114 ) ;
#962 = VERTEX_POINT ( 'NONE', #744 ) ;
#963 = FACE_OUTER_BOUND ( 'NONE', #1311, .T. ) ;
#964 = CARTESIAN_POINT ( 'NONE',  ( 12.65685424949232285, 43.86013679762406525, 0.5000000000000281997 ) ) ;
#965 = CARTESIAN_POINT ( 'NONE',  ( 1.400000000000300115, 1.667049042456541002E-13, 3.000000000000000000 ) ) ;
#966 = EDGE_CURVE ( 'NONE', #1324, #1059, #1174, .T. ) ;
#967 = PERSON_AND_ORGANIZATION_ROLE ( 'design_supplier' ) ;
#968 = ADVANCED_FACE ( 'NONE', ( #963 ), #1362, .F. ) ;
#969 = ORIENTED_EDGE ( 'NONE', *, *, #417, .T. ) ;
#970 = CARTESIAN_POINT ( 'NONE',  ( 3.656854249492352160, 208.4999999999999716, 3.000000000000000000 ) ) ;
#971 = DIRECTION ( 'NONE',  ( 0.7071067811865475727, 0.000000000000000000, -0.7071067811865475727 ) ) ;
#972 = LINE ( 'NONE', #1178, #1062 ) ;
#973 = DATE_TIME_ROLE ( 'classification_date' ) ;
#974 = VECTOR ( 'NONE', #1350, 1000.000000000000000 ) ;
#975 = ORIENTED_EDGE ( 'NONE', *, *, #1013, .F. ) ;
#976 = CARTESIAN_POINT ( 'NONE',  ( 3.156854249492324183, 208.4999999999999716, 3.000000000000000000 ) ) ;
#977 = AXIS2_PLACEMENT_3D ( 'NONE', #1067, #420, #854 ) ;
#978 = EDGE_LOOP ( 'NONE', ( #1044, #1219, #352, #1091 ) ) ;
#979 = AXIS2_PLACEMENT_3D ( 'NONE', #379, #59, #822 ) ;
#980 = DIRECTION ( 'NONE',  ( 1.000000000000000000, 0.000000000000000000, 0.000000000000000000 ) ) ;
#981 = DIRECTION ( 'NONE',  ( 0.6947465906068657215, 0.1861567878973862389, 0.6947465906068657215 ) ) ;
#982 = CALENDAR_DATE ( 2023, 16, 1 ) ;
#983 = ORIENTED_EDGE ( 'NONE', *, *, #376, .F. ) ;
#984 = CARTESIAN_POINT ( 'NONE',  ( -3.499999999999999112, -1.942890293093933227E-16, 2.499999999999972022 ) ) ;
#985 = ADVANCED_FACE ( 'NONE', ( #871 ), #1295, .T. ) ;
#986 = VERTEX_POINT ( 'NONE', #674 ) ;
#987 = CARTESIAN_POINT ( 'NONE',  ( 2.999999999999971578, 1.664405220789890237E-13, 3.000000000000000000 ) ) ;
#988 = EDGE_CURVE ( 'NONE', #1285, #396, #895, .T. ) ;
#989 = LINE ( 'NONE', #246, #1131 ) ;
#990 = ORIENTED_EDGE ( 'NONE', *, *, #5, .F. ) ;
#991 = CALENDAR_DATE ( 2023, 16, 1 ) ;
#992 = ORIENTED_EDGE ( 'NONE', *, *, #879, .F. ) ;
#993 = CARTESIAN_POINT ( 'NONE',  ( 3.156854249492324183, 208.4999999999999716, 2.499999999999972022 ) ) ;
#994 = ORIENTED_EDGE ( 'NONE', *, *, #1055, .F. ) ;
#995 = CARTESIAN_POINT ( 'NONE',  ( 13.15685424949235127, 43.72616220140849919, 3.000000000000000000 ) ) ;
#996 = EDGE_CURVE ( 'NONE', #327, #25, #319, .T. ) ;
#997 = LINE ( 'NONE', #20, #1352 ) ;
#998 = ORIENTED_EDGE ( 'NONE', *, *, #1247, .F. ) ;
#999 = DIRECTION ( 'NONE',  ( 0.4999999999999946709, 0.8660254037844418162, 0.000000000000000000 ) ) ;
#1000 = CIRCLE ( 'NONE', #908, 1.899999999999957279 ) ;
#1001 = ORIENTED_EDGE ( 'NONE', *, *, #274, .T. ) ;
#1002 = DIRECTION ( 'NONE',  ( 0.7071067811865474617, -0.000000000000000000, -0.7071067811865474617 ) ) ;
#1003 = AXIS2_PLACEMENT_3D ( 'NONE', #926, #359, #584 ) ;
#1004 = LINE ( 'NONE', #548, #775 ) ;
#1005 = ORIENTED_EDGE ( 'NONE', *, *, #483, .T. ) ;
#1006 = DIRECTION ( 'NONE',  ( 0.000000000000000000, -1.000000000000000000, 0.000000000000000000 ) ) ;
#1007 = ORIENTED_EDGE ( 'NONE', *, *, #483, .F. ) ;
#1008 = DIRECTION ( 'NONE',  ( -0.5000000000000006661, 0.8660254037844382635, 0.000000000000000000 ) ) ;
#1009 = CARTESIAN_POINT ( 'NONE',  ( 3.001071613439876273E-13, 1.665334536937734811E-13, 3.000000000000000000 ) ) ;
#1010 = VERTEX_POINT ( 'NONE', #334 ) ;
#1011 = EDGE_CURVE ( 'NONE', #1324, #1125, #1089, .T. ) ;
#1012 = PLANE ( 'NONE',  #690 ) ;
#1013 = EDGE_CURVE ( 'NONE', #1287, #192, #207, .T. ) ;
#1014 = PLANE ( 'NONE',  #386 ) ;
#1015 = PLANE ( 'NONE',  #385 ) ;
#1016 = ORIENTED_EDGE ( 'NONE', *, *, #1193, .F. ) ;
#1017 = DIRECTION ( 'NONE',  ( 1.000000000000000000, 0.000000000000000000, 0.000000000000000000 ) ) ;
#1018 = DIRECTION ( 'NONE',  ( -1.000000000000000000, 0.000000000000000000, 0.000000000000000000 ) ) ;
#1019 = VECTOR ( 'NONE', #733, 1000.000000000000114 ) ;
#1020 = CONICAL_SURFACE ( 'NONE', #69, 2.999999999999971578, 0.7853981633974482790 ) ;
#1021 = CARTESIAN_POINT ( 'NONE',  ( -1.899999999999657074, 1.665334536937734811E-13, 0.000000000000000000 ) ) ;
#1022 = ORIENTED_EDGE ( 'NONE', *, *, #703, .F. ) ;
#1023 = VECTOR ( 'NONE', #1354, 1000.000000000000000 ) ;
#1024 = ORIENTED_EDGE ( 'NONE', *, *, #1115, .T. ) ;
#1025 = CARTESIAN_POINT ( 'NONE',  ( -1.899999999999712585, 1.667661365856114804E-13, 3.000000000000000000 ) ) ;
#1026 = ORIENTED_EDGE ( 'NONE', *, *, #490, .T. ) ;
#1027 = DIRECTION ( 'NONE',  ( 0.7071067811865474617, -5.794889516590406662E-17, 0.7071067811865474617 ) ) ;
#1028 = EDGE_CURVE ( 'NONE', #673, #602, #326, .T. ) ;
#1029 = CARTESIAN_POINT ( 'NONE',  ( 3.656854249492353048, 209.0000000000000000, 1.999999999999998668 ) ) ;
#1030 = ADVANCED_FACE ( 'NONE', ( #1215 ), #774, .F. ) ;
#1031 = DIRECTION ( 'NONE',  ( -0.4999999999999947820, -0.8660254037844417052, 0.000000000000000000 ) ) ;
#1032 = FACE_OUTER_BOUND ( 'NONE', #487, .T. ) ;
#1033 = EDGE_LOOP ( 'NONE', ( #198, #110, #875, #910 ) ) ;
#1034 = LINE ( 'NONE', #1126, #798 ) ;
#1035 = EDGE_CURVE ( 'NONE', #715, #611, #479, .T. ) ;
#1036 = LINE ( 'NONE', #166, #1064 ) ;
#1037 = LINE ( 'NONE', #1246, #568 ) ;
#1038 = CARTESIAN_POINT ( 'NONE',  ( 2.999999999999971578, 2.097776317734728238E-16, 0.000000000000000000 ) ) ;
#1039 = ORIENTED_EDGE ( 'NONE', *, *, #765, .T. ) ;
#1040 = DIRECTION ( 'NONE',  ( -1.000000000000000000, 0.000000000000000000, 0.000000000000000000 ) ) ;
#1041 = CARTESIAN_POINT ( 'NONE',  ( 12.65685424949232285, 43.86013679762406525, 3.000000000000000000 ) ) ;
#1042 = CIRCLE ( 'NONE', #1228, 2.999999999999971578 ) ;
#1043 = VECTOR ( 'NONE', #586, 1000.000000000000000 ) ;
#1044 = ORIENTED_EDGE ( 'NONE', *, *, #1263, .T. ) ;
#1045 = CIRCLE ( 'NONE', #459, 1.399999999999999911 ) ;
#1046 = AXIS2_PLACEMENT_3D ( 'NONE', #175, #1366, #392 ) ;
#1047 = DIRECTION ( 'NONE',  ( -0.7071067811865474617, 5.794889516590406662E-17, 0.7071067811865474617 ) ) ;
#1048 = ORIENTED_EDGE ( 'NONE', *, *, #996, .T. ) ;
#1049 = DIRECTION ( 'NONE',  ( -8.195211347292487827E-17, -1.000000000000000000, 0.000000000000000000 ) ) ;
#1050 = FACE_OUTER_BOUND ( 'NONE', #1236, .T. ) ;
#1051 = DIRECTION ( 'NONE',  ( -4.694622399615547836E-17, -1.000000000000000000, 0.000000000000000000 ) ) ;
#1052 = EDGE_CURVE ( 'NONE', #355, #325, #1080, .T. ) ;
#1053 = ORIENTED_EDGE ( 'NONE', *, *, #569, .T. ) ;
#1054 = DIRECTION ( 'NONE',  ( -1.000000000000000000, 0.000000000000000000, 0.000000000000000000 ) ) ;
#1055 = EDGE_CURVE ( 'NONE', #177, #9, #2, .T. ) ;
#1056 = CYLINDRICAL_SURFACE ( 'NONE', #726, 3.499999999999999556 ) ;
#1057 = CARTESIAN_POINT ( 'NONE',  ( -2.999999999999969802, 15.74166975080227715, 0.000000000000000000 ) ) ;
#1058 = LINE ( 'NONE', #276, #251 ) ;
#1059 = VERTEX_POINT ( 'NONE', #26 ) ;
#1060 = FACE_OUTER_BOUND ( 'NONE', #243, .T. ) ;
#1061 = DIRECTION ( 'NONE',  ( -3.097720492815727042E-17, -1.000000000000000000, 0.000000000000000000 ) ) ;
#1062 = VECTOR ( 'NONE', #518, 1000.000000000000114 ) ;
#1063 = CARTESIAN_POINT ( 'NONE',  ( 3.589866951384562022, 190.7743556529821660, 0.000000000000000000 ) ) ;
#1064 = VECTOR ( 'NONE', #1127, 1000.000000000000000 ) ;
#1065 = AXIS2_PLACEMENT_3D ( 'NONE', #616, #289, #1372 ) ;
#1066 = ORIENTED_EDGE ( 'NONE', *, *, #466, .T. ) ;
#1067 = CARTESIAN_POINT ( 'NONE',  ( -2.999999999999971134, 1.667793100341922939E-13, 3.000000000000000000 ) ) ;
#1068 = LINE ( 'NONE', #1382, #634 ) ;
#1069 = EDGE_CURVE ( 'NONE', #155, #355, #524, .T. ) ;
#1070 = LINE ( 'NONE', #647, #114 ) ;
#1071 = EDGE_CURVE ( 'NONE', #1125, #174, #348, .T. ) ;
#1072 = APPROVAL_DATE_TIME ( #772, #33 ) ;
#1073 = VERTEX_POINT ( 'NONE', #126 ) ;
#1074 = CARTESIAN_POINT ( 'NONE',  ( 18.15685424949229798, 177.1435935394490002, 0.000000000000000000 ) ) ;
#1075 = ORIENTED_EDGE ( 'NONE', *, *, #362, .F. ) ;
#1076 = DIRECTION ( 'NONE',  ( -1.000000000000000000, 0.000000000000000000, 0.000000000000000000 ) ) ;
#1077 = DIRECTION ( 'NONE',  ( 0.7071067811865477948, -3.319599333878417350E-17, -0.7071067811865473507 ) ) ;
#1078 = DATE_AND_TIME ( #991, #94 ) ;
#1079 = VERTEX_POINT ( 'NONE', #1074 ) ;
#1080 = LINE ( 'NONE', #546, #1292 ) ;
#1081 = EDGE_LOOP ( 'NONE', ( #722, #125, #465, #1111 ) ) ;
#1082 = CARTESIAN_POINT ( 'NONE',  ( 1.900000000000312994, 1.665334536937734811E-13, 3.000000000000000000 ) ) ;
#1083 = DIRECTION ( 'NONE',  ( -1.000000000000000000, 0.000000000000000000, 0.000000000000000000 ) ) ;
#1084 = ORIENTED_EDGE ( 'NONE', *, *, #446, .T. ) ;
#1085 = COORDINATED_UNIVERSAL_TIME_OFFSET ( 1, 0, .AHEAD. ) ;
#1086 = ADVANCED_FACE ( 'NONE', ( #876 ), #862, .T. ) ;
#1087 = AXIS2_PLACEMENT_3D ( 'NONE', #1231, #809, #1018 ) ;
#1088 = VERTEX_POINT ( 'NONE', #553 ) ;
#1089 = LINE ( 'NONE', #993, #291 ) ;
#1090 = AXIS2_PLACEMENT_3D ( 'NONE', #623, #636, #98 ) ;
#1091 = ORIENTED_EDGE ( 'NONE', *, *, #544, .F. ) ;
#1092 = VECTOR ( 'NONE', #262, 1000.000000000000114 ) ;
#1093 = FACE_OUTER_BOUND ( 'NONE', #17, .T. ) ;
#1094 = DIRECTION ( 'NONE',  ( 0.8660254037844382635, 0.5000000000000006661, -0.000000000000000000 ) ) ;
#1095 = EDGE_CURVE ( 'NONE', #278, #1287, #560, .T. ) ;
#1096 = ORIENTED_EDGE ( 'NONE', *, *, #400, .T. ) ;
#1097 = DIRECTION ( 'NONE',  ( -0.000000000000000000, -0.000000000000000000, -1.000000000000000000 ) ) ;
#1098 = ORIENTED_EDGE ( 'NONE', *, *, #172, .T. ) ;
#1099 = CARTESIAN_POINT ( 'NONE',  ( 3.500000000000000000, 14.00000000000000000, 0.5000000000000290878 ) ) ;
#1100 = DIRECTION ( 'NONE',  ( -0.7071067811865477948, 3.319599333878417350E-17, -0.7071067811865473507 ) ) ;
#1101 = APPROVAL_DATE_TIME ( #1078, #448 ) ;
#1102 = DIRECTION ( 'NONE',  ( 3.097720492815727042E-17, 1.000000000000000000, 0.000000000000000000 ) ) ;
#1103 = CARTESIAN_POINT ( 'NONE',  ( -4.183404489624119371, 169.5575392516004172, 17.34025873911647153 ) ) ;
#1104 = DIRECTION ( 'NONE',  ( 0.000000000000000000, 0.000000000000000000, 1.000000000000000000 ) ) ;
#1105 = DIRECTION ( 'NONE',  ( 0.7071067811865474617, -3.360558608890240355E-14, 0.7071067811865474617 ) ) ;
#1106 = EDGE_LOOP ( 'NONE', ( #831, #1084, #870 ) ) ;
#1107 = ORIENTED_EDGE ( 'NONE', *, *, #569, .F. ) ;
#1108 = CIRCLE ( 'NONE', #427, 3.499999999999999556 ) ;
#1109 = LINE ( 'NONE', #812, #458 ) ;
#1110 = AXIS2_PLACEMENT_3D ( 'NONE', #76, #512, #201 ) ;
#1111 = ORIENTED_EDGE ( 'NONE', *, *, #719, .F. ) ;
#1112 = CARTESIAN_POINT ( 'NONE',  ( 13.15685424949235127, 1.665334536937734811E-13, 3.000000000000000000 ) ) ;
#1113 = VECTOR ( 'NONE', #1327, 1000.000000000000114 ) ;
#1114 = LOCAL_TIME ( 17, 13, 8.000000000000000000, #14 ) ;
#1115 = EDGE_CURVE ( 'NONE', #237, #668, #861, .T. ) ;
#1116 = DIRECTION ( 'NONE',  ( 4.694622399615547836E-17, 1.000000000000000000, 0.000000000000000000 ) ) ;
#1117 = EDGE_LOOP ( 'NONE', ( #757, #1299, #156, #743, #561 ) ) ;
#1118 = ADVANCED_FACE ( 'NONE', ( #1310, #1206 ), #229, .T. ) ;
#1119 = FACE_OUTER_BOUND ( 'NONE', #552, .T. ) ;
#1120 = ORIENTED_EDGE ( 'NONE', *, *, #268, .F. ) ;
#1121 = LINE ( 'NONE', #35, #366 ) ;
#1122 = CARTESIAN_POINT ( 'NONE',  ( 9.656854249492294429, 209.0000000000000000, 2.499999999999972022 ) ) ;
#1123 = VERTEX_POINT ( 'NONE', #539 ) ;
#1124 = LINE ( 'NONE', #574, #345 ) ;
#1125 = VERTEX_POINT ( 'NONE', #970 ) ;
#1126 = CARTESIAN_POINT ( 'NONE',  ( 12.65685424949232285, 174.0698729810778502, 2.499999999999963141 ) ) ;
#1127 = DIRECTION ( 'NONE',  ( 0.000000000000000000, -1.000000000000000000, 0.000000000000000000 ) ) ;
#1128 = EDGE_LOOP ( 'NONE', ( #450, #116, #11, #877 ) ) ;
#1129 = EDGE_CURVE ( 'NONE', #1380, #170, #162, .T. ) ;
#1130 = DIRECTION ( 'NONE',  ( -0.7071067811865475727, -0.7071067811865475727, -0.000000000000000000 ) ) ;
#1131 = VECTOR ( 'NONE', #577, 1000.000000000000000 ) ;
#1132 = CARTESIAN_POINT ( 'NONE',  ( 12.65685424949232285, 43.86013679762406525, 0.5000000000000281997 ) ) ;
#1133 = EDGE_CURVE ( 'NONE', #1335, #615, #1109, .T. ) ;
#1134 = VECTOR ( 'NONE', #299, 1000.000000000000000 ) ;
#1135 = AXIS2_PLACEMENT_3D ( 'NONE', #1276, #1169, #949 ) ;
#1136 = DIRECTION ( 'NONE',  ( 0.000000000000000000, 1.000000000000000000, 0.000000000000000000 ) ) ;
#1137 = ORIENTED_EDGE ( 'NONE', *, *, #210, .T. ) ;
#1138 = VECTOR ( 'NONE', #1360, 1000.000000000000000 ) ;
#1139 = DIRECTION ( 'NONE',  ( -0.4999999999999946709, -0.8660254037844418162, 0.000000000000000000 ) ) ;
#1140 = EDGE_CURVE ( 'NONE', #615, #1227, #820, .T. ) ;
#1141 = ORIENTED_EDGE ( 'NONE', *, *, #46, .F. ) ;
#1142 = CARTESIAN_POINT ( 'NONE',  ( 18.15685424949229443, 40.25244164303732219, 0.000000000000000000 ) ) ;
#1143 = CC_DESIGN_PERSON_AND_ORGANIZATION_ASSIGNMENT ( #857, #1203, ( #1273 ) ) ;
#1144 = DIRECTION ( 'NONE',  ( 0.4999999999999946709, 0.8660254037844418162, 0.000000000000000000 ) ) ;
#1145 = ORIENTED_EDGE ( 'NONE', *, *, #1225, .F. ) ;
#1146 = CARTESIAN_POINT ( 'NONE',  ( 1.400000000000300115, 1.667049042456541002E-13, 2.499999999999987566 ) ) ;
#1147 = ORIENTED_EDGE ( 'NONE', *, *, #763, .T. ) ;
#1148 = FACE_OUTER_BOUND ( 'NONE', #828, .T. ) ;
#1149 = LINE ( 'NONE', #1122, #200 ) ;
#1150 = ORIENTED_EDGE ( 'NONE', *, *, #1055, .T. ) ;
#1151 = DESIGN_CONTEXT ( 'detailed design', #236, 'design' ) ;
#1152 = LINE ( 'NONE', #614, #933 ) ;
#1153 = ORIENTED_EDGE ( 'NONE', *, *, #376, .T. ) ;
#1154 = CARTESIAN_POINT ( 'NONE',  ( 3.001071613439876273E-13, 1.665334536937734811E-13, 0.000000000000000000 ) ) ;
#1155 = DIRECTION ( 'NONE',  ( 0.6947465906068657215, 0.1861567878973862389, 0.6947465906068657215 ) ) ;
#1156 = VECTOR ( 'NONE', #77, 1000.000000000000000 ) ;
#1157 = EDGE_CURVE ( 'NONE', #1324, #558, #55, .T. ) ;
#1158 = AXIS2_PLACEMENT_3D ( 'NONE', #567, #1339, #369 ) ;
#1159 = LINE ( 'NONE', #960, #633 ) ;
#1160 = ADVANCED_FACE ( 'NONE', ( #151 ), #141, .T. ) ;
#1161 = ORIENTED_EDGE ( 'NONE', *, *, #38, .F. ) ;
#1162 = CARTESIAN_POINT ( 'NONE',  ( 9.656854249492294429, 208.4999999999999716, 3.000000000000000000 ) ) ;
#1163 = LINE ( 'NONE', #855, #1270 ) ;
#1164 = LINE ( 'NONE', #295, #44 ) ;
#1165 = LINE ( 'NONE', #1254, #410 ) ;
#1166 = CC_DESIGN_DATE_AND_TIME_ASSIGNMENT ( #1213, #973, ( #1273 ) ) ;
#1167 = ORIENTED_EDGE ( 'NONE', *, *, #130, .F. ) ;
#1168 = PLANE ( 'NONE',  #501 ) ;
#1169 = DIRECTION ( 'NONE',  ( -0.7071067811865475727, 0.000000000000000000, -0.7071067811865475727 ) ) ;
#1170 = DIRECTION ( 'NONE',  ( -0.000000000000000000, -0.000000000000000000, -1.000000000000000000 ) ) ;
#1171 = LINE ( 'NONE', #832, #1180 ) ;
#1172 = EDGE_CURVE ( 'NONE', #1335, #863, #1045, .T. ) ;
#1173 = ORIENTED_EDGE ( 'NONE', *, *, #402, .F. ) ;
#1174 = LINE ( 'NONE', #608, #1272 ) ;
#1175 = DIRECTION ( 'NONE',  ( -0.000000000000000000, -0.000000000000000000, -1.000000000000000000 ) ) ;
#1176 = EDGE_CURVE ( 'NONE', #898, #673, #697, .T. ) ;
#1177 = AXIS2_PLACEMENT_3D ( 'NONE', #148, #52, #1252 ) ;
#1178 = CARTESIAN_POINT ( 'NONE',  ( 10.15685424949232285, 208.7226499018873653, 2.416025147168951115 ) ) ;
#1179 = AXIS2_PLACEMENT_3D ( 'NONE', #1237, #259, #489 ) ;
#1180 = VECTOR ( 'NONE', #1047, 1000.000000000000114 ) ;
#1181 = EDGE_LOOP ( 'NONE', ( #605, #1147, #1189, #145 ) ) ;
#1182 = DIRECTION ( 'NONE',  ( -0.000000000000000000, 0.000000000000000000, -1.000000000000000000 ) ) ;
#1183 = EDGE_CURVE ( 'NONE', #1010, #335, #579, .T. ) ;
#1184 = ORIENTED_EDGE ( 'NONE', *, *, #130, .T. ) ;
#1185 = DIRECTION ( 'NONE',  ( -0.4999999999999946709, -0.8660254037844418162, 0.000000000000000000 ) ) ;
#1186 = APPROVAL ( #881, 'UNSPECIFIED' ) ;
#1187 = LINE ( 'NONE', #1277, #1019 ) ;
#1188 = PERSON_AND_ORGANIZATION ( #920, #273 ) ;
#1189 = ORIENTED_EDGE ( 'NONE', *, *, #294, .T. ) ;
#1190 = CARTESIAN_POINT ( 'NONE',  ( 3.499999999999999556, 1.942890292951398880E-16, 2.499999999999972022 ) ) ;
#1191 = EDGE_LOOP ( 'NONE', ( #128, #927, #1026, #1005 ) ) ;
#1192 = DIRECTION ( 'NONE',  ( -1.000000000000000000, 0.000000000000000000, 0.000000000000000000 ) ) ;
#1193 = EDGE_CURVE ( 'NONE', #48, #333, #1124, .T. ) ;
#1194 = CARTESIAN_POINT ( 'NONE',  ( 5.310645111940435648, 13.51483910447621639, 2.310645111940463181 ) ) ;
#1195 = ORIENTED_EDGE ( 'NONE', *, *, #534, .T. ) ;
#1196 = PERSON_AND_ORGANIZATION ( #920, #273 ) ;
#1197 = VERTEX_POINT ( 'NONE', #691 ) ;
#1198 = DIRECTION ( 'NONE',  ( -0.7071067811865476838, 0.000000000000000000, -0.7071067811865473507 ) ) ;
#1199 = ORIENTED_EDGE ( 'NONE', *, *, #1035, .T. ) ;
#1200 = DIRECTION ( 'NONE',  ( 3.097720492815727042E-17, 1.000000000000000000, 0.000000000000000000 ) ) ;
#1201 = DIRECTION ( 'NONE',  ( 0.7071067811865476838, 8.659560562354935323E-17, -0.7071067811865473507 ) ) ;
#1202 = ADVANCED_FACE ( 'NONE', ( #1119 ), #1012, .F. ) ;
#1203 = PERSON_AND_ORGANIZATION_ROLE ( 'classification_officer' ) ;
#1204 = PRODUCT_DEFINITION ( 'UNKNOWN', '', #617, #1151 ) ;
#1205 = ORIENTED_EDGE ( 'NONE', *, *, #490, .F. ) ;
#1206 = FACE_OUTER_BOUND ( 'NONE', #521, .T. ) ;
#1207 = VECTOR ( 'NONE', #1319, 1000.000000000000000 ) ;
#1208 = ORIENTED_EDGE ( 'NONE', *, *, #544, .T. ) ;
#1209 = VECTOR ( 'NONE', #39, 1000.000000000000000 ) ;
#1210 = FACE_OUTER_BOUND ( 'NONE', #1358, .T. ) ;
#1211 = PLANE ( 'NONE',  #66 ) ;
#1212 = ORIENTED_EDGE ( 'NONE', *, *, #836, .T. ) ;
#1213 = DATE_AND_TIME ( #317, #890 ) ;
#1214 = EDGE_LOOP ( 'NONE', ( #737, #239 ) ) ;
#1215 = FACE_OUTER_BOUND ( 'NONE', #1301, .T. ) ;
#1216 = CC_DESIGN_PERSON_AND_ORGANIZATION_ASSIGNMENT ( #537, #227, ( #1204 ) ) ;
#1217 = CARTESIAN_POINT ( 'NONE',  ( 36.82362566501313950, 182.1453398655342255, -15.66677141552085395 ) ) ;
#1218 = CARTESIAN_POINT ( 'NONE',  ( -3.499999999999999112, -1.942890293093933227E-16, 2.499999999999972022 ) ) ;
#1219 = ORIENTED_EDGE ( 'NONE', *, *, #62, .F. ) ;
#1220 = ORIENTED_EDGE ( 'NONE', *, *, #341, .F. ) ;
#1221 = CARTESIAN_POINT ( 'NONE',  ( 3.001071613439876273E-13, 1.665334536937734811E-13, 3.000000000000000000 ) ) ;
#1222 = EDGE_CURVE ( 'NONE', #102, #773, #467, .T. ) ;
#1223 = VERTEX_POINT ( 'NONE', #1337 ) ;
#1224 = CARTESIAN_POINT ( 'NONE',  ( 18.65685424949232285, 177.2775681356645805, 3.000000000000000000 ) ) ;
#1225 = EDGE_CURVE ( 'NONE', #28, #531, #795, .T. ) ;
#1226 = CARTESIAN_POINT ( 'NONE',  ( 18.15685424949229443, 40.38641623925288826, 0.000000000000000000 ) ) ;
#1227 = VERTEX_POINT ( 'NONE', #1025 ) ;
#1228 = AXIS2_PLACEMENT_3D ( 'NONE', #1233, #1245, #815 ) ;
#1229 = LINE ( 'NONE', #702, #182 ) ;
#1230 = CIRCLE ( 'NONE', #1087, 1.399999999999999911 ) ;
#1231 = CARTESIAN_POINT ( 'NONE',  ( 3.001071613439876273E-13, 1.665334536937734811E-13, 0.4999999999999570899 ) ) ;
#1232 = VECTOR ( 'NONE', #516, 1000.000000000000000 ) ;
#1233 = CARTESIAN_POINT ( 'NONE',  ( 3.001071613439876273E-13, 1.665334536937734811E-13, 3.000000000000000000 ) ) ;
#1234 = ORIENTED_EDGE ( 'NONE', *, *, #1052, .F. ) ;
#1235 = FACE_OUTER_BOUND ( 'NONE', #234, .T. ) ;
#1236 = EDGE_LOOP ( 'NONE', ( #1048, #206, #1107, #477 ) ) ;
#1237 = CARTESIAN_POINT ( 'NONE',  ( 3.156854249492324183, 208.4999999999999716, 2.499999999999972022 ) ) ;
#1238 = CARTESIAN_POINT ( 'NONE',  ( -3.499999999999997780, 15.87564434701785032, 0.5000000000000281997 ) ) ;
#1239 = EDGE_LOOP ( 'NONE', ( #564, #1321, #1153, #1390 ) ) ;
#1240 = EDGE_CURVE ( 'NONE', #1059, #492, #1229, .T. ) ;
#1241 = EDGE_CURVE ( 'NONE', #231, #585, #372, .T. ) ;
#1242 = PLANE ( 'NONE',  #979 ) ;
#1243 = ORIENTED_EDGE ( 'NONE', *, *, #253, .T. ) ;
#1244 = LINE ( 'NONE', #482, #974 ) ;
#1245 = DIRECTION ( 'NONE',  ( 0.000000000000000000, 0.000000000000000000, 1.000000000000000000 ) ) ;
#1246 = CARTESIAN_POINT ( 'NONE',  ( 2.999999999999971578, 1.664405220789890237E-13, 3.000000000000000000 ) ) ;
#1247 = EDGE_CURVE ( 'NONE', #174, #1088, #1349, .T. ) ;
#1248 = DIRECTION ( 'NONE',  ( -0.000000000000000000, -0.000000000000000000, -1.000000000000000000 ) ) ;
#1249 = AXIS2_PLACEMENT_3D ( 'NONE', #631, #83, #432 ) ;
#1250 = CARTESIAN_POINT ( 'NONE',  ( 9.656854249492294429, 206.0000000000000000, 0.000000000000000000 ) ) ;
#1251 = AXIS2_PLACEMENT_3D ( 'NONE', #762, #135, #129 ) ;
#1252 = DIRECTION ( 'NONE',  ( 0.5000000000000006661, -0.8660254037844382635, 0.000000000000000000 ) ) ;
#1253 = ORIENTED_EDGE ( 'NONE', *, *, #932, .T. ) ;
#1254 = CARTESIAN_POINT ( 'NONE',  ( 18.65685424949232285, 40.25244164303732219, 3.000000000000000000 ) ) ;
#1255 = CARTESIAN_POINT ( 'NONE',  ( 18.15685424949229443, 1.665334536937734811E-13, 3.000000000000000000 ) ) ;
#1256 = DIRECTION ( 'NONE',  ( -0.000000000000000000, -0.000000000000000000, -1.000000000000000000 ) ) ;
#1257 = ORIENTED_EDGE ( 'NONE', *, *, #781, .F. ) ;
#1258 = CARTESIAN_POINT ( 'NONE',  ( 3.156854249492324183, 208.4999999999999716, 2.499999999999972022 ) ) ;
#1259 = ORIENTED_EDGE ( 'NONE', *, *, #675, .F. ) ;
#1260 = PLANE ( 'NONE',  #1065 ) ;
#1261 = ADVANCED_FACE ( 'NONE', ( #1235 ), #27, .F. ) ;
#1262 = LINE ( 'NONE', #835, #592 ) ;
#1263 = EDGE_CURVE ( 'NONE', #1223, #3, #1332, .T. ) ;
#1264 = ORIENTED_EDGE ( 'NONE', *, *, #402, .T. ) ;
#1265 = DIRECTION ( 'NONE',  ( -0.7071067811865536790, 0.3922322702763646474, -0.5883484054145470266 ) ) ;
#1266 = ORIENTED_EDGE ( 'NONE', *, *, #781, .T. ) ;
#1267 = LINE ( 'NONE', #187, #271 ) ;
#1268 = CARTESIAN_POINT ( 'NONE',  ( 18.15685424949229443, 177.1435935394490002, 3.000000000000000000 ) ) ;
#1269 = VECTOR ( 'NONE', #1170, 1000.000000000000000 ) ;
#1270 = VECTOR ( 'NONE', #1061, 1000.000000000000000 ) ;
#1271 = LINE ( 'NONE', #1298, #838 ) ;
#1272 = VECTOR ( 'NONE', #171, 1000.000000000000114 ) ;
#1273 = SECURITY_CLASSIFICATION ( '', '', #8 ) ;
#1274 = ORIENTED_EDGE ( 'NONE', *, *, #879, .T. ) ;
#1275 = DIRECTION ( 'NONE',  ( 0.6947465906068654995, 0.1861567878973863777, -0.6947465906068658326 ) ) ;
#1276 = CARTESIAN_POINT ( 'NONE',  ( 9.656854249492294429, 1.665334536937734811E-13, 3.000000000000000000 ) ) ;
#1277 = CARTESIAN_POINT ( 'NONE',  ( 2.985419147005317964, 208.3285648975129334, 2.359341161729800795 ) ) ;
#1278 = ADVANCED_FACE ( 'NONE', ( #1032 ), #1242, .F. ) ;
#1279 = DIRECTION ( 'NONE',  ( 4.694622399615547836E-17, 1.000000000000000000, 0.000000000000000000 ) ) ;
#1280 = ORIENTED_EDGE ( 'NONE', *, *, #1308, .F. ) ;
#1281 = LINE ( 'NONE', #942, #709 ) ;
#1282 = LINE ( 'NONE', #99, #179 ) ;
#1283 = LINE ( 'NONE', #725, #454 ) ;
#1284 = EDGE_CURVE ( 'NONE', #585, #112, #1379, .T. ) ;
#1285 = VERTEX_POINT ( 'NONE', #397 ) ;
#1286 = LINE ( 'NONE', #522, #779 ) ;
#1287 = VERTEX_POINT ( 'NONE', #500 ) ;
#1288 = CARTESIAN_POINT ( 'NONE',  ( 3.499999999999999556, 1.942890293093933227E-16, 3.000000000000000000 ) ) ;
#1289 = AXIS2_PLACEMENT_3D ( 'NONE', #852, #748, #204 ) ;
#1290 = FACE_OUTER_BOUND ( 'NONE', #868, .T. ) ;
#1291 = CONICAL_SURFACE ( 'NONE', #1376, 1.399999999999999911, 0.7853981633974485010 ) ;
#1292 = VECTOR ( 'NONE', #1198, 1000.000000000000114 ) ;
#1293 = COORDINATED_UNIVERSAL_TIME_OFFSET ( 1, 0, .AHEAD. ) ;
#1294 = ORIENTED_EDGE ( 'NONE', *, *, #23, .T. ) ;
#1295 = PLANE ( 'NONE',  #956 ) ;
#1296 = EDGE_LOOP ( 'NONE', ( #1053, #992, #540, #1016 ) ) ;
#1297 = CARTESIAN_POINT ( 'NONE',  ( 2.999999999999971578, 14.13397459621556607, 0.000000000000000000 ) ) ;
#1298 = CARTESIAN_POINT ( 'NONE',  ( 9.656854249492294429, 192.0000000000000000, 0.000000000000000000 ) ) ;
#1299 = ORIENTED_EDGE ( 'NONE', *, *, #1308, .T. ) ;
#1300 = APPROVAL_DATE_TIME ( #656, #1186 ) ;
#1301 = EDGE_LOOP ( 'NONE', ( #228, #902, #635, #627 ) ) ;
#1302 = DIRECTION ( 'NONE',  ( 0.6947465906068657215, 0.1861567878973860168, -0.6947465906068657215 ) ) ;
#1303 = ORIENTED_EDGE ( 'NONE', *, *, #1374, .F. ) ;
#1304 = LINE ( 'NONE', #1224, #1338 ) ;
#1305 = ADVANCED_FACE ( 'NONE', ( #827 ), #73, .F. ) ;
#1306 = CARTESIAN_POINT ( 'NONE',  ( 3.156854249492323294, 190.5243556529821376, 3.000000000000000000 ) ) ;
#1307 = ORIENTED_EDGE ( 'NONE', *, *, #1183, .T. ) ;
#1308 = EDGE_CURVE ( 'NONE', #1123, #1324, #1058, .T. ) ;
#1309 = EDGE_LOOP ( 'NONE', ( #883, #310, #509, #398 ) ) ;
#1310 = FACE_BOUND ( 'NONE', #1214, .T. ) ;
#1311 = EDGE_LOOP ( 'NONE', ( #700, #578, #975, #676 ) ) ;
#1312 = LINE ( 'NONE', #683, #1316 ) ;
#1313 = CARTESIAN_POINT ( 'NONE',  ( -2.999999999999970690, 15.74166975080228426, 3.000000000000000000 ) ) ;
#1314 = AXIS2_PLACEMENT_3D ( 'NONE', #1009, #787, #115 ) ;
#1315 = DIRECTION ( 'NONE',  ( 1.000000000000000000, 0.000000000000000000, 0.000000000000000000 ) ) ;
#1316 = VECTOR ( 'NONE', #463, 1000.000000000000000 ) ;
#1317 = AXIS2_PLACEMENT_3D ( 'NONE', #134, #1182, #103 ) ;
#1318 = VERTEX_POINT ( 'NONE', #508 ) ;
#1319 = DIRECTION ( 'NONE',  ( 8.195211347292487827E-17, 1.000000000000000000, 0.000000000000000000 ) ) ;
#1320 = VECTOR ( 'NONE', #120, 1000.000000000000000 ) ;
#1321 = ORIENTED_EDGE ( 'NONE', *, *, #1172, .T. ) ;
#1322 = CARTESIAN_POINT ( 'NONE',  ( 3.156854249492324183, 209.0000000000000000, 2.000000000000001776 ) ) ;
#1323 = CARTESIAN_POINT ( 'NONE',  ( 10.15685424949232285, 197.4149575941950445, -5.122436391292580105 ) ) ;
#1324 = VERTEX_POINT ( 'NONE', #1258 ) ;
#1325 = EDGE_CURVE ( 'NONE', #1073, #898, #412, .T. ) ;
#1326 = DIRECTION ( 'NONE',  ( 0.6123724356957946924, -0.3535533905932689569, -0.7071067811865499042 ) ) ;
#1327 = DIRECTION ( 'NONE',  ( 0.6947465906068647223, -0.1861567878973922618, 0.6947465906068647223 ) ) ;
#1328 = EDGE_CURVE ( 'NONE', #242, #327, #848, .T. ) ;
#1329 = FACE_OUTER_BOUND ( 'NONE', #914, .T. ) ;
#1330 = DIRECTION ( 'NONE',  ( 0.7071067811865530128, 0.3922322702763650359, -0.5883484054145475817 ) ) ;
#1331 = ORIENTED_EDGE ( 'NONE', *, *, #1383, .T. ) ;
#1332 = LINE ( 'NONE', #480, #504 ) ;
#1333 = PLANE ( 'NONE',  #342 ) ;
#1334 = CARTESIAN_POINT ( 'NONE',  ( 3.001071613439876273E-13, 1.665334536937734811E-13, 0.000000000000000000 ) ) ;
#1335 = VERTEX_POINT ( 'NONE', #1146 ) ;
#1336 = VECTOR ( 'NONE', #641, 999.9999999999998863 ) ;
#1337 = CARTESIAN_POINT ( 'NONE',  ( 9.656854249492294429, 209.0000000000000000, 2.000000000000001776 ) ) ;
#1338 = VECTOR ( 'NONE', #122, 1000.000000000000000 ) ;
#1339 = DIRECTION ( 'NONE',  ( 0.000000000000000000, 0.000000000000000000, 1.000000000000000000 ) ) ;
#1340 = AXIS2_PLACEMENT_3D ( 'NONE', #947, #723, #1040 ) ;
#1341 = DIRECTION ( 'NONE',  ( -0.000000000000000000, -0.000000000000000000, -1.000000000000000000 ) ) ;
#1342 = ORIENTED_EDGE ( 'NONE', *, *, #268, .T. ) ;
#1343 = CARTESIAN_POINT ( 'NONE',  ( 3.500000000000000000, 14.00000000000000000, 3.000000000000000000 ) ) ;
#1344 = ORIENTED_EDGE ( 'NONE', *, *, #866, .F. ) ;
#1345 = FACE_OUTER_BOUND ( 'NONE', #1353, .T. ) ;
#1346 = ADVANCED_FACE ( 'NONE', ( #84 ), #78, .T. ) ;
#1347 = DIRECTION ( 'NONE',  ( 8.195211347292487827E-17, 1.000000000000000000, 0.000000000000000000 ) ) ;
#1348 = ORIENTED_EDGE ( 'NONE', *, *, #846, .T. ) ;
#1349 = LINE ( 'NONE', #488, #864 ) ;
#1350 = DIRECTION ( 'NONE',  ( -8.195211347292487827E-17, -1.000000000000000000, 0.000000000000000000 ) ) ;
#1351 = DIRECTION ( 'NONE',  ( -0.000000000000000000, -0.000000000000000000, -1.000000000000000000 ) ) ;
#1352 = VECTOR ( 'NONE', #456, 1000.000000000000000 ) ;
#1353 = EDGE_LOOP ( 'NONE', ( #119, #1184, #288, #941 ) ) ;
#1354 = DIRECTION ( 'NONE',  ( -1.000000000000000000, 0.000000000000000000, 0.000000000000000000 ) ) ;
#1355 = AXIS2_PLACEMENT_3D ( 'NONE', #964, #943, #311 ) ;
#1356 = VECTOR ( 'NONE', #303, 1000.000000000000114 ) ;
#1357 = DIRECTION ( 'NONE',  ( 3.906161949405151493E-17, 0.8320502943378437211, 0.5547001962252291474 ) ) ;
#1358 = EDGE_LOOP ( 'NONE', ( #457, #990, #994, #566 ) ) ;
#1359 = ADVANCED_FACE ( 'NONE', ( #519 ), #282, .F. ) ;
#1360 = DIRECTION ( 'NONE',  ( -0.000000000000000000, -0.000000000000000000, -1.000000000000000000 ) ) ;
#1361 = VERTEX_POINT ( 'NONE', #514 ) ;
#1362 = PLANE ( 'NONE',  #977 ) ;
#1363 = EDGE_CURVE ( 'NONE', #531, #602, #1165, .T. ) ;
#1364 = LINE ( 'NONE', #739, #930 ) ;
#1365 = EDGE_LOOP ( 'NONE', ( #755, #1257, #692, #442 ) ) ;
#1366 = DIRECTION ( 'NONE',  ( 0.6123724356957940262, 0.3535533905932744525, -0.7071067811865475727 ) ) ;
#1367 = DIRECTION ( 'NONE',  ( -0.5000000000000009992, 0.8660254037844380415, 0.000000000000000000 ) ) ;
#1368 = DIRECTION ( 'NONE',  ( -0.000000000000000000, 0.7071067811865474617, -0.7071067811865474617 ) ) ;
#1369 = DIRECTION ( 'NONE',  ( -0.5000000000000009992, 0.8660254037844380415, 0.000000000000000000 ) ) ;
#1370 =( LENGTH_UNIT ( ) NAMED_UNIT ( * ) SI_UNIT ( .MILLI., .METRE. ) );
#1371 = ORIENTED_EDGE ( 'NONE', *, *, #362, .T. ) ;
#1372 = DIRECTION ( 'NONE',  ( -1.000000000000000000, 0.000000000000000000, 0.000000000000000000 ) ) ;
#1373 = LINE ( 'NONE', #421, #226 ) ;
#1374 = EDGE_CURVE ( 'NONE', #1123, #174, #169, .T. ) ;
#1375 = AXIS2_PLACEMENT_3D ( 'NONE', #123, #30, #322 ) ;
#1376 = AXIS2_PLACEMENT_3D ( 'NONE', #232, #356, #980 ) ;
#1377 = CARTESIAN_POINT ( 'NONE',  ( 18.15685424949229443, 40.38641623925288826, 3.000000000000000000 ) ) ;
#1378 = EDGE_CURVE ( 'NONE', #863, #1227, #1152, .T. ) ;
#1379 = LINE ( 'NONE', #1038, #731 ) ;
#1380 = VERTEX_POINT ( 'NONE', #742 ) ;
#1381 = DIRECTION ( 'NONE',  ( 0.4999999999999948375, 0.8660254037844417052, 0.000000000000000000 ) ) ;
#1382 = CARTESIAN_POINT ( 'NONE',  ( 9.656854249492294429, 206.0000000000000000, -3.198396408832238080E-15 ) ) ;
#1383 = EDGE_CURVE ( 'NONE', #214, #715, #1171, .T. ) ;
#1384 = DIRECTION ( 'NONE',  ( 0.6914377643506447457, -0.2093505100532705165, 0.6914377643506447457 ) ) ;
#1385 = ORIENTED_EDGE ( 'NONE', *, *, #1241, .F. ) ;
#1386 = LINE ( 'NONE', #510, #889 ) ;
#1387 = LINE ( 'NONE', #401, #1134 ) ;
#1388 = DIRECTION ( 'NONE',  ( 0.5000000000000009992, -0.8660254037844380415, 0.000000000000000000 ) ) ;
#1389 = PERSON_AND_ORGANIZATION ( #920, #273 ) ;
#1390 = ORIENTED_EDGE ( 'NONE', *, *, #784, .T. ) ;
#1391 = CARTESIAN_POINT ( 'NONE',  ( 3.156854249492323294, 190.5243556529821376, 0.5000000000000281997 ) ) ;
#1392 = ORIENTED_EDGE ( 'NONE', *, *, #1363, .T. ) ;
#1393 = CARTESIAN_POINT ( 'NONE',  ( 3.499999999999999556, 1.942890293093933227E-16, 0.5000000000000281997 ) ) ;
#1394 = AXIS2_PLACEMENT_3D ( 'NONE', #1306, #471, #36 ) ;
#1395 = CARTESIAN_POINT ( 'NONE',  ( 18.65685424949232285, 177.2775681356645805, 2.499999999999958700 ) ) ;
#1396 = VECTOR ( 'NONE', #1027, 1000.000000000000114 ) ;
#1397 = PRODUCT_DEFINITION_SHAPE ( 'NONE', 'NONE',  #1204 ) ;
#1398 = AXIS2_PLACEMENT_3D ( 'NONE', #945, #1265, #197 ) ;
#1399 = ADVANCED_FACE ( 'NONE', ( #840 ), #530, .T. ) ;
ENDSEC;
END-ISO-10303-21;
