ISO-10303-21;
HEADER;
FILE_DESCRIPTION (( 'STEP AP203' ),
    '1' );
FILE_NAME ('MB_door_front_slider_bottom_XL_v1.step',
    '2023-01-16T16:14:18',
    ( '' ),
    ( '' ),
    'SwSTEP 2.0',
    'SolidWorks 2023',
    '' );
FILE_SCHEMA (( 'CONFIG_CONTROL_DESIGN' ));
ENDSEC;

DATA;
#1 = CIRCLE ( 'NONE', #106, 1.399999999999998579 ) ;
#2 = ORIENTED_EDGE ( 'NONE', *, *, #214, .F. ) ;
#3 = CIRCLE ( 'NONE', #622, 3.499999999999999556 ) ;
#4 = DIRECTION ( 'NONE',  ( -1.000000000000000000, 0.000000000000000000, 0.000000000000000000 ) ) ;
#5 = DIRECTION ( 'NONE',  ( -1.000000000000000000, 0.000000000000000000, 0.000000000000000000 ) ) ;
#6 = EDGE_CURVE ( 'NONE', #1214, #492, #718, .T. ) ;
#7 = ORIENTED_EDGE ( 'NONE', *, *, #916, .T. ) ;
#8 = LINE ( 'NONE', #200, #1062 ) ;
#9 = ORIENTED_EDGE ( 'NONE', *, *, #1232, .T. ) ;
#10 = DIRECTION ( 'NONE',  ( 0.7071067811865646702, -1.922962686383665382E-16, 0.7071067811865302533 ) ) ;
#11 = CARTESIAN_POINT ( 'NONE',  ( 3.440894371254783035, 14.75628221311978372, 3.000000000000000000 ) ) ;
#12 = EDGE_LOOP ( 'NONE', ( #631, #615, #239, #798 ) ) ;
#13 = FACE_OUTER_BOUND ( 'NONE', #265, .T. ) ;
#14 = EDGE_LOOP ( 'NONE', ( #398, #632, #436, #1022 ) ) ;
#15 = EDGE_CURVE ( 'NONE', #801, #1075, #346, .T. ) ;
#16 = FACE_OUTER_BOUND ( 'NONE', #1013, .T. ) ;
#17 = CARTESIAN_POINT ( 'NONE',  ( 13.84089437125490818, 23.47871407745524763, 3.000000000000000000 ) ) ;
#18 = CC_DESIGN_APPROVAL ( #598, ( #577 ) ) ;
#19 = VECTOR ( 'NONE', #793, 1000.000000000000000 ) ;
#20 = VECTOR ( 'NONE', #558, 1000.000000000000000 ) ;
#21 = VERTEX_POINT ( 'NONE', #517 ) ;
#22 = FACE_OUTER_BOUND ( 'NONE', #254, .T. ) ;
#23 = EDGE_CURVE ( 'NONE', #472, #587, #1199, .T. ) ;
#24 = VERTEX_POINT ( 'NONE', #814 ) ;
#25 = EDGE_CURVE ( 'NONE', #974, #71, #1011, .T. ) ;
#26 = CARTESIAN_POINT ( 'NONE',  ( 10.04089437125479911, 23.47871407745524763, 0.000000000000000000 ) ) ;
#27 = ORIENTED_EDGE ( 'NONE', *, *, #629, .F. ) ;
#28 = DIRECTION ( 'NONE',  ( -0.4999999999999998890, -0.8660254037844385966, 0.000000000000000000 ) ) ;
#29 = ORIENTED_EDGE ( 'NONE', *, *, #235, .T. ) ;
#30 = CARTESIAN_POINT ( 'NONE',  ( 15.59774862074719870, -232.5212859225448199, 3.000000000000000000 ) ) ;
#31 = ORIENTED_EDGE ( 'NONE', *, *, #133, .T. ) ;
#32 = VERTEX_POINT ( 'NONE', #1021 ) ;
#33 = EDGE_CURVE ( 'NONE', #872, #21, #1218, .T. ) ;
#34 = CARTESIAN_POINT ( 'NONE',  ( 15.09774862074722535, -232.3698981036787927, 2.500000000000003997 ) ) ;
#35 = EDGE_CURVE ( 'NONE', #567, #575, #534, .T. ) ;
#36 = ORIENTED_EDGE ( 'NONE', *, *, #196, .T. ) ;
#37 = VECTOR ( 'NONE', #159, 1000.000000000000000 ) ;
#38 = DIRECTION ( 'NONE',  ( -0.5000000000000002220, -0.8660254037844384856, 0.000000000000000000 ) ) ;
#39 = AXIS2_PLACEMENT_3D ( 'NONE', #926, #430, #918 ) ;
#40 = VECTOR ( 'NONE', #469, 1000.000000000000000 ) ;
#41 = ORIENTED_EDGE ( 'NONE', *, *, #93, .F. ) ;
#42 = DIRECTION ( 'NONE',  ( -1.245767767511694059E-16, 1.000000000000000000, 0.000000000000000000 ) ) ;
#43 = VECTOR ( 'NONE', #457, 1000.000000000000000 ) ;
#44 = CARTESIAN_POINT ( 'NONE',  ( 21.59774862074722535, -217.1796161717424809, 0.000000000000000000 ) ) ;
#45 = ORIENTED_EDGE ( 'NONE', *, *, #33, .T. ) ;
#46 = COORDINATED_UNIVERSAL_TIME_OFFSET ( 1, 0, .AHEAD. ) ;
#47 = ORIENTED_EDGE ( 'NONE', *, *, #119, .T. ) ;
#48 = CARTESIAN_POINT ( 'NONE',  ( 8.940894371254838546, -194.2573015476276908, 0.4999999999999726885 ) ) ;
#49 = DIRECTION ( 'NONE',  ( 0.6947465906068425179, 0.1861567878974172696, 0.6947465906068803765 ) ) ;
#50 = CARTESIAN_POINT ( 'NONE',  ( 11.94089437125481190, 23.47871407745524763, 0.4999999999999874545 ) ) ;
#51 = EDGE_LOOP ( 'NONE', ( #45, #928, #468, #31 ) ) ;
#52 = CARTESIAN_POINT ( 'NONE',  ( 8.940894371254813677, 11.28256165474861916, 0.4999999999999726885 ) ) ;
#53 = EDGE_CURVE ( 'NONE', #948, #98, #540, .T. ) ;
#54 = LINE ( 'NONE', #937, #1041 ) ;
#55 = DIRECTION ( 'NONE',  ( 0.4999999999999999445, 0.8660254037844387076, 0.000000000000000000 ) ) ;
#56 = CARTESIAN_POINT ( 'NONE',  ( 14.97198328450034666, 21.72871407745524408, 3.000000000000000000 ) ) ;
#57 = CIRCLE ( 'NONE', #904, 1.399999999999998579 ) ;
#58 = ORIENTED_EDGE ( 'NONE', *, *, #190, .F. ) ;
#59 = CARTESIAN_POINT ( 'NONE',  ( 8.940894371254813677, 11.28256165474861916, 3.000000000000000000 ) ) ;
#60 = LOCAL_TIME ( 17, 14, 18.00000000000000000, #46 ) ;
#61 = VECTOR ( 'NONE', #696, 1000.000000000000000 ) ;
#62 = PLANE ( 'NONE',  #1143 ) ;
#63 = CARTESIAN_POINT ( 'NONE',  ( 10.54089437125481332, 23.47871407745524763, 0.4999999999999874545 ) ) ;
#64 = PERSON_AND_ORGANIZATION ( #1142, #859 ) ;
#65 = AXIS2_PLACEMENT_3D ( 'NONE', #791, #497, #383 ) ;
#66 = EDGE_LOOP ( 'NONE', ( #807, #856, #1032, #1100 ) ) ;
#67 = CARTESIAN_POINT ( 'NONE',  ( 9.342818159901504771, 24.97871407745525474, 0.000000000000000000 ) ) ;
#68 = DIRECTION ( 'NONE',  ( 1.000000000000000000, 0.000000000000000000, 0.000000000000000000 ) ) ;
#69 = FACE_OUTER_BOUND ( 'NONE', #896, .T. ) ;
#70 = EDGE_CURVE ( 'NONE', #320, #731, #148, .T. ) ;
#71 = VERTEX_POINT ( 'NONE', #141 ) ;
#72 = LINE ( 'NONE', #1055, #617 ) ;
#73 = ORIENTED_EDGE ( 'NONE', *, *, #1083, .T. ) ;
#74 = CARTESIAN_POINT ( 'NONE',  ( 15.09774862074722535, -232.2439358244322136, 2.583974852831075530 ) ) ;
#75 = ADVANCED_FACE ( 'NONE', ( #527 ), #1203, .T. ) ;
#76 = LINE ( 'NONE', #1154, #470 ) ;
#77 = EDGE_CURVE ( 'NONE', #151, #974, #1109, .T. ) ;
#78 = VERTEX_POINT ( 'NONE', #931 ) ;
#79 = DIRECTION ( 'NONE',  ( 0.000000000000000000, 0.000000000000000000, 1.000000000000000000 ) ) ;
#80 = ORIENTED_EDGE ( 'NONE', *, *, #70, .T. ) ;
#81 = VECTOR ( 'NONE', #541, 1000.000000000000000 ) ;
#82 = CLOSED_SHELL ( 'NONE', ( #437, #382, #660, #1097, #1192, #1269, #1059, #853, #932, #1252, #556, #765, #832, #249, #319, #110, #588, #838, #267, #288, #1177, #342, #375, #360, #1104, #1216, #101, #1118, #719, #1040, #1134, #1213, #1020, #611, #886, #786, #504, #206, #975, #456, #75, #982, #566, #703, #667 ) ) ;
#83 = DIRECTION ( 'NONE',  ( -0.7071067811865660024, -0.3922322702763554325, 0.5883484054145384778 ) ) ;
#84 = CARTESIAN_POINT ( 'NONE',  ( 2.940894371254838546, -197.4649967022144210, 3.000000000000000000 ) ) ;
#85 = ORIENTED_EDGE ( 'NONE', *, *, #1119, .T. ) ;
#86 = CONICAL_SURFACE ( 'NONE', #1072, 1.399999999999998579, 0.7853981633974748133 ) ;
#87 = CARTESIAN_POINT ( 'NONE',  ( 15.59774862074719870, -235.5212859225447630, 1.000000000000053735 ) ) ;
#88 = CARTESIAN_POINT ( 'NONE',  ( 2.940894371254811901, 14.89025680933534268, 0.4999999999999726885 ) ) ;
#89 = DIRECTION ( 'NONE',  ( 1.000000000000000000, 0.000000000000000000, 0.000000000000000000 ) ) ;
#90 = PERSON_AND_ORGANIZATION ( #1142, #859 ) ;
#91 = ORIENTED_EDGE ( 'NONE', *, *, #175, .F. ) ;
#92 = CARTESIAN_POINT ( 'NONE',  ( 22.09774862074722535, -232.5212859225448199, 2.499999999999999556 ) ) ;
#93 = EDGE_CURVE ( 'NONE', #422, #217, #533, .T. ) ;
#94 = CARTESIAN_POINT ( 'NONE',  ( 22.09774862074722535, -232.5212859225448199, 3.000000000000000000 ) ) ;
#95 = LINE ( 'NONE', #299, #950 ) ;
#96 = ORIENTED_EDGE ( 'NONE', *, *, #477, .T. ) ;
#97 = LINE ( 'NONE', #490, #427 ) ;
#98 = VERTEX_POINT ( 'NONE', #741 ) ;
#99 = VECTOR ( 'NONE', #826, 1000.000000000000000 ) ;
#100 = CARTESIAN_POINT ( 'NONE',  ( 15.09774862074722357, -218.5212859225447630, 2.499999999999999556 ) ) ;
#101 = ADVANCED_FACE ( 'NONE', ( #1127 ), #1133, .F. ) ;
#102 = CARTESIAN_POINT ( 'NONE',  ( 2.940894371254847428, -197.4649967022144494, 2.500000000000011102 ) ) ;
#103 = VECTOR ( 'NONE', #10, 1000.000000000000114 ) ;
#104 = ORIENTED_EDGE ( 'NONE', *, *, #869, .F. ) ;
#105 = DIRECTION ( 'NONE',  ( 0.6123724356957774839, -0.3535533905932639054, 0.7071067811865672237 ) ) ;
#106 = AXIS2_PLACEMENT_3D ( 'NONE', #371, #767, #276 ) ;
#107 = ORIENTED_EDGE ( 'NONE', *, *, #441, .F. ) ;
#108 = CARTESIAN_POINT ( 'NONE',  ( 8.440894371254866968, -194.3912761438433279, 3.000000000000000000 ) ) ;
#109 = CARTESIAN_POINT ( 'NONE',  ( 2.940894371254838546, -197.4649967022144210, 3.000000000000000000 ) ) ;
#110 = ADVANCED_FACE ( 'NONE', ( #69 ), #938, .F. ) ;
#111 = ORIENTED_EDGE ( 'NONE', *, *, #116, .T. ) ;
#112 = LINE ( 'NONE', #788, #19 ) ;
#113 = ORIENTED_EDGE ( 'NONE', *, *, #549, .T. ) ;
#114 = LINE ( 'NONE', #502, #103 ) ;
#115 = CARTESIAN_POINT ( 'NONE',  ( 14.94089437125481190, 23.47871407745524763, 0.000000000000000000 ) ) ;
#116 = EDGE_CURVE ( 'NONE', #1080, #384, #1239, .T. ) ;
#117 = ORIENTED_EDGE ( 'NONE', *, *, #6, .F. ) ;
#118 = DIRECTION ( 'NONE',  ( 0.6123724356957684911, 0.3535533905932600196, 0.7071067811865768826 ) ) ;
#119 = EDGE_CURVE ( 'NONE', #731, #315, #754, .T. ) ;
#120 = VERTEX_POINT ( 'NONE', #847 ) ;
#121 = LINE ( 'NONE', #241, #425 ) ;
#122 = CC_DESIGN_APPROVAL ( #840, ( #735 ) ) ;
#123 = ORIENTED_EDGE ( 'NONE', *, *, #958, .T. ) ;
#124 = DIRECTION ( 'NONE',  ( -0.000000000000000000, 0.7071067811865279218, 0.7071067811865671127 ) ) ;
#125 = VECTOR ( 'NONE', #128, 1000.000000000000000 ) ;
#126 = ORIENTED_EDGE ( 'NONE', *, *, #706, .T. ) ;
#127 = AXIS2_PLACEMENT_3D ( 'NONE', #482, #604, #5 ) ;
#128 = DIRECTION ( 'NONE',  ( 2.595999626617670168E-15, 0.7071067811865671127, -0.7071067811865279218 ) ) ;
#129 = CARTESIAN_POINT ( 'NONE',  ( 21.56697235653052758, -235.5520621867614750, 1.016470956755745947 ) ) ;
#130 =( LENGTH_UNIT ( ) NAMED_UNIT ( * ) SI_UNIT ( .MILLI., .METRE. ) );
#131 = ORIENTED_EDGE ( 'NONE', *, *, #739, .F. ) ;
#132 = EDGE_CURVE ( 'NONE', #864, #228, #449, .T. ) ;
#133 = EDGE_CURVE ( 'NONE', #1082, #872, #76, .T. ) ;
#134 = LINE ( 'NONE', #1019, #783 ) ;
#135 = CARTESIAN_POINT ( 'NONE',  ( 11.94089437125481190, 23.47871407745524763, 0.000000000000000000 ) ) ;
#136 = CARTESIAN_POINT ( 'NONE',  ( 3.440894371254810569, 14.75628221311977839, 0.000000000000000000 ) ) ;
#137 = ORIENTED_EDGE ( 'NONE', *, *, #910, .T. ) ;
#138 = DIRECTION ( 'NONE',  ( -1.000000000000000000, 0.000000000000000000, 0.000000000000000000 ) ) ;
#139 = LINE ( 'NONE', #1120, #1270 ) ;
#140 = EDGE_CURVE ( 'NONE', #1075, #1214, #462, .T. ) ;
#141 = CARTESIAN_POINT ( 'NONE',  ( 22.09774862074722179, -217.0456415755269290, 2.499999999999999556 ) ) ;
#142 = VECTOR ( 'NONE', #639, 1000.000000000000114 ) ;
#143 = DIRECTION ( 'NONE',  ( -0.8660254037844385966, 0.5000000000000003331, 0.000000000000000000 ) ) ;
#144 = VECTOR ( 'NONE', #1114, 1000.000000000000227 ) ;
#145 = ORIENTED_EDGE ( 'NONE', *, *, #1112, .T. ) ;
#146 = CARTESIAN_POINT ( 'NONE',  ( 22.09774862074722535, -235.0212859225447630, 0.4999999999999726885 ) ) ;
#147 = CARTESIAN_POINT ( 'NONE',  ( 9.342818159901478126, 24.97871407745525829, 3.000000000000000000 ) ) ;
#148 = LINE ( 'NONE', #522, #144 ) ;
#149 = DATE_TIME_ROLE ( 'creation_date' ) ;
#150 = EDGE_CURVE ( 'NONE', #581, #792, #545, .T. ) ;
#151 = VERTEX_POINT ( 'NONE', #1057 ) ;
#152 = CARTESIAN_POINT ( 'NONE',  ( 8.940894371254838546, -194.2573015476276908, 3.000000000000000000 ) ) ;
#153 = DESIGN_CONTEXT ( 'detailed design', #726, 'design' ) ;
#154 = CARTESIAN_POINT ( 'NONE',  ( 15.44089437125481190, 23.47871407745524763, 0.4999999999999726885 ) ) ;
#155 = LINE ( 'NONE', #842, #43 ) ;
#156 = ORIENTED_EDGE ( 'NONE', *, *, #531, .F. ) ;
#157 = PLANE ( 'NONE',  #655 ) ;
#158 = CC_DESIGN_PERSON_AND_ORGANIZATION_ASSIGNMENT ( #1205, #327, ( #1132 ) ) ;
#159 = DIRECTION ( 'NONE',  ( 0.000000000000000000, 0.000000000000000000, -1.000000000000000000 ) ) ;
#160 = DIRECTION ( 'NONE',  ( -0.6123724356958024639, -0.3535533905932796150, 0.7071067811865378028 ) ) ;
#161 = VERTEX_POINT ( 'NONE', #572 ) ;
#162 = DIRECTION ( 'NONE',  ( 1.000000000000000000, 1.245767767511694059E-16, -0.000000000000000000 ) ) ;
#163 = VECTOR ( 'NONE', #259, 1000.000000000000114 ) ;
#164 = ORIENTED_EDGE ( 'NONE', *, *, #722, .T. ) ;
#165 = VECTOR ( 'NONE', #1160, 1000.000000000000000 ) ;
#166 = AXIS2_PLACEMENT_3D ( 'NONE', #363, #343, #1250 ) ;
#167 = ADVANCED_BREP_SHAPE_REPRESENTATION ( 'MB_door_front_slider_bottom_XL_v1', ( #1144, #39 ), #922 ) ;
#168 = CARTESIAN_POINT ( 'NONE',  ( -85.02457875570115675, -32.50432793449237323, 0.000000000000000000 ) ) ;
#169 = CARTESIAN_POINT ( 'NONE',  ( -90.04752609765093041, -35.40432793449244997, 0.000000000000000000 ) ) ;
#170 = ORIENTED_EDGE ( 'NONE', *, *, #421, .T. ) ;
#171 = CARTESIAN_POINT ( 'NONE',  ( 22.09774862074722179, -217.0456415755269290, 3.000000000000000000 ) ) ;
#172 = EDGE_LOOP ( 'NONE', ( #648, #825, #659, #560, #164 ) ) ;
#173 = EDGE_CURVE ( 'NONE', #1082, #312, #672, .T. ) ;
#174 = DIRECTION ( 'NONE',  ( 0.5000000000000002220, 0.8660254037844385966, 0.000000000000000000 ) ) ;
#175 = EDGE_CURVE ( 'NONE', #692, #78, #552, .T. ) ;
#176 = CARTESIAN_POINT ( 'NONE',  ( 14.53897058260814745, 21.97871407745522987, 3.000000000000000000 ) ) ;
#177 = VERTEX_POINT ( 'NONE', #954 ) ;
#178 = FACE_OUTER_BOUND ( 'NONE', #12, .T. ) ;
#179 = CYLINDRICAL_SURFACE ( 'NONE', #329, 1.399999999999998579 ) ;
#180 = DIRECTION ( 'NONE',  ( 1.020425574104004985E-16, -1.000000000000000000, 0.000000000000000000 ) ) ;
#181 = ORIENTED_EDGE ( 'NONE', *, *, #242, .T. ) ;
#182 = PLANE ( 'NONE',  #428 ) ;
#183 = VECTOR ( 'NONE', #620, 1000.000000000000000 ) ;
#184 = FACE_OUTER_BOUND ( 'NONE', #1105, .T. ) ;
#185 = AXIS2_PLACEMENT_3D ( 'NONE', #191, #578, #970 ) ;
#186 = FACE_OUTER_BOUND ( 'NONE', #608, .T. ) ;
#187 = COORDINATED_UNIVERSAL_TIME_OFFSET ( 1, 0, .AHEAD. ) ;
#188 = ORIENTED_EDGE ( 'NONE', *, *, #824, .F. ) ;
#189 = DIRECTION ( 'NONE',  ( -0.4999999999999999445, -0.8660254037844385966, 0.000000000000000000 ) ) ;
#190 = EDGE_CURVE ( 'NONE', #320, #161, #1052, .T. ) ;
#191 = CARTESIAN_POINT ( 'NONE',  ( 14.53897058260815456, 21.97871407745523342, 3.000000000000000000 ) ) ;
#192 = CARTESIAN_POINT ( 'NONE',  ( 22.09774862074722535, -232.3698981036788211, 2.500000000000002220 ) ) ;
#193 = ORIENTED_EDGE ( 'NONE', *, *, #397, .F. ) ;
#194 = DIRECTION ( 'NONE',  ( -0.7071067811865276997, -8.951801715506468740E-17, 0.7071067811865673347 ) ) ;
#195 = EDGE_LOOP ( 'NONE', ( #727, #962, #414, #310 ) ) ;
#196 = EDGE_CURVE ( 'NONE', #161, #78, #377, .T. ) ;
#197 = CARTESIAN_POINT ( 'NONE',  ( 8.909805458009282475, 25.22871407745525119, 3.000000000000000000 ) ) ;
#198 = DIRECTION ( 'NONE',  ( -1.020425574104004985E-16, 1.000000000000000000, 0.000000000000000000 ) ) ;
#199 = VERTEX_POINT ( 'NONE', #176 ) ;
#200 = CARTESIAN_POINT ( 'NONE',  ( 15.09774862074722357, -218.5212859225447630, 0.5000000000000004441 ) ) ;
#201 = EDGE_LOOP ( 'NONE', ( #602, #529, #707, #1001 ) ) ;
#202 = VECTOR ( 'NONE', #799, 999.9999999999998863 ) ;
#203 = VECTOR ( 'NONE', #219, 1000.000000000000000 ) ;
#204 = CARTESIAN_POINT ( 'NONE',  ( 15.59774862074719870, -235.5212859225447630, 0.4999999999999726885 ) ) ;
#205 = AXIS2_PLACEMENT_3D ( 'NONE', #712, #194, #979 ) ;
#206 = ADVANCED_FACE ( 'NONE', ( #1251 ), #353, .T. ) ;
#207 = CARTESIAN_POINT ( 'NONE',  ( 13.84089437125482469, 23.47871407745524763, 0.000000000000000000 ) ) ;
#208 = ORIENTED_EDGE ( 'NONE', *, *, #813, .T. ) ;
#209 = CARTESIAN_POINT ( 'NONE',  ( 15.09774862074722535, -235.5212859225447630, 0.4999999999999726885 ) ) ;
#210 = ORIENTED_EDGE ( 'NONE', *, *, #35, .F. ) ;
#211 = EDGE_CURVE ( 'NONE', #505, #501, #155, .T. ) ;
#212 = DIRECTION ( 'NONE',  ( -1.020425574104004985E-16, 1.000000000000000000, 0.000000000000000000 ) ) ;
#213 = CARTESIAN_POINT ( 'NONE',  ( 11.94089437125481190, 23.47871407745524763, 0.4999999999999726885 ) ) ;
#214 = EDGE_CURVE ( 'NONE', #217, #422, #309, .T. ) ;
#215 = ORIENTED_EDGE ( 'NONE', *, *, #1025, .T. ) ;
#216 = LINE ( 'NONE', #995, #779 ) ;
#217 = VERTEX_POINT ( 'NONE', #63 ) ;
#218 = FACE_OUTER_BOUND ( 'NONE', #289, .T. ) ;
#219 = DIRECTION ( 'NONE',  ( 0.000000000000000000, 0.000000000000000000, -1.000000000000000000 ) ) ;
#220 = ORIENTED_EDGE ( 'NONE', *, *, #706, .F. ) ;
#221 = DIRECTION ( 'NONE',  ( -0.5000000000000002220, -0.8660254037844384856, 0.000000000000000000 ) ) ;
#222 = ORIENTED_EDGE ( 'NONE', *, *, #958, .F. ) ;
#223 = VECTOR ( 'NONE', #465, 1000.000000000000227 ) ;
#224 = LINE ( 'NONE', #1202, #822 ) ;
#225 = ORIENTED_EDGE ( 'NONE', *, *, #800, .T. ) ;
#226 = CARTESIAN_POINT ( 'NONE',  ( 8.940894371254838546, -194.2573015476276908, 2.499999999999999556 ) ) ;
#227 = VECTOR ( 'NONE', #1222, 1000.000000000000000 ) ;
#228 = VERTEX_POINT ( 'NONE', #364 ) ;
#229 = EDGE_CURVE ( 'NONE', #411, #374, #698, .T. ) ;
#230 = VECTOR ( 'NONE', #679, 1000.000000000000000 ) ;
#231 = CARTESIAN_POINT ( 'NONE',  ( 13.34089437125481048, 23.47871407745524763, 0.4999999999999874545 ) ) ;
#232 = DIRECTION ( 'NONE',  ( -1.877848959846219134E-16, 1.000000000000000000, 0.000000000000000000 ) ) ;
#233 = DATE_AND_TIME ( #1234, #60 ) ;
#234 = VERTEX_POINT ( 'NONE', #564 ) ;
#235 = EDGE_CURVE ( 'NONE', #330, #120, #1, .T. ) ;
#236 = FACE_OUTER_BOUND ( 'NONE', #591, .T. ) ;
#237 = CARTESIAN_POINT ( 'NONE',  ( -85.02457875570115675, -32.50432793449236613, 3.000000000000000000 ) ) ;
#238 = APPROVAL_ROLE ( '' ) ;
#239 = ORIENTED_EDGE ( 'NONE', *, *, #25, .F. ) ;
#240 = LINE ( 'NONE', #897, #99 ) ;
#241 = CARTESIAN_POINT ( 'NONE',  ( 2.940894371254811901, 14.89025680933534268, 0.4999999999999726885 ) ) ;
#242 = EDGE_CURVE ( 'NONE', #422, #567, #1065, .T. ) ;
#243 = DIRECTION ( 'NONE',  ( 0.5000000000000011102, -0.8660254037844379305, 0.000000000000000000 ) ) ;
#244 = VECTOR ( 'NONE', #518, 1000.000000000000000 ) ;
#245 = VECTOR ( 'NONE', #621, 1000.000000000000000 ) ;
#246 = VECTOR ( 'NONE', #466, 1000.000000000000000 ) ;
#247 = ORIENTED_EDGE ( 'NONE', *, *, #571, .T. ) ;
#248 = DIRECTION ( 'NONE',  ( -1.245767767511694059E-16, 1.000000000000000000, 0.000000000000000000 ) ) ;
#249 = ADVANCED_FACE ( 'NONE', ( #871 ), #1180, .F. ) ;
#250 = VECTOR ( 'NONE', #803, 1000.000000000000114 ) ;
#251 = CARTESIAN_POINT ( 'NONE',  ( 15.09774862074722357, -222.5516281321244207, 9.045513314369536317 ) ) ;
#252 = APPROVAL ( #637, 'UNSPECIFIED' ) ;
#253 = ORIENTED_EDGE ( 'NONE', *, *, #302, .T. ) ;
#254 = EDGE_LOOP ( 'NONE', ( #126, #1220, #478, #1094, #394, #537, #215, #569, #47, #247 ) ) ;
#255 = LINE ( 'NONE', #356, #819 ) ;
#256 = LINE ( 'NONE', #850, #386 ) ;
#257 = DIRECTION ( 'NONE',  ( 0.000000000000000000, 1.000000000000000000, 0.000000000000000000 ) ) ;
#258 = ORIENTED_EDGE ( 'NONE', *, *, #513, .T. ) ;
#259 = DIRECTION ( 'NONE',  ( 0.5000000000000011102, -0.8660254037844379305, -0.000000000000000000 ) ) ;
#260 = DIRECTION ( 'NONE',  ( 0.000000000000000000, 0.000000000000000000, 1.000000000000000000 ) ) ;
#261 = CARTESIAN_POINT ( 'NONE',  ( 15.09774862074722535, -235.5212859225447630, 3.000000000000000000 ) ) ;
#262 = DATE_AND_TIME ( #378, #1227 ) ;
#263 = EDGE_CURVE ( 'NONE', #792, #887, #3, .T. ) ;
#264 = AXIS2_PLACEMENT_3D ( 'NONE', #624, #1015, #915 ) ;
#265 = EDGE_LOOP ( 'NONE', ( #7, #683, #401, #844 ) ) ;
#266 = CARTESIAN_POINT ( 'NONE',  ( 22.09774862074722179, -217.0456415755269290, 0.4999999999999726885 ) ) ;
#267 = ADVANCED_FACE ( 'NONE', ( #186 ), #454, .F. ) ;
#268 = AXIS2_PLACEMENT_3D ( 'NONE', #292, #496, #1255 ) ;
#269 = CARTESIAN_POINT ( 'NONE',  ( 15.59774862074719870, -235.5212859225447630, 3.000000000000000000 ) ) ;
#270 = VECTOR ( 'NONE', #1085, 1000.000000000000000 ) ;
#271 = DIRECTION ( 'NONE',  ( 1.000000000000000000, 0.000000000000000000, 0.000000000000000000 ) ) ;
#272 = ORIENTED_EDGE ( 'NONE', *, *, #795, .F. ) ;
#273 = DIRECTION ( 'NONE',  ( 1.877848959846219134E-16, -1.000000000000000000, 0.000000000000000000 ) ) ;
#274 = CC_DESIGN_PERSON_AND_ORGANIZATION_ASSIGNMENT ( #64, #755, ( #735 ) ) ;
#275 = DIRECTION ( 'NONE',  ( 0.7071067811865670016, 8.951801715506966708E-17, 0.7071067811865280328 ) ) ;
#276 = DIRECTION ( 'NONE',  ( 1.000000000000000000, 0.000000000000000000, 0.000000000000000000 ) ) ;
#277 = EDGE_LOOP ( 'NONE', ( #1135, #507, #907, #627 ) ) ;
#278 = DIRECTION ( 'NONE',  ( 0.6947465906068479580, -0.1861567878973758583, -0.6947465906068861496 ) ) ;
#279 = DIRECTION ( 'NONE',  ( 1.000000000000000000, 0.000000000000000000, 0.000000000000000000 ) ) ;
#280 = DIRECTION ( 'NONE',  ( -0.5000000000000011102, 0.8660254037844379305, 0.000000000000000000 ) ) ;
#281 = EDGE_CURVE ( 'NONE', #78, #864, #1173, .T. ) ;
#282 = ORIENTED_EDGE ( 'NONE', *, *, #762, .T. ) ;
#283 = LINE ( 'NONE', #776, #858 ) ;
#284 = ORIENTED_EDGE ( 'NONE', *, *, #739, .T. ) ;
#285 = LINE ( 'NONE', #875, #516 ) ;
#286 = VECTOR ( 'NONE', #1172, 1000.000000000000000 ) ;
#287 = CARTESIAN_POINT ( 'NONE',  ( 10.54089437125481332, 23.47871407745524763, 2.499999999999929390 ) ) ;
#288 = ADVANCED_FACE ( 'NONE', ( #998 ), #86, .F. ) ;
#289 = EDGE_LOOP ( 'NONE', ( #848, #512, #781, #317 ) ) ;
#290 = CIRCLE ( 'NONE', #804, 1.900000000000096056 ) ;
#291 = DIRECTION ( 'NONE',  ( 1.000000000000000000, 0.000000000000000000, 0.000000000000000000 ) ) ;
#292 = CARTESIAN_POINT ( 'NONE',  ( 11.94089437125481190, 23.47871407745524763, 0.000000000000000000 ) ) ;
#293 = CARTESIAN_POINT ( 'NONE',  ( 2.940894371254838546, -197.4649967022144210, 2.500000000000011102 ) ) ;
#294 = ORIENTED_EDGE ( 'NONE', *, *, #1232, .F. ) ;
#295 = LINE ( 'NONE', #1088, #244 ) ;
#296 = ORIENTED_EDGE ( 'NONE', *, *, #173, .T. ) ;
#297 = EDGE_CURVE ( 'NONE', #330, #217, #580, .T. ) ;
#298 = DIRECTION ( 'NONE',  ( -0.000000000000000000, -0.000000000000000000, -1.000000000000000000 ) ) ;
#299 = CARTESIAN_POINT ( 'NONE',  ( 8.507881669362616250, -194.5073015476277192, 3.000000000000000000 ) ) ;
#300 = ORIENTED_EDGE ( 'NONE', *, *, #25, .T. ) ;
#301 = FACE_OUTER_BOUND ( 'NONE', #978, .T. ) ;
#302 = EDGE_CURVE ( 'NONE', #374, #411, #290, .T. ) ;
#303 = ORIENTED_EDGE ( 'NONE', *, *, #304, .T. ) ;
#304 = EDGE_CURVE ( 'NONE', #692, #320, #403, .T. ) ;
#305 = AXIS2_PLACEMENT_3D ( 'NONE', #1149, #79, #291 ) ;
#306 = DIRECTION ( 'NONE',  ( -0.7071067811865668906, -7.215498431451375865E-17, 0.7071067811865281438 ) ) ;
#307 = VECTOR ( 'NONE', #668, 1000.000000000000000 ) ;
#308 = CARTESIAN_POINT ( 'NONE',  ( 22.09774862074722179, -217.0456415755269290, 0.4999999999999726885 ) ) ;
#309 = CIRCLE ( 'NONE', #473, 1.399999999999998579 ) ;
#310 = ORIENTED_EDGE ( 'NONE', *, *, #304, .F. ) ;
#311 = CARTESIAN_POINT ( 'NONE',  ( 8.940894371254838546, -194.2573015476276908, 0.4999999999999726885 ) ) ;
#312 = VERTEX_POINT ( 'NONE', #11 ) ;
#313 = DIRECTION ( 'NONE',  ( -0.8660254037844380415, -0.5000000000000012212, 0.000000000000000000 ) ) ;
#314 = LINE ( 'NONE', #699, #413 ) ;
#315 = VERTEX_POINT ( 'NONE', #797 ) ;
#316 = FACE_OUTER_BOUND ( 'NONE', #339, .T. ) ;
#317 = ORIENTED_EDGE ( 'NONE', *, *, #1119, .F. ) ;
#318 = DIRECTION ( 'NONE',  ( -1.245767767511694059E-16, 1.000000000000000000, 0.000000000000000000 ) ) ;
#319 = ADVANCED_FACE ( 'NONE', ( #685 ), #1193, .F. ) ;
#320 = VERTEX_POINT ( 'NONE', #293 ) ;
#321 = DIRECTION ( 'NONE',  ( -0.000000000000000000, -0.000000000000000000, -1.000000000000000000 ) ) ;
#322 = VERTEX_POINT ( 'NONE', #115 ) ;
#323 = AXIS2_PLACEMENT_3D ( 'NONE', #991, #890, #279 ) ;
#324 = CARTESIAN_POINT ( 'NONE',  ( 10.04089437125471562, 23.47871407745524763, 3.000000000000000000 ) ) ;
#325 = AXIS2_PLACEMENT_3D ( 'NONE', #1259, #968, #380 ) ;
#326 = VERTEX_POINT ( 'NONE', #192 ) ;
#327 = PERSON_AND_ORGANIZATION_ROLE ( 'design_owner' ) ;
#328 = EDGE_CURVE ( 'NONE', #974, #775, #95, .T. ) ;
#329 = AXIS2_PLACEMENT_3D ( 'NONE', #963, #1131, #550 ) ;
#330 = VERTEX_POINT ( 'NONE', #287 ) ;
#331 = PLANE ( 'NONE',  #989 ) ;
#332 = ORIENTED_EDGE ( 'NONE', *, *, #895, .T. ) ;
#333 = PERSON_AND_ORGANIZATION ( #1142, #859 ) ;
#334 = ORIENTED_EDGE ( 'NONE', *, *, #211, .T. ) ;
#335 = CARTESIAN_POINT ( 'NONE',  ( 13.34089437125481048, 23.47871407745524763, 3.000000000000000000 ) ) ;
#336 = EDGE_CURVE ( 'NONE', #472, #1075, #1186, .T. ) ;
#337 = DIRECTION ( 'NONE',  ( 1.265975939374434244E-16, -1.000000000000000000, 0.000000000000000000 ) ) ;
#338 = CARTESIAN_POINT ( 'NONE',  ( 8.909805458009282475, 25.22871407745525119, 3.000000000000000000 ) ) ;
#339 = EDGE_LOOP ( 'NONE', ( #332, #117, #1225, #709 ) ) ;
#340 = LINE ( 'NONE', #704, #673 ) ;
#341 = EDGE_CURVE ( 'NONE', #151, #326, #314, .T. ) ;
#342 = ADVANCED_FACE ( 'NONE', ( #1074 ), #579, .T. ) ;
#343 = DIRECTION ( 'NONE',  ( -0.000000000000000000, -0.000000000000000000, -1.000000000000000000 ) ) ;
#344 = AXIS2_PLACEMENT_3D ( 'NONE', #209, #124, #881 ) ;
#345 = APPROVAL_PERSON_ORGANIZATION ( #1161, #840, #768 ) ;
#346 = LINE ( 'NONE', #1016, #945 ) ;
#347 = CIRCLE ( 'NONE', #305, 1.900000000000012790 ) ;
#348 = ORIENTED_EDGE ( 'NONE', *, *, #328, .F. ) ;
#349 = CARTESIAN_POINT ( 'NONE',  ( 15.59774862074719870, -218.3873113263291259, 0.000000000000000000 ) ) ;
#350 = VECTOR ( 'NONE', #174, 999.9999999999998863 ) ;
#351 = VECTOR ( 'NONE', #198, 1000.000000000000000 ) ;
#352 = CARTESIAN_POINT ( 'NONE',  ( 8.440894371254838546, 23.47871407745524763, 3.000000000000000000 ) ) ;
#353 = PLANE ( 'NONE',  #1229 ) ;
#354 = PERSON_AND_ORGANIZATION ( #1142, #859 ) ;
#355 = ORIENTED_EDGE ( 'NONE', *, *, #990, .T. ) ;
#356 = CARTESIAN_POINT ( 'NONE',  ( 9.342818159901504771, 24.97871407745525474, 0.000000000000000000 ) ) ;
#357 = LINE ( 'NONE', #857, #984 ) ;
#358 = EDGE_CURVE ( 'NONE', #505, #692, #898, .T. ) ;
#359 = CARTESIAN_POINT ( 'NONE',  ( 15.09774862074722535, -235.0212859225447630, 0.5000000000000004441 ) ) ;
#360 = ADVANCED_FACE ( 'NONE', ( #488 ), #877, .F. ) ;
#361 = ORIENTED_EDGE ( 'NONE', *, *, #1008, .F. ) ;
#362 = DIRECTION ( 'NONE',  ( -0.7071067811865647812, 0.000000000000000000, -0.7071067811865302533 ) ) ;
#363 = CARTESIAN_POINT ( 'NONE',  ( 11.94089437125481190, 23.47871407745524763, 3.000000000000000000 ) ) ;
#364 = CARTESIAN_POINT ( 'NONE',  ( 3.440894371254837658, -197.3310221059988407, 0.000000000000000000 ) ) ;
#365 = AXIS2_PLACEMENT_3D ( 'NONE', #586, #1189, #1200 ) ;
#366 = ORIENTED_EDGE ( 'NONE', *, *, #1174, .T. ) ;
#367 = CARTESIAN_POINT ( 'NONE',  ( 21.59774862074722535, -232.5212859225448199, 3.000000000000006217 ) ) ;
#368 = AXIS2_PLACEMENT_3D ( 'NONE', #1191, #1002, #543 ) ;
#369 = VECTOR ( 'NONE', #748, 999.9999999999998863 ) ;
#370 = FACE_OUTER_BOUND ( 'NONE', #433, .T. ) ;
#371 = CARTESIAN_POINT ( 'NONE',  ( 11.94089437125481190, 23.47871407745524763, 2.499999999999929390 ) ) ;
#372 = ORIENTED_EDGE ( 'NONE', *, *, #697, .F. ) ;
#373 = CARTESIAN_POINT ( 'NONE',  ( 3.373907073147008884, 14.64025680933535689, 3.000000000000000000 ) ) ;
#374 = VERTEX_POINT ( 'NONE', #17 ) ;
#375 = ADVANCED_FACE ( 'NONE', ( #236 ), #521, .F. ) ;
#376 = DIRECTION ( 'NONE',  ( 1.245767767511694059E-16, -1.000000000000000000, 0.000000000000000000 ) ) ;
#377 = LINE ( 'NONE', #662, #431 ) ;
#378 = CALENDAR_DATE ( 2023, 16, 1 ) ;
#379 = ORIENTED_EDGE ( 'NONE', *, *, #495, .T. ) ;
#380 = DIRECTION ( 'NONE',  ( 1.877848959846219134E-16, -1.000000000000000000, 0.000000000000000000 ) ) ;
#381 = LINE ( 'NONE', #1266, #1165 ) ;
#382 = ADVANCED_FACE ( 'NONE', ( #905 ), #1230, .F. ) ;
#383 = DIRECTION ( 'NONE',  ( -1.020425574104004985E-16, 1.000000000000000000, 0.000000000000000000 ) ) ;
#384 = VERTEX_POINT ( 'NONE', #435 ) ;
#385 = DIRECTION ( 'NONE',  ( -0.000000000000000000, -0.000000000000000000, -1.000000000000000000 ) ) ;
#386 = VECTOR ( 'NONE', #544, 1000.000000000000000 ) ;
#387 = AXIS2_PLACEMENT_3D ( 'NONE', #152, #313, #1035 ) ;
#388 = VECTOR ( 'NONE', #925, 1000.000000000000000 ) ;
#389 = CARTESIAN_POINT ( 'NONE',  ( 14.53897058260812258, 21.97871407745524408, 0.000000000000000000 ) ) ;
#390 = VECTOR ( 'NONE', #1237, 1000.000000000000000 ) ;
#391 = DIRECTION ( 'NONE',  ( 0.5000000000000002220, 0.8660254037844384856, -0.000000000000000000 ) ) ;
#392 = ORIENTED_EDGE ( 'NONE', *, *, #297, .F. ) ;
#393 = DIRECTION ( 'NONE',  ( 0.5000000000000013323, -0.8660254037844378194, 0.000000000000000000 ) ) ;
#394 = ORIENTED_EDGE ( 'NONE', *, *, #643, .T. ) ;
#395 = LINE ( 'NONE', #1063, #453 ) ;
#396 = CARTESIAN_POINT ( 'NONE',  ( 14.97198328450034666, 21.72871407745524408, 0.4999999999999726885 ) ) ;
#397 = EDGE_CURVE ( 'NONE', #775, #674, #1010, .T. ) ;
#398 = ORIENTED_EDGE ( 'NONE', *, *, #526, .T. ) ;
#399 = CARTESIAN_POINT ( 'NONE',  ( 11.94089437125481190, 23.47871407745524763, 3.000000000000000000 ) ) ;
#400 = EDGE_CURVE ( 'NONE', #177, #1214, #224, .T. ) ;
#401 = ORIENTED_EDGE ( 'NONE', *, *, #336, .F. ) ;
#402 = DIRECTION ( 'NONE',  ( 0.4999999999999998890, 0.8660254037844385966, 0.000000000000000000 ) ) ;
#403 = LINE ( 'NONE', #102, #250 ) ;
#404 = EDGE_LOOP ( 'NONE', ( #123, #713, #1201, #1089 ) ) ;
#405 = DIRECTION ( 'NONE',  ( 1.000000000000000000, 0.000000000000000000, -0.000000000000000000 ) ) ;
#406 = VERTEX_POINT ( 'NONE', #147 ) ;
#407 = AXIS2_PLACEMENT_3D ( 'NONE', #1176, #118, #393 ) ;
#408 = LINE ( 'NONE', #1130, #943 ) ;
#409 = VECTOR ( 'NONE', #860, 1000.000000000000000 ) ;
#410 = CARTESIAN_POINT ( 'NONE',  ( 11.94089437125481190, 23.47871407745524763, 0.4999999999999726885 ) ) ;
#411 = VERTEX_POINT ( 'NONE', #324 ) ;
#412 = FACE_OUTER_BOUND ( 'NONE', #1111, .T. ) ;
#413 = VECTOR ( 'NONE', #1091, 1000.000000000000114 ) ;
#414 = ORIENTED_EDGE ( 'NONE', *, *, #70, .F. ) ;
#415 = EDGE_CURVE ( 'NONE', #692, #315, #134, .T. ) ;
#416 = CARTESIAN_POINT ( 'NONE',  ( 2.940894371254811901, 14.89025680933534268, 0.4999999999999726885 ) ) ;
#417 = CARTESIAN_POINT ( 'NONE',  ( 52.72252214314214314, -208.8397582418134846, -28.12477352239664086 ) ) ;
#418 = LINE ( 'NONE', #607, #202 ) ;
#419 = EDGE_LOOP ( 'NONE', ( #253, #1007 ) ) ;
#420 = LINE ( 'NONE', #827, #740 ) ;
#421 = EDGE_CURVE ( 'NONE', #330, #411, #139, .T. ) ;
#422 = VERTEX_POINT ( 'NONE', #231 ) ;
#423 = MECHANICAL_CONTEXT ( 'NONE', #1224, 'mechanical' ) ;
#424 = ORIENTED_EDGE ( 'NONE', *, *, #173, .F. ) ;
#425 = VECTOR ( 'NONE', #911, 1000.000000000000114 ) ;
#426 = DIRECTION ( 'NONE',  ( -0.000000000000000000, -0.000000000000000000, -1.000000000000000000 ) ) ;
#427 = VECTOR ( 'NONE', #835, 1000.000000000000000 ) ;
#428 = AXIS2_PLACEMENT_3D ( 'NONE', #171, #863, #273 ) ;
#429 = ORIENTED_EDGE ( 'NONE', *, *, #682, .F. ) ;
#430 = DIRECTION ( 'NONE',  ( 0.000000000000000000, 0.000000000000000000, 1.000000000000000000 ) ) ;
#431 = VECTOR ( 'NONE', #647, 1000.000000000000114 ) ;
#432 = EDGE_CURVE ( 'NONE', #217, #575, #833, .T. ) ;
#433 = EDGE_LOOP ( 'NONE', ( #702, #294, #1049, #721 ) ) ;
#434 = FACE_OUTER_BOUND ( 'NONE', #547, .T. ) ;
#435 = CARTESIAN_POINT ( 'NONE',  ( 15.59774862074720048, -235.0212859225447630, 0.000000000000000000 ) ) ;
#436 = ORIENTED_EDGE ( 'NONE', *, *, #549, .F. ) ;
#437 = ADVANCED_FACE ( 'NONE', ( #705 ), #1204, .T. ) ;
#438 = APPROVAL_STATUS ( 'not_yet_approved' ) ;
#439 = EDGE_LOOP ( 'NONE', ( #145, #1018, #903, #193 ) ) ;
#440 = PLANE ( 'NONE',  #879 ) ;
#441 = EDGE_CURVE ( 'NONE', #1080, #1148, #525, .T. ) ;
#442 = DIRECTION ( 'NONE',  ( 1.245767767511694059E-16, -1.000000000000000000, 0.000000000000000000 ) ) ;
#443 = DIRECTION ( 'NONE',  ( 0.000000000000000000, 0.000000000000000000, 1.000000000000000000 ) ) ;
#444 = DIRECTION ( 'NONE',  ( 1.000000000000000000, 0.000000000000000000, -0.000000000000000000 ) ) ;
#445 = ORIENTED_EDGE ( 'NONE', *, *, #682, .T. ) ;
#446 = DIRECTION ( 'NONE',  ( 0.000000000000000000, -0.5547001962252255947, 0.8320502943378460525 ) ) ;
#447 = CYLINDRICAL_SURFACE ( 'NONE', #166, 3.499999999999999556 ) ;
#448 = AXIS2_PLACEMENT_3D ( 'NONE', #197, #981, #402 ) ;
#449 = LINE ( 'NONE', #169, #369 ) ;
#450 = DIRECTION ( 'NONE',  ( 0.000000000000000000, 0.000000000000000000, 1.000000000000000000 ) ) ;
#451 = ORIENTED_EDGE ( 'NONE', *, *, #722, .F. ) ;
#452 = DIRECTION ( 'NONE',  ( -1.000000000000000000, -1.265975939374434244E-16, 0.000000000000000000 ) ) ;
#453 = VECTOR ( 'NONE', #1159, 999.9999999999998863 ) ;
#454 = CONICAL_SURFACE ( 'NONE', #127, 1.900000000000012790, 0.7853981633974748133 ) ;
#455 = LINE ( 'NONE', #846, #390 ) ;
#456 = ADVANCED_FACE ( 'NONE', ( #1197 ), #331, .T. ) ;
#457 = DIRECTION ( 'NONE',  ( 0.6914377643506285365, -0.2093505100532531416, 0.6914377643506662841 ) ) ;
#458 = APPROVAL_STATUS ( 'not_yet_approved' ) ;
#459 = ORIENTED_EDGE ( 'NONE', *, *, #1067, .T. ) ;
#460 = PLANE ( 'NONE',  #514 ) ;
#461 = LINE ( 'NONE', #168, #555 ) ;
#462 = LINE ( 'NONE', #1138, #1187 ) ;
#463 = ORIENTED_EDGE ( 'NONE', *, *, #1112, .F. ) ;
#464 = DIRECTION ( 'NONE',  ( -0.6123724356958116788, 0.3535533905932836118, 0.7071067811865278108 ) ) ;
#465 = DIRECTION ( 'NONE',  ( -8.490453992831028581E-17, 0.8320502943378459415, 0.5547001962252255947 ) ) ;
#466 = DIRECTION ( 'NONE',  ( -0.000000000000000000, -0.000000000000000000, -1.000000000000000000 ) ) ;
#467 = CIRCLE ( 'NONE', #493, 3.000000000000027089 ) ;
#468 = ORIENTED_EDGE ( 'NONE', *, *, #990, .F. ) ;
#469 = DIRECTION ( 'NONE',  ( -1.000000000000000000, 0.000000000000000000, 0.000000000000000000 ) ) ;
#470 = VECTOR ( 'NONE', #55, 999.9999999999998863 ) ;
#471 = EDGE_CURVE ( 'NONE', #1271, #999, #630, .T. ) ;
#472 = VERTEX_POINT ( 'NONE', #44 ) ;
#473 = AXIS2_PLACEMENT_3D ( 'NONE', #852, #1243, #947 ) ;
#474 = CARTESIAN_POINT ( 'NONE',  ( 10.04089437125479911, 23.47871407745524763, 0.000000000000000000 ) ) ;
#475 = VECTOR ( 'NONE', #691, 1000.000000000000114 ) ;
#476 = DIRECTION ( 'NONE',  ( 0.7071067811865655584, 7.215498431451362307E-17, 0.7071067811865294761 ) ) ;
#477 = EDGE_CURVE ( 'NONE', #98, #801, #610, .T. ) ;
#478 = ORIENTED_EDGE ( 'NONE', *, *, #328, .T. ) ;
#479 = CARTESIAN_POINT ( 'NONE',  ( 21.59774862074725377, -235.5212859225447630, 1.000000000000053735 ) ) ;
#480 = EDGE_CURVE ( 'NONE', #32, #656, #420, .T. ) ;
#481 = PLANE ( 'NONE',  #185 ) ;
#482 = CARTESIAN_POINT ( 'NONE',  ( 11.94089437125481190, 23.47871407745524763, 0.000000000000000000 ) ) ;
#483 = PERSON_AND_ORGANIZATION_ROLE ( 'design_supplier' ) ;
#484 = ORIENTED_EDGE ( 'NONE', *, *, #1152, .T. ) ;
#485 = DIRECTION ( 'NONE',  ( 1.265975939374434244E-16, -1.000000000000000000, 0.000000000000000000 ) ) ;
#486 = ORIENTED_EDGE ( 'NONE', *, *, #1174, .F. ) ;
#487 = CARTESIAN_POINT ( 'NONE',  ( 8.440894371254840323, 11.41653625096416924, 3.000000000000000000 ) ) ;
#488 = FACE_OUTER_BOUND ( 'NONE', #909, .T. ) ;
#489 = ORIENTED_EDGE ( 'NONE', *, *, #628, .T. ) ;
#490 = CARTESIAN_POINT ( 'NONE',  ( 15.59774862074719870, -235.5212859225447630, 1.000000000000051736 ) ) ;
#491 = CIRCLE ( 'NONE', #760, 3.499999999999999556 ) ;
#492 = VERTEX_POINT ( 'NONE', #1101 ) ;
#493 = AXIS2_PLACEMENT_3D ( 'NONE', #1140, #681, #675 ) ;
#494 = AXIS2_PLACEMENT_3D ( 'NONE', #50, #834, #1223 ) ;
#495 = EDGE_CURVE ( 'NONE', #663, #384, #618, .T. ) ;
#496 = DIRECTION ( 'NONE',  ( -0.000000000000000000, -0.000000000000000000, -1.000000000000000000 ) ) ;
#497 = DIRECTION ( 'NONE',  ( 1.000000000000000000, 1.020425574104004985E-16, -0.000000000000000000 ) ) ;
#498 = EDGE_CURVE ( 'NONE', #1038, #1271, #121, .T. ) ;
#499 = EDGE_LOOP ( 'NONE', ( #1129, #27, #284, #644 ) ) ;
#500 = PLANE ( 'NONE',  #816 ) ;
#501 = VERTEX_POINT ( 'NONE', #30 ) ;
#502 = CARTESIAN_POINT ( 'NONE',  ( 21.59774862074722890, -235.0212859225447630, 0.000000000000000000 ) ) ;
#503 = CARTESIAN_POINT ( 'NONE',  ( 11.94089437125481190, 23.47871407745524763, 2.499999999999929390 ) ) ;
#504 = ADVANCED_FACE ( 'NONE', ( #812 ), #1108, .T. ) ;
#505 = VERTEX_POINT ( 'NONE', #34 ) ;
#506 = CYLINDRICAL_SURFACE ( 'NONE', #574, 1.399999999999998579 ) ;
#507 = ORIENTED_EDGE ( 'NONE', *, *, #628, .F. ) ;
#508 = PLANE ( 'NONE',  #653 ) ;
#509 = DIRECTION ( 'NONE',  ( -0.000000000000000000, -0.000000000000000000, 1.000000000000000000 ) ) ;
#510 = ORIENTED_EDGE ( 'NONE', *, *, #910, .F. ) ;
#511 = PLANE ( 'NONE',  #344 ) ;
#512 = ORIENTED_EDGE ( 'NONE', *, *, #477, .F. ) ;
#513 = EDGE_CURVE ( 'NONE', #322, #887, #1242, .T. ) ;
#514 = AXIS2_PLACEMENT_3D ( 'NONE', #855, #849, #362 ) ;
#515 = DIRECTION ( 'NONE',  ( 0.000000000000000000, 0.000000000000000000, 1.000000000000000000 ) ) ;
#516 = VECTOR ( 'NONE', #677, 1000.000000000000000 ) ;
#517 = CARTESIAN_POINT ( 'NONE',  ( 8.909805458009282475, 25.22871407745525119, 0.4999999999999726885 ) ) ;
#518 = DIRECTION ( 'NONE',  ( 0.6947465906068424069, 0.1861567878974174362, -0.6947465906068805985 ) ) ;
#519 = ORIENTED_EDGE ( 'NONE', *, *, #132, .T. ) ;
#520 = EDGE_CURVE ( 'NONE', #656, #472, #461, .T. ) ;
#521 = PLANE ( 'NONE',  #1107 ) ;
#522 = CARTESIAN_POINT ( 'NONE',  ( -20.74115584946151358, -203.8105829339702098, -21.18205022071774479 ) ) ;
#523 = LINE ( 'NONE', #226, #81 ) ;
#524 = ORIENTED_EDGE ( 'NONE', *, *, #876, .T. ) ;
#525 = LINE ( 'NONE', #532, #227 ) ;
#526 = EDGE_CURVE ( 'NONE', #872, #406, #256, .T. ) ;
#527 = FACE_OUTER_BOUND ( 'NONE', #1170, .T. ) ;
#528 = DATE_AND_TIME ( #1017, #942 ) ;
#529 = ORIENTED_EDGE ( 'NONE', *, *, #629, .T. ) ;
#530 = DIRECTION ( 'NONE',  ( 0.000000000000000000, 0.000000000000000000, -1.000000000000000000 ) ) ;
#531 = EDGE_CURVE ( 'NONE', #1004, #663, #1137, .T. ) ;
#532 = CARTESIAN_POINT ( 'NONE',  ( 15.09774862074722535, -235.0212859225447630, 3.000000000000000000 ) ) ;
#533 = CIRCLE ( 'NONE', #494, 1.399999999999998579 ) ;
#534 = CIRCLE ( 'NONE', #695, 1.900000000000012790 ) ;
#535 = DIRECTION ( 'NONE',  ( 0.6123724356958025750, 0.3535533905932794485, 0.7071067811865378028 ) ) ;
#536 = COORDINATED_UNIVERSAL_TIME_OFFSET ( 1, 0, .AHEAD. ) ;
#537 = ORIENTED_EDGE ( 'NONE', *, *, #1014, .T. ) ;
#538 = DIRECTION ( 'NONE',  ( -0.7071067811865671127, 0.7071067811865279218, 0.000000000000000000 ) ) ;
#539 = DIRECTION ( 'NONE',  ( 1.000000000000000000, 0.000000000000000000, 0.000000000000000000 ) ) ;
#540 = LINE ( 'NONE', #129, #861 ) ;
#541 = DIRECTION ( 'NONE',  ( 1.265975939374434244E-16, -1.000000000000000000, -0.000000000000000000 ) ) ;
#542 = ORIENTED_EDGE ( 'NONE', *, *, #1067, .F. ) ;
#543 = DIRECTION ( 'NONE',  ( 1.000000000000000000, 0.000000000000000000, 0.000000000000000000 ) ) ;
#544 = DIRECTION ( 'NONE',  ( 0.6123724356957762627, -0.3535533905932682908, 0.7071067811865661135 ) ) ;
#545 = LINE ( 'NONE', #654, #246 ) ;
#546 = APPLICATION_PROTOCOL_DEFINITION ( 'international standard', 'config_control_design', 1994, #1224 ) ;
#547 = EDGE_LOOP ( 'NONE', ( #524, #830, #980, #889 ) ) ;
#548 = LINE ( 'NONE', #633, #923 ) ;
#549 = EDGE_CURVE ( 'NONE', #581, #199, #54, .T. ) ;
#550 = DIRECTION ( 'NONE',  ( -1.000000000000000000, 0.000000000000000000, 0.000000000000000000 ) ) ;
#551 = CONICAL_SURFACE ( 'NONE', #268, 1.900000000000012790, 0.7853981633974748133 ) ;
#552 = LINE ( 'NONE', #866, #20 ) ;
#553 = ORIENTED_EDGE ( 'NONE', *, *, #1064, .T. ) ;
#554 = DIRECTION ( 'NONE',  ( 0.6947465906068777119, 0.1861567878974318135, -0.6947465906068414077 ) ) ;
#555 = VECTOR ( 'NONE', #651, 1000.000000000000114 ) ;
#556 = ADVANCED_FACE ( 'NONE', ( #952 ), #447, .T. ) ;
#557 = LINE ( 'NONE', #1043, #616 ) ;
#558 = DIRECTION ( 'NONE',  ( -0.000000000000000000, -0.000000000000000000, -1.000000000000000000 ) ) ;
#559 = PERSON_AND_ORGANIZATION_ROLE ( 'creator' ) ;
#560 = ORIENTED_EDGE ( 'NONE', *, *, #263, .T. ) ;
#561 = CARTESIAN_POINT ( 'NONE',  ( 8.940894371254813677, 11.28256165474861916, 2.499999999999999556 ) ) ;
#562 = ORIENTED_EDGE ( 'NONE', *, *, #895, .F. ) ;
#563 = LINE ( 'NONE', #74, #223 ) ;
#564 = CARTESIAN_POINT ( 'NONE',  ( 14.53897058260812258, 21.97871407745524408, 0.000000000000000000 ) ) ;
#565 = DATE_AND_TIME ( #1058, #901 ) ;
#566 = ADVANCED_FACE ( 'NONE', ( #737 ), #841, .T. ) ;
#567 = VERTEX_POINT ( 'NONE', #1231 ) ;
#568 = FACE_OUTER_BOUND ( 'NONE', #1248, .T. ) ;
#569 = ORIENTED_EDGE ( 'NONE', *, *, #1247, .T. ) ;
#570 = LINE ( 'NONE', #865, #883 ) ;
#571 = EDGE_CURVE ( 'NONE', #315, #501, #746, .T. ) ;
#572 = CARTESIAN_POINT ( 'NONE',  ( 2.940894371254838546, -197.4649967022144210, 0.4999999999999714118 ) ) ;
#573 = EDGE_CURVE ( 'NONE', #492, #792, #570, .T. ) ;
#574 = AXIS2_PLACEMENT_3D ( 'NONE', #399, #321, #810 ) ;
#575 = VERTEX_POINT ( 'NONE', #474 ) ;
#576 = CARTESIAN_POINT ( 'NONE',  ( 22.09774862074722179, -217.0456415755269290, 0.4999999999999726885 ) ) ;
#577 = PRODUCT_DEFINITION_FORMATION_WITH_SPECIFIED_SOURCE ( 'ANY', '', #1132, .NOT_KNOWN. ) ;
#578 = DIRECTION ( 'NONE',  ( 0.6123724356958123449, -0.3535533905932842780, 0.7071067811865269226 ) ) ;
#579 = CONICAL_SURFACE ( 'NONE', #745, 3.499999999999999556, 0.7853981633974760346 ) ;
#580 = LINE ( 'NONE', #590, #906 ) ;
#581 = VERTEX_POINT ( 'NONE', #1031 ) ;
#582 = LINE ( 'NONE', #664, #40 ) ;
#583 = FACE_OUTER_BOUND ( 'NONE', #51, .T. ) ;
#584 = CARTESIAN_POINT ( 'NONE',  ( 15.09774862074722357, -218.5212859225447630, 2.499999999999999556 ) ) ;
#585 = EDGE_LOOP ( 'NONE', ( #934, #372, #1183, #451 ) ) ;
#586 = CARTESIAN_POINT ( 'NONE',  ( 15.59774862074719870, -235.5212859225447630, 3.000000000000000000 ) ) ;
#587 = VERTEX_POINT ( 'NONE', #1126 ) ;
#588 = ADVANCED_FACE ( 'NONE', ( #1056 ), #179, .F. ) ;
#589 = CARTESIAN_POINT ( 'NONE',  ( 11.94089437125481190, 23.47871407745524763, 0.000000000000000000 ) ) ;
#590 = CARTESIAN_POINT ( 'NONE',  ( 10.54089437125481332, 23.47871407745524763, 3.000000000000000000 ) ) ;
#591 = EDGE_LOOP ( 'NONE', ( #756, #510, #222, #429 ) ) ;
#592 = CARTESIAN_POINT ( 'NONE',  ( 21.59774862074722890, -235.0212859225447630, 0.000000000000000000 ) ) ;
#593 = VECTOR ( 'NONE', #376, 1000.000000000000000 ) ;
#594 = EDGE_LOOP ( 'NONE', ( #379, #104, #486, #623 ) ) ;
#595 = VECTOR ( 'NONE', #1136, 1000.000000000000227 ) ;
#596 = VECTOR ( 'NONE', #1256, 999.9999999999998863 ) ;
#597 = PLANE ( 'NONE',  #448 ) ;
#598 = APPROVAL ( #438, 'UNSPECIFIED' ) ;
#599 = CARTESIAN_POINT ( 'NONE',  ( 11.95321308883374911, -219.3638616788928744, 3.644535531913636994 ) ) ;
#600 = EDGE_LOOP ( 'NONE', ( #811, #1253, #1098, #994, #1190 ) ) ;
#601 = FACE_OUTER_BOUND ( 'NONE', #594, .T. ) ;
#602 = ORIENTED_EDGE ( 'NONE', *, *, #892, .F. ) ;
#603 = CARTESIAN_POINT ( 'NONE',  ( 14.97198328450034488, 21.72871407745524408, 0.4999999999999726885 ) ) ;
#604 = DIRECTION ( 'NONE',  ( -0.000000000000000000, -0.000000000000000000, -1.000000000000000000 ) ) ;
#605 = EDGE_CURVE ( 'NONE', #1148, #1004, #557, .T. ) ;
#606 = ORIENTED_EDGE ( 'NONE', *, *, #1198, .T. ) ;
#607 = CARTESIAN_POINT ( 'NONE',  ( 14.53897058260812969, 21.97871407745524763, 0.000000000000000000 ) ) ;
#608 = EDGE_LOOP ( 'NONE', ( #1181, #2, #955, #210 ) ) ;
#609 = CARTESIAN_POINT ( 'NONE',  ( 22.09774862074722535, -235.0212859225447630, 3.000000000000000000 ) ) ;
#610 = LINE ( 'NONE', #1003, #203 ) ;
#611 = ADVANCED_FACE ( 'NONE', ( #370 ), #62, .T. ) ;
#612 = ORIENTED_EDGE ( 'NONE', *, *, #235, .F. ) ;
#613 = PLANE ( 'NONE',  #205 ) ;
#614 = EDGE_CURVE ( 'NONE', #663, #24, #455, .T. ) ;
#615 = ORIENTED_EDGE ( 'NONE', *, *, #1083, .F. ) ;
#616 = VECTOR ( 'NONE', #944, 1000.000000000000114 ) ;
#617 = VECTOR ( 'NONE', #278, 999.9999999999998863 ) ;
#618 = LINE ( 'NONE', #730, #125 ) ;
#619 = AXIS2_PLACEMENT_3D ( 'NONE', #716, #1211, #539 ) ;
#620 = DIRECTION ( 'NONE',  ( -1.265975939374434244E-16, 1.000000000000000000, 0.000000000000000000 ) ) ;
#621 = DIRECTION ( 'NONE',  ( 1.245767767511694059E-16, -1.000000000000000000, 0.000000000000000000 ) ) ;
#622 = AXIS2_PLACEMENT_3D ( 'NONE', #213, #785, #983 ) ;
#623 = ORIENTED_EDGE ( 'NONE', *, *, #614, .F. ) ;
#624 = CARTESIAN_POINT ( 'NONE',  ( 22.09774862074722179, -221.5300281995735929, 9.726579936070091748 ) ) ;
#625 = ORIENTED_EDGE ( 'NONE', *, *, #526, .F. ) ;
#626 = PERSON_AND_ORGANIZATION_ROLE ( 'creator' ) ;
#627 = ORIENTED_EDGE ( 'NONE', *, *, #1158, .F. ) ;
#628 = EDGE_CURVE ( 'NONE', #384, #864, #357, .T. ) ;
#629 = EDGE_CURVE ( 'NONE', #120, #330, #57, .T. ) ;
#630 = LINE ( 'NONE', #710, #817 ) ;
#631 = ORIENTED_EDGE ( 'NONE', *, *, #341, .T. ) ;
#632 = ORIENTED_EDGE ( 'NONE', *, *, #1014, .F. ) ;
#633 = CARTESIAN_POINT ( 'NONE',  ( 3.440894371254809680, 23.47871407745524763, 0.000000000000000000 ) ) ;
#634 = VECTOR ( 'NONE', #1117, 1000.000000000000114 ) ;
#635 = CARTESIAN_POINT ( 'NONE',  ( 8.440894371254840323, 11.28256165474861916, 3.000000000000000000 ) ) ;
#636 = CARTESIAN_POINT ( 'NONE',  ( 21.59774862074725021, -217.0456415755269290, 3.000000000000000000 ) ) ;
#637 = APPROVAL_STATUS ( 'not_yet_approved' ) ;
#638 = ORIENTED_EDGE ( 'NONE', *, *, #520, .T. ) ;
#639 = DIRECTION ( 'NONE',  ( 0.6947465906068894803, 0.1861567878973532930, 0.6947465906068507335 ) ) ;
#640 = DIRECTION ( 'NONE',  ( 8.490453992831028581E-17, -0.8320502943378460525, -0.5547001962252255947 ) ) ;
#641 = CARTESIAN_POINT ( 'NONE',  ( 21.59774862074717916, 23.47871407745525119, 0.000000000000000000 ) ) ;
#642 = CALENDAR_DATE ( 2023, 16, 1 ) ;
#643 = EDGE_CURVE ( 'NONE', #674, #199, #1146, .T. ) ;
#644 = ORIENTED_EDGE ( 'NONE', *, *, #229, .F. ) ;
#645 = FACE_OUTER_BOUND ( 'NONE', #66, .T. ) ;
#646 = DIRECTION ( 'NONE',  ( 1.265975939374434244E-16, -1.000000000000000000, 0.000000000000000000 ) ) ;
#647 = DIRECTION ( 'NONE',  ( 0.5000000000000013323, -0.8660254037844378194, 0.000000000000000000 ) ) ;
#648 = ORIENTED_EDGE ( 'NONE', *, *, #33, .F. ) ;
#649 = LINE ( 'NONE', #940, #595 ) ;
#650 = EDGE_CURVE ( 'NONE', #1148, #505, #563, .T. ) ;
#651 = DIRECTION ( 'NONE',  ( 0.5000000000000011102, -0.8660254037844379305, 0.000000000000000000 ) ) ;
#652 = AXIS2_PLACEMENT_3D ( 'NONE', #987, #105, #28 ) ;
#653 = AXIS2_PLACEMENT_3D ( 'NONE', #1185, #306, #212 ) ;
#654 = CARTESIAN_POINT ( 'NONE',  ( 14.97198328450034488, 21.72871407745524408, 3.000000000000000000 ) ) ;
#655 = AXIS2_PLACEMENT_3D ( 'NONE', #59, #452, #485 ) ;
#656 = VERTEX_POINT ( 'NONE', #766 ) ;
#657 = DIRECTION ( 'NONE',  ( -0.7071067811865304753, -1.327839733551334400E-16, 0.7071067811865646702 ) ) ;
#658 = AXIS2_PLACEMENT_3D ( 'NONE', #690, #1260, #1090 ) ;
#659 = ORIENTED_EDGE ( 'NONE', *, *, #150, .T. ) ;
#660 = ADVANCED_FACE ( 'NONE', ( #184 ), #551, .F. ) ;
#661 = CARTESIAN_POINT ( 'NONE',  ( 11.94089437125481190, 23.47871407745524763, 2.499999999999929390 ) ) ;
#662 = CARTESIAN_POINT ( 'NONE',  ( 2.940894371254838546, -197.4649967022144210, 0.4999999999999714118 ) ) ;
#663 = VERTEX_POINT ( 'NONE', #204 ) ;
#664 = CARTESIAN_POINT ( 'NONE',  ( 15.09774862074722535, -235.5212859225447630, 1.000000000000053735 ) ) ;
#665 = EDGE_CURVE ( 'NONE', #24, #801, #381, .T. ) ;
#666 = DIRECTION ( 'NONE',  ( 1.020425574104004985E-16, -1.000000000000000000, 0.000000000000000000 ) ) ;
#667 = ADVANCED_FACE ( 'NONE', ( #684 ), #481, .T. ) ;
#668 = DIRECTION ( 'NONE',  ( 0.7071067811865294761, -6.730369402342859160E-16, -0.7071067811865656694 ) ) ;
#669 = EDGE_LOOP ( 'NONE', ( #366, #282, #1262 ) ) ;
#670 = CARTESIAN_POINT ( 'NONE',  ( 9.342818159901476349, 24.97871407745525829, 3.000000000000000000 ) ) ;
#671 = DIRECTION ( 'NONE',  ( 1.000000000000000000, 0.000000000000000000, 0.000000000000000000 ) ) ;
#672 = LINE ( 'NONE', #1046, #409 ) ;
#673 = VECTOR ( 'NONE', #1023, 1000.000000000000000 ) ;
#674 = VERTEX_POINT ( 'NONE', #487 ) ;
#675 = DIRECTION ( 'NONE',  ( 1.000000000000000000, 0.000000000000000000, 0.000000000000000000 ) ) ;
#676 = EDGE_LOOP ( 'NONE', ( #612, #170, #828, #131 ) ) ;
#677 = DIRECTION ( 'NONE',  ( 0.7071067811865662245, 0.000000000000000000, 0.7071067811865288100 ) ) ;
#678 = AXIS2_PLACEMENT_3D ( 'NONE', #109, #977, #971 ) ;
#679 = DIRECTION ( 'NONE',  ( 0.6947465906068855945, 0.1861567878973627299, 0.6947465906068519548 ) ) ;
#680 = ORIENTED_EDGE ( 'NONE', *, *, #23, .F. ) ;
#681 = DIRECTION ( 'NONE',  ( 0.000000000000000000, 0.000000000000000000, 1.000000000000000000 ) ) ;
#682 = EDGE_CURVE ( 'NONE', #1038, #161, #1179, .T. ) ;
#683 = ORIENTED_EDGE ( 'NONE', *, *, #140, .F. ) ;
#684 = FACE_OUTER_BOUND ( 'NONE', #1194, .T. ) ;
#685 = FACE_OUTER_BOUND ( 'NONE', #600, .T. ) ;
#686 = ORIENTED_EDGE ( 'NONE', *, *, #53, .T. ) ;
#687 = CARTESIAN_POINT ( 'NONE',  ( 8.940894371254838546, -194.2573015476276908, 0.4999999999999726885 ) ) ;
#688 = ORIENTED_EDGE ( 'NONE', *, *, #689, .T. ) ;
#689 = EDGE_CURVE ( 'NONE', #234, #792, #790, .T. ) ;
#690 = CARTESIAN_POINT ( 'NONE',  ( 15.09774862074722535, -235.0212859225447630, 0.5000000000000004441 ) ) ;
#691 = DIRECTION ( 'NONE',  ( 0.6947465906068243102, 0.1861567878975615986, -0.6947465906068598374 ) ) ;
#692 = VERTEX_POINT ( 'NONE', #100 ) ;
#693 = PLANE ( 'NONE',  #407 ) ;
#694 = ORIENTED_EDGE ( 'NONE', *, *, #869, .T. ) ;
#695 = AXIS2_PLACEMENT_3D ( 'NONE', #135, #443, #1121 ) ;
#696 = DIRECTION ( 'NONE',  ( 0.6123724356958115678, -0.3535533905932836118, 0.7071067811865279218 ) ) ;
#697 = EDGE_CURVE ( 'NONE', #999, #322, #1068, .T. ) ;
#698 = CIRCLE ( 'NONE', #1071, 1.900000000000096056 ) ;
#699 = CARTESIAN_POINT ( 'NONE',  ( 20.21192265788061704, -232.9408802622371013, 4.385825962866710448 ) ) ;
#700 = EDGE_LOOP ( 'NONE', ( #334, #1060, #1235, #1092 ) ) ;
#701 = LINE ( 'NONE', #592, #1264 ) ;
#702 = ORIENTED_EDGE ( 'NONE', *, *, #605, .T. ) ;
#703 = ADVANCED_FACE ( 'NONE', ( #1166 ), #1009, .T. ) ;
#704 = CARTESIAN_POINT ( 'NONE',  ( 11.94089437125481190, -235.0212859225447630, 0.000000000000000000 ) ) ;
#705 = FACE_OUTER_BOUND ( 'NONE', #914, .T. ) ;
#706 = EDGE_CURVE ( 'NONE', #501, #151, #784, .T. ) ;
#707 = ORIENTED_EDGE ( 'NONE', *, *, #297, .T. ) ;
#708 = PLANE ( 'NONE',  #1125 ) ;
#709 = ORIENTED_EDGE ( 'NONE', *, *, #480, .F. ) ;
#710 = CARTESIAN_POINT ( 'NONE',  ( 9.342818159901501218, 24.97871407745524763, 0.000000000000000000 ) ) ;
#711 = EDGE_LOOP ( 'NONE', ( #686, #1087, #787, #960 ) ) ;
#712 = CARTESIAN_POINT ( 'NONE',  ( 8.940894371254813677, 11.28256165474861916, 0.4999999999999726885 ) ) ;
#713 = ORIENTED_EDGE ( 'NONE', *, *, #132, .F. ) ;
#714 = AXIS2_PLACEMENT_3D ( 'NONE', #589, #298, #1073 ) ;
#715 = AXIS2_PLACEMENT_3D ( 'NONE', #237, #535, #243 ) ;
#716 = CARTESIAN_POINT ( 'NONE',  ( 11.94089437125481190, 23.47871407745524763, 0.4999999999999726885 ) ) ;
#717 = AXIS2_PLACEMENT_3D ( 'NONE', #808, #515, #1026 ) ;
#718 = LINE ( 'NONE', #1212, #183 ) ;
#719 = ADVANCED_FACE ( 'NONE', ( #884 ), #1078, .T. ) ;
#720 = APPLICATION_PROTOCOL_DEFINITION ( 'international standard', 'config_control_design', 1994, #726 ) ;
#721 = ORIENTED_EDGE ( 'NONE', *, *, #650, .F. ) ;
#722 = EDGE_CURVE ( 'NONE', #887, #21, #491, .T. ) ;
#723 = DIRECTION ( 'NONE',  ( -0.7071067811865662245, 8.659560562355160888E-17, 0.7071067811865288100 ) ) ;
#724 = ORIENTED_EDGE ( 'NONE', *, *, #133, .F. ) ;
#725 = COORDINATED_UNIVERSAL_TIME_OFFSET ( 1, 0, .AHEAD. ) ;
#726 = APPLICATION_CONTEXT ( 'configuration controlled 3d designs of mechanical parts and assemblies' ) ;
#727 = ORIENTED_EDGE ( 'NONE', *, *, #415, .T. ) ;
#728 = DIRECTION ( 'NONE',  ( -0.000000000000000000, -0.000000000000000000, -1.000000000000000000 ) ) ;
#729 = CC_DESIGN_DATE_AND_TIME_ASSIGNMENT ( #528, #149, ( #1184 ) ) ;
#730 = CARTESIAN_POINT ( 'NONE',  ( 15.59774862074719870, -235.2712859225447630, 0.2499999999999872602 ) ) ;
#731 = VERTEX_POINT ( 'NONE', #1084 ) ;
#732 = APPROVAL_DATE_TIME ( #233, #252 ) ;
#733 = ORIENTED_EDGE ( 'NONE', *, *, #927, .F. ) ;
#734 = PLANE ( 'NONE',  #1086 ) ;
#735 = SECURITY_CLASSIFICATION ( '', '', #1257 ) ;
#736 = VECTOR ( 'NONE', #554, 1000.000000000000114 ) ;
#737 = FACE_OUTER_BOUND ( 'NONE', #439, .T. ) ;
#738 = APPROVAL_PERSON_ORGANIZATION ( #333, #598, #238 ) ;
#739 = EDGE_CURVE ( 'NONE', #120, #374, #285, .T. ) ;
#740 = VECTOR ( 'NONE', #337, 1000.000000000000000 ) ;
#741 = CARTESIAN_POINT ( 'NONE',  ( 22.09774862074722535, -235.0212859225447630, 0.7324081207560698692 ) ) ;
#742 = FACE_BOUND ( 'NONE', #986, .T. ) ;
#743 = ORIENTED_EDGE ( 'NONE', *, *, #93, .T. ) ;
#744 = LINE ( 'NONE', #52, #634 ) ;
#745 = AXIS2_PLACEMENT_3D ( 'NONE', #410, #509, #1079 ) ;
#746 = LINE ( 'NONE', #759, #1265 ) ;
#747 = PRODUCT_RELATED_PRODUCT_CATEGORY ( 'detail', '', ( #1132 ) ) ;
#748 = DIRECTION ( 'NONE',  ( -0.5000000000000014433, 0.8660254037844379305, 0.000000000000000000 ) ) ;
#749 = COORDINATED_UNIVERSAL_TIME_OFFSET ( 1, 0, .AHEAD. ) ;
#750 = PRODUCT_DEFINITION_SHAPE ( 'NONE', 'NONE',  #1184 ) ;
#751 = ORIENTED_EDGE ( 'NONE', *, *, #23, .T. ) ;
#752 = CARTESIAN_POINT ( 'NONE',  ( 2.940894371254811901, 14.89025680933534268, 3.000000000000000000 ) ) ;
#753 = DIRECTION ( 'NONE',  ( -1.020425574104004985E-16, 1.000000000000000000, 0.000000000000000000 ) ) ;
#754 = LINE ( 'NONE', #966, #596 ) ;
#755 = PERSON_AND_ORGANIZATION_ROLE ( 'classification_officer' ) ;
#756 = ORIENTED_EDGE ( 'NONE', *, *, #498, .T. ) ;
#757 = CARTESIAN_POINT ( 'NONE',  ( 2.940894371254811901, 14.89025680933534268, 0.4999999999999726885 ) ) ;
#758 = EDGE_CURVE ( 'NONE', #21, #1038, #395, .T. ) ;
#759 = CARTESIAN_POINT ( 'NONE',  ( 15.59774862074719870, -232.5212859225448199, 3.000000000000000000 ) ) ;
#760 = AXIS2_PLACEMENT_3D ( 'NONE', #997, #777, #671 ) ;
#761 = CARTESIAN_POINT ( 'NONE',  ( 11.94089437125481190, 23.47871407745524763, 3.000000000000000000 ) ) ;
#762 = EDGE_CURVE ( 'NONE', #587, #801, #114, .T. ) ;
#763 = EDGE_LOOP ( 'NONE', ( #917, #36, #91, #303 ) ) ;
#764 = FACE_OUTER_BOUND ( 'NONE', #1151, .T. ) ;
#765 = ADVANCED_FACE ( 'NONE', ( #583 ), #597, .F. ) ;
#766 = CARTESIAN_POINT ( 'NONE',  ( 8.440894371254838546, -194.3912761438432142, 0.000000000000000000 ) ) ;
#767 = DIRECTION ( 'NONE',  ( 0.000000000000000000, 0.000000000000000000, 1.000000000000000000 ) ) ;
#768 = APPROVAL_ROLE ( '' ) ;
#769 = ORIENTED_EDGE ( 'NONE', *, *, #35, .T. ) ;
#770 = PLANE ( 'NONE',  #985 ) ;
#771 = ORIENTED_EDGE ( 'NONE', *, *, #1247, .F. ) ;
#772 = CARTESIAN_POINT ( 'NONE',  ( 11.94089437125481190, 23.47871407745524763, 3.000000000000000000 ) ) ;
#773 = DIRECTION ( 'NONE',  ( -0.5000000000000013323, 0.8660254037844378194, 0.000000000000000000 ) ) ;
#774 = SHAPE_DEFINITION_REPRESENTATION ( #750, #167 ) ;
#775 = VERTEX_POINT ( 'NONE', #108 ) ;
#776 = CARTESIAN_POINT ( 'NONE',  ( 2.940894371254811901, 14.89025680933534268, 3.000000000000000000 ) ) ;
#777 = DIRECTION ( 'NONE',  ( -0.000000000000000000, -0.000000000000000000, 1.000000000000000000 ) ) ;
#778 = DIRECTION ( 'NONE',  ( -0.000000000000000000, -0.000000000000000000, -1.000000000000000000 ) ) ;
#779 = VECTOR ( 'NONE', #221, 1000.000000000000114 ) ;
#780 = EDGE_CURVE ( 'NONE', #872, #581, #878, .T. ) ;
#781 = ORIENTED_EDGE ( 'NONE', *, *, #53, .F. ) ;
#782 = PLANE ( 'NONE',  #325 ) ;
#783 = VECTOR ( 'NONE', #49, 1000.000000000000114 ) ;
#784 = LINE ( 'NONE', #94, #286 ) ;
#785 = DIRECTION ( 'NONE',  ( -0.000000000000000000, -0.000000000000000000, 1.000000000000000000 ) ) ;
#786 = ADVANCED_FACE ( 'NONE', ( #796 ), #508, .T. ) ;
#787 = ORIENTED_EDGE ( 'NONE', *, *, #341, .F. ) ;
#788 = CARTESIAN_POINT ( 'NONE',  ( 21.59774862074725377, -235.5212859225447630, 3.000000000000000000 ) ) ;
#789 = ORIENTED_EDGE ( 'NONE', *, *, #263, .F. ) ;
#790 = LINE ( 'NONE', #389, #61 ) ;
#791 = CARTESIAN_POINT ( 'NONE',  ( 15.09774862074722357, -218.5212859225447630, 3.000000000000000000 ) ) ;
#792 = VERTEX_POINT ( 'NONE', #603 ) ;
#793 = DIRECTION ( 'NONE',  ( 0.000000000000000000, 0.000000000000000000, 1.000000000000000000 ) ) ;
#794 = ORIENTED_EDGE ( 'NONE', *, *, #432, .F. ) ;
#795 = EDGE_CURVE ( 'NONE', #320, #1082, #240, .T. ) ;
#796 = FACE_OUTER_BOUND ( 'NONE', #700, .T. ) ;
#797 = CARTESIAN_POINT ( 'NONE',  ( 15.59774862074719692, -218.3873113263292112, 3.000000000000000000 ) ) ;
#798 = ORIENTED_EDGE ( 'NONE', *, *, #77, .F. ) ;
#799 = DIRECTION ( 'NONE',  ( -0.5000000000000002220, -0.8660254037844385966, 0.000000000000000000 ) ) ;
#800 = EDGE_CURVE ( 'NONE', #1080, #663, #408, .T. ) ;
#801 = VERTEX_POINT ( 'NONE', #146 ) ;
#802 = PLANE ( 'NONE',  #1228 ) ;
#803 = DIRECTION ( 'NONE',  ( -0.5000000000000013323, 0.8660254037844378194, 0.000000000000000000 ) ) ;
#804 = AXIS2_PLACEMENT_3D ( 'NONE', #1261, #885, #992 ) ;
#805 = EDGE_LOOP ( 'NONE', ( #1029, #638, #751, #694, #489, #519, #137, #1123, #854, #1245, #606 ) ) ;
#806 = DIRECTION ( 'NONE',  ( 1.877848959846219134E-16, -1.000000000000000000, -0.000000000000000000 ) ) ;
#807 = ORIENTED_EDGE ( 'NONE', *, *, #400, .T. ) ;
#808 = CARTESIAN_POINT ( 'NONE',  ( 11.94089437125481190, 23.47871407745524763, 2.499999999999929390 ) ) ;
#809 = DIRECTION ( 'NONE',  ( -0.000000000000000000, -0.000000000000000000, -1.000000000000000000 ) ) ;
#810 = DIRECTION ( 'NONE',  ( -1.000000000000000000, 0.000000000000000000, 0.000000000000000000 ) ) ;
#811 = ORIENTED_EDGE ( 'NONE', *, *, #175, .T. ) ;
#812 = FACE_OUTER_BOUND ( 'NONE', #711, .T. ) ;
#813 = EDGE_CURVE ( 'NONE', #326, #98, #649, .T. ) ;
#814 = CARTESIAN_POINT ( 'NONE',  ( 21.59774862074725377, -235.5212859225447630, 0.4999999999999726885 ) ) ;
#815 = ORIENTED_EDGE ( 'NONE', *, *, #15, .T. ) ;
#816 = AXIS2_PLACEMENT_3D ( 'NONE', #1005, #1182, #405 ) ;
#817 = VECTOR ( 'NONE', #1096, 1000.000000000000114 ) ;
#818 = AXIS2_PLACEMENT_3D ( 'NONE', #56, #143, #38 ) ;
#819 = VECTOR ( 'NONE', #837, 1000.000000000000114 ) ;
#820 = AXIS2_PLACEMENT_3D ( 'NONE', #261, #257, #959 ) ;
#821 = DIRECTION ( 'NONE',  ( -0.7071067811865662245, 0.000000000000000000, -0.7071067811865288100 ) ) ;
#822 = VECTOR ( 'NONE', #426, 1000.000000000000000 ) ;
#823 = ORIENTED_EDGE ( 'NONE', *, *, #689, .F. ) ;
#824 = EDGE_CURVE ( 'NONE', #177, #71, #1215, .T. ) ;
#825 = ORIENTED_EDGE ( 'NONE', *, *, #780, .T. ) ;
#826 = DIRECTION ( 'NONE',  ( -1.245767767511694059E-16, 1.000000000000000000, 0.000000000000000000 ) ) ;
#827 = CARTESIAN_POINT ( 'NONE',  ( 8.440894371254810125, 23.47871407745524763, 0.000000000000000000 ) ) ;
#828 = ORIENTED_EDGE ( 'NONE', *, *, #302, .F. ) ;
#829 = DATE_AND_TIME ( #642, #1206 ) ;
#830 = ORIENTED_EDGE ( 'NONE', *, *, #140, .T. ) ;
#831 = CARTESIAN_POINT ( 'NONE',  ( 11.94089437125481190, -232.5212859225448199, 3.000000000000000000 ) ) ;
#832 = ADVANCED_FACE ( 'NONE', ( #1039 ), #440, .F. ) ;
#833 = LINE ( 'NONE', #26, #1169 ) ;
#834 = DIRECTION ( 'NONE',  ( -0.000000000000000000, -0.000000000000000000, -1.000000000000000000 ) ) ;
#835 = DIRECTION ( 'NONE',  ( 8.490453992831028581E-17, -0.8320502943378460525, -0.5547001962252255947 ) ) ;
#836 = ORIENTED_EDGE ( 'NONE', *, *, #573, .F. ) ;
#837 = DIRECTION ( 'NONE',  ( -0.6123724356958141213, 0.3535533905932787269, 0.7071067811865280328 ) ) ;
#838 = ADVANCED_FACE ( 'NONE', ( #16 ), #802, .T. ) ;
#839 = CC_DESIGN_SECURITY_CLASSIFICATION ( #735, ( #577 ) ) ;
#840 = APPROVAL ( #458, 'UNSPECIFIED' ) ;
#841 = PLANE ( 'NONE',  #946 ) ;
#842 = CARTESIAN_POINT ( 'NONE',  ( 16.80584554318091506, -232.8870682386767612, 4.208096922433784748 ) ) ;
#843 = PLANE ( 'NONE',  #965 ) ;
#844 = ORIENTED_EDGE ( 'NONE', *, *, #520, .F. ) ;
#845 = CARTESIAN_POINT ( 'NONE',  ( 22.09774862074722890, -217.0456415755269290, 2.499999999999980460 ) ) ;
#846 = CARTESIAN_POINT ( 'NONE',  ( 15.09774862074722535, -235.5212859225447630, 0.4999999999999726885 ) ) ;
#847 = CARTESIAN_POINT ( 'NONE',  ( 13.34089437125481048, 23.47871407745524763, 2.499999999999929390 ) ) ;
#848 = ORIENTED_EDGE ( 'NONE', *, *, #665, .T. ) ;
#849 = DIRECTION ( 'NONE',  ( 0.5773502691896270633, -0.5773502691895951999, -0.5773502691896552630 ) ) ;
#850 = CARTESIAN_POINT ( 'NONE',  ( 8.909805458009282475, 25.22871407745525119, 2.499999999999999556 ) ) ;
#851 = EDGE_CURVE ( 'NONE', #322, #234, #1006, .T. ) ;
#852 = CARTESIAN_POINT ( 'NONE',  ( 11.94089437125481190, 23.47871407745524763, 0.4999999999999874545 ) ) ;
#853 = ADVANCED_FACE ( 'NONE', ( #434 ), #1221, .F. ) ;
#854 = ORIENTED_EDGE ( 'NONE', *, *, #697, .T. ) ;
#855 = CARTESIAN_POINT ( 'NONE',  ( 21.59774862074722890, -235.0212859225447630, 0.000000000000000000 ) ) ;
#856 = ORIENTED_EDGE ( 'NONE', *, *, #6, .T. ) ;
#857 = CARTESIAN_POINT ( 'NONE',  ( 15.59774862074717383, 23.47871407745524763, 0.000000000000000000 ) ) ;
#858 = VECTOR ( 'NONE', #1171, 1000.000000000000000 ) ;
#859 = ORGANIZATION ( 'UNSPECIFIED', 'UNSPECIFIED', '' ) ;
#860 = DIRECTION ( 'NONE',  ( 0.6947465906068456265, -0.1861567878973840184, 0.6947465906068862607 ) ) ;
#861 = VECTOR ( 'NONE', #1027, 1000.000000000000114 ) ;
#862 = EDGE_LOOP ( 'NONE', ( #80, #771, #424, #272 ) ) ;
#863 = DIRECTION ( 'NONE',  ( -1.000000000000000000, -1.877848959846219134E-16, 0.000000000000000000 ) ) ;
#864 = VERTEX_POINT ( 'NONE', #349 ) ;
#865 = CARTESIAN_POINT ( 'NONE',  ( 14.97198328450034666, 21.72871407745524408, 0.4999999999999726885 ) ) ;
#866 = CARTESIAN_POINT ( 'NONE',  ( 15.09774862074722357, -218.5212859225447630, 3.000000000000000000 ) ) ;
#867 = ORIENTED_EDGE ( 'NONE', *, *, #851, .F. ) ;
#868 = CARTESIAN_POINT ( 'NONE',  ( 8.940894371254813677, 11.28256165474861916, 3.000000000000000000 ) ) ;
#869 = EDGE_CURVE ( 'NONE', #587, #384, #340, .T. ) ;
#870 = DIRECTION ( 'NONE',  ( 0.000000000000000000, 0.000000000000000000, -1.000000000000000000 ) ) ;
#871 = FACE_OUTER_BOUND ( 'NONE', #763, .T. ) ;
#872 = VERTEX_POINT ( 'NONE', #1095 ) ;
#873 = CARTESIAN_POINT ( 'NONE',  ( 2.940894371254838546, -197.4649967022144210, 0.4999999999999726885 ) ) ;
#874 = ORIENTED_EDGE ( 'NONE', *, *, #762, .F. ) ;
#875 = CARTESIAN_POINT ( 'NONE',  ( 13.34089437125481048, 23.47871407745524763, 2.499999999999929390 ) ) ;
#876 = EDGE_CURVE ( 'NONE', #71, #1075, #1030, .T. ) ;
#877 = PLANE ( 'NONE',  #1128 ) ;
#878 = CIRCLE ( 'NONE', #323, 3.499999999999999556 ) ;
#879 = AXIS2_PLACEMENT_3D ( 'NONE', #752, #162, #42 ) ;
#880 = EDGE_LOOP ( 'NONE', ( #893, #111, #1258 ) ) ;
#881 = DIRECTION ( 'NONE',  ( 1.000000000000000000, 0.000000000000000000, 0.000000000000000000 ) ) ;
#882 = EDGE_LOOP ( 'NONE', ( #919, #484, #1069, #1164 ) ) ;
#883 = VECTOR ( 'NONE', #1036, 1000.000000000000114 ) ;
#884 = FACE_OUTER_BOUND ( 'NONE', #880, .T. ) ;
#885 = DIRECTION ( 'NONE',  ( -0.000000000000000000, -0.000000000000000000, -1.000000000000000000 ) ) ;
#886 = ADVANCED_FACE ( 'NONE', ( #218 ), #734, .F. ) ;
#887 = VERTEX_POINT ( 'NONE', #920 ) ;
#888 = DIRECTION ( 'NONE',  ( -0.5000000000000011102, 0.8660254037844379305, 0.000000000000000000 ) ) ;
#889 = ORIENTED_EDGE ( 'NONE', *, *, #824, .T. ) ;
#890 = DIRECTION ( 'NONE',  ( 0.000000000000000000, 0.000000000000000000, -1.000000000000000000 ) ) ;
#891 = DIRECTION ( 'NONE',  ( 0.000000000000000000, 0.000000000000000000, 1.000000000000000000 ) ) ;
#892 = EDGE_CURVE ( 'NONE', #120, #422, #1124, .T. ) ;
#893 = ORIENTED_EDGE ( 'NONE', *, *, #800, .F. ) ;
#894 = FACE_BOUND ( 'NONE', #419, .T. ) ;
#895 = EDGE_CURVE ( 'NONE', #32, #492, #744, .T. ) ;
#896 = EDGE_LOOP ( 'NONE', ( #1116, #85, #459, #1175 ) ) ;
#897 = CARTESIAN_POINT ( 'NONE',  ( 2.940894371254811901, 14.89025680933534268, 2.499999999999999556 ) ) ;
#898 = LINE ( 'NONE', #584, #351 ) ;
#899 = ORIENTED_EDGE ( 'NONE', *, *, #758, .F. ) ;
#900 = FACE_OUTER_BOUND ( 'NONE', #951, .T. ) ;
#901 = LOCAL_TIME ( 17, 14, 18.00000000000000000, #187 ) ;
#902 = AXIS2_PLACEMENT_3D ( 'NONE', #670, #464, #1241 ) ;
#903 = ORIENTED_EDGE ( 'NONE', *, *, #969, .F. ) ;
#904 = AXIS2_PLACEMENT_3D ( 'NONE', #661, #260, #68 ) ;
#905 = FACE_OUTER_BOUND ( 'NONE', #676, .T. ) ;
#906 = VECTOR ( 'NONE', #778, 1000.000000000000000 ) ;
#907 = ORIENTED_EDGE ( 'NONE', *, *, #116, .F. ) ;
#908 = DIRECTION ( 'NONE',  ( -3.422873581762735892E-14, 0.7071067811865671127, -0.7071067811865279218 ) ) ;
#909 = EDGE_LOOP ( 'NONE', ( #688, #836, #562, #1054 ) ) ;
#910 = EDGE_CURVE ( 'NONE', #228, #1271, #548, .T. ) ;
#911 = DIRECTION ( 'NONE',  ( 0.6947465906068825969, -0.1861567878973945378, -0.6947465906068464037 ) ) ;
#912 = DIRECTION ( 'NONE',  ( -1.877848959846219134E-16, 1.000000000000000000, 0.000000000000000000 ) ) ;
#913 = CARTESIAN_POINT ( 'NONE',  ( 3.440894371254809236, -197.4649967022144210, 3.000000000000000000 ) ) ;
#914 = EDGE_LOOP ( 'NONE', ( #867, #258, #789, #823 ) ) ;
#915 = DIRECTION ( 'NONE',  ( -1.562464779762064788E-16, 0.8320502943378460525, 0.5547001962252255947 ) ) ;
#916 = EDGE_CURVE ( 'NONE', #656, #1214, #929, .T. ) ;
#917 = ORIENTED_EDGE ( 'NONE', *, *, #190, .T. ) ;
#918 = DIRECTION ( 'NONE',  ( 1.000000000000000000, 0.000000000000000000, 0.000000000000000000 ) ) ;
#919 = ORIENTED_EDGE ( 'NONE', *, *, #150, .F. ) ;
#920 = CARTESIAN_POINT ( 'NONE',  ( 15.44089437125481190, 23.47871407745524763, 0.4999999999999726885 ) ) ;
#921 = VECTOR ( 'NONE', #806, 1000.000000000000000 ) ;
#922 =( GEOMETRIC_REPRESENTATION_CONTEXT ( 3 ) GLOBAL_UNCERTAINTY_ASSIGNED_CONTEXT ( ( #1150 ) ) GLOBAL_UNIT_ASSIGNED_CONTEXT ( ( #130, #1110, #1028 ) ) REPRESENTATION_CONTEXT ( 'NONE', 'WORKASPACE' ) );
#923 = VECTOR ( 'NONE', #248, 1000.000000000000000 ) ;
#924 = CARTESIAN_POINT ( 'NONE',  ( 3.440894371254782147, 23.47871407745524763, 3.000000000000000000 ) ) ;
#925 = DIRECTION ( 'NONE',  ( 1.877848959846219134E-16, -1.000000000000000000, 0.000000000000000000 ) ) ;
#926 = CARTESIAN_POINT ( 'NONE',  ( 0.000000000000000000, 0.000000000000000000, 0.000000000000000000 ) ) ;
#927 = EDGE_CURVE ( 'NONE', #999, #21, #255, .T. ) ;
#928 = ORIENTED_EDGE ( 'NONE', *, *, #758, .T. ) ;
#929 = LINE ( 'NONE', #48, #142 ) ;
#930 = DIRECTION ( 'NONE',  ( -1.265975939374434244E-16, 1.000000000000000000, 0.000000000000000000 ) ) ;
#931 = CARTESIAN_POINT ( 'NONE',  ( 15.09774862074722357, -218.5212859225447630, 0.5000000000000004441 ) ) ;
#932 = ADVANCED_FACE ( 'NONE', ( #645 ), #157, .F. ) ;
#933 = CARTESIAN_POINT ( 'NONE',  ( 11.94089437125481190, 23.47871407745524763, 0.000000000000000000 ) ) ;
#934 = ORIENTED_EDGE ( 'NONE', *, *, #513, .F. ) ;
#935 = DIRECTION ( 'NONE',  ( -0.000000000000000000, -0.000000000000000000, -1.000000000000000000 ) ) ;
#936 = CC_DESIGN_PERSON_AND_ORGANIZATION_ASSIGNMENT ( #1053, #559, ( #577 ) ) ;
#937 = CARTESIAN_POINT ( 'NONE',  ( 14.97198328450034310, 21.72871407745524408, 2.499999999999999556 ) ) ;
#938 = PLANE ( 'NONE',  #820 ) ;
#939 = VERTEX_POINT ( 'NONE', #561 ) ;
#940 = CARTESIAN_POINT ( 'NONE',  ( 22.09774862074722535, -235.2439358244321568, 0.5839748528311449194 ) ) ;
#941 = VECTOR ( 'NONE', #930, 1000.000000000000000 ) ;
#942 = LOCAL_TIME ( 17, 14, 18.00000000000000000, #725 ) ;
#943 = VECTOR ( 'NONE', #1226, 1000.000000000000000 ) ;
#944 = DIRECTION ( 'NONE',  ( 0.6613355025394086484, -0.6613355025394453968, 0.3539360198706075211 ) ) ;
#945 = VECTOR ( 'NONE', #912, 1000.000000000000000 ) ;
#946 = AXIS2_PLACEMENT_3D ( 'NONE', #352, #275, #646 ) ;
#947 = DIRECTION ( 'NONE',  ( 1.000000000000000000, 0.000000000000000000, 0.000000000000000000 ) ) ;
#948 = VERTEX_POINT ( 'NONE', #479 ) ;
#949 = FACE_OUTER_BOUND ( 'NONE', #669, .T. ) ;
#950 = VECTOR ( 'NONE', #1168, 1000.000000000000114 ) ;
#951 = EDGE_LOOP ( 'NONE', ( #1047, #899, #733, #1162 ) ) ;
#952 = FACE_OUTER_BOUND ( 'NONE', #172, .T. ) ;
#953 = EDGE_CURVE ( 'NONE', #939, #492, #1163, .T. ) ;
#954 = CARTESIAN_POINT ( 'NONE',  ( 8.940894371254838546, -194.2573015476276908, 2.499999999999980460 ) ) ;
#955 = ORIENTED_EDGE ( 'NONE', *, *, #432, .T. ) ;
#956 = LINE ( 'NONE', #367, #1145 ) ;
#957 = DIRECTION ( 'NONE',  ( 0.7071067811865671127, 0.000000000000000000, 0.7071067811865279218 ) ) ;
#958 = EDGE_CURVE ( 'NONE', #161, #228, #1263, .T. ) ;
#959 = DIRECTION ( 'NONE',  ( 0.000000000000000000, -0.000000000000000000, 1.000000000000000000 ) ) ;
#960 = ORIENTED_EDGE ( 'NONE', *, *, #1064, .F. ) ;
#961 = DIRECTION ( 'NONE',  ( -1.562464779762064788E-16, 0.8320502943378460525, 0.5547001962252255947 ) ) ;
#962 = ORIENTED_EDGE ( 'NONE', *, *, #119, .F. ) ;
#963 = CARTESIAN_POINT ( 'NONE',  ( 11.94089437125481190, 23.47871407745524763, 3.000000000000000000 ) ) ;
#964 = VECTOR ( 'NONE', #935, 1000.000000000000000 ) ;
#965 = AXIS2_PLACEMENT_3D ( 'NONE', #933, #450, #444 ) ;
#966 = CARTESIAN_POINT ( 'NONE',  ( 15.53076132263942810, -218.2712859225447914, 3.000000000000000000 ) ) ;
#967 = ORIENTED_EDGE ( 'NONE', *, *, #876, .F. ) ;
#968 = DIRECTION ( 'NONE',  ( 0.7071067811865672237, 1.327839733551403425E-16, 0.7071067811865279218 ) ) ;
#969 = EDGE_CURVE ( 'NONE', #674, #939, #72, .T. ) ;
#970 = DIRECTION ( 'NONE',  ( -0.5000000000000002220, -0.8660254037844384856, 0.000000000000000000 ) ) ;
#971 = DIRECTION ( 'NONE',  ( -0.5000000000000013323, 0.8660254037844378194, 0.000000000000000000 ) ) ;
#972 = ORIENTED_EDGE ( 'NONE', *, *, #1008, .T. ) ;
#973 = LINE ( 'NONE', #92, #921 ) ;
#974 = VERTEX_POINT ( 'NONE', #1076 ) ;
#975 = ADVANCED_FACE ( 'NONE', ( #178 ), #782, .T. ) ;
#976 = DIRECTION ( 'NONE',  ( 0.7071067811865279218, 0.7071067811865672237, -1.196099074440367795E-16 ) ) ;
#977 = DIRECTION ( 'NONE',  ( 0.8660254037844379305, 0.5000000000000014433, -0.000000000000000000 ) ) ;
#978 = EDGE_LOOP ( 'NONE', ( #29, #996, #743, #392 ) ) ;
#979 = DIRECTION ( 'NONE',  ( -1.265975939374434244E-16, 1.000000000000000000, 0.000000000000000000 ) ) ;
#980 = ORIENTED_EDGE ( 'NONE', *, *, #400, .F. ) ;
#981 = DIRECTION ( 'NONE',  ( 0.8660254037844387076, -0.4999999999999999445, 0.000000000000000000 ) ) ;
#982 = ADVANCED_FACE ( 'NONE', ( #764 ), #1246, .T. ) ;
#983 = DIRECTION ( 'NONE',  ( 1.000000000000000000, 0.000000000000000000, 0.000000000000000000 ) ) ;
#984 = VECTOR ( 'NONE', #753, 1000.000000000000000 ) ;
#985 = AXIS2_PLACEMENT_3D ( 'NONE', #266, #657, #1048 ) ;
#986 = EDGE_LOOP ( 'NONE', ( #972, #769 ) ) ;
#987 = CARTESIAN_POINT ( 'NONE',  ( 8.909805458009282475, 25.22871407745525119, 0.4999999999999726885 ) ) ;
#988 = ORIENTED_EDGE ( 'NONE', *, *, #1025, .F. ) ;
#989 = AXIS2_PLACEMENT_3D ( 'NONE', #924, #1113, #318 ) ;
#990 = EDGE_CURVE ( 'NONE', #1082, #1038, #283, .T. ) ;
#991 = CARTESIAN_POINT ( 'NONE',  ( 11.94089437125481190, 23.47871407745524763, 2.499999999999999556 ) ) ;
#992 = DIRECTION ( 'NONE',  ( 1.000000000000000000, 0.000000000000000000, 0.000000000000000000 ) ) ;
#993 = CC_DESIGN_PERSON_AND_ORGANIZATION_ASSIGNMENT ( #354, #626, ( #1184 ) ) ;
#994 = ORIENTED_EDGE ( 'NONE', *, *, #650, .T. ) ;
#995 = CARTESIAN_POINT ( 'NONE',  ( 8.940894371254813677, 11.28256165474861916, 2.499999999999999112 ) ) ;
#996 = ORIENTED_EDGE ( 'NONE', *, *, #892, .T. ) ;
#997 = CARTESIAN_POINT ( 'NONE',  ( 11.94089437125481190, 23.47871407745524763, 0.4999999999999726885 ) ) ;
#998 = FACE_OUTER_BOUND ( 'NONE', #499, .T. ) ;
#999 = VERTEX_POINT ( 'NONE', #67 ) ;
#1000 = FACE_OUTER_BOUND ( 'NONE', #404, .T. ) ;
#1001 = ORIENTED_EDGE ( 'NONE', *, *, #214, .T. ) ;
#1002 = DIRECTION ( 'NONE',  ( -0.000000000000000000, -0.000000000000000000, -1.000000000000000000 ) ) ;
#1003 = CARTESIAN_POINT ( 'NONE',  ( 22.09774862074722535, -235.0212859225447630, 3.000000000000000000 ) ) ;
#1004 = VERTEX_POINT ( 'NONE', #87 ) ;
#1005 = CARTESIAN_POINT ( 'NONE',  ( 11.94089437125481190, 23.47871407745524763, 3.000000000000000000 ) ) ;
#1006 = CIRCLE ( 'NONE', #368, 2.999999999999999112 ) ;
#1007 = ORIENTED_EDGE ( 'NONE', *, *, #229, .T. ) ;
#1008 = EDGE_CURVE ( 'NONE', #575, #567, #347, .T. ) ;
#1009 = CONICAL_SURFACE ( 'NONE', #1210, 3.000000000000027089, 0.7853981633974206344 ) ;
#1010 = LINE ( 'NONE', #635, #941 ) ;
#1011 = LINE ( 'NONE', #417, #1106 ) ;
#1012 = FACE_OUTER_BOUND ( 'NONE', #805, .T. ) ;
#1013 = EDGE_LOOP ( 'NONE', ( #542, #553, #220, #9 ) ) ;
#1014 = EDGE_CURVE ( 'NONE', #199, #406, #467, .T. ) ;
#1015 = DIRECTION ( 'NONE',  ( 0.7071067811865417996, -0.3922322702763686442, 0.5883484054145586839 ) ) ;
#1016 = CARTESIAN_POINT ( 'NONE',  ( 22.09774862074722179, -217.0456415755269290, 0.4999999999999726885 ) ) ;
#1017 = CALENDAR_DATE ( 2023, 16, 1 ) ;
#1018 = ORIENTED_EDGE ( 'NONE', *, *, #1238, .F. ) ;
#1019 = CARTESIAN_POINT ( 'NONE',  ( -11.72883713188573118, -225.7094479106485210, -24.32658575263440071 ) ) ;
#1020 = ADVANCED_FACE ( 'NONE', ( #949 ), #460, .T. ) ;
#1021 = CARTESIAN_POINT ( 'NONE',  ( 8.440894371254811901, 11.41653625096417812, 0.000000000000000000 ) ) ;
#1022 = ORIENTED_EDGE ( 'NONE', *, *, #780, .F. ) ;
#1023 = DIRECTION ( 'NONE',  ( -1.000000000000000000, 0.000000000000000000, 0.000000000000000000 ) ) ;
#1024 = CC_DESIGN_APPROVAL ( #252, ( #1184 ) ) ;
#1025 = EDGE_CURVE ( 'NONE', #406, #312, #1070, .T. ) ;
#1026 = DIRECTION ( 'NONE',  ( 1.000000000000000000, 0.000000000000000000, 0.000000000000000000 ) ) ;
#1027 = DIRECTION ( 'NONE',  ( 0.6613355025394214159, 0.6613355025394579423, -0.3539360198705600036 ) ) ;
#1028 =( NAMED_UNIT ( * ) SI_UNIT ( $, .STERADIAN. ) SOLID_ANGLE_UNIT ( ) );
#1029 = ORIENTED_EDGE ( 'NONE', *, *, #480, .T. ) ;
#1030 = LINE ( 'NONE', #1236, #964 ) ;
#1031 = CARTESIAN_POINT ( 'NONE',  ( 14.97198328450034488, 21.72871407745524408, 2.499999999999999556 ) ) ;
#1032 = ORIENTED_EDGE ( 'NONE', *, *, #953, .F. ) ;
#1033 = PERSON_AND_ORGANIZATION ( #1142, #859 ) ;
#1034 = ORIENTED_EDGE ( 'NONE', *, *, #605, .F. ) ;
#1035 = DIRECTION ( 'NONE',  ( 0.5000000000000011102, -0.8660254037844379305, 0.000000000000000000 ) ) ;
#1036 = DIRECTION ( 'NONE',  ( 0.5000000000000002220, 0.8660254037844384856, 0.000000000000000000 ) ) ;
#1037 = CARTESIAN_POINT ( 'NONE',  ( -90.04752609765095883, -35.40432793449245708, 3.000000000000000000 ) ) ;
#1038 = VERTEX_POINT ( 'NONE', #757 ) ;
#1039 = FACE_OUTER_BOUND ( 'NONE', #1139, .T. ) ;
#1040 = ADVANCED_FACE ( 'NONE', ( #1061 ), #770, .F. ) ;
#1041 = VECTOR ( 'NONE', #1153, 1000.000000000000114 ) ;
#1042 = APPROVAL_PERSON_ORGANIZATION ( #1033, #252, #1103 ) ;
#1043 = CARTESIAN_POINT ( 'NONE',  ( 16.06588953188303748, -235.9894268336806249, 1.250541412323739277 ) ) ;
#1044 = VECTOR ( 'NONE', #232, 1000.000000000000000 ) ;
#1045 = VECTOR ( 'NONE', #957, 1000.000000000000000 ) ;
#1046 = CARTESIAN_POINT ( 'NONE',  ( 2.312806612726762356, 15.05855241700880676, 1.871912241471913374 ) ) ;
#1047 = ORIENTED_EDGE ( 'NONE', *, *, #498, .F. ) ;
#1048 = DIRECTION ( 'NONE',  ( -1.877848959846219134E-16, 1.000000000000000000, 0.000000000000000000 ) ) ;
#1049 = ORIENTED_EDGE ( 'NONE', *, *, #211, .F. ) ;
#1050 = CC_DESIGN_PERSON_AND_ORGANIZATION_ASSIGNMENT ( #90, #483, ( #577 ) ) ;
#1051 = CARTESIAN_POINT ( 'NONE',  ( 14.53897058260815278, 21.97871407745522987, 3.000000000000000000 ) ) ;
#1052 = LINE ( 'NONE', #84, #165 ) ;
#1053 = PERSON_AND_ORGANIZATION ( #1142, #859 ) ;
#1054 = ORIENTED_EDGE ( 'NONE', *, *, #1198, .F. ) ;
#1055 = CARTESIAN_POINT ( 'NONE',  ( 10.01824464044442209, 10.99388652015381851, 1.422649730810332080 ) ) ;
#1056 = FACE_OUTER_BOUND ( 'NONE', #201, .T. ) ;
#1057 = CARTESIAN_POINT ( 'NONE',  ( 21.59774862074722535, -232.5212859225448199, 3.000000000000000000 ) ) ;
#1058 = CALENDAR_DATE ( 2023, 16, 1 ) ;
#1059 = ADVANCED_FACE ( 'NONE', ( #568 ), #182, .F. ) ;
#1060 = ORIENTED_EDGE ( 'NONE', *, *, #571, .F. ) ;
#1061 = FACE_OUTER_BOUND ( 'NONE', #1188, .T. ) ;
#1062 = VECTOR ( 'NONE', #1081, 1000.000000000000000 ) ;
#1063 = CARTESIAN_POINT ( 'NONE',  ( 8.909805458009282475, 25.22871407745525119, 0.4999999999999726885 ) ) ;
#1064 = EDGE_CURVE ( 'NONE', #948, #151, #956, .T. ) ;
#1065 = LINE ( 'NONE', #207, #270 ) ;
#1066 = APPROVAL_DATE_TIME ( #829, #598 ) ;
#1067 = EDGE_CURVE ( 'NONE', #948, #1004, #582, .T. ) ;
#1068 = CIRCLE ( 'NONE', #714, 2.999999999999999112 ) ;
#1069 = ORIENTED_EDGE ( 'NONE', *, *, #953, .T. ) ;
#1070 = LINE ( 'NONE', #373, #1207 ) ;
#1071 = AXIS2_PLACEMENT_3D ( 'NONE', #761, #1147, #271 ) ;
#1072 = AXIS2_PLACEMENT_3D ( 'NONE', #503, #891, #89 ) ;
#1073 = DIRECTION ( 'NONE',  ( 1.000000000000000000, -1.156482317317871725E-15, 0.000000000000000000 ) ) ;
#1074 = FACE_OUTER_BOUND ( 'NONE', #585, .T. ) ;
#1075 = VERTEX_POINT ( 'NONE', #576 ) ;
#1076 = CARTESIAN_POINT ( 'NONE',  ( 21.59774862074725021, -217.1796161717425662, 3.000000000000000000 ) ) ;
#1077 = ORIENTED_EDGE ( 'NONE', *, *, #336, .T. ) ;
#1078 = PLANE ( 'NONE',  #658 ) ;
#1079 = DIRECTION ( 'NONE',  ( 1.000000000000000000, 0.000000000000000000, 0.000000000000000000 ) ) ;
#1080 = VERTEX_POINT ( 'NONE', #1254 ) ;
#1081 = DIRECTION ( 'NONE',  ( 1.020425574104004985E-16, -1.000000000000000000, 0.000000000000000000 ) ) ;
#1082 = VERTEX_POINT ( 'NONE', #1157 ) ;
#1083 = EDGE_CURVE ( 'NONE', #71, #326, #973, .T. ) ;
#1084 = CARTESIAN_POINT ( 'NONE',  ( 3.440894371254809236, -197.3310221059988692, 3.000000000000000000 ) ) ;
#1085 = DIRECTION ( 'NONE',  ( 0.7071067811865662245, 8.659560562355162121E-17, -0.7071067811865288100 ) ) ;
#1086 = AXIS2_PLACEMENT_3D ( 'NONE', #609, #538, #530 ) ;
#1087 = ORIENTED_EDGE ( 'NONE', *, *, #813, .F. ) ;
#1088 = CARTESIAN_POINT ( 'NONE',  ( 36.61841100216685163, -186.8411333178743519, -25.17751663091354075 ) ) ;
#1089 = ORIENTED_EDGE ( 'NONE', *, *, #196, .F. ) ;
#1090 = DIRECTION ( 'NONE',  ( -0.7071067811865291430, 0.000000000000000000, 0.7071067811865658914 ) ) ;
#1091 = DIRECTION ( 'NONE',  ( 0.6914377643506407489, 0.2093505100531702912, -0.6914377643506790516 ) ) ;
#1092 = ORIENTED_EDGE ( 'NONE', *, *, #358, .F. ) ;
#1093 = CARTESIAN_POINT ( 'NONE',  ( 15.09774862074722535, -235.0212859225447630, 0.7324081207560539930 ) ) ;
#1094 = ORIENTED_EDGE ( 'NONE', *, *, #397, .T. ) ;
#1095 = CARTESIAN_POINT ( 'NONE',  ( 8.909805458009282475, 25.22871407745525119, 2.499999999999999556 ) ) ;
#1096 = DIRECTION ( 'NONE',  ( 0.4999999999999999445, 0.8660254037844385966, 0.000000000000000000 ) ) ;
#1097 = ADVANCED_FACE ( 'NONE', ( #301 ), #506, .F. ) ;
#1098 = ORIENTED_EDGE ( 'NONE', *, *, #441, .T. ) ;
#1099 = DIRECTION ( 'NONE',  ( -0.6123724356957855885, -0.3535533905932696785, 0.7071067811865573427 ) ) ;
#1100 = ORIENTED_EDGE ( 'NONE', *, *, #1238, .T. ) ;
#1101 = CARTESIAN_POINT ( 'NONE',  ( 8.940894371254813677, 11.28256165474861916, 0.4999999999999726885 ) ) ;
#1102 = DIRECTION ( 'NONE',  ( 0.6947465906068420738, 0.1861567878974184076, -0.6947465906068805985 ) ) ;
#1103 = APPROVAL_ROLE ( '' ) ;
#1104 = ADVANCED_FACE ( 'NONE', ( #1000 ), #693, .F. ) ;
#1105 = EDGE_LOOP ( 'NONE', ( #41, #181, #361, #794 ) ) ;
#1106 = VECTOR ( 'NONE', #1102, 1000.000000000000114 ) ;
#1107 = AXIS2_PLACEMENT_3D ( 'NONE', #416, #1217, #442 ) ;
#1108 = PLANE ( 'NONE',  #264 ) ;
#1109 = LINE ( 'NONE', #636, #1044 ) ;
#1110 =( NAMED_UNIT ( * ) PLANE_ANGLE_UNIT ( ) SI_UNIT ( $, .RADIAN. ) );
#1111 = EDGE_LOOP ( 'NONE', ( #225, #156, #1034, #107 ) ) ;
#1112 = EDGE_CURVE ( 'NONE', #775, #177, #295, .T. ) ;
#1113 = DIRECTION ( 'NONE',  ( -0.7071067811865682229, -8.808908361911710178E-17, 0.7071067811865268116 ) ) ;
#1114 = DIRECTION ( 'NONE',  ( 0.6947465906068405195, 0.1861567878974220991, 0.6947465906068810426 ) ) ;
#1115 = FACE_OUTER_BOUND ( 'NONE', #882, .T. ) ;
#1116 = ORIENTED_EDGE ( 'NONE', *, *, #614, .T. ) ;
#1117 = DIRECTION ( 'NONE',  ( 0.6947465906068851504, -0.1861567878973862111, 0.6947465906068461816 ) ) ;
#1118 = ADVANCED_FACE ( 'NONE', ( #13 ), #708, .F. ) ;
#1119 = EDGE_CURVE ( 'NONE', #24, #948, #112, .T. ) ;
#1120 = CARTESIAN_POINT ( 'NONE',  ( 10.54089437125481332, 23.47871407745524763, 2.499999999999929390 ) ) ;
#1121 = DIRECTION ( 'NONE',  ( 1.000000000000000000, 0.000000000000000000, 0.000000000000000000 ) ) ;
#1122 = LINE ( 'NONE', #913, #245 ) ;
#1123 = ORIENTED_EDGE ( 'NONE', *, *, #471, .T. ) ;
#1124 = LINE ( 'NONE', #335, #1167 ) ;
#1125 = AXIS2_PLACEMENT_3D ( 'NONE', #687, #1099, #888 ) ;
#1126 = CARTESIAN_POINT ( 'NONE',  ( 21.59774862074722890, -235.0212859225447630, 0.000000000000000000 ) ) ;
#1127 = FACE_OUTER_BOUND ( 'NONE', #277, .T. ) ;
#1128 = AXIS2_PLACEMENT_3D ( 'NONE', #396, #1267, #391 ) ;
#1129 = ORIENTED_EDGE ( 'NONE', *, *, #421, .F. ) ;
#1130 = CARTESIAN_POINT ( 'NONE',  ( 15.09774862074722535, -235.0212859225447630, 0.5000000000000004441 ) ) ;
#1131 = DIRECTION ( 'NONE',  ( -0.000000000000000000, -0.000000000000000000, -1.000000000000000000 ) ) ;
#1132 = PRODUCT ( 'MB_door_front_slider_bottom_XL_v1', 'MB_door_front_slider_bottom_XL_v1', '', ( #423 ) ) ;
#1133 = PLANE ( 'NONE',  #1209 ) ;
#1134 = ADVANCED_FACE ( 'NONE', ( #601 ), #511, .F. ) ;
#1135 = ORIENTED_EDGE ( 'NONE', *, *, #281, .T. ) ;
#1136 = DIRECTION ( 'NONE',  ( 1.562464779762064295E-16, -0.8320502943378459415, -0.5547001962252255947 ) ) ;
#1137 = LINE ( 'NONE', #269, #37 ) ;
#1138 = CARTESIAN_POINT ( 'NONE',  ( 8.940894371254838546, -194.2573015476276908, 0.4999999999999726885 ) ) ;
#1139 = EDGE_LOOP ( 'NONE', ( #355, #445, #58, #1196 ) ) ;
#1140 = CARTESIAN_POINT ( 'NONE',  ( 11.94089437125481190, 23.47871407745524763, 3.000000000000000000 ) ) ;
#1141 = CC_DESIGN_DATE_AND_TIME_ASSIGNMENT ( #565, #1155, ( #735 ) ) ;
#1142 = PERSON ( 'UNSPECIFIED', 'UNSPECIFIED', 'UNSPECIFIED', ('UNSPECIFIED'), ('UNSPECIFIED'), ('UNSPECIFIED') ) ;
#1143 = AXIS2_PLACEMENT_3D ( 'NONE', #251, #83, #640 ) ;
#1144 = MANIFOLD_SOLID_BREP ( 'Chanfrein2', #82 ) ;
#1145 = VECTOR ( 'NONE', #961, 1000.000000000000000 ) ;
#1146 = LINE ( 'NONE', #1051, #350 ) ;
#1147 = DIRECTION ( 'NONE',  ( -0.000000000000000000, -0.000000000000000000, -1.000000000000000000 ) ) ;
#1148 = VERTEX_POINT ( 'NONE', #1093 ) ;
#1149 = CARTESIAN_POINT ( 'NONE',  ( 11.94089437125481190, 23.47871407745524763, 0.000000000000000000 ) ) ;
#1150 = UNCERTAINTY_MEASURE_WITH_UNIT (LENGTH_MEASURE( 1.000000000000000082E-05 ), #130, 'distance_accuracy_value', 'NONE');
#1151 = EDGE_LOOP ( 'NONE', ( #296, #988, #625, #724 ) ) ;
#1152 = EDGE_CURVE ( 'NONE', #581, #939, #216, .T. ) ;
#1153 = DIRECTION ( 'NONE',  ( -0.6123724356957773729, 0.3535533905932640164, 0.7071067811865672237 ) ) ;
#1154 = CARTESIAN_POINT ( 'NONE',  ( 8.909805458009282475, 25.22871407745525119, 2.499999999999999556 ) ) ;
#1155 = DATE_TIME_ROLE ( 'classification_date' ) ;
#1156 = ORIENTED_EDGE ( 'NONE', *, *, #1152, .F. ) ;
#1157 = CARTESIAN_POINT ( 'NONE',  ( 2.940894371254811901, 14.89025680933534268, 2.499999999999999556 ) ) ;
#1158 = EDGE_CURVE ( 'NONE', #78, #1080, #8, .T. ) ;
#1159 = DIRECTION ( 'NONE',  ( -0.4999999999999999445, -0.8660254037844387076, 0.000000000000000000 ) ) ;
#1160 = DIRECTION ( 'NONE',  ( -0.000000000000000000, -0.000000000000000000, -1.000000000000000000 ) ) ;
#1161 = PERSON_AND_ORGANIZATION ( #1142, #859 ) ;
#1162 = ORIENTED_EDGE ( 'NONE', *, *, #471, .F. ) ;
#1163 = LINE ( 'NONE', #868, #1249 ) ;
#1164 = ORIENTED_EDGE ( 'NONE', *, *, #573, .T. ) ;
#1165 = VECTOR ( 'NONE', #976, 1000.000000000000000 ) ;
#1166 = FACE_OUTER_BOUND ( 'NONE', #14, .T. ) ;
#1167 = VECTOR ( 'NONE', #728, 1000.000000000000000 ) ;
#1168 = DIRECTION ( 'NONE',  ( -0.5000000000000011102, 0.8660254037844379305, 0.000000000000000000 ) ) ;
#1169 = VECTOR ( 'NONE', #821, 1000.000000000000000 ) ;
#1170 = EDGE_LOOP ( 'NONE', ( #300, #188, #463, #348 ) ) ;
#1171 = DIRECTION ( 'NONE',  ( -0.000000000000000000, -0.000000000000000000, -1.000000000000000000 ) ) ;
#1172 = DIRECTION ( 'NONE',  ( 1.000000000000000000, 0.000000000000000000, 0.000000000000000000 ) ) ;
#1173 = LINE ( 'NONE', #599, #475 ) ;
#1174 = EDGE_CURVE ( 'NONE', #24, #587, #701, .T. ) ;
#1175 = ORIENTED_EDGE ( 'NONE', *, *, #531, .T. ) ;
#1176 = CARTESIAN_POINT ( 'NONE',  ( 2.940894371254838546, -197.4649967022144210, 0.4999999999999726885 ) ) ;
#1177 = ADVANCED_FACE ( 'NONE', ( #900 ), #1272, .F. ) ;
#1178 = ORIENTED_EDGE ( 'NONE', *, *, #643, .F. ) ;
#1179 = LINE ( 'NONE', #88, #593 ) ;
#1180 = PLANE ( 'NONE',  #678 ) ;
#1181 = ORIENTED_EDGE ( 'NONE', *, *, #242, .F. ) ;
#1182 = DIRECTION ( 'NONE',  ( 0.000000000000000000, 0.000000000000000000, 1.000000000000000000 ) ) ;
#1183 = ORIENTED_EDGE ( 'NONE', *, *, #927, .T. ) ;
#1184 = PRODUCT_DEFINITION ( 'UNKNOWN', '', #577, #153 ) ;
#1185 = CARTESIAN_POINT ( 'NONE',  ( 15.59774862074717205, 23.47871407745524763, 3.000000000000000000 ) ) ;
#1186 = LINE ( 'NONE', #308, #230 ) ;
#1187 = VECTOR ( 'NONE', #280, 1000.000000000000114 ) ;
#1188 = EDGE_LOOP ( 'NONE', ( #1077, #1208, #874, #680 ) ) ;
#1189 = DIRECTION ( 'NONE',  ( 0.7071067811865671127, 0.7071067811865279218, 0.000000000000000000 ) ) ;
#1190 = ORIENTED_EDGE ( 'NONE', *, *, #358, .T. ) ;
#1191 = CARTESIAN_POINT ( 'NONE',  ( 11.94089437125481190, 23.47871407745524763, 0.000000000000000000 ) ) ;
#1192 = ADVANCED_FACE ( 'NONE', ( #894, #22 ), #500, .T. ) ;
#1193 = PLANE ( 'NONE',  #65 ) ;
#1194 = EDGE_LOOP ( 'NONE', ( #1240, #1156, #113, #1178 ) ) ;
#1195 = PLANE ( 'NONE',  #365 ) ;
#1196 = ORIENTED_EDGE ( 'NONE', *, *, #795, .T. ) ;
#1197 = FACE_OUTER_BOUND ( 'NONE', #862, .T. ) ;
#1198 = EDGE_CURVE ( 'NONE', #234, #32, #418, .T. ) ;
#1199 = LINE ( 'NONE', #641, #388 ) ;
#1200 = DIRECTION ( 'NONE',  ( -0.000000000000000000, 0.000000000000000000, -1.000000000000000000 ) ) ;
#1201 = ORIENTED_EDGE ( 'NONE', *, *, #281, .F. ) ;
#1202 = CARTESIAN_POINT ( 'NONE',  ( 8.940894371254838546, -194.2573015476276908, 3.000000000000000000 ) ) ;
#1203 = PLANE ( 'NONE',  #715 ) ;
#1204 = CONICAL_SURFACE ( 'NONE', #619, 3.499999999999999556, 0.7853981633974760346 ) ;
#1205 = PERSON_AND_ORGANIZATION ( #1142, #859 ) ;
#1206 = LOCAL_TIME ( 17, 14, 18.00000000000000000, #536 ) ;
#1207 = VECTOR ( 'NONE', #189, 1000.000000000000114 ) ;
#1208 = ORIENTED_EDGE ( 'NONE', *, *, #15, .F. ) ;
#1209 = AXIS2_PLACEMENT_3D ( 'NONE', #1233, #476, #180 ) ;
#1210 = AXIS2_PLACEMENT_3D ( 'NONE', #772, #870, #4 ) ;
#1211 = DIRECTION ( 'NONE',  ( -0.000000000000000000, -0.000000000000000000, 1.000000000000000000 ) ) ;
#1212 = CARTESIAN_POINT ( 'NONE',  ( 8.940894371254813677, 11.28256165474861916, 0.4999999999999726885 ) ) ;
#1213 = ADVANCED_FACE ( 'NONE', ( #412 ), #1195, .F. ) ;
#1214 = VERTEX_POINT ( 'NONE', #311 ) ;
#1215 = LINE ( 'NONE', #845, #163 ) ;
#1216 = ADVANCED_FACE ( 'NONE', ( #316 ), #613, .F. ) ;
#1217 = DIRECTION ( 'NONE',  ( 0.7071067811865290320, 8.808908361911222070E-17, 0.7071067811865660024 ) ) ;
#1218 = LINE ( 'NONE', #338, #1268 ) ;
#1219 = PLANE ( 'NONE',  #818 ) ;
#1220 = ORIENTED_EDGE ( 'NONE', *, *, #77, .T. ) ;
#1221 = PLANE ( 'NONE',  #387 ) ;
#1222 = DIRECTION ( 'NONE',  ( 0.000000000000000000, 0.000000000000000000, 1.000000000000000000 ) ) ;
#1223 = DIRECTION ( 'NONE',  ( 1.000000000000000000, 0.000000000000000000, 0.000000000000000000 ) ) ;
#1224 = APPLICATION_CONTEXT ( 'configuration controlled 3d designs of mechanical parts and assemblies' ) ;
#1225 = ORIENTED_EDGE ( 'NONE', *, *, #916, .F. ) ;
#1226 = DIRECTION ( 'NONE',  ( 0.7071067811865279218, -0.7071067811865671127, -3.943663288905002757E-14 ) ) ;
#1227 = LOCAL_TIME ( 17, 14, 18.00000000000000000, #749 ) ;
#1228 = AXIS2_PLACEMENT_3D ( 'NONE', #831, #446, #138 ) ;
#1229 = AXIS2_PLACEMENT_3D ( 'NONE', #1037, #160, #773 ) ;
#1230 = CONICAL_SURFACE ( 'NONE', #717, 1.399999999999998579, 0.7853981633974748133 ) ;
#1231 = CARTESIAN_POINT ( 'NONE',  ( 13.84089437125482469, 23.47871407745524763, 0.000000000000000000 ) ) ;
#1232 = EDGE_CURVE ( 'NONE', #501, #1004, #97, .T. ) ;
#1233 = CARTESIAN_POINT ( 'NONE',  ( 15.09774862074722357, -218.5212859225447630, 0.5000000000000004441 ) ) ;
#1234 = CALENDAR_DATE ( 2023, 16, 1 ) ;
#1235 = ORIENTED_EDGE ( 'NONE', *, *, #415, .F. ) ;
#1236 = CARTESIAN_POINT ( 'NONE',  ( 22.09774862074722179, -217.0456415755269290, 3.000000000000000000 ) ) ;
#1237 = DIRECTION ( 'NONE',  ( 1.000000000000000000, 0.000000000000000000, 0.000000000000000000 ) ) ;
#1238 = EDGE_CURVE ( 'NONE', #939, #177, #523, .T. ) ;
#1239 = LINE ( 'NONE', #359, #307 ) ;
#1240 = ORIENTED_EDGE ( 'NONE', *, *, #969, .T. ) ;
#1241 = DIRECTION ( 'NONE',  ( 0.4999999999999998890, 0.8660254037844385966, -0.000000000000000000 ) ) ;
#1242 = LINE ( 'NONE', #154, #1045 ) ;
#1243 = DIRECTION ( 'NONE',  ( -0.000000000000000000, -0.000000000000000000, -1.000000000000000000 ) ) ;
#1244 = APPROVAL_DATE_TIME ( #262, #840 ) ;
#1245 = ORIENTED_EDGE ( 'NONE', *, *, #851, .T. ) ;
#1246 = PLANE ( 'NONE',  #902 ) ;
#1247 = EDGE_CURVE ( 'NONE', #312, #731, #1122, .T. ) ;
#1248 = EDGE_LOOP ( 'NONE', ( #96, #815, #967, #73, #208 ) ) ;
#1249 = VECTOR ( 'NONE', #385, 1000.000000000000000 ) ;
#1250 = DIRECTION ( 'NONE',  ( -1.000000000000000000, 0.000000000000000000, 0.000000000000000000 ) ) ;
#1251 = FACE_OUTER_BOUND ( 'NONE', #195, .T. ) ;
#1252 = ADVANCED_FACE ( 'NONE', ( #1115 ), #1219, .F. ) ;
#1253 = ORIENTED_EDGE ( 'NONE', *, *, #1158, .T. ) ;
#1254 = CARTESIAN_POINT ( 'NONE',  ( 15.09774862074722535, -235.0212859225447630, 0.5000000000000004441 ) ) ;
#1255 = DIRECTION ( 'NONE',  ( -1.000000000000000000, 0.000000000000000000, 0.000000000000000000 ) ) ;
#1256 = DIRECTION ( 'NONE',  ( 0.5000000000000014433, -0.8660254037844379305, 0.000000000000000000 ) ) ;
#1257 = SECURITY_CLASSIFICATION_LEVEL ( 'unclassified' ) ;
#1258 = ORIENTED_EDGE ( 'NONE', *, *, #495, .F. ) ;
#1259 = CARTESIAN_POINT ( 'NONE',  ( 21.59774862074720403, 23.47871407745525119, 3.000000000000000000 ) ) ;
#1260 = DIRECTION ( 'NONE',  ( -0.5773502691896571504, -0.5773502691895930905, -0.5773502691896271743 ) ) ;
#1261 = CARTESIAN_POINT ( 'NONE',  ( 11.94089437125481190, 23.47871407745524763, 3.000000000000000000 ) ) ;
#1262 = ORIENTED_EDGE ( 'NONE', *, *, #665, .F. ) ;
#1263 = LINE ( 'NONE', #873, #736 ) ;
#1264 = VECTOR ( 'NONE', #908, 1000.000000000000000 ) ;
#1265 = VECTOR ( 'NONE', #666, 1000.000000000000000 ) ;
#1266 = CARTESIAN_POINT ( 'NONE',  ( 21.84774862074724311, -235.2712859225447630, 0.4999999999999726885 ) ) ;
#1267 = DIRECTION ( 'NONE',  ( -0.6123724356957782611, 0.3535533905932646270, 0.7071067811865662245 ) ) ;
#1268 = VECTOR ( 'NONE', #809, 1000.000000000000000 ) ;
#1269 = ADVANCED_FACE ( 'NONE', ( #742, #1012 ), #843, .F. ) ;
#1270 = VECTOR ( 'NONE', #723, 1000.000000000000000 ) ;
#1271 = VERTEX_POINT ( 'NONE', #136 ) ;
#1272 = PLANE ( 'NONE',  #652 ) ;
ENDSEC;
END-ISO-10303-21;
