ISO-10303-21;
HEADER;
FILE_DESCRIPTION (( 'STEP AP203' ),
    '1' );
FILE_NAME ('PB2_printer_feet_elastomer_spacer_3mm_v1.step',
    '2025-08-19T05:27:00',
    ( '' ),
    ( '' ),
    'SwSTEP 2.0',
    'SolidWorks 2025',
    '' );
FILE_SCHEMA (( 'CONFIG_CONTROL_DESIGN' ));
ENDSEC;

DATA;
#1 = ORIENTED_EDGE ( 'NONE', *, *, #97, .T. ) ;
#2 = PERSON_AND_ORGANIZATION ( #181, #169 ) ;
#3 = VERTEX_POINT ( 'NONE', #383 ) ;
#4 = AXIS2_PLACEMENT_3D ( 'NONE', #164, #265, #362 ) ;
#5 = ADVANCED_FACE ( 'NONE', ( #342, #208 ), #170, .F. ) ;
#6 = CARTESIAN_POINT ( 'NONE',  ( 0.000000000000000000, 0.000000000000000000, 0.000000000000000000 ) ) ;
#7 = EDGE_CURVE ( 'NONE', #33, #339, #215, .T. ) ;
#8 = CARTESIAN_POINT ( 'NONE',  ( 0.000000000000000000, 0.000000000000000000, -2.500000000000003997 ) ) ;
#9 = CC_DESIGN_APPROVAL ( #173, ( #151 ) ) ;
#10 = ADVANCED_FACE ( 'NONE', ( #137 ), #445, .T. ) ;
#11 = DIRECTION ( 'NONE',  ( -0.000000000000000000, -0.000000000000000000, -1.000000000000000000 ) ) ;
#12 = AXIS2_PLACEMENT_3D ( 'NONE', #89, #47, #84 ) ;
#13 = LINE ( 'NONE', #187, #267 ) ;
#14 = DIRECTION ( 'NONE',  ( -0.000000000000000000, -0.000000000000000000, 1.000000000000000000 ) ) ;
#15 = FACE_OUTER_BOUND ( 'NONE', #431, .T. ) ;
#16 = AXIS2_PLACEMENT_3D ( 'NONE', #232, #189, #158 ) ;
#17 = LINE ( 'NONE', #153, #51 ) ;
#18 = EDGE_CURVE ( 'NONE', #191, #33, #251, .T. ) ;
#19 = CARTESIAN_POINT ( 'NONE',  ( -9.999999999999996447, 1.224646799147352862E-15, -0.5000000000000125455 ) ) ;
#20 = DIRECTION ( 'NONE',  ( -1.000000000000000000, 0.000000000000000000, 0.000000000000000000 ) ) ;
#21 = DIRECTION ( 'NONE',  ( 1.000000000000000000, 0.000000000000000000, 0.000000000000000000 ) ) ;
#22 = VECTOR ( 'NONE', #436, 1000.000000000000000 ) ;
#23 = CC_DESIGN_PERSON_AND_ORGANIZATION_ASSIGNMENT ( #98, #140, ( #151 ) ) ;
#24 =( NAMED_UNIT ( * ) PLANE_ANGLE_UNIT ( ) SI_UNIT ( $, .RADIAN. ) );
#25 = CARTESIAN_POINT ( 'NONE',  ( -9.999999999999994671, 0.000000000000000000, 0.000000000000000000 ) ) ;
#26 = CALENDAR_DATE ( 2025, 19, 8 ) ;
#27 = CARTESIAN_POINT ( 'NONE',  ( 0.000000000000000000, 0.000000000000000000, -0.5000000000000069944 ) ) ;
#28 = CONICAL_SURFACE ( 'NONE', #386, 3.199999999999999289, 0.7853981633974473908 ) ;
#29 = CIRCLE ( 'NONE', #260, 3.199999999999999289 ) ;
#30 = DIRECTION ( 'NONE',  ( -1.000000000000000000, 0.000000000000000000, -0.000000000000000000 ) ) ;
#31 = LOCAL_TIME ( 7, 27, 0.000000000000000000, #338 ) ;
#32 = COORDINATED_UNIVERSAL_TIME_OFFSET ( 1, 0, .AHEAD. ) ;
#33 = VERTEX_POINT ( 'NONE', #406 ) ;
#34 = COORDINATED_UNIVERSAL_TIME_OFFSET ( 1, 0, .AHEAD. ) ;
#35 = DIRECTION ( 'NONE',  ( 1.000000000000000000, 0.000000000000000000, 0.000000000000000000 ) ) ;
#36 = APPROVAL_ROLE ( '' ) ;
#37 = CARTESIAN_POINT ( 'NONE',  ( 0.000000000000000000, 0.000000000000000000, -2.999999999999999112 ) ) ;
#38 = AXIS2_PLACEMENT_3D ( 'NONE', #247, #442, #345 ) ;
#39 = CIRCLE ( 'NONE', #447, 3.199999999999999289 ) ;
#40 = EDGE_CURVE ( 'NONE', #393, #139, #176, .T. ) ;
#41 = LINE ( 'NONE', #357, #22 ) ;
#42 = DIRECTION ( 'NONE',  ( -1.000000000000000000, 0.000000000000000000, 0.000000000000000000 ) ) ;
#43 = CYLINDRICAL_SURFACE ( 'NONE', #102, 9.999999999999996447 ) ;
#44 = EDGE_CURVE ( 'NONE', #3, #124, #110, .T. ) ;
#45 = CIRCLE ( 'NONE', #16, 3.699999999999995293 ) ;
#46 = DIRECTION ( 'NONE',  ( -1.000000000000000000, 0.000000000000000000, 0.000000000000000000 ) ) ;
#47 = DIRECTION ( 'NONE',  ( -0.000000000000000000, -0.000000000000000000, 1.000000000000000000 ) ) ;
#48 = ADVANCED_FACE ( 'NONE', ( #374 ), #28, .F. ) ;
#49 = FACE_BOUND ( 'NONE', #56, .T. ) ;
#50 = ORIENTED_EDGE ( 'NONE', *, *, #212, .F. ) ;
#51 = VECTOR ( 'NONE', #268, 1000.000000000000114 ) ;
#52 = AXIS2_PLACEMENT_3D ( 'NONE', #211, #368, #298 ) ;
#53 = FACE_OUTER_BOUND ( 'NONE', #66, .T. ) ;
#54 = EDGE_LOOP ( 'NONE', ( #318, #262, #305, #50 ) ) ;
#55 = PLANE ( 'NONE',  #337 ) ;
#56 = EDGE_LOOP ( 'NONE', ( #361, #376 ) ) ;
#57 = DIRECTION ( 'NONE',  ( -1.000000000000000000, 0.000000000000000000, 0.000000000000000000 ) ) ;
#58 = VERTEX_POINT ( 'NONE', #78 ) ;
#59 = DIRECTION ( 'NONE',  ( 1.000000000000000000, 0.000000000000000000, 0.000000000000000000 ) ) ;
#60 = CONICAL_SURFACE ( 'NONE', #319, 9.499999999999987566, 0.7853981633974447263 ) ;
#61 = EDGE_LOOP ( 'NONE', ( #104, #1, #157, #309 ) ) ;
#62 = PERSON_AND_ORGANIZATION ( #181, #169 ) ;
#63 = CARTESIAN_POINT ( 'NONE',  ( 0.000000000000000000, 0.000000000000000000, -0.5000000000000069944 ) ) ;
#64 = DATE_TIME_ROLE ( 'creation_date' ) ;
#65 = CC_DESIGN_DATE_AND_TIME_ASSIGNMENT ( #283, #314, ( #151 ) ) ;
#66 = EDGE_LOOP ( 'NONE', ( #130, #202, #264, #155 ) ) ;
#67 = AXIS2_PLACEMENT_3D ( 'NONE', #114, #423, #42 ) ;
#68 = ORIENTED_EDGE ( 'NONE', *, *, #44, .F. ) ;
#69 = CARTESIAN_POINT ( 'NONE',  ( 0.000000000000000000, 0.000000000000000000, 0.000000000000000000 ) ) ;
#70 = MANIFOLD_SOLID_BREP ( 'Chanfrein1', #132 ) ;
#71 = VERTEX_POINT ( 'NONE', #182 ) ;
#72 = CC_DESIGN_SECURITY_CLASSIFICATION ( #151, ( #149 ) ) ;
#73 = DIRECTION ( 'NONE',  ( 0.000000000000000000, 0.000000000000000000, -1.000000000000000000 ) ) ;
#74 = PRODUCT_RELATED_PRODUCT_CATEGORY ( 'detail', '', ( #278 ) ) ;
#75 = DIRECTION ( 'NONE',  ( 1.000000000000000000, 0.000000000000000000, 0.000000000000000000 ) ) ;
#76 = VECTOR ( 'NONE', #448, 999.9999999999998863 ) ;
#77 = DIRECTION ( 'NONE',  ( -0.000000000000000000, -0.000000000000000000, 1.000000000000000000 ) ) ;
#78 = CARTESIAN_POINT ( 'NONE',  ( -3.199999999999999289, 3.918869757271529474E-16, -2.500000000000003997 ) ) ;
#79 = CARTESIAN_POINT ( 'NONE',  ( 0.000000000000000000, 0.000000000000000000, 0.000000000000000000 ) ) ;
#80 = CARTESIAN_POINT ( 'NONE',  ( 9.999999999999996447, 0.000000000000000000, 0.000000000000000000 ) ) ;
#81 = ADVANCED_FACE ( 'NONE', ( #349 ), #43, .T. ) ;
#82 = CARTESIAN_POINT ( 'NONE',  ( 3.699999999999995293, 4.531193156845201271E-16, -2.999999999999999112 ) ) ;
#83 = EDGE_LOOP ( 'NONE', ( #274, #92, #336, #162 ) ) ;
#84 = DIRECTION ( 'NONE',  ( 1.000000000000000000, 0.000000000000000000, 0.000000000000000000 ) ) ;
#85 = VERTEX_POINT ( 'NONE', #184 ) ;
#86 = AXIS2_PLACEMENT_3D ( 'NONE', #117, #354, #416 ) ;
#87 = LOCAL_TIME ( 7, 27, 0.000000000000000000, #32 ) ;
#88 = CARTESIAN_POINT ( 'NONE',  ( -9.499999999999994671, 1.194030629168668878E-15, -2.999999999999999112 ) ) ;
#89 = CARTESIAN_POINT ( 'NONE',  ( 0.000000000000000000, 0.000000000000000000, -2.499999999999998668 ) ) ;
#90 = ORIENTED_EDGE ( 'NONE', *, *, #359, .T. ) ;
#91 = SECURITY_CLASSIFICATION_LEVEL ( 'unclassified' ) ;
#92 = ORIENTED_EDGE ( 'NONE', *, *, #311, .T. ) ;
#93 = DESIGN_CONTEXT ( 'detailed design', #177, 'design' ) ;
#94 = APPROVAL_STATUS ( 'not_yet_approved' ) ;
#95 = CIRCLE ( 'NONE', #52, 9.499999999999994671 ) ;
#96 = ORIENTED_EDGE ( 'NONE', *, *, #279, .F. ) ;
#97 = EDGE_CURVE ( 'NONE', #58, #277, #39, .T. ) ;
#98 = PERSON_AND_ORGANIZATION ( #181, #169 ) ;
#99 = ORIENTED_EDGE ( 'NONE', *, *, #40, .F. ) ;
#100 = MECHANICAL_CONTEXT ( 'NONE', #377, 'mechanical' ) ;
#101 = DIRECTION ( 'NONE',  ( -1.000000000000000000, 0.000000000000000000, 0.000000000000000000 ) ) ;
#102 = AXIS2_PLACEMENT_3D ( 'NONE', #219, #220, #291 ) ;
#103 = EDGE_LOOP ( 'NONE', ( #437, #228 ) ) ;
#104 = ORIENTED_EDGE ( 'NONE', *, *, #204, .F. ) ;
#105 = ADVANCED_FACE ( 'NONE', ( #324 ), #142, .F. ) ;
#106 = COORDINATED_UNIVERSAL_TIME_OFFSET ( 1, 0, .AHEAD. ) ;
#107 = EDGE_CURVE ( 'NONE', #124, #3, #217, .T. ) ;
#108 = LINE ( 'NONE', #249, #163 ) ;
#109 = CARTESIAN_POINT ( 'NONE',  ( 0.000000000000000000, 0.000000000000000000, -2.999999999999999112 ) ) ;
#110 = CIRCLE ( 'NONE', #38, 3.700000000000005507 ) ;
#111 = AXIS2_PLACEMENT_3D ( 'NONE', #69, #133, #59 ) ;
#112 = APPROVAL_DATE_TIME ( #350, #173 ) ;
#113 = EDGE_CURVE ( 'NONE', #277, #246, #13, .T. ) ;
#114 = CARTESIAN_POINT ( 'NONE',  ( 0.000000000000000000, 0.000000000000000000, -0.5000000000000125455 ) ) ;
#115 = CC_DESIGN_APPROVAL ( #387, ( #149 ) ) ;
#116 = FACE_OUTER_BOUND ( 'NONE', #410, .T. ) ;
#117 = CARTESIAN_POINT ( 'NONE',  ( 0.000000000000000000, 0.000000000000000000, -2.999999999999999112 ) ) ;
#118 = CIRCLE ( 'NONE', #303, 9.499999999999987566 ) ;
#119 = CARTESIAN_POINT ( 'NONE',  ( 0.000000000000000000, 0.000000000000000000, 0.000000000000000000 ) ) ;
#120 = ORIENTED_EDGE ( 'NONE', *, *, #160, .T. ) ;
#121 = LINE ( 'NONE', #394, #427 ) ;
#122 = ORIENTED_EDGE ( 'NONE', *, *, #444, .T. ) ;
#123 = LINE ( 'NONE', #127, #237 ) ;
#124 = VERTEX_POINT ( 'NONE', #258 ) ;
#125 = CIRCLE ( 'NONE', #312, 9.999999999999996447 ) ;
#126 = ADVANCED_FACE ( 'NONE', ( #116 ), #178, .F. ) ;
#127 = CARTESIAN_POINT ( 'NONE',  ( -9.999999999999996447, 1.224646799147352862E-15, 0.000000000000000000 ) ) ;
#128 = ORIENTED_EDGE ( 'NONE', *, *, #236, .F. ) ;
#129 = CARTESIAN_POINT ( 'NONE',  ( -3.199999999999999289, 3.918869757271529474E-16, -0.5000000000000069944 ) ) ;
#130 = ORIENTED_EDGE ( 'NONE', *, *, #297, .F. ) ;
#131 = CC_DESIGN_PERSON_AND_ORGANIZATION_ASSIGNMENT ( #373, #317, ( #348 ) ) ;
#132 = CLOSED_SHELL ( 'NONE', ( #286, #183, #248, #105, #203, #81, #273, #5, #372, #358, #126, #10, #327, #48 ) ) ;
#133 = DIRECTION ( 'NONE',  ( 0.000000000000000000, 0.000000000000000000, 1.000000000000000000 ) ) ;
#134 = VECTOR ( 'NONE', #346, 999.9999999999998863 ) ;
#135 = ORIENTED_EDGE ( 'NONE', *, *, #107, .F. ) ;
#136 = PERSON_AND_ORGANIZATION_ROLE ( 'design_owner' ) ;
#137 = FACE_OUTER_BOUND ( 'NONE', #243, .T. ) ;
#138 = LINE ( 'NONE', #408, #134 ) ;
#139 = VERTEX_POINT ( 'NONE', #321 ) ;
#140 = PERSON_AND_ORGANIZATION_ROLE ( 'classification_officer' ) ;
#141 = EDGE_CURVE ( 'NONE', #339, #85, #343, .T. ) ;
#142 = CONICAL_SURFACE ( 'NONE', #86, 3.699999999999995293, 0.7853981633974491672 ) ;
#143 = DIRECTION ( 'NONE',  ( 0.000000000000000000, 0.000000000000000000, 1.000000000000000000 ) ) ;
#144 = CARTESIAN_POINT ( 'NONE',  ( 0.000000000000000000, 0.000000000000000000, -0.5000000000000125455 ) ) ;
#145 = CARTESIAN_POINT ( 'NONE',  ( 0.000000000000000000, 0.000000000000000000, -2.500000000000003997 ) ) ;
#146 = EDGE_CURVE ( 'NONE', #85, #339, #125, .T. ) ;
#147 = DIRECTION ( 'NONE',  ( 0.000000000000000000, 0.000000000000000000, -1.000000000000000000 ) ) ;
#148 = AXIS2_PLACEMENT_3D ( 'NONE', #37, #179, #75 ) ;
#149 = PRODUCT_DEFINITION_FORMATION_WITH_SPECIFIED_SOURCE ( 'ANY', '', #278, .NOT_KNOWN. ) ;
#150 = DIRECTION ( 'NONE',  ( 1.000000000000000000, 0.000000000000000000, 0.000000000000000000 ) ) ;
#151 = SECURITY_CLASSIFICATION ( '', '', #91 ) ;
#152 = DIRECTION ( 'NONE',  ( 0.000000000000000000, 0.000000000000000000, -1.000000000000000000 ) ) ;
#153 = CARTESIAN_POINT ( 'NONE',  ( 9.499999999999987566, 1.163414459189984105E-15, 0.000000000000000000 ) ) ;
#154 = EDGE_CURVE ( 'NONE', #167, #246, #419, .T. ) ;
#155 = ORIENTED_EDGE ( 'NONE', *, *, #146, .F. ) ;
#156 = DIRECTION ( 'NONE',  ( 0.000000000000000000, -0.000000000000000000, 1.000000000000000000 ) ) ;
#157 = ORIENTED_EDGE ( 'NONE', *, *, #223, .T. ) ;
#158 = DIRECTION ( 'NONE',  ( 1.000000000000000000, 0.000000000000000000, 0.000000000000000000 ) ) ;
#159 = EDGE_LOOP ( 'NONE', ( #301, #401, #370, #449 ) ) ;
#160 = EDGE_CURVE ( 'NONE', #277, #58, #330, .T. ) ;
#161 = DIRECTION ( 'NONE',  ( 0.000000000000000000, 0.000000000000000000, 1.000000000000000000 ) ) ;
#162 = ORIENTED_EDGE ( 'NONE', *, *, #146, .T. ) ;
#163 = VECTOR ( 'NONE', #385, 1000.000000000000000 ) ;
#164 = CARTESIAN_POINT ( 'NONE',  ( 0.000000000000000000, 0.000000000000000000, -0.5000000000000069944 ) ) ;
#165 = PERSON_AND_ORGANIZATION ( #181, #169 ) ;
#166 = EDGE_CURVE ( 'NONE', #333, #231, #222, .T. ) ;
#167 = VERTEX_POINT ( 'NONE', #288 ) ;
#168 = ORIENTED_EDGE ( 'NONE', *, *, #44, .T. ) ;
#169 = ORGANIZATION ( 'UNSPECIFIED', 'UNSPECIFIED', '' ) ;
#170 = PLANE ( 'NONE',  #259 ) ;
#171 =( LENGTH_UNIT ( ) NAMED_UNIT ( * ) SI_UNIT ( .MILLI., .METRE. ) );
#172 = ORIENTED_EDGE ( 'NONE', *, *, #359, .F. ) ;
#173 = APPROVAL ( #421, 'UNSPECIFIED' ) ;
#174 = PERSON_AND_ORGANIZATION ( #181, #169 ) ;
#175 = DIRECTION ( 'NONE',  ( -0.000000000000000000, -0.000000000000000000, 1.000000000000000000 ) ) ;
#176 = CIRCLE ( 'NONE', #310, 3.199999999999999289 ) ;
#177 = APPLICATION_CONTEXT ( 'configuration controlled 3d designs of mechanical parts and assemblies' ) ;
#178 = CONICAL_SURFACE ( 'NONE', #200, 3.699999999999995293, 0.7853981633974491672 ) ;
#179 = DIRECTION ( 'NONE',  ( -0.000000000000000000, -0.000000000000000000, 1.000000000000000000 ) ) ;
#180 = PERSON_AND_ORGANIZATION ( #181, #169 ) ;
#181 = PERSON ( 'UNSPECIFIED', 'UNSPECIFIED', 'UNSPECIFIED', ('UNSPECIFIED'), ('UNSPECIFIED'), ('UNSPECIFIED') ) ;
#182 = CARTESIAN_POINT ( 'NONE',  ( -9.999999999999996447, 1.224646799147352862E-15, -2.499999999999998668 ) ) ;
#183 = ADVANCED_FACE ( 'NONE', ( #292 ), #186, .T. ) ;
#184 = CARTESIAN_POINT ( 'NONE',  ( 9.999999999999996447, 0.000000000000000000, -0.5000000000000125455 ) ) ;
#185 = DIRECTION ( 'NONE',  ( -0.000000000000000000, -0.000000000000000000, -1.000000000000000000 ) ) ;
#186 = CONICAL_SURFACE ( 'NONE', #244, 9.499999999999987566, 0.7853981633974447263 ) ;
#187 = CARTESIAN_POINT ( 'NONE',  ( 3.699999999999995293, 4.531193156845201271E-16, -2.999999999999999112 ) ) ;
#188 = CC_DESIGN_PERSON_AND_ORGANIZATION_ASSIGNMENT ( #174, #306, ( #149 ) ) ;
#189 = DIRECTION ( 'NONE',  ( -0.000000000000000000, -0.000000000000000000, 1.000000000000000000 ) ) ;
#190 = CARTESIAN_POINT ( 'NONE',  ( -9.999999999999998224, 0.000000000000000000, -2.999999999999999112 ) ) ;
#191 = VERTEX_POINT ( 'NONE', #388 ) ;
#192 = AXIS2_PLACEMENT_3D ( 'NONE', #214, #347, #35 ) ;
#193 = AXIS2_PLACEMENT_3D ( 'NONE', #145, #320, #422 ) ;
#194 = DIRECTION ( 'NONE',  ( -1.000000000000000000, 0.000000000000000000, 0.000000000000000000 ) ) ;
#195 = ORIENTED_EDGE ( 'NONE', *, *, #311, .F. ) ;
#196 = DIRECTION ( 'NONE',  ( -0.000000000000000000, -0.000000000000000000, 1.000000000000000000 ) ) ;
#197 = ORIENTED_EDGE ( 'NONE', *, *, #425, .F. ) ;
#198 = CARTESIAN_POINT ( 'NONE',  ( 0.000000000000000000, 0.000000000000000000, 0.000000000000000000 ) ) ;
#199 = ORIENTED_EDGE ( 'NONE', *, *, #326, .F. ) ;
#200 = AXIS2_PLACEMENT_3D ( 'NONE', #109, #11, #253 ) ;
#201 = PERSON_AND_ORGANIZATION ( #181, #169 ) ;
#202 = ORIENTED_EDGE ( 'NONE', *, *, #334, .F. ) ;
#203 = ADVANCED_FACE ( 'NONE', ( #221 ), #390, .F. ) ;
#204 = EDGE_CURVE ( 'NONE', #58, #393, #218, .T. ) ;
#205 = CARTESIAN_POINT ( 'NONE',  ( -3.199999999999999289, 3.918869757271529474E-16, -0.5000000000000069944 ) ) ;
#206 = DIRECTION ( 'NONE',  ( 0.000000000000000000, 0.000000000000000000, 1.000000000000000000 ) ) ;
#207 = CALENDAR_DATE ( 2025, 19, 8 ) ;
#208 = FACE_BOUND ( 'NONE', #235, .T. ) ;
#209 = AXIS2_PLACEMENT_3D ( 'NONE', #198, #335, #21 ) ;
#210 = APPROVAL_STATUS ( 'not_yet_approved' ) ;
#211 = CARTESIAN_POINT ( 'NONE',  ( 0.000000000000000000, 0.000000000000000000, -2.999999999999999112 ) ) ;
#212 = EDGE_CURVE ( 'NONE', #366, #85, #424, .T. ) ;
#213 = APPLICATION_PROTOCOL_DEFINITION ( 'international standard', 'config_control_design', 1994, #377 ) ;
#214 = CARTESIAN_POINT ( 'NONE',  ( 0.000000000000000000, 0.000000000000000000, -2.499999999999998668 ) ) ;
#215 = LINE ( 'NONE', #413, #435 ) ;
#216 = CC_DESIGN_PERSON_AND_ORGANIZATION_ASSIGNMENT ( #201, #136, ( #278 ) ) ;
#217 = CIRCLE ( 'NONE', #295, 3.700000000000005507 ) ;
#218 = LINE ( 'NONE', #325, #323 ) ;
#219 = CARTESIAN_POINT ( 'NONE',  ( 0.000000000000000000, 0.000000000000000000, 0.000000000000000000 ) ) ;
#220 = DIRECTION ( 'NONE',  ( -0.000000000000000000, -0.000000000000000000, 1.000000000000000000 ) ) ;
#221 = FACE_OUTER_BOUND ( 'NONE', #409, .T. ) ;
#222 = CIRCLE ( 'NONE', #380, 9.499999999999994671 ) ;
#223 = EDGE_CURVE ( 'NONE', #277, #139, #108, .T. ) ;
#224 = DIRECTION ( 'NONE',  ( -0.000000000000000000, -0.000000000000000000, 1.000000000000000000 ) ) ;
#225 = DIRECTION ( 'NONE',  ( -0.7071067811865482389, 0.000000000000000000, -0.7071067811865469066 ) ) ;
#226 = CC_DESIGN_DATE_AND_TIME_ASSIGNMENT ( #276, #64, ( #348 ) ) ;
#227 = DIRECTION ( 'NONE',  ( 1.000000000000000000, 0.000000000000000000, 0.000000000000000000 ) ) ;
#228 = ORIENTED_EDGE ( 'NONE', *, *, #166, .T. ) ;
#229 = CIRCLE ( 'NONE', #397, 9.999999999999996447 ) ;
#230 = CARTESIAN_POINT ( 'NONE',  ( -3.699999999999995293, 0.000000000000000000, -2.999999999999999112 ) ) ;
#231 = VERTEX_POINT ( 'NONE', #351 ) ;
#232 = CARTESIAN_POINT ( 'NONE',  ( 0.000000000000000000, 0.000000000000000000, -2.999999999999999112 ) ) ;
#233 = LOCAL_TIME ( 7, 27, 0.000000000000000000, #106 ) ;
#234 = ORIENTED_EDGE ( 'NONE', *, *, #257, .F. ) ;
#235 = EDGE_LOOP ( 'NONE', ( #168, #395 ) ) ;
#236 = EDGE_CURVE ( 'NONE', #231, #366, #41, .T. ) ;
#237 = VECTOR ( 'NONE', #196, 1000.000000000000000 ) ;
#238 = DATE_AND_TIME ( #207, #31 ) ;
#239 = ORIENTED_EDGE ( 'NONE', *, *, #166, .F. ) ;
#240 = COORDINATED_UNIVERSAL_TIME_OFFSET ( 1, 0, .AHEAD. ) ;
#241 = ORIENTED_EDGE ( 'NONE', *, *, #334, .T. ) ;
#242 = DIRECTION ( 'NONE',  ( 1.000000000000000000, 0.000000000000000000, 0.000000000000000000 ) ) ;
#243 = EDGE_LOOP ( 'NONE', ( #172, #96, #429, #195 ) ) ;
#244 = AXIS2_PLACEMENT_3D ( 'NONE', #6, #389, #255 ) ;
#245 = DATE_AND_TIME ( #26, #426 ) ;
#246 = VERTEX_POINT ( 'NONE', #82 ) ;
#247 = CARTESIAN_POINT ( 'NONE',  ( 0.000000000000000000, 0.000000000000000000, 0.000000000000000000 ) ) ;
#248 = ADVANCED_FACE ( 'NONE', ( #15 ), #371, .T. ) ;
#249 = CARTESIAN_POINT ( 'NONE',  ( 3.199999999999999289, 0.000000000000000000, 0.000000000000000000 ) ) ;
#250 = APPROVAL_PERSON_ORGANIZATION ( #165, #387, #411 ) ;
#251 = CIRCLE ( 'NONE', #405, 9.499999999999987566 ) ;
#252 = AXIS2_PLACEMENT_3D ( 'NONE', #329, #365, #227 ) ;
#253 = DIRECTION ( 'NONE',  ( -1.000000000000000000, 0.000000000000000000, 0.000000000000000000 ) ) ;
#254 = CARTESIAN_POINT ( 'NONE',  ( 0.000000000000000000, 0.000000000000000000, -2.999999999999999112 ) ) ;
#255 = DIRECTION ( 'NONE',  ( -1.000000000000000000, 0.000000000000000000, 0.000000000000000000 ) ) ;
#256 = APPROVAL ( #210, 'UNSPECIFIED' ) ;
#257 = EDGE_CURVE ( 'NONE', #246, #167, #45, .T. ) ;
#258 = CARTESIAN_POINT ( 'NONE',  ( -3.700000000000005507, 4.531193156845213103E-16, 0.000000000000000000 ) ) ;
#259 = AXIS2_PLACEMENT_3D ( 'NONE', #25, #73, #30 ) ;
#260 = AXIS2_PLACEMENT_3D ( 'NONE', #263, #161, #20 ) ;
#261 = DIRECTION ( 'NONE',  ( -0.000000000000000000, -0.000000000000000000, 1.000000000000000000 ) ) ;
#262 = ORIENTED_EDGE ( 'NONE', *, *, #367, .T. ) ;
#263 = CARTESIAN_POINT ( 'NONE',  ( 0.000000000000000000, 0.000000000000000000, -0.5000000000000069944 ) ) ;
#264 = ORIENTED_EDGE ( 'NONE', *, *, #7, .T. ) ;
#265 = DIRECTION ( 'NONE',  ( 0.000000000000000000, 0.000000000000000000, 1.000000000000000000 ) ) ;
#266 = ORIENTED_EDGE ( 'NONE', *, *, #204, .T. ) ;
#267 = VECTOR ( 'NONE', #322, 999.9999999999998863 ) ;
#268 = DIRECTION ( 'NONE',  ( 0.7071067811865451302, 8.659560562354904508E-17, -0.7071067811865500152 ) ) ;
#269 = ORIENTED_EDGE ( 'NONE', *, *, #18, .F. ) ;
#270 = CARTESIAN_POINT ( 'NONE',  ( 0.000000000000000000, 0.000000000000000000, -2.499999999999998668 ) ) ;
#271 = APPROVAL_PERSON_ORGANIZATION ( #180, #173, #36 ) ;
#272 = ORIENTED_EDGE ( 'NONE', *, *, #141, .F. ) ;
#273 = ADVANCED_FACE ( 'NONE', ( #396 ), #302, .T. ) ;
#274 = ORIENTED_EDGE ( 'NONE', *, *, #367, .F. ) ;
#275 = AXIS2_PLACEMENT_3D ( 'NONE', #270, #402, #242 ) ;
#276 = DATE_AND_TIME ( #308, #87 ) ;
#277 = VERTEX_POINT ( 'NONE', #328 ) ;
#278 = PRODUCT ( 'PB2_printer_feet_elastomer_spacer_3mm_v1', 'PB2_printer_feet_elastomer_spacer_3mm_v1', '', ( #100 ) ) ;
#279 = EDGE_CURVE ( 'NONE', #231, #333, #95, .T. ) ;
#280 = CARTESIAN_POINT ( 'NONE',  ( 0.000000000000000000, 0.000000000000000000, 0.000000000000000000 ) ) ;
#281 = APPROVAL_ROLE ( '' ) ;
#282 = ORIENTED_EDGE ( 'NONE', *, *, #7, .F. ) ;
#283 = DATE_AND_TIME ( #341, #384 ) ;
#284 = EDGE_LOOP ( 'NONE', ( #241, #299 ) ) ;
#285 = DIRECTION ( 'NONE',  ( -0.000000000000000000, -0.000000000000000000, 1.000000000000000000 ) ) ;
#286 = ADVANCED_FACE ( 'NONE', ( #294 ), #289, .F. ) ;
#287 = CALENDAR_DATE ( 2025, 19, 8 ) ;
#288 = CARTESIAN_POINT ( 'NONE',  ( -3.699999999999995293, 0.000000000000000000, -2.999999999999999112 ) ) ;
#289 = CONICAL_SURFACE ( 'NONE', #4, 3.199999999999999289, 0.7853981633974473908 ) ;
#290 = DIRECTION ( 'NONE',  ( -1.000000000000000000, 0.000000000000000000, 0.000000000000000000 ) ) ;
#291 = DIRECTION ( 'NONE',  ( 1.000000000000000000, 0.000000000000000000, 0.000000000000000000 ) ) ;
#292 = FACE_OUTER_BOUND ( 'NONE', #364, .T. ) ;
#293 = PRODUCT_DEFINITION_SHAPE ( 'NONE', 'NONE',  #348 ) ;
#294 = FACE_OUTER_BOUND ( 'NONE', #369, .T. ) ;
#295 = AXIS2_PLACEMENT_3D ( 'NONE', #418, #147, #46 ) ;
#296 = ORIENTED_EDGE ( 'NONE', *, *, #412, .F. ) ;
#297 = EDGE_CURVE ( 'NONE', #191, #85, #17, .T. ) ;
#298 = DIRECTION ( 'NONE',  ( 1.000000000000000000, 0.000000000000000000, 0.000000000000000000 ) ) ;
#299 = ORIENTED_EDGE ( 'NONE', *, *, #18, .T. ) ;
#300 = LINE ( 'NONE', #230, #363 ) ;
#301 = ORIENTED_EDGE ( 'NONE', *, *, #160, .F. ) ;
#302 = CYLINDRICAL_SURFACE ( 'NONE', #252, 9.999999999999996447 ) ;
#303 = AXIS2_PLACEMENT_3D ( 'NONE', #331, #261, #57 ) ;
#304 = FACE_OUTER_BOUND ( 'NONE', #103, .T. ) ;
#305 = ORIENTED_EDGE ( 'NONE', *, *, #141, .T. ) ;
#306 = PERSON_AND_ORGANIZATION_ROLE ( 'creator' ) ;
#307 = DIRECTION ( 'NONE',  ( -1.000000000000000000, 0.000000000000000000, 0.000000000000000000 ) ) ;
#308 = CALENDAR_DATE ( 2025, 19, 8 ) ;
#309 = ORIENTED_EDGE ( 'NONE', *, *, #326, .T. ) ;
#310 = AXIS2_PLACEMENT_3D ( 'NONE', #27, #143, #101 ) ;
#311 = EDGE_CURVE ( 'NONE', #71, #366, #229, .T. ) ;
#312 = AXIS2_PLACEMENT_3D ( 'NONE', #144, #152, #290 ) ;
#313 = AXIS2_PLACEMENT_3D ( 'NONE', #79, #77, #355 ) ;
#314 = DATE_TIME_ROLE ( 'classification_date' ) ;
#315 = DIRECTION ( 'NONE',  ( -0.7071067811865451302, 0.000000000000000000, -0.7071067811865500152 ) ) ;
#316 = ORIENTED_EDGE ( 'NONE', *, *, #97, .F. ) ;
#317 = PERSON_AND_ORGANIZATION_ROLE ( 'creator' ) ;
#318 = ORIENTED_EDGE ( 'NONE', *, *, #412, .T. ) ;
#319 = AXIS2_PLACEMENT_3D ( 'NONE', #119, #360, #194 ) ;
#320 = DIRECTION ( 'NONE',  ( -0.000000000000000000, -0.000000000000000000, -1.000000000000000000 ) ) ;
#321 = CARTESIAN_POINT ( 'NONE',  ( 3.199999999999999289, 0.000000000000000000, -0.5000000000000069944 ) ) ;
#322 = DIRECTION ( 'NONE',  ( 0.7071067811865482389, 8.659560562354941486E-17, -0.7071067811865469066 ) ) ;
#323 = VECTOR ( 'NONE', #14, 1000.000000000000000 ) ;
#324 = FACE_OUTER_BOUND ( 'NONE', #159, .T. ) ;
#325 = CARTESIAN_POINT ( 'NONE',  ( -3.199999999999999289, 3.918869757271529474E-16, 0.000000000000000000 ) ) ;
#326 = EDGE_CURVE ( 'NONE', #139, #393, #29, .T. ) ;
#327 = ADVANCED_FACE ( 'NONE', ( #53 ), #60, .T. ) ;
#328 = CARTESIAN_POINT ( 'NONE',  ( 3.199999999999999289, 0.000000000000000000, -2.500000000000003997 ) ) ;
#329 = CARTESIAN_POINT ( 'NONE',  ( 0.000000000000000000, 0.000000000000000000, 0.000000000000000000 ) ) ;
#330 = CIRCLE ( 'NONE', #193, 3.199999999999999289 ) ;
#331 = CARTESIAN_POINT ( 'NONE',  ( 0.000000000000000000, 0.000000000000000000, 0.000000000000000000 ) ) ;
#332 = FACE_OUTER_BOUND ( 'NONE', #61, .T. ) ;
#333 = VERTEX_POINT ( 'NONE', #88 ) ;
#334 = EDGE_CURVE ( 'NONE', #33, #191, #118, .T. ) ;
#335 = DIRECTION ( 'NONE',  ( -0.000000000000000000, -0.000000000000000000, 1.000000000000000000 ) ) ;
#336 = ORIENTED_EDGE ( 'NONE', *, *, #212, .T. ) ;
#337 = AXIS2_PLACEMENT_3D ( 'NONE', #190, #156, #430 ) ;
#338 = COORDINATED_UNIVERSAL_TIME_OFFSET ( 1, 0, .AHEAD. ) ;
#339 = VERTEX_POINT ( 'NONE', #19 ) ;
#340 = DIRECTION ( 'NONE',  ( 1.000000000000000000, 0.000000000000000000, 0.000000000000000000 ) ) ;
#341 = CALENDAR_DATE ( 2025, 19, 8 ) ;
#342 = FACE_OUTER_BOUND ( 'NONE', #284, .T. ) ;
#343 = CIRCLE ( 'NONE', #67, 9.999999999999996447 ) ;
#344 =( GEOMETRIC_REPRESENTATION_CONTEXT ( 3 ) GLOBAL_UNCERTAINTY_ASSIGNED_CONTEXT ( ( #440 ) ) GLOBAL_UNIT_ASSIGNED_CONTEXT ( ( #171, #24, #378 ) ) REPRESENTATION_CONTEXT ( 'NONE', 'WORKASPACE' ) );
#345 = DIRECTION ( 'NONE',  ( -1.000000000000000000, 0.000000000000000000, 0.000000000000000000 ) ) ;
#346 = DIRECTION ( 'NONE',  ( 0.7071067811865469066, 0.000000000000000000, 0.7071067811865482389 ) ) ;
#347 = DIRECTION ( 'NONE',  ( -0.000000000000000000, -0.000000000000000000, 1.000000000000000000 ) ) ;
#348 = PRODUCT_DEFINITION ( 'UNKNOWN', '', #149, #93 ) ;
#349 = FACE_OUTER_BOUND ( 'NONE', #54, .T. ) ;
#350 = DATE_AND_TIME ( #287, #233 ) ;
#351 = CARTESIAN_POINT ( 'NONE',  ( 9.499999999999994671, 0.000000000000000000, -2.999999999999999112 ) ) ;
#352 = DIRECTION ( 'NONE',  ( 1.000000000000000000, 0.000000000000000000, 0.000000000000000000 ) ) ;
#353 = SHAPE_DEFINITION_REPRESENTATION ( #293, #432 ) ;
#354 = DIRECTION ( 'NONE',  ( -0.000000000000000000, -0.000000000000000000, -1.000000000000000000 ) ) ;
#355 = DIRECTION ( 'NONE',  ( 1.000000000000000000, 0.000000000000000000, 0.000000000000000000 ) ) ;
#356 = EDGE_CURVE ( 'NONE', #58, #167, #300, .T. ) ;
#357 = CARTESIAN_POINT ( 'NONE',  ( 9.999999999999996447, 0.000000000000000000, -2.499999999999998668 ) ) ;
#358 = ADVANCED_FACE ( 'NONE', ( #49, #304 ), #55, .F. ) ;
#359 = EDGE_CURVE ( 'NONE', #333, #71, #121, .T. ) ;
#360 = DIRECTION ( 'NONE',  ( 0.000000000000000000, 0.000000000000000000, -1.000000000000000000 ) ) ;
#361 = ORIENTED_EDGE ( 'NONE', *, *, #154, .T. ) ;
#362 = DIRECTION ( 'NONE',  ( 1.000000000000000000, 0.000000000000000000, 0.000000000000000000 ) ) ;
#363 = VECTOR ( 'NONE', #225, 999.9999999999998863 ) ;
#364 = EDGE_LOOP ( 'NONE', ( #269, #439, #272, #282 ) ) ;
#365 = DIRECTION ( 'NONE',  ( -0.000000000000000000, -0.000000000000000000, 1.000000000000000000 ) ) ;
#366 = VERTEX_POINT ( 'NONE', #433 ) ;
#367 = EDGE_CURVE ( 'NONE', #71, #339, #123, .T. ) ;
#368 = DIRECTION ( 'NONE',  ( 0.000000000000000000, 0.000000000000000000, -1.000000000000000000 ) ) ;
#369 = EDGE_LOOP ( 'NONE', ( #99, #403, #68, #446 ) ) ;
#370 = ORIENTED_EDGE ( 'NONE', *, *, #154, .F. ) ;
#371 = CONICAL_SURFACE ( 'NONE', #12, 9.999999999999996447, 0.7853981633974500554 ) ;
#372 = ADVANCED_FACE ( 'NONE', ( #332 ), #400, .F. ) ;
#373 = PERSON_AND_ORGANIZATION ( #181, #169 ) ;
#374 = FACE_OUTER_BOUND ( 'NONE', #382, .T. ) ;
#375 = LINE ( 'NONE', #205, #76 ) ;
#376 = ORIENTED_EDGE ( 'NONE', *, *, #257, .T. ) ;
#377 = APPLICATION_CONTEXT ( 'configuration controlled 3d designs of mechanical parts and assemblies' ) ;
#378 =( NAMED_UNIT ( * ) SI_UNIT ( $, .STERADIAN. ) SOLID_ANGLE_UNIT ( ) );
#379 = ORIENTED_EDGE ( 'NONE', *, *, #223, .F. ) ;
#380 = AXIS2_PLACEMENT_3D ( 'NONE', #254, #391, #150 ) ;
#381 = APPROVAL_DATE_TIME ( #245, #387 ) ;
#382 = EDGE_LOOP ( 'NONE', ( #197, #199, #122, #135 ) ) ;
#383 = CARTESIAN_POINT ( 'NONE',  ( 3.700000000000005507, 0.000000000000000000, 0.000000000000000000 ) ) ;
#384 = LOCAL_TIME ( 7, 27, 0.000000000000000000, #240 ) ;
#385 = DIRECTION ( 'NONE',  ( -0.000000000000000000, -0.000000000000000000, 1.000000000000000000 ) ) ;
#386 = AXIS2_PLACEMENT_3D ( 'NONE', #63, #206, #340 ) ;
#387 = APPROVAL ( #94, 'UNSPECIFIED' ) ;
#388 = CARTESIAN_POINT ( 'NONE',  ( 9.499999999999987566, 1.194030629168668483E-15, 0.000000000000000000 ) ) ;
#389 = DIRECTION ( 'NONE',  ( 0.000000000000000000, 0.000000000000000000, -1.000000000000000000 ) ) ;
#390 = CYLINDRICAL_SURFACE ( 'NONE', #313, 3.199999999999999289 ) ;
#391 = DIRECTION ( 'NONE',  ( 0.000000000000000000, 0.000000000000000000, -1.000000000000000000 ) ) ;
#392 = DIRECTION ( 'NONE',  ( 1.000000000000000000, 0.000000000000000000, 0.000000000000000000 ) ) ;
#393 = VERTEX_POINT ( 'NONE', #129 ) ;
#394 = CARTESIAN_POINT ( 'NONE',  ( -9.999999999999996447, 1.224646799147352862E-15, -2.499999999999998668 ) ) ;
#395 = ORIENTED_EDGE ( 'NONE', *, *, #107, .T. ) ;
#396 = FACE_OUTER_BOUND ( 'NONE', #83, .T. ) ;
#397 = AXIS2_PLACEMENT_3D ( 'NONE', #428, #224, #392 ) ;
#398 = CC_DESIGN_APPROVAL ( #256, ( #348 ) ) ;
#399 = ORIENTED_EDGE ( 'NONE', *, *, #40, .T. ) ;
#400 = CYLINDRICAL_SURFACE ( 'NONE', #209, 3.199999999999999289 ) ;
#401 = ORIENTED_EDGE ( 'NONE', *, *, #113, .T. ) ;
#402 = DIRECTION ( 'NONE',  ( -0.000000000000000000, -0.000000000000000000, 1.000000000000000000 ) ) ;
#403 = ORIENTED_EDGE ( 'NONE', *, *, #425, .T. ) ;
#404 = APPLICATION_PROTOCOL_DEFINITION ( 'international standard', 'config_control_design', 1994, #177 ) ;
#405 = AXIS2_PLACEMENT_3D ( 'NONE', #280, #175, #307 ) ;
#406 = CARTESIAN_POINT ( 'NONE',  ( -9.499999999999987566, 0.000000000000000000, 0.000000000000000000 ) ) ;
#407 = CIRCLE ( 'NONE', #275, 9.999999999999996447 ) ;
#408 = CARTESIAN_POINT ( 'NONE',  ( 3.199999999999999289, 0.000000000000000000, -0.5000000000000069944 ) ) ;
#409 = EDGE_LOOP ( 'NONE', ( #120, #266, #399, #379 ) ) ;
#410 = EDGE_LOOP ( 'NONE', ( #415, #316, #434, #234 ) ) ;
#411 = APPROVAL_ROLE ( '' ) ;
#412 = EDGE_CURVE ( 'NONE', #366, #71, #407, .T. ) ;
#413 = CARTESIAN_POINT ( 'NONE',  ( -9.499999999999987566, 0.000000000000000000, 0.000000000000000000 ) ) ;
#414 = VECTOR ( 'NONE', #285, 1000.000000000000000 ) ;
#415 = ORIENTED_EDGE ( 'NONE', *, *, #113, .F. ) ;
#416 = DIRECTION ( 'NONE',  ( -1.000000000000000000, 0.000000000000000000, 0.000000000000000000 ) ) ;
#417 = CC_DESIGN_PERSON_AND_ORGANIZATION_ASSIGNMENT ( #2, #441, ( #149 ) ) ;
#418 = CARTESIAN_POINT ( 'NONE',  ( 0.000000000000000000, 0.000000000000000000, 0.000000000000000000 ) ) ;
#419 = CIRCLE ( 'NONE', #148, 3.699999999999995293 ) ;
#420 = APPROVAL_PERSON_ORGANIZATION ( #62, #256, #281 ) ;
#421 = APPROVAL_STATUS ( 'not_yet_approved' ) ;
#422 = DIRECTION ( 'NONE',  ( 1.000000000000000000, 0.000000000000000000, 0.000000000000000000 ) ) ;
#423 = DIRECTION ( 'NONE',  ( 0.000000000000000000, 0.000000000000000000, -1.000000000000000000 ) ) ;
#424 = LINE ( 'NONE', #80, #414 ) ;
#425 = EDGE_CURVE ( 'NONE', #393, #124, #375, .T. ) ;
#426 = LOCAL_TIME ( 7, 27, 0.000000000000000000, #34 ) ;
#427 = VECTOR ( 'NONE', #438, 1000.000000000000000 ) ;
#428 = CARTESIAN_POINT ( 'NONE',  ( 0.000000000000000000, 0.000000000000000000, -2.499999999999998668 ) ) ;
#429 = ORIENTED_EDGE ( 'NONE', *, *, #236, .T. ) ;
#430 = DIRECTION ( 'NONE',  ( 1.000000000000000000, 0.000000000000000000, 0.000000000000000000 ) ) ;
#431 = EDGE_LOOP ( 'NONE', ( #239, #90, #296, #128 ) ) ;
#432 = ADVANCED_BREP_SHAPE_REPRESENTATION ( 'PB2_printer_feet_elastomer_spacer_3mm_v1', ( #70, #111 ), #344 ) ;
#433 = CARTESIAN_POINT ( 'NONE',  ( 9.999999999999996447, 0.000000000000000000, -2.499999999999998668 ) ) ;
#434 = ORIENTED_EDGE ( 'NONE', *, *, #356, .T. ) ;
#435 = VECTOR ( 'NONE', #315, 1000.000000000000114 ) ;
#436 = DIRECTION ( 'NONE',  ( 0.7071067811865487940, 0.000000000000000000, 0.7071067811865463515 ) ) ;
#437 = ORIENTED_EDGE ( 'NONE', *, *, #279, .T. ) ;
#438 = DIRECTION ( 'NONE',  ( -0.7071067811865487940, 8.659560562354948882E-17, 0.7071067811865463515 ) ) ;
#439 = ORIENTED_EDGE ( 'NONE', *, *, #297, .T. ) ;
#440 = UNCERTAINTY_MEASURE_WITH_UNIT (LENGTH_MEASURE( 1.000000000000000082E-05 ), #171, 'distance_accuracy_value', 'NONE');
#441 = PERSON_AND_ORGANIZATION_ROLE ( 'design_supplier' ) ;
#442 = DIRECTION ( 'NONE',  ( 0.000000000000000000, 0.000000000000000000, -1.000000000000000000 ) ) ;
#443 = APPROVAL_DATE_TIME ( #238, #256 ) ;
#444 = EDGE_CURVE ( 'NONE', #139, #3, #138, .T. ) ;
#445 = CONICAL_SURFACE ( 'NONE', #192, 9.999999999999996447, 0.7853981633974500554 ) ;
#446 = ORIENTED_EDGE ( 'NONE', *, *, #444, .F. ) ;
#447 = AXIS2_PLACEMENT_3D ( 'NONE', #8, #185, #352 ) ;
#448 = DIRECTION ( 'NONE',  ( -0.7071067811865469066, 8.659560562354926695E-17, 0.7071067811865482389 ) ) ;
#449 = ORIENTED_EDGE ( 'NONE', *, *, #356, .F. ) ;
ENDSEC;
END-ISO-10303-21;
